G04 #@! TF.FileFunction,Copper,L2,Bot,Signal*
%FSLAX46Y46*%
G04 Gerber Fmt 4.6, Leading zero omitted, Abs format (unit mm)*
G04 Created by KiCad (PCBNEW 0.201502161433+5424~21~ubuntu14.04.1-product) date Mon 16 Feb 2015 01:02:52 PM PST*
%MOMM*%
G01*
G04 APERTURE LIST*
%ADD10C,0.100000*%
%ADD11C,1.399540*%
%ADD12R,2.032000X2.032000*%
%ADD13O,2.032000X2.032000*%
%ADD14C,1.450000*%
%ADD15C,0.889000*%
%ADD16C,1.145540*%
%ADD17O,1.270000X0.635000*%
%ADD18C,0.609600*%
%ADD19C,0.635000*%
%ADD20C,0.177800*%
%ADD21C,0.304800*%
%ADD22C,0.182880*%
G04 APERTURE END LIST*
D10*
D11*
X90868500Y-118364000D03*
D12*
X81407000Y-100965000D03*
D13*
X83947000Y-100965000D03*
D12*
X81407000Y-103505000D03*
D13*
X83947000Y-103505000D03*
D14*
X87630000Y-124460000D03*
X87630000Y-121920000D03*
X87630000Y-119380000D03*
X87630000Y-116840000D03*
X87630000Y-114300000D03*
X87630000Y-111760000D03*
X87630000Y-109220000D03*
X87630000Y-106680000D03*
X87630000Y-104140000D03*
X87630000Y-101600000D03*
D15*
X67310000Y-101600000D03*
X67310000Y-100330000D03*
X68580000Y-101600000D03*
X68580000Y-100330000D03*
X69850000Y-101600000D03*
X69850000Y-100330000D03*
X71120000Y-101600000D03*
X71120000Y-100330000D03*
X72390000Y-101600000D03*
X72390000Y-100330000D03*
D16*
X90741500Y-102870000D03*
D11*
X90868500Y-107823000D03*
D16*
X90741500Y-113030000D03*
X90741500Y-123190000D03*
D14*
X61087000Y-122936000D03*
X63627000Y-122936000D03*
X66167000Y-122936000D03*
X68707000Y-122936000D03*
X71247000Y-122936000D03*
X73787000Y-122936000D03*
X76327000Y-122936000D03*
X78867000Y-122936000D03*
X81407000Y-122936000D03*
X83947000Y-122936000D03*
X61087000Y-125476000D03*
X63627000Y-125476000D03*
X66167000Y-125476000D03*
X68707000Y-125476000D03*
X71247000Y-125476000D03*
X73787000Y-125476000D03*
X76327000Y-125476000D03*
X78867000Y-125476000D03*
X81407000Y-125476000D03*
X83947000Y-125476000D03*
D17*
X90170000Y-108712000D03*
X90170000Y-109601000D03*
X90170000Y-110490000D03*
X90170000Y-111379000D03*
X90170000Y-112268000D03*
X92710000Y-113792000D03*
X92710000Y-114681000D03*
X92710000Y-115570000D03*
X92710000Y-116459000D03*
X92710000Y-117348000D03*
X92710000Y-103632000D03*
X92710000Y-104521000D03*
X92710000Y-105410000D03*
X92710000Y-106299000D03*
X92710000Y-107188000D03*
X90170000Y-118872000D03*
X90170000Y-119761000D03*
X90170000Y-120650000D03*
X90170000Y-121539000D03*
X90170000Y-122428000D03*
X92710000Y-124841000D03*
X92710000Y-123952000D03*
X90170000Y-101219000D03*
X90170000Y-102108000D03*
D18*
X89025409Y-122050183D03*
X66802000Y-118618000D03*
X65519040Y-118203708D03*
X66557157Y-117084843D03*
X68961000Y-119010418D03*
X70586630Y-119126000D03*
X63754000Y-109753400D03*
X77749400Y-118694200D03*
X74599800Y-119202200D03*
X73253600Y-109397800D03*
X77419200Y-105130600D03*
X76584122Y-111248623D03*
X71628000Y-103886000D03*
X72771000Y-103886000D03*
X71628000Y-114808000D03*
X68072000Y-114808000D03*
X71755000Y-111125000D03*
X68072000Y-111125000D03*
X69850000Y-113030000D03*
X66675000Y-104902000D03*
X63754000Y-118872000D03*
X63119000Y-115062000D03*
X80772000Y-105029000D03*
X63119000Y-120015000D03*
X62103000Y-121158000D03*
X63119000Y-108585000D03*
X63119000Y-107188000D03*
X63119000Y-105791000D03*
X63119000Y-104394000D03*
X63119000Y-102870000D03*
X63119000Y-101473000D03*
X63119000Y-99949000D03*
X64389000Y-99949000D03*
X65786000Y-99949000D03*
X63119000Y-113919000D03*
X75692000Y-117094000D03*
X69215000Y-103378000D03*
X76835000Y-120218201D03*
X88900000Y-104521000D03*
X87757000Y-110490000D03*
X89535000Y-117729000D03*
X67691000Y-113411000D03*
X89925055Y-114741399D03*
X91440000Y-115443000D03*
X86487000Y-110998000D03*
X78867000Y-115697000D03*
X90714217Y-105727480D03*
X91663119Y-105059881D03*
X63068200Y-109753400D03*
X69088000Y-121081770D03*
X80016612Y-106172000D03*
X80772000Y-107061000D03*
X78801018Y-119976290D03*
X84875157Y-108604675D03*
X83312000Y-110363000D03*
X63119000Y-116713000D03*
X64003942Y-116733332D03*
X63119000Y-118491000D03*
X62992000Y-112522000D03*
X62992000Y-110871000D03*
X66332357Y-108542919D03*
X89027000Y-110109000D03*
X75643216Y-109679216D03*
X65659000Y-114427000D03*
X88646000Y-118364000D03*
X72884398Y-120399185D03*
X75692000Y-102362000D03*
X74041000Y-109093000D03*
X83185000Y-118491000D03*
X89916000Y-105664000D03*
X81534000Y-108204000D03*
X74543475Y-120399185D03*
X82207464Y-110478678D03*
X77724000Y-117094000D03*
X66478132Y-116301406D03*
X78689302Y-116509698D03*
X79019400Y-104419400D03*
X84709000Y-105156000D03*
X74396600Y-107848400D03*
X74295000Y-111252000D03*
X79242568Y-112761149D03*
X81773955Y-119976290D03*
X80389116Y-112539804D03*
X70685618Y-108660708D03*
X81419720Y-116586000D03*
D19*
X75946000Y-107327720D03*
D18*
X70746608Y-107517687D03*
X89231989Y-106594625D03*
X78994000Y-112014000D03*
X75438000Y-112140953D03*
X76708000Y-112776000D03*
X80014684Y-111328091D03*
X84874129Y-114243231D03*
X84455000Y-115062000D03*
X84836000Y-117602000D03*
X83693020Y-115443000D03*
X77978000Y-109601000D03*
X76200000Y-110236000D03*
X86106000Y-120142000D03*
X85471000Y-110109000D03*
X85344000Y-123444000D03*
X80010000Y-109601000D03*
X69980330Y-107336482D03*
X85344000Y-120904000D03*
X69772654Y-106238047D03*
X81534000Y-112699848D03*
X85657983Y-112442951D03*
X68673911Y-106179493D03*
X82804000Y-120954800D03*
X68249800Y-105486200D03*
X83467215Y-121379257D03*
X85234372Y-113106706D03*
X65946391Y-109942480D03*
X65759137Y-109082767D03*
X64873454Y-109147175D03*
X65665421Y-111745768D03*
X68964843Y-118223016D03*
X69786480Y-120556387D03*
X70298346Y-119890969D03*
X70785817Y-118206503D03*
X71562219Y-118075285D03*
X75225655Y-120005932D03*
X76179788Y-118630721D03*
X79898295Y-114970997D03*
D20*
X86638299Y-120709523D02*
X86804501Y-120543321D01*
X86804501Y-120022219D02*
X86638299Y-119856017D01*
X86638299Y-123468299D02*
X86638299Y-120709523D01*
X86638299Y-111580351D02*
X86487000Y-111429052D01*
X86487000Y-111429052D02*
X86487000Y-110998000D01*
X86638299Y-119856017D02*
X86638299Y-111580351D01*
X87630000Y-124460000D02*
X86638299Y-123468299D01*
X86804501Y-120543321D02*
X86804501Y-120022219D01*
X67550739Y-118791298D02*
X66412408Y-118791298D01*
X66412408Y-118791298D02*
X66106630Y-118791298D01*
X66802000Y-118618000D02*
X66628702Y-118791298D01*
X66628702Y-118791298D02*
X66412408Y-118791298D01*
X66106630Y-118791298D02*
X65519040Y-118203708D01*
X68690522Y-117651515D02*
X67550739Y-118791298D01*
X70281831Y-118694182D02*
X69239164Y-117651515D01*
X70586630Y-119126000D02*
X70281831Y-118821201D01*
X69239164Y-117651515D02*
X68690522Y-117651515D01*
X70281831Y-118821201D02*
X70281831Y-118694182D01*
X75692000Y-117094000D02*
X75057000Y-116459000D01*
X67183000Y-116459000D02*
X66557157Y-117084843D01*
X75057000Y-116459000D02*
X67183000Y-116459000D01*
X70586630Y-119126000D02*
X69076582Y-119126000D01*
X69088000Y-121081770D02*
X69088000Y-119137418D01*
X69088000Y-119137418D02*
X68961000Y-119010418D01*
X69076582Y-119126000D02*
X68961000Y-119010418D01*
X77292200Y-118694200D02*
X77749400Y-118694200D01*
X75692000Y-117094000D02*
X77292200Y-118694200D01*
X71755000Y-111125000D02*
X67500501Y-106870501D01*
X67500501Y-106870501D02*
X63436499Y-106870501D01*
X63436499Y-106870501D02*
X63119000Y-107188000D01*
X77127101Y-104787701D02*
X77127101Y-104838501D01*
X77127101Y-104838501D02*
X77419200Y-105130600D01*
X77114400Y-104775000D02*
X77127101Y-104787701D01*
X77089000Y-104775000D02*
X77114400Y-104775000D01*
X63119000Y-108585000D02*
X63119000Y-107188000D01*
X63119000Y-105791000D02*
X63119000Y-104394000D01*
X63119000Y-102870000D02*
X63119000Y-101473000D01*
X63119000Y-99949000D02*
X64389000Y-99949000D01*
X65786000Y-104013000D02*
X66675000Y-104902000D01*
X65786000Y-99949000D02*
X65786000Y-104013000D01*
X63119000Y-120015000D02*
X63119000Y-120523000D01*
X88011000Y-124841000D02*
X87630000Y-124460000D01*
X92710000Y-124841000D02*
X88011000Y-124841000D01*
X71628000Y-103886000D02*
X72771000Y-103886000D01*
X69850000Y-101600000D02*
X69342000Y-101092000D01*
X69088000Y-101092000D02*
X68580000Y-101600000D01*
X69342000Y-101092000D02*
X69088000Y-101092000D01*
X69723000Y-103886000D02*
X71628000Y-103886000D01*
X69215000Y-103378000D02*
X69723000Y-103886000D01*
X68199000Y-103378000D02*
X69215000Y-103378000D01*
X66675000Y-104902000D02*
X68199000Y-103378000D01*
X80187800Y-103505000D02*
X79933800Y-103759000D01*
X81407000Y-103505000D02*
X80187800Y-103505000D01*
X79933800Y-104190800D02*
X80137000Y-104394000D01*
X79933800Y-103759000D02*
X79933800Y-104190800D01*
X80137000Y-104394000D02*
X80137000Y-104775000D01*
X80479901Y-104736901D02*
X80772000Y-105029000D01*
X80175099Y-104736901D02*
X80479901Y-104736901D01*
X80137000Y-104775000D02*
X80175099Y-104736901D01*
X68072000Y-114808000D02*
X67691000Y-114427000D01*
X67691000Y-114427000D02*
X67691000Y-113411000D01*
X91440000Y-115824000D02*
X91440000Y-115443000D01*
X89535000Y-117729000D02*
X91440000Y-115824000D01*
X90614500Y-104521000D02*
X88900000Y-104521000D01*
X91503500Y-103632000D02*
X90614500Y-104521000D01*
X92710000Y-103632000D02*
X91503500Y-103632000D01*
X90242554Y-114423900D02*
X89925055Y-114741399D01*
X90744600Y-114423900D02*
X90242554Y-114423900D01*
X91376500Y-113792000D02*
X90744600Y-114423900D01*
X92710000Y-113792000D02*
X91376500Y-113792000D01*
X63754000Y-109753400D02*
X63068200Y-109753400D01*
X76281291Y-120218201D02*
X75265290Y-119202200D01*
X76835000Y-120218201D02*
X76281291Y-120218201D01*
X75265290Y-119202200D02*
X74599800Y-119202200D01*
X82677000Y-107315000D02*
X82423000Y-107061000D01*
X82423000Y-107061000D02*
X80772000Y-107061000D01*
X77749400Y-118694200D02*
X78801018Y-119745818D01*
X78801018Y-119745818D02*
X78801018Y-119976290D01*
X88900000Y-104521000D02*
X88289299Y-105131701D01*
X88289299Y-105131701D02*
X87766969Y-105131701D01*
X84875157Y-108023513D02*
X84875157Y-108604675D01*
X87766969Y-105131701D02*
X84875157Y-108023513D01*
X63119000Y-116840000D02*
X63119000Y-116713000D01*
X63119000Y-116840000D02*
X63225668Y-116733332D01*
X63225668Y-116733332D02*
X64003942Y-116733332D01*
X63119000Y-120015000D02*
X63119000Y-118491000D01*
X63119000Y-116840000D02*
X63119000Y-118491000D01*
X63119000Y-113919000D02*
X63119000Y-112649000D01*
X63119000Y-112649000D02*
X62992000Y-112522000D01*
X63068200Y-109753400D02*
X63068200Y-110794800D01*
X63068200Y-110794800D02*
X62992000Y-110871000D01*
X68072000Y-110282562D02*
X66332357Y-108542919D01*
X68072000Y-111125000D02*
X68072000Y-110282562D01*
X67462400Y-104927400D02*
X67462400Y-106045000D01*
X67462400Y-106045000D02*
X69506607Y-108089207D01*
X77127101Y-104787701D02*
X67602099Y-104787701D01*
X69506607Y-108089207D02*
X71945007Y-108089207D01*
X71945007Y-108089207D02*
X73253600Y-109397800D01*
X67602099Y-104787701D02*
X67462400Y-104927400D01*
X90297000Y-106144697D02*
X90714217Y-105727480D01*
X90297000Y-106934000D02*
X90297000Y-106144697D01*
X89789000Y-107442000D02*
X90297000Y-106934000D01*
X89789000Y-108331000D02*
X89789000Y-107442000D01*
X90170000Y-108712000D02*
X89789000Y-108331000D01*
X89025409Y-121619131D02*
X89025409Y-122050183D01*
X89268290Y-121376250D02*
X89025409Y-121619131D01*
X89268290Y-118960910D02*
X89268290Y-121376250D01*
X89357200Y-118872000D02*
X89268290Y-118960910D01*
X90170000Y-118872000D02*
X89357200Y-118872000D01*
X75643216Y-109248164D02*
X75643216Y-109679216D01*
X73253600Y-109397800D02*
X73253600Y-108145578D01*
X73253600Y-108145578D02*
X74122279Y-107276899D01*
X75643216Y-108198394D02*
X75643216Y-109248164D01*
X74122279Y-107276899D02*
X74721721Y-107276899D01*
X74721721Y-107276899D02*
X75643216Y-108198394D01*
X65887620Y-116069342D02*
X65887620Y-116718848D01*
X65887620Y-116718848D02*
X66253615Y-117084843D01*
X66253615Y-117084843D02*
X66557157Y-117084843D01*
X68072000Y-114808000D02*
X67148962Y-114808000D01*
X67148962Y-114808000D02*
X65887620Y-116069342D01*
D21*
X88646000Y-118795052D02*
X88646000Y-118364000D01*
X88685201Y-118834253D02*
X88646000Y-118795052D01*
D20*
X88646000Y-117932948D02*
X88646000Y-118364000D01*
X92710000Y-114681000D02*
X91144986Y-114681000D01*
X88646000Y-117179986D02*
X88646000Y-117932948D01*
D21*
X88646000Y-120904000D02*
X88685201Y-120864799D01*
D20*
X91144986Y-114681000D02*
X88646000Y-117179986D01*
D21*
X87630000Y-121920000D02*
X88685201Y-120864799D01*
X88685201Y-120864799D02*
X88685201Y-118834253D01*
D20*
X72774185Y-120399185D02*
X72771000Y-120396000D01*
X74543475Y-120399185D02*
X72774185Y-120399185D01*
X67310000Y-101600000D02*
X68072000Y-102362000D01*
X68072000Y-102362000D02*
X75692000Y-102362000D01*
X90170000Y-124460000D02*
X87630000Y-121920000D01*
X91694000Y-124460000D02*
X90170000Y-124460000D01*
X92202000Y-123952000D02*
X91694000Y-124460000D01*
X92710000Y-123952000D02*
X92202000Y-123952000D01*
X78105000Y-105206052D02*
X78105000Y-104775000D01*
X81102948Y-108204000D02*
X78105000Y-105206052D01*
X81534000Y-108204000D02*
X81102948Y-108204000D01*
X78105000Y-104775000D02*
X75692000Y-102362000D01*
X89420690Y-107279824D02*
X89916000Y-106784514D01*
X89420690Y-107556310D02*
X89420690Y-107279824D01*
X89916000Y-106784514D02*
X89916000Y-105664000D01*
X89154000Y-107823000D02*
X89420690Y-107556310D01*
X89154000Y-108902500D02*
X89154000Y-107823000D01*
X89852500Y-109601000D02*
X89154000Y-108902500D01*
X90170000Y-109601000D02*
X89852500Y-109601000D01*
D21*
X83058000Y-117932948D02*
X83058000Y-111329214D01*
X83185000Y-118059948D02*
X83058000Y-117932948D01*
X83185000Y-118491000D02*
X83185000Y-118059948D01*
X83058000Y-111329214D02*
X82207464Y-110478678D01*
X76626607Y-115996607D02*
X77724000Y-117094000D01*
X78689302Y-116509698D02*
X78105000Y-117094000D01*
X66782931Y-115996607D02*
X76626607Y-115996607D01*
X78105000Y-117094000D02*
X77724000Y-117094000D01*
X66478132Y-116301406D02*
X66782931Y-115996607D01*
D20*
X80354434Y-105664000D02*
X79414633Y-104724199D01*
X84709000Y-105156000D02*
X84201000Y-105664000D01*
X84201000Y-105664000D02*
X80354434Y-105664000D01*
X79414633Y-104724199D02*
X79324199Y-104724199D01*
X79324199Y-104724199D02*
X79019400Y-104419400D01*
X74396600Y-107848400D02*
X74701399Y-108153199D01*
X74701399Y-108153199D02*
X74701399Y-110845601D01*
X74701399Y-110845601D02*
X74295000Y-111252000D01*
X80848201Y-114381293D02*
X80389116Y-113922208D01*
X81773955Y-119976290D02*
X80848201Y-119050536D01*
X80389116Y-113922208D02*
X80389116Y-112539804D01*
X80848201Y-119050536D02*
X80848201Y-114381293D01*
X70685618Y-109166618D02*
X70685618Y-108660708D01*
X74231501Y-112712501D02*
X70685618Y-109166618D01*
X75712321Y-112712501D02*
X74231501Y-112712501D01*
X76233357Y-112191465D02*
X75712321Y-112712501D01*
X77105210Y-112191465D02*
X76233357Y-112191465D01*
X77674894Y-112761149D02*
X77105210Y-112191465D01*
X79242568Y-112761149D02*
X77674894Y-112761149D01*
X89852500Y-111379000D02*
X89001610Y-112229890D01*
X90170000Y-111379000D02*
X89852500Y-111379000D01*
X89001610Y-112229890D02*
X89001610Y-115468390D01*
X89001610Y-115468390D02*
X87630000Y-116840000D01*
X75946000Y-107327720D02*
X75539569Y-106921289D01*
X75539569Y-106921289D02*
X71343006Y-106921289D01*
X71343006Y-106921289D02*
X70746608Y-107517687D01*
X80585814Y-111057723D02*
X79954592Y-110426501D01*
X79954592Y-110426501D02*
X79649323Y-110426501D01*
X80962499Y-111638045D02*
X80585814Y-111261360D01*
X80962499Y-113050321D02*
X80962499Y-111638045D01*
X79649323Y-110426501D02*
X76550542Y-107327720D01*
X81419720Y-113507542D02*
X80962499Y-113050321D01*
X81419720Y-116586000D02*
X81419720Y-113507542D01*
X76550542Y-107327720D02*
X75946000Y-107327720D01*
X80585814Y-111261360D02*
X80585814Y-111057723D01*
X89065080Y-106761534D02*
X89231989Y-106594625D01*
X89065080Y-107276920D02*
X89065080Y-106761534D01*
X88455499Y-109834679D02*
X88646000Y-109644178D01*
X88455499Y-110383321D02*
X88455499Y-109834679D01*
X88646000Y-113284000D02*
X88646000Y-110573822D01*
X88646000Y-109644178D02*
X88646000Y-107696000D01*
X88646000Y-107696000D02*
X89065080Y-107276920D01*
X88646000Y-110573822D02*
X88455499Y-110383321D01*
X87630000Y-114300000D02*
X88646000Y-113284000D01*
X91598687Y-105803700D02*
X91897200Y-105803700D01*
X88646000Y-106045000D02*
X89662000Y-105029000D01*
X92392500Y-106299000D02*
X92710000Y-106299000D01*
X87710581Y-107671701D02*
X88106017Y-107671701D01*
X88646000Y-107131718D02*
X88646000Y-106045000D01*
X86638299Y-108743983D02*
X87710581Y-107671701D01*
X90823987Y-105029000D02*
X91598687Y-105803700D01*
X86638299Y-110260299D02*
X86638299Y-108743983D01*
X91897200Y-105803700D02*
X92392500Y-106299000D01*
X89662000Y-105029000D02*
X90823987Y-105029000D01*
X87630000Y-111252000D02*
X86638299Y-110260299D01*
X88106017Y-107671701D02*
X88646000Y-107131718D01*
X87630000Y-111760000D02*
X87630000Y-111252000D01*
X78384803Y-111835855D02*
X75743098Y-111835855D01*
X75743098Y-111835855D02*
X75438000Y-112140953D01*
X78994000Y-112014000D02*
X78562948Y-112014000D01*
X78562948Y-112014000D02*
X78384803Y-111835855D01*
X78819042Y-113183445D02*
X78968247Y-113332650D01*
X80014684Y-111759143D02*
X80014684Y-111328091D01*
X78968247Y-113332650D02*
X79516889Y-113332650D01*
X76708000Y-112776000D02*
X77115445Y-113183445D01*
X79516889Y-113332650D02*
X79814069Y-113035470D01*
X79814069Y-111959758D02*
X80014684Y-111759143D01*
X77115445Y-113183445D02*
X78819042Y-113183445D01*
X79814069Y-113035470D02*
X79814069Y-111959758D01*
X87630000Y-106680000D02*
X84658219Y-109651781D01*
X84658219Y-109651781D02*
X84658219Y-113596269D01*
X84874129Y-113812179D02*
X84874129Y-114243231D01*
X84658219Y-113596269D02*
X84874129Y-113812179D01*
X87630000Y-104515908D02*
X84302610Y-107843298D01*
X87630000Y-104140000D02*
X87630000Y-104515908D01*
X84302610Y-107843298D02*
X84302610Y-114909610D01*
X84302610Y-114909610D02*
X84455000Y-115062000D01*
X83693020Y-115443000D02*
X83693000Y-115443020D01*
X83693000Y-115443020D02*
X83693000Y-116459000D01*
X83693000Y-116459000D02*
X84836000Y-117602000D01*
X86638299Y-102591701D02*
X86638299Y-105004701D01*
X87630000Y-101600000D02*
X86638299Y-102591701D01*
X83947000Y-114757968D02*
X83693020Y-115011948D01*
X83693020Y-115011948D02*
X83693020Y-115443000D01*
X83947000Y-107696000D02*
X83947000Y-114757968D01*
X86638299Y-105004701D02*
X83947000Y-107696000D01*
X76631052Y-110236000D02*
X76200000Y-110236000D01*
X77978000Y-109601000D02*
X77343000Y-110236000D01*
X77343000Y-110236000D02*
X76631052Y-110236000D01*
X85471000Y-110109000D02*
X85471000Y-111410146D01*
X86106000Y-120573052D02*
X86106000Y-120142000D01*
X86106000Y-122682000D02*
X86106000Y-120573052D01*
X85344000Y-123444000D02*
X86106000Y-122682000D01*
X86233000Y-120015000D02*
X86106000Y-120142000D01*
X85471000Y-111410146D02*
X86233000Y-112172146D01*
X86233000Y-112172146D02*
X86233000Y-120015000D01*
X79326730Y-109601000D02*
X76291410Y-106565680D01*
X80010000Y-109601000D02*
X79326730Y-109601000D01*
X76291410Y-106565680D02*
X70751132Y-106565680D01*
X70751132Y-106565680D02*
X69980330Y-107336482D01*
X85344000Y-120058178D02*
X85826600Y-119575578D01*
X85344000Y-120904000D02*
X85344000Y-120058178D01*
X85826600Y-112611568D02*
X85657983Y-112442951D01*
X85826600Y-119575578D02*
X85826600Y-112611568D01*
X80941424Y-111114062D02*
X81534000Y-111706638D01*
X80248695Y-109029499D02*
X80886281Y-109667085D01*
X80886281Y-110855282D02*
X80941424Y-110910425D01*
X80886281Y-109667085D02*
X80886281Y-110855282D01*
X76514659Y-106210072D02*
X79334087Y-109029499D01*
X70203706Y-106238047D02*
X70231681Y-106210072D01*
X69772654Y-106238047D02*
X70203706Y-106238047D01*
X70231681Y-106210072D02*
X76514659Y-106210072D01*
X80941424Y-110910425D02*
X80941424Y-111114062D01*
X79334087Y-109029499D02*
X80248695Y-109029499D01*
X81534000Y-111706638D02*
X81534000Y-112699848D01*
X68673911Y-106179493D02*
X69186858Y-105666546D01*
X81297034Y-110966764D02*
X82169000Y-111838730D01*
X81297034Y-110763127D02*
X81297034Y-110966764D01*
X79443305Y-108635810D02*
X80357914Y-108635810D01*
X82169000Y-111838730D02*
X82169000Y-119415935D01*
X76474041Y-105666546D02*
X79443305Y-108635810D01*
X69186858Y-105666546D02*
X76474041Y-105666546D01*
X80357914Y-108635810D02*
X81241891Y-109519787D01*
X82804000Y-120050935D02*
X82804000Y-120954800D01*
X82169000Y-119415935D02*
X82804000Y-120050935D01*
X81241891Y-110707984D02*
X81297034Y-110763127D01*
X81241891Y-109519787D02*
X81241891Y-110707984D01*
X85445630Y-113749016D02*
X85234372Y-113537758D01*
X85445630Y-119400842D02*
X85445630Y-113749016D01*
X83467215Y-121379257D02*
X85445630Y-119400842D01*
X85234372Y-113537758D02*
X85234372Y-113106706D01*
X82588111Y-118910111D02*
X83467215Y-119789215D01*
X81597501Y-109209863D02*
X81597501Y-110560686D01*
X68249800Y-105486200D02*
X68554599Y-105181401D01*
X68554599Y-105181401D02*
X76491804Y-105181401D01*
X82588111Y-111754933D02*
X82588111Y-118910111D01*
X80667839Y-108280201D02*
X81597501Y-109209863D01*
X81597501Y-110560686D02*
X81652644Y-110615829D01*
X76491804Y-105181401D02*
X79590603Y-108280200D01*
X81652644Y-110615829D02*
X81652644Y-110819466D01*
X79590603Y-108280200D02*
X80667839Y-108280201D01*
X83467215Y-119789215D02*
X83467215Y-121379257D01*
X81652644Y-110819466D02*
X82588111Y-111754933D01*
X66251190Y-110247279D02*
X65946391Y-109942480D01*
X66251190Y-114647610D02*
X66251190Y-110247279D01*
X65176400Y-117015246D02*
X65176400Y-115722400D01*
X66207652Y-118046498D02*
X65176400Y-117015246D01*
X68080020Y-117221000D02*
X67254521Y-118046499D01*
X71553756Y-117221000D02*
X68080020Y-117221000D01*
X72179781Y-117847025D02*
X71553756Y-117221000D01*
X72179783Y-120703967D02*
X72179783Y-118189941D01*
X65176400Y-115722400D02*
X66251190Y-114647610D01*
X72659206Y-121183390D02*
X72179783Y-120703967D01*
X74574390Y-121183390D02*
X72659206Y-121183390D01*
X76327000Y-122936000D02*
X74574390Y-121183390D01*
X67254521Y-118046499D02*
X66207652Y-118046498D01*
X72179783Y-118189941D02*
X72179781Y-117847025D01*
X78867000Y-122936000D02*
X78867000Y-122555000D01*
X78867000Y-122936000D02*
X78867000Y-121412000D01*
X65532010Y-116867948D02*
X65532010Y-115900190D01*
X67107223Y-117690889D02*
X66354951Y-117690889D01*
X78867000Y-121412000D02*
X76657222Y-119202222D01*
X76657222Y-119202222D02*
X75768220Y-119202222D01*
X75768220Y-119202222D02*
X73431388Y-116865390D01*
X66092069Y-109082767D02*
X65759137Y-109082767D01*
X73431388Y-116865390D02*
X67932721Y-116865391D01*
X67932721Y-116865391D02*
X67107223Y-117690889D01*
X66354951Y-117690889D02*
X65532010Y-116867948D01*
X66649610Y-114782590D02*
X66649610Y-109640308D01*
X66649610Y-109640308D02*
X66092069Y-109082767D01*
X65532010Y-115900190D02*
X66649610Y-114782590D01*
X66049211Y-107971418D02*
X64873454Y-109147175D01*
X66606678Y-107971418D02*
X66049211Y-107971418D01*
X79756000Y-120259696D02*
X79756000Y-115674524D01*
X81407000Y-121910696D02*
X79756000Y-120259696D01*
X81407000Y-122936000D02*
X81407000Y-121910696D01*
X72579660Y-113944400D02*
X66606678Y-107971418D01*
X79756000Y-115674524D02*
X78025876Y-113944400D01*
X78025876Y-113944400D02*
X72579660Y-113944400D01*
X83222001Y-122211001D02*
X83087307Y-122211001D01*
X66847708Y-107569000D02*
X65605807Y-107569000D01*
X65605807Y-107569000D02*
X64301953Y-108872854D01*
X64301953Y-109421496D02*
X65665421Y-110784964D01*
X64301953Y-108872854D02*
X64301953Y-109421496D01*
X78820949Y-113688260D02*
X78721479Y-113588790D01*
X83087307Y-122211001D02*
X80469796Y-119593490D01*
X78721479Y-113588790D02*
X72867498Y-113588790D01*
X80469796Y-114505796D02*
X79652260Y-113688260D01*
X79652260Y-113688260D02*
X78820949Y-113688260D01*
X83947000Y-122936000D02*
X83222001Y-122211001D01*
X72867498Y-113588790D02*
X66847708Y-107569000D01*
X80469796Y-119593490D02*
X80469796Y-114505796D01*
X65665421Y-110784964D02*
X65665421Y-111745768D01*
X67566481Y-119777463D02*
X67566481Y-119504519D01*
X67566481Y-119504519D02*
X68847984Y-118223016D01*
X68847984Y-118223016D02*
X68964843Y-118223016D01*
X65036690Y-122307254D02*
X67566481Y-119777463D01*
X65036690Y-124193290D02*
X65036690Y-122307254D01*
X66167000Y-125323600D02*
X65036690Y-124193290D01*
X66167000Y-125476000D02*
X66167000Y-125323600D01*
X68238811Y-121653290D02*
X69692532Y-121653290D01*
X67576690Y-124193290D02*
X67576690Y-122315411D01*
X68707000Y-125323600D02*
X67576690Y-124193290D01*
X68707000Y-125476000D02*
X68707000Y-125323600D01*
X67576690Y-122315411D02*
X68238811Y-121653290D01*
X69786480Y-121559342D02*
X69786480Y-120556387D01*
X69692532Y-121653290D02*
X69786480Y-121559342D01*
X69977000Y-124053600D02*
X69977000Y-122243225D01*
X71247000Y-125323600D02*
X69977000Y-124053600D01*
X70358000Y-121862225D02*
X70358000Y-119950623D01*
X71247000Y-125476000D02*
X71247000Y-125323600D01*
X69977000Y-122243225D02*
X70358000Y-121862225D01*
X70358000Y-119950623D02*
X70298346Y-119890969D01*
X72517000Y-124053600D02*
X72517000Y-122047000D01*
X71468563Y-120998563D02*
X71468563Y-118889249D01*
X73787000Y-125323600D02*
X72517000Y-124053600D01*
X71468563Y-118889249D02*
X70785817Y-118206503D01*
X73787000Y-125476000D02*
X73787000Y-125323600D01*
X72517000Y-122047000D02*
X71468563Y-120998563D01*
X75057000Y-122455101D02*
X74140899Y-121539000D01*
X72511908Y-121539000D02*
X71824173Y-120851265D01*
X71824173Y-120851265D02*
X71824173Y-118337239D01*
X71824173Y-118337239D02*
X71562219Y-118075285D01*
X76327000Y-125476000D02*
X76327000Y-125323600D01*
X76327000Y-125323600D02*
X75057000Y-124053600D01*
X75057000Y-124053600D02*
X75057000Y-122455101D01*
X74140899Y-121539000D02*
X72511908Y-121539000D01*
X78867000Y-125476000D02*
X78867000Y-125323600D01*
X78867000Y-125323600D02*
X77597000Y-124053600D01*
X77597000Y-122377277D02*
X75225655Y-120005932D01*
X77597000Y-124053600D02*
X77597000Y-122377277D01*
X80137000Y-124053600D02*
X80137000Y-122156881D01*
X80137000Y-122156881D02*
X76610840Y-118630721D01*
X81407000Y-125476000D02*
X81407000Y-125323600D01*
X81407000Y-125323600D02*
X80137000Y-124053600D01*
X76610840Y-118630721D02*
X76179788Y-118630721D01*
X80111610Y-119740702D02*
X80111610Y-115184312D01*
X82677000Y-122306092D02*
X80111610Y-119740702D01*
X83947000Y-125476000D02*
X82677000Y-124206000D01*
X82677000Y-124206000D02*
X82677000Y-122306092D01*
X80111610Y-115184312D02*
X79898295Y-114970997D01*
D22*
G36*
X70762142Y-100965983D02*
X70662607Y-101031118D01*
X70560822Y-101130794D01*
X70480336Y-101248341D01*
X70464272Y-101285819D01*
X70416873Y-101263021D01*
X70079895Y-101600000D01*
X70094036Y-101614142D01*
X69864142Y-101844037D01*
X69850000Y-101829895D01*
X69835857Y-101844036D01*
X69620105Y-101628284D01*
X69605963Y-101614142D01*
X69620105Y-101600000D01*
X69283127Y-101263021D01*
X69215000Y-101295788D01*
X69146873Y-101263021D01*
X68809895Y-101600000D01*
X68824036Y-101614142D01*
X68594142Y-101844037D01*
X68580000Y-101829895D01*
X68565857Y-101844036D01*
X68335963Y-101614142D01*
X68350105Y-101600000D01*
X68013127Y-101263021D01*
X67966174Y-101285603D01*
X67954512Y-101257307D01*
X67875675Y-101138647D01*
X67775291Y-101037560D01*
X67666493Y-100964175D01*
X67759405Y-100905212D01*
X67862572Y-100806968D01*
X67944692Y-100690555D01*
X67946083Y-100687429D01*
X68007939Y-100783410D01*
X68106902Y-100885889D01*
X68223884Y-100967194D01*
X68265903Y-100985551D01*
X68243021Y-101033127D01*
X68580000Y-101370105D01*
X68916979Y-101033127D01*
X68894835Y-100987087D01*
X68909120Y-100981547D01*
X69029405Y-100905212D01*
X69132572Y-100806968D01*
X69214692Y-100690555D01*
X69216083Y-100687429D01*
X69277939Y-100783410D01*
X69376902Y-100885889D01*
X69493884Y-100967194D01*
X69535903Y-100985551D01*
X69513021Y-101033127D01*
X69850000Y-101370105D01*
X70186979Y-101033127D01*
X70164835Y-100987087D01*
X70179120Y-100981547D01*
X70299405Y-100905212D01*
X70402572Y-100806968D01*
X70484692Y-100690555D01*
X70486083Y-100687429D01*
X70547939Y-100783410D01*
X70646902Y-100885889D01*
X70762142Y-100965983D01*
X70762142Y-100965983D01*
G37*
X70762142Y-100965983D02*
X70662607Y-101031118D01*
X70560822Y-101130794D01*
X70480336Y-101248341D01*
X70464272Y-101285819D01*
X70416873Y-101263021D01*
X70079895Y-101600000D01*
X70094036Y-101614142D01*
X69864142Y-101844037D01*
X69850000Y-101829895D01*
X69835857Y-101844036D01*
X69620105Y-101628284D01*
X69605963Y-101614142D01*
X69620105Y-101600000D01*
X69283127Y-101263021D01*
X69215000Y-101295788D01*
X69146873Y-101263021D01*
X68809895Y-101600000D01*
X68824036Y-101614142D01*
X68594142Y-101844037D01*
X68580000Y-101829895D01*
X68565857Y-101844036D01*
X68335963Y-101614142D01*
X68350105Y-101600000D01*
X68013127Y-101263021D01*
X67966174Y-101285603D01*
X67954512Y-101257307D01*
X67875675Y-101138647D01*
X67775291Y-101037560D01*
X67666493Y-100964175D01*
X67759405Y-100905212D01*
X67862572Y-100806968D01*
X67944692Y-100690555D01*
X67946083Y-100687429D01*
X68007939Y-100783410D01*
X68106902Y-100885889D01*
X68223884Y-100967194D01*
X68265903Y-100985551D01*
X68243021Y-101033127D01*
X68580000Y-101370105D01*
X68916979Y-101033127D01*
X68894835Y-100987087D01*
X68909120Y-100981547D01*
X69029405Y-100905212D01*
X69132572Y-100806968D01*
X69214692Y-100690555D01*
X69216083Y-100687429D01*
X69277939Y-100783410D01*
X69376902Y-100885889D01*
X69493884Y-100967194D01*
X69535903Y-100985551D01*
X69513021Y-101033127D01*
X69850000Y-101370105D01*
X70186979Y-101033127D01*
X70164835Y-100987087D01*
X70179120Y-100981547D01*
X70299405Y-100905212D01*
X70402572Y-100806968D01*
X70484692Y-100690555D01*
X70486083Y-100687429D01*
X70547939Y-100783410D01*
X70646902Y-100885889D01*
X70762142Y-100965983D01*
G36*
X78496160Y-121999763D02*
X78398232Y-122039329D01*
X78232995Y-122147456D01*
X78091907Y-122285620D01*
X77980342Y-122448556D01*
X77967840Y-122477725D01*
X77967840Y-122377277D01*
X77964492Y-122343139D01*
X77961511Y-122309060D01*
X77960967Y-122307189D01*
X77960777Y-122305247D01*
X77950860Y-122272400D01*
X77941319Y-122239559D01*
X77940423Y-122237832D01*
X77939859Y-122235961D01*
X77923734Y-122205634D01*
X77908012Y-122175303D01*
X77906798Y-122173783D01*
X77905881Y-122172057D01*
X77884199Y-122145473D01*
X77862859Y-122118740D01*
X77860183Y-122116026D01*
X77860137Y-122115970D01*
X77860084Y-122115926D01*
X77859223Y-122115053D01*
X75810769Y-120066600D01*
X75812420Y-119948399D01*
X75790070Y-119835525D01*
X75746222Y-119729141D01*
X75682546Y-119633301D01*
X75601467Y-119551654D01*
X75506073Y-119487310D01*
X75399998Y-119442720D01*
X75287283Y-119419583D01*
X75172220Y-119418779D01*
X75059192Y-119440341D01*
X74952505Y-119483445D01*
X74856223Y-119546451D01*
X74774011Y-119626958D01*
X74709003Y-119721900D01*
X74664777Y-119825085D01*
X74605103Y-119812836D01*
X74490040Y-119812032D01*
X74377012Y-119833594D01*
X74270325Y-119876698D01*
X74174043Y-119939704D01*
X74091831Y-120020211D01*
X74086261Y-120028345D01*
X73342478Y-120028345D01*
X73341289Y-120026554D01*
X73260210Y-119944907D01*
X73164816Y-119880563D01*
X73058741Y-119835973D01*
X72946026Y-119812836D01*
X72830963Y-119812032D01*
X72717935Y-119833594D01*
X72611248Y-119876698D01*
X72550623Y-119916370D01*
X72550623Y-118189941D01*
X72550622Y-118189940D01*
X72550623Y-118189939D01*
X72550621Y-117847023D01*
X72547271Y-117812869D01*
X72544292Y-117778808D01*
X72543748Y-117776938D01*
X72543558Y-117774993D01*
X72533638Y-117742137D01*
X72524100Y-117709307D01*
X72523204Y-117707578D01*
X72522639Y-117705707D01*
X72506512Y-117675377D01*
X72490793Y-117645051D01*
X72489580Y-117643531D01*
X72488661Y-117641803D01*
X72466973Y-117615212D01*
X72445640Y-117588488D01*
X72442962Y-117585772D01*
X72442916Y-117585716D01*
X72442863Y-117585672D01*
X72442004Y-117584801D01*
X72093432Y-117236230D01*
X73277781Y-117236230D01*
X75505997Y-119464446D01*
X75532465Y-119486186D01*
X75558708Y-119508207D01*
X75560418Y-119509147D01*
X75561924Y-119510384D01*
X75592136Y-119526584D01*
X75622131Y-119543074D01*
X75623985Y-119543662D01*
X75625708Y-119544586D01*
X75658569Y-119554632D01*
X75691118Y-119564958D01*
X75693048Y-119565174D01*
X75694921Y-119565747D01*
X75729072Y-119569215D01*
X75763042Y-119573026D01*
X75766852Y-119573052D01*
X75766926Y-119573060D01*
X75766994Y-119573053D01*
X75768220Y-119573062D01*
X76503616Y-119573062D01*
X78496160Y-121565606D01*
X78496160Y-121999763D01*
X78496160Y-121999763D01*
G37*
X78496160Y-121999763D02*
X78398232Y-122039329D01*
X78232995Y-122147456D01*
X78091907Y-122285620D01*
X77980342Y-122448556D01*
X77967840Y-122477725D01*
X77967840Y-122377277D01*
X77964492Y-122343139D01*
X77961511Y-122309060D01*
X77960967Y-122307189D01*
X77960777Y-122305247D01*
X77950860Y-122272400D01*
X77941319Y-122239559D01*
X77940423Y-122237832D01*
X77939859Y-122235961D01*
X77923734Y-122205634D01*
X77908012Y-122175303D01*
X77906798Y-122173783D01*
X77905881Y-122172057D01*
X77884199Y-122145473D01*
X77862859Y-122118740D01*
X77860183Y-122116026D01*
X77860137Y-122115970D01*
X77860084Y-122115926D01*
X77859223Y-122115053D01*
X75810769Y-120066600D01*
X75812420Y-119948399D01*
X75790070Y-119835525D01*
X75746222Y-119729141D01*
X75682546Y-119633301D01*
X75601467Y-119551654D01*
X75506073Y-119487310D01*
X75399998Y-119442720D01*
X75287283Y-119419583D01*
X75172220Y-119418779D01*
X75059192Y-119440341D01*
X74952505Y-119483445D01*
X74856223Y-119546451D01*
X74774011Y-119626958D01*
X74709003Y-119721900D01*
X74664777Y-119825085D01*
X74605103Y-119812836D01*
X74490040Y-119812032D01*
X74377012Y-119833594D01*
X74270325Y-119876698D01*
X74174043Y-119939704D01*
X74091831Y-120020211D01*
X74086261Y-120028345D01*
X73342478Y-120028345D01*
X73341289Y-120026554D01*
X73260210Y-119944907D01*
X73164816Y-119880563D01*
X73058741Y-119835973D01*
X72946026Y-119812836D01*
X72830963Y-119812032D01*
X72717935Y-119833594D01*
X72611248Y-119876698D01*
X72550623Y-119916370D01*
X72550623Y-118189941D01*
X72550622Y-118189940D01*
X72550623Y-118189939D01*
X72550621Y-117847023D01*
X72547271Y-117812869D01*
X72544292Y-117778808D01*
X72543748Y-117776938D01*
X72543558Y-117774993D01*
X72533638Y-117742137D01*
X72524100Y-117709307D01*
X72523204Y-117707578D01*
X72522639Y-117705707D01*
X72506512Y-117675377D01*
X72490793Y-117645051D01*
X72489580Y-117643531D01*
X72488661Y-117641803D01*
X72466973Y-117615212D01*
X72445640Y-117588488D01*
X72442962Y-117585772D01*
X72442916Y-117585716D01*
X72442863Y-117585672D01*
X72442004Y-117584801D01*
X72093432Y-117236230D01*
X73277781Y-117236230D01*
X75505997Y-119464446D01*
X75532465Y-119486186D01*
X75558708Y-119508207D01*
X75560418Y-119509147D01*
X75561924Y-119510384D01*
X75592136Y-119526584D01*
X75622131Y-119543074D01*
X75623985Y-119543662D01*
X75625708Y-119544586D01*
X75658569Y-119554632D01*
X75691118Y-119564958D01*
X75693048Y-119565174D01*
X75694921Y-119565747D01*
X75729072Y-119569215D01*
X75763042Y-119573026D01*
X75766852Y-119573052D01*
X75766926Y-119573060D01*
X75766994Y-119573053D01*
X75768220Y-119573062D01*
X76503616Y-119573062D01*
X78496160Y-121565606D01*
X78496160Y-121999763D01*
G36*
X79761985Y-110797341D02*
X79741534Y-110805604D01*
X79645252Y-110868610D01*
X79563040Y-110949117D01*
X79498032Y-111044059D01*
X79452703Y-111149820D01*
X79428779Y-111262371D01*
X79427173Y-111377426D01*
X79447944Y-111490601D01*
X79490303Y-111597586D01*
X79552635Y-111694307D01*
X79553833Y-111695547D01*
X79551846Y-111697535D01*
X79530129Y-111723973D01*
X79516034Y-111740770D01*
X79514567Y-111737209D01*
X79450891Y-111641369D01*
X79369812Y-111559722D01*
X79274418Y-111495378D01*
X79168343Y-111450788D01*
X79055628Y-111427651D01*
X78940565Y-111426847D01*
X78827537Y-111448409D01*
X78720850Y-111491513D01*
X78624568Y-111554519D01*
X78624198Y-111554881D01*
X78620587Y-111551915D01*
X78594315Y-111529870D01*
X78592604Y-111528929D01*
X78591099Y-111527693D01*
X78560921Y-111511511D01*
X78530892Y-111495003D01*
X78529033Y-111494413D01*
X78527315Y-111493492D01*
X78494540Y-111483471D01*
X78461905Y-111473119D01*
X78459969Y-111472901D01*
X78458102Y-111472331D01*
X78423999Y-111468867D01*
X78389981Y-111465051D01*
X78386170Y-111465024D01*
X78386097Y-111465017D01*
X78386028Y-111465023D01*
X78384803Y-111465015D01*
X75743098Y-111465015D01*
X75709051Y-111468353D01*
X75674881Y-111471343D01*
X75673004Y-111471888D01*
X75671068Y-111472078D01*
X75638263Y-111481981D01*
X75605380Y-111491536D01*
X75603653Y-111492431D01*
X75601782Y-111492996D01*
X75571495Y-111509099D01*
X75541124Y-111524842D01*
X75539600Y-111526058D01*
X75537878Y-111526974D01*
X75511328Y-111548627D01*
X75502979Y-111555292D01*
X75499628Y-111554604D01*
X75384565Y-111553800D01*
X75271537Y-111575362D01*
X75164850Y-111618466D01*
X75068568Y-111681472D01*
X74986356Y-111761979D01*
X74921348Y-111856921D01*
X74876019Y-111962682D01*
X74852095Y-112075233D01*
X74850489Y-112190288D01*
X74871260Y-112303463D01*
X74886383Y-112341661D01*
X74385107Y-112341661D01*
X71110141Y-109066695D01*
X71131926Y-109045951D01*
X71198254Y-108951926D01*
X71245055Y-108846808D01*
X71270548Y-108734602D01*
X71272383Y-108603175D01*
X71250033Y-108490301D01*
X71206185Y-108383917D01*
X71142509Y-108288077D01*
X71061430Y-108206430D01*
X70966036Y-108142086D01*
X70859961Y-108097496D01*
X70849532Y-108095355D01*
X70905157Y-108085547D01*
X71012436Y-108043937D01*
X71109589Y-107982282D01*
X71192916Y-107902930D01*
X71259244Y-107808905D01*
X71306045Y-107703787D01*
X71331538Y-107591581D01*
X71333373Y-107460154D01*
X71332582Y-107456159D01*
X71496612Y-107292129D01*
X74207069Y-107292129D01*
X74123450Y-107325913D01*
X74027168Y-107388919D01*
X73944956Y-107469426D01*
X73879948Y-107564368D01*
X73834619Y-107670129D01*
X73810695Y-107782680D01*
X73809089Y-107897735D01*
X73829860Y-108010910D01*
X73872219Y-108117895D01*
X73934551Y-108214616D01*
X74014482Y-108297387D01*
X74108968Y-108363057D01*
X74214410Y-108409123D01*
X74326792Y-108433832D01*
X74330559Y-108433910D01*
X74330559Y-108580543D01*
X74321418Y-108574378D01*
X74215343Y-108529788D01*
X74102628Y-108506651D01*
X73987565Y-108505847D01*
X73874537Y-108527409D01*
X73767850Y-108570513D01*
X73671568Y-108633519D01*
X73589356Y-108714026D01*
X73524348Y-108808968D01*
X73479019Y-108914729D01*
X73455095Y-109027280D01*
X73453489Y-109142335D01*
X73474260Y-109255510D01*
X73516619Y-109362495D01*
X73578951Y-109459216D01*
X73658882Y-109541987D01*
X73753368Y-109607657D01*
X73858810Y-109653723D01*
X73971192Y-109678432D01*
X74086232Y-109680841D01*
X74199549Y-109660860D01*
X74306828Y-109619250D01*
X74330559Y-109604189D01*
X74330559Y-110665468D01*
X74241565Y-110664847D01*
X74128537Y-110686409D01*
X74021850Y-110729513D01*
X73925568Y-110792519D01*
X73843356Y-110873026D01*
X73778348Y-110967968D01*
X73733019Y-111073729D01*
X73709095Y-111186280D01*
X73707489Y-111301335D01*
X73728260Y-111414510D01*
X73770619Y-111521495D01*
X73832951Y-111618216D01*
X73912882Y-111700987D01*
X74007368Y-111766657D01*
X74112810Y-111812723D01*
X74225192Y-111837432D01*
X74340232Y-111839841D01*
X74453549Y-111819860D01*
X74560828Y-111778250D01*
X74657981Y-111716595D01*
X74741308Y-111637243D01*
X74807636Y-111543218D01*
X74854437Y-111438100D01*
X74879930Y-111325894D01*
X74881765Y-111194467D01*
X74880973Y-111190472D01*
X74963622Y-111107824D01*
X74985338Y-111081385D01*
X75007384Y-111055113D01*
X75008324Y-111053402D01*
X75009561Y-111051897D01*
X75025742Y-111021719D01*
X75042251Y-110991690D01*
X75042840Y-110989831D01*
X75043762Y-110988113D01*
X75053782Y-110955338D01*
X75064135Y-110922703D01*
X75064352Y-110920767D01*
X75064923Y-110918900D01*
X75068386Y-110884797D01*
X75072203Y-110850779D01*
X75072229Y-110846968D01*
X75072237Y-110846895D01*
X75072230Y-110846826D01*
X75072239Y-110845601D01*
X75072239Y-108153199D01*
X75068900Y-108119152D01*
X75065911Y-108084982D01*
X75065365Y-108083105D01*
X75065176Y-108081169D01*
X75055272Y-108048364D01*
X75045718Y-108015481D01*
X75044822Y-108013754D01*
X75044258Y-108011883D01*
X75028154Y-107981596D01*
X75012412Y-107951225D01*
X75011195Y-107949701D01*
X75010280Y-107947979D01*
X74988646Y-107921453D01*
X74981663Y-107912706D01*
X74983365Y-107790867D01*
X74961015Y-107677993D01*
X74917167Y-107571609D01*
X74853491Y-107475769D01*
X74772412Y-107394122D01*
X74677018Y-107329778D01*
X74587454Y-107292129D01*
X75346973Y-107292129D01*
X75345772Y-107378123D01*
X75366994Y-107493747D01*
X75410269Y-107603048D01*
X75473950Y-107701862D01*
X75555611Y-107786425D01*
X75652143Y-107853516D01*
X75759867Y-107900579D01*
X75874681Y-107925823D01*
X75992211Y-107928285D01*
X76107981Y-107907871D01*
X76217582Y-107865360D01*
X76316838Y-107802370D01*
X76401968Y-107721301D01*
X76409293Y-107710917D01*
X77756158Y-109057783D01*
X77704850Y-109078513D01*
X77608568Y-109141519D01*
X77526356Y-109222026D01*
X77461348Y-109316968D01*
X77416019Y-109422729D01*
X77392095Y-109535280D01*
X77390489Y-109650335D01*
X77392618Y-109661935D01*
X77189393Y-109865160D01*
X76658080Y-109865160D01*
X76656891Y-109863369D01*
X76575812Y-109781722D01*
X76480418Y-109717378D01*
X76374343Y-109672788D01*
X76261628Y-109649651D01*
X76146565Y-109648847D01*
X76033537Y-109670409D01*
X75926850Y-109713513D01*
X75830568Y-109776519D01*
X75748356Y-109857026D01*
X75683348Y-109951968D01*
X75638019Y-110057729D01*
X75614095Y-110170280D01*
X75612489Y-110285335D01*
X75633260Y-110398510D01*
X75675619Y-110505495D01*
X75737951Y-110602216D01*
X75817882Y-110684987D01*
X75912368Y-110750657D01*
X76017810Y-110796723D01*
X76130192Y-110821432D01*
X76245232Y-110823841D01*
X76358549Y-110803860D01*
X76465828Y-110762250D01*
X76562981Y-110700595D01*
X76646308Y-110621243D01*
X76656468Y-110606840D01*
X77343000Y-110606840D01*
X77377092Y-110603497D01*
X77411217Y-110600511D01*
X77413087Y-110599967D01*
X77415030Y-110599777D01*
X77447876Y-110589860D01*
X77480718Y-110580319D01*
X77482444Y-110579423D01*
X77484316Y-110578859D01*
X77514642Y-110562734D01*
X77544974Y-110547012D01*
X77546493Y-110545798D01*
X77548220Y-110544881D01*
X77574803Y-110523199D01*
X77601537Y-110501859D01*
X77604245Y-110499186D01*
X77604307Y-110499137D01*
X77604353Y-110499080D01*
X77605223Y-110498223D01*
X77916833Y-110186612D01*
X78023232Y-110188841D01*
X78136549Y-110168860D01*
X78243828Y-110127250D01*
X78340981Y-110065595D01*
X78424308Y-109986243D01*
X78490636Y-109892218D01*
X78521429Y-109823054D01*
X79387099Y-110688724D01*
X79413562Y-110710461D01*
X79439811Y-110732486D01*
X79441521Y-110733426D01*
X79443027Y-110734663D01*
X79473223Y-110750854D01*
X79503234Y-110767353D01*
X79505090Y-110767941D01*
X79506810Y-110768864D01*
X79539599Y-110778888D01*
X79572221Y-110789237D01*
X79574156Y-110789454D01*
X79576024Y-110790025D01*
X79610126Y-110793488D01*
X79644145Y-110797305D01*
X79647955Y-110797331D01*
X79648029Y-110797339D01*
X79648097Y-110797332D01*
X79649323Y-110797341D01*
X79761985Y-110797341D01*
X79761985Y-110797341D01*
G37*
X79761985Y-110797341D02*
X79741534Y-110805604D01*
X79645252Y-110868610D01*
X79563040Y-110949117D01*
X79498032Y-111044059D01*
X79452703Y-111149820D01*
X79428779Y-111262371D01*
X79427173Y-111377426D01*
X79447944Y-111490601D01*
X79490303Y-111597586D01*
X79552635Y-111694307D01*
X79553833Y-111695547D01*
X79551846Y-111697535D01*
X79530129Y-111723973D01*
X79516034Y-111740770D01*
X79514567Y-111737209D01*
X79450891Y-111641369D01*
X79369812Y-111559722D01*
X79274418Y-111495378D01*
X79168343Y-111450788D01*
X79055628Y-111427651D01*
X78940565Y-111426847D01*
X78827537Y-111448409D01*
X78720850Y-111491513D01*
X78624568Y-111554519D01*
X78624198Y-111554881D01*
X78620587Y-111551915D01*
X78594315Y-111529870D01*
X78592604Y-111528929D01*
X78591099Y-111527693D01*
X78560921Y-111511511D01*
X78530892Y-111495003D01*
X78529033Y-111494413D01*
X78527315Y-111493492D01*
X78494540Y-111483471D01*
X78461905Y-111473119D01*
X78459969Y-111472901D01*
X78458102Y-111472331D01*
X78423999Y-111468867D01*
X78389981Y-111465051D01*
X78386170Y-111465024D01*
X78386097Y-111465017D01*
X78386028Y-111465023D01*
X78384803Y-111465015D01*
X75743098Y-111465015D01*
X75709051Y-111468353D01*
X75674881Y-111471343D01*
X75673004Y-111471888D01*
X75671068Y-111472078D01*
X75638263Y-111481981D01*
X75605380Y-111491536D01*
X75603653Y-111492431D01*
X75601782Y-111492996D01*
X75571495Y-111509099D01*
X75541124Y-111524842D01*
X75539600Y-111526058D01*
X75537878Y-111526974D01*
X75511328Y-111548627D01*
X75502979Y-111555292D01*
X75499628Y-111554604D01*
X75384565Y-111553800D01*
X75271537Y-111575362D01*
X75164850Y-111618466D01*
X75068568Y-111681472D01*
X74986356Y-111761979D01*
X74921348Y-111856921D01*
X74876019Y-111962682D01*
X74852095Y-112075233D01*
X74850489Y-112190288D01*
X74871260Y-112303463D01*
X74886383Y-112341661D01*
X74385107Y-112341661D01*
X71110141Y-109066695D01*
X71131926Y-109045951D01*
X71198254Y-108951926D01*
X71245055Y-108846808D01*
X71270548Y-108734602D01*
X71272383Y-108603175D01*
X71250033Y-108490301D01*
X71206185Y-108383917D01*
X71142509Y-108288077D01*
X71061430Y-108206430D01*
X70966036Y-108142086D01*
X70859961Y-108097496D01*
X70849532Y-108095355D01*
X70905157Y-108085547D01*
X71012436Y-108043937D01*
X71109589Y-107982282D01*
X71192916Y-107902930D01*
X71259244Y-107808905D01*
X71306045Y-107703787D01*
X71331538Y-107591581D01*
X71333373Y-107460154D01*
X71332582Y-107456159D01*
X71496612Y-107292129D01*
X74207069Y-107292129D01*
X74123450Y-107325913D01*
X74027168Y-107388919D01*
X73944956Y-107469426D01*
X73879948Y-107564368D01*
X73834619Y-107670129D01*
X73810695Y-107782680D01*
X73809089Y-107897735D01*
X73829860Y-108010910D01*
X73872219Y-108117895D01*
X73934551Y-108214616D01*
X74014482Y-108297387D01*
X74108968Y-108363057D01*
X74214410Y-108409123D01*
X74326792Y-108433832D01*
X74330559Y-108433910D01*
X74330559Y-108580543D01*
X74321418Y-108574378D01*
X74215343Y-108529788D01*
X74102628Y-108506651D01*
X73987565Y-108505847D01*
X73874537Y-108527409D01*
X73767850Y-108570513D01*
X73671568Y-108633519D01*
X73589356Y-108714026D01*
X73524348Y-108808968D01*
X73479019Y-108914729D01*
X73455095Y-109027280D01*
X73453489Y-109142335D01*
X73474260Y-109255510D01*
X73516619Y-109362495D01*
X73578951Y-109459216D01*
X73658882Y-109541987D01*
X73753368Y-109607657D01*
X73858810Y-109653723D01*
X73971192Y-109678432D01*
X74086232Y-109680841D01*
X74199549Y-109660860D01*
X74306828Y-109619250D01*
X74330559Y-109604189D01*
X74330559Y-110665468D01*
X74241565Y-110664847D01*
X74128537Y-110686409D01*
X74021850Y-110729513D01*
X73925568Y-110792519D01*
X73843356Y-110873026D01*
X73778348Y-110967968D01*
X73733019Y-111073729D01*
X73709095Y-111186280D01*
X73707489Y-111301335D01*
X73728260Y-111414510D01*
X73770619Y-111521495D01*
X73832951Y-111618216D01*
X73912882Y-111700987D01*
X74007368Y-111766657D01*
X74112810Y-111812723D01*
X74225192Y-111837432D01*
X74340232Y-111839841D01*
X74453549Y-111819860D01*
X74560828Y-111778250D01*
X74657981Y-111716595D01*
X74741308Y-111637243D01*
X74807636Y-111543218D01*
X74854437Y-111438100D01*
X74879930Y-111325894D01*
X74881765Y-111194467D01*
X74880973Y-111190472D01*
X74963622Y-111107824D01*
X74985338Y-111081385D01*
X75007384Y-111055113D01*
X75008324Y-111053402D01*
X75009561Y-111051897D01*
X75025742Y-111021719D01*
X75042251Y-110991690D01*
X75042840Y-110989831D01*
X75043762Y-110988113D01*
X75053782Y-110955338D01*
X75064135Y-110922703D01*
X75064352Y-110920767D01*
X75064923Y-110918900D01*
X75068386Y-110884797D01*
X75072203Y-110850779D01*
X75072229Y-110846968D01*
X75072237Y-110846895D01*
X75072230Y-110846826D01*
X75072239Y-110845601D01*
X75072239Y-108153199D01*
X75068900Y-108119152D01*
X75065911Y-108084982D01*
X75065365Y-108083105D01*
X75065176Y-108081169D01*
X75055272Y-108048364D01*
X75045718Y-108015481D01*
X75044822Y-108013754D01*
X75044258Y-108011883D01*
X75028154Y-107981596D01*
X75012412Y-107951225D01*
X75011195Y-107949701D01*
X75010280Y-107947979D01*
X74988646Y-107921453D01*
X74981663Y-107912706D01*
X74983365Y-107790867D01*
X74961015Y-107677993D01*
X74917167Y-107571609D01*
X74853491Y-107475769D01*
X74772412Y-107394122D01*
X74677018Y-107329778D01*
X74587454Y-107292129D01*
X75346973Y-107292129D01*
X75345772Y-107378123D01*
X75366994Y-107493747D01*
X75410269Y-107603048D01*
X75473950Y-107701862D01*
X75555611Y-107786425D01*
X75652143Y-107853516D01*
X75759867Y-107900579D01*
X75874681Y-107925823D01*
X75992211Y-107928285D01*
X76107981Y-107907871D01*
X76217582Y-107865360D01*
X76316838Y-107802370D01*
X76401968Y-107721301D01*
X76409293Y-107710917D01*
X77756158Y-109057783D01*
X77704850Y-109078513D01*
X77608568Y-109141519D01*
X77526356Y-109222026D01*
X77461348Y-109316968D01*
X77416019Y-109422729D01*
X77392095Y-109535280D01*
X77390489Y-109650335D01*
X77392618Y-109661935D01*
X77189393Y-109865160D01*
X76658080Y-109865160D01*
X76656891Y-109863369D01*
X76575812Y-109781722D01*
X76480418Y-109717378D01*
X76374343Y-109672788D01*
X76261628Y-109649651D01*
X76146565Y-109648847D01*
X76033537Y-109670409D01*
X75926850Y-109713513D01*
X75830568Y-109776519D01*
X75748356Y-109857026D01*
X75683348Y-109951968D01*
X75638019Y-110057729D01*
X75614095Y-110170280D01*
X75612489Y-110285335D01*
X75633260Y-110398510D01*
X75675619Y-110505495D01*
X75737951Y-110602216D01*
X75817882Y-110684987D01*
X75912368Y-110750657D01*
X76017810Y-110796723D01*
X76130192Y-110821432D01*
X76245232Y-110823841D01*
X76358549Y-110803860D01*
X76465828Y-110762250D01*
X76562981Y-110700595D01*
X76646308Y-110621243D01*
X76656468Y-110606840D01*
X77343000Y-110606840D01*
X77377092Y-110603497D01*
X77411217Y-110600511D01*
X77413087Y-110599967D01*
X77415030Y-110599777D01*
X77447876Y-110589860D01*
X77480718Y-110580319D01*
X77482444Y-110579423D01*
X77484316Y-110578859D01*
X77514642Y-110562734D01*
X77544974Y-110547012D01*
X77546493Y-110545798D01*
X77548220Y-110544881D01*
X77574803Y-110523199D01*
X77601537Y-110501859D01*
X77604245Y-110499186D01*
X77604307Y-110499137D01*
X77604353Y-110499080D01*
X77605223Y-110498223D01*
X77916833Y-110186612D01*
X78023232Y-110188841D01*
X78136549Y-110168860D01*
X78243828Y-110127250D01*
X78340981Y-110065595D01*
X78424308Y-109986243D01*
X78490636Y-109892218D01*
X78521429Y-109823054D01*
X79387099Y-110688724D01*
X79413562Y-110710461D01*
X79439811Y-110732486D01*
X79441521Y-110733426D01*
X79443027Y-110734663D01*
X79473223Y-110750854D01*
X79503234Y-110767353D01*
X79505090Y-110767941D01*
X79506810Y-110768864D01*
X79539599Y-110778888D01*
X79572221Y-110789237D01*
X79574156Y-110789454D01*
X79576024Y-110790025D01*
X79610126Y-110793488D01*
X79644145Y-110797305D01*
X79647955Y-110797331D01*
X79648029Y-110797339D01*
X79648097Y-110797332D01*
X79649323Y-110797341D01*
X79761985Y-110797341D01*
G36*
X80283861Y-107909360D02*
X79744210Y-107909360D01*
X76754027Y-104919178D01*
X76727588Y-104897461D01*
X76701316Y-104875416D01*
X76699605Y-104874475D01*
X76698100Y-104873239D01*
X76667922Y-104857057D01*
X76637893Y-104840549D01*
X76636034Y-104839959D01*
X76634316Y-104839038D01*
X76601541Y-104829017D01*
X76568906Y-104818665D01*
X76566970Y-104818447D01*
X76565103Y-104817877D01*
X76531000Y-104814413D01*
X76496982Y-104810597D01*
X76493171Y-104810570D01*
X76493098Y-104810563D01*
X76493029Y-104810569D01*
X76491804Y-104810561D01*
X68554599Y-104810561D01*
X68520552Y-104813899D01*
X68486382Y-104816889D01*
X68484505Y-104817434D01*
X68482569Y-104817624D01*
X68449764Y-104827527D01*
X68416881Y-104837082D01*
X68415154Y-104837977D01*
X68413283Y-104838542D01*
X68382996Y-104854645D01*
X68352625Y-104870388D01*
X68351101Y-104871604D01*
X68349379Y-104872520D01*
X68322853Y-104894153D01*
X68314839Y-104900551D01*
X68311428Y-104899851D01*
X68196365Y-104899047D01*
X68083337Y-104920609D01*
X67976650Y-104963713D01*
X67880368Y-105026719D01*
X67798156Y-105107226D01*
X67733148Y-105202168D01*
X67687819Y-105307929D01*
X67663895Y-105420480D01*
X67662289Y-105535535D01*
X67683060Y-105648710D01*
X67725419Y-105755695D01*
X67787751Y-105852416D01*
X67867682Y-105935187D01*
X67962168Y-106000857D01*
X68067610Y-106046923D01*
X68100670Y-106054191D01*
X68088006Y-106113773D01*
X68086400Y-106228828D01*
X68107171Y-106342003D01*
X68149530Y-106448988D01*
X68211862Y-106545709D01*
X68291793Y-106628480D01*
X68386279Y-106694150D01*
X68491721Y-106740216D01*
X68604103Y-106764925D01*
X68719143Y-106767334D01*
X68832460Y-106747353D01*
X68939739Y-106705743D01*
X69036892Y-106644088D01*
X69120219Y-106564736D01*
X69186547Y-106470711D01*
X69211499Y-106414665D01*
X69248273Y-106507542D01*
X69310605Y-106604263D01*
X69390536Y-106687034D01*
X69485022Y-106752704D01*
X69590464Y-106798770D01*
X69695241Y-106821807D01*
X69610898Y-106877001D01*
X69528686Y-106957508D01*
X69463678Y-107052450D01*
X69418349Y-107158211D01*
X69394425Y-107270762D01*
X69392819Y-107385817D01*
X69413590Y-107498992D01*
X69455949Y-107605977D01*
X69518281Y-107702698D01*
X69598212Y-107785469D01*
X69692698Y-107851139D01*
X69798140Y-107897205D01*
X69910522Y-107921914D01*
X70025562Y-107924323D01*
X70138879Y-107904342D01*
X70246158Y-107862732D01*
X70263729Y-107851581D01*
X70284559Y-107883903D01*
X70364490Y-107966674D01*
X70458976Y-108032344D01*
X70564418Y-108078410D01*
X70584076Y-108082732D01*
X70519155Y-108095117D01*
X70412468Y-108138221D01*
X70316186Y-108201227D01*
X70233974Y-108281734D01*
X70168966Y-108376676D01*
X70123637Y-108482437D01*
X70099713Y-108594988D01*
X70098107Y-108710043D01*
X70118878Y-108823218D01*
X70161237Y-108930203D01*
X70223569Y-109026924D01*
X70303500Y-109109695D01*
X70314778Y-109117533D01*
X70314778Y-109166618D01*
X70318120Y-109200710D01*
X70321107Y-109234835D01*
X70321650Y-109236705D01*
X70321841Y-109238648D01*
X70331757Y-109271494D01*
X70341299Y-109304336D01*
X70342194Y-109306062D01*
X70342759Y-109307934D01*
X70358883Y-109338260D01*
X70374606Y-109368592D01*
X70375819Y-109370111D01*
X70376737Y-109371838D01*
X70398418Y-109398421D01*
X70419759Y-109425155D01*
X70422431Y-109427863D01*
X70422481Y-109427925D01*
X70422537Y-109427971D01*
X70423395Y-109428841D01*
X73969278Y-112974725D01*
X73995746Y-112996465D01*
X74021989Y-113018486D01*
X74023699Y-113019426D01*
X74025205Y-113020663D01*
X74055417Y-113036863D01*
X74085412Y-113053353D01*
X74087266Y-113053941D01*
X74088989Y-113054865D01*
X74121808Y-113064898D01*
X74154399Y-113075237D01*
X74156334Y-113075454D01*
X74158202Y-113076025D01*
X74192304Y-113079488D01*
X74226323Y-113083305D01*
X74230133Y-113083331D01*
X74230207Y-113083339D01*
X74230275Y-113083332D01*
X74231501Y-113083341D01*
X75712321Y-113083341D01*
X75746413Y-113079998D01*
X75780538Y-113077012D01*
X75782408Y-113076468D01*
X75784351Y-113076278D01*
X75817197Y-113066361D01*
X75850039Y-113056820D01*
X75851765Y-113055924D01*
X75853637Y-113055360D01*
X75883963Y-113039235D01*
X75914295Y-113023513D01*
X75915814Y-113022299D01*
X75917541Y-113021382D01*
X75944124Y-112999700D01*
X75970858Y-112978360D01*
X75973566Y-112975687D01*
X75973628Y-112975638D01*
X75973674Y-112975581D01*
X75974544Y-112974724D01*
X76121023Y-112828245D01*
X76141260Y-112938510D01*
X76183619Y-113045495D01*
X76245951Y-113142216D01*
X76319086Y-113217950D01*
X73021104Y-113217950D01*
X67109931Y-107306777D01*
X67083492Y-107285060D01*
X67057220Y-107263015D01*
X67055509Y-107262074D01*
X67054004Y-107260838D01*
X67023826Y-107244656D01*
X66993797Y-107228148D01*
X66991938Y-107227558D01*
X66990220Y-107226637D01*
X66957445Y-107216616D01*
X66924810Y-107206264D01*
X66922874Y-107206046D01*
X66921007Y-107205476D01*
X66886904Y-107202012D01*
X66852886Y-107198196D01*
X66849075Y-107198169D01*
X66849002Y-107198162D01*
X66848933Y-107198168D01*
X66847708Y-107198160D01*
X65605807Y-107198160D01*
X65571714Y-107201502D01*
X65537590Y-107204489D01*
X65535719Y-107205032D01*
X65533777Y-107205223D01*
X65500930Y-107215139D01*
X65468089Y-107224681D01*
X65466362Y-107225576D01*
X65464491Y-107226141D01*
X65434164Y-107242265D01*
X65403833Y-107257988D01*
X65402313Y-107259201D01*
X65400587Y-107260119D01*
X65374003Y-107281800D01*
X65347270Y-107303141D01*
X65344561Y-107305813D01*
X65344500Y-107305863D01*
X65344453Y-107305919D01*
X65343584Y-107306777D01*
X64039730Y-108610631D01*
X64018013Y-108637069D01*
X63995968Y-108663342D01*
X63995027Y-108665052D01*
X63993791Y-108666558D01*
X63977609Y-108696735D01*
X63961101Y-108726765D01*
X63960511Y-108728623D01*
X63959590Y-108730342D01*
X63949569Y-108763116D01*
X63939217Y-108795752D01*
X63938999Y-108797687D01*
X63938429Y-108799555D01*
X63934965Y-108833657D01*
X63931149Y-108867676D01*
X63931122Y-108871486D01*
X63931115Y-108871560D01*
X63931121Y-108871628D01*
X63931113Y-108872854D01*
X63931113Y-109421496D01*
X63934455Y-109455588D01*
X63937442Y-109489713D01*
X63937985Y-109491583D01*
X63938176Y-109493526D01*
X63948092Y-109526372D01*
X63957634Y-109559214D01*
X63958529Y-109560940D01*
X63959094Y-109562812D01*
X63975218Y-109593138D01*
X63990941Y-109623470D01*
X63992154Y-109624989D01*
X63993072Y-109626716D01*
X64014753Y-109653299D01*
X64036094Y-109680033D01*
X64038766Y-109682741D01*
X64038816Y-109682803D01*
X64038872Y-109682849D01*
X64039730Y-109683719D01*
X65294581Y-110938570D01*
X65294581Y-111287665D01*
X65213777Y-111366794D01*
X65148769Y-111461736D01*
X65103440Y-111567497D01*
X65079516Y-111680048D01*
X65077910Y-111795103D01*
X65098681Y-111908278D01*
X65141040Y-112015263D01*
X65203372Y-112111984D01*
X65283303Y-112194755D01*
X65377789Y-112260425D01*
X65483231Y-112306491D01*
X65595613Y-112331200D01*
X65710653Y-112333609D01*
X65823970Y-112313628D01*
X65880350Y-112291760D01*
X65880350Y-114494003D01*
X64914177Y-115460177D01*
X64892460Y-115486615D01*
X64870415Y-115512888D01*
X64869474Y-115514598D01*
X64868238Y-115516104D01*
X64852056Y-115546281D01*
X64835548Y-115576311D01*
X64834958Y-115578169D01*
X64834037Y-115579888D01*
X64824016Y-115612662D01*
X64813664Y-115645298D01*
X64813446Y-115647233D01*
X64812876Y-115649101D01*
X64809412Y-115683203D01*
X64805596Y-115717222D01*
X64805569Y-115721032D01*
X64805562Y-115721106D01*
X64805568Y-115721174D01*
X64805560Y-115722400D01*
X64805560Y-117015246D01*
X64808902Y-117049338D01*
X64811889Y-117083463D01*
X64812432Y-117085333D01*
X64812623Y-117087276D01*
X64822539Y-117120122D01*
X64832081Y-117152964D01*
X64832976Y-117154690D01*
X64833541Y-117156562D01*
X64849665Y-117186888D01*
X64865388Y-117217220D01*
X64866601Y-117218739D01*
X64867519Y-117220466D01*
X64889200Y-117247049D01*
X64910541Y-117273783D01*
X64913213Y-117276491D01*
X64913263Y-117276553D01*
X64913319Y-117276599D01*
X64914177Y-117277469D01*
X65945429Y-118308722D01*
X65971897Y-118330462D01*
X65998140Y-118352483D01*
X65999850Y-118353423D01*
X66001356Y-118354660D01*
X66031568Y-118370860D01*
X66061563Y-118387350D01*
X66063417Y-118387938D01*
X66065140Y-118388862D01*
X66098001Y-118398908D01*
X66130550Y-118409234D01*
X66132480Y-118409450D01*
X66134353Y-118410023D01*
X66168504Y-118413491D01*
X66202474Y-118417302D01*
X66206284Y-118417328D01*
X66206358Y-118417336D01*
X66206426Y-118417329D01*
X66207652Y-118417338D01*
X67254521Y-118417339D01*
X67288613Y-118413996D01*
X67322738Y-118411010D01*
X67324608Y-118410466D01*
X67326551Y-118410276D01*
X67359397Y-118400359D01*
X67392239Y-118390818D01*
X67393965Y-118389922D01*
X67395837Y-118389358D01*
X67426163Y-118373233D01*
X67456495Y-118357511D01*
X67458014Y-118356297D01*
X67459741Y-118355380D01*
X67486324Y-118333698D01*
X67513058Y-118312358D01*
X67515766Y-118309685D01*
X67515828Y-118309636D01*
X67515874Y-118309579D01*
X67516744Y-118308722D01*
X68233626Y-117591840D01*
X71229407Y-117591840D01*
X71192787Y-117615804D01*
X71110575Y-117696311D01*
X71100515Y-117711003D01*
X71066235Y-117687881D01*
X70960160Y-117643291D01*
X70847445Y-117620154D01*
X70732382Y-117619350D01*
X70619354Y-117640912D01*
X70512667Y-117684016D01*
X70416385Y-117747022D01*
X70334173Y-117827529D01*
X70269165Y-117922471D01*
X70223836Y-118028232D01*
X70199912Y-118140783D01*
X70198306Y-118255838D01*
X70219077Y-118369013D01*
X70261436Y-118475998D01*
X70323768Y-118572719D01*
X70403699Y-118655490D01*
X70498185Y-118721160D01*
X70603627Y-118767226D01*
X70716009Y-118791935D01*
X70831049Y-118794344D01*
X70846489Y-118791621D01*
X71097723Y-119042855D01*
X71097723Y-120998563D01*
X71101065Y-121032655D01*
X71104052Y-121066780D01*
X71104595Y-121068650D01*
X71104786Y-121070593D01*
X71114702Y-121103439D01*
X71124244Y-121136281D01*
X71125139Y-121138007D01*
X71125704Y-121139879D01*
X71141828Y-121170205D01*
X71157551Y-121200537D01*
X71158764Y-121202056D01*
X71159682Y-121203783D01*
X71181363Y-121230366D01*
X71202704Y-121257100D01*
X71205376Y-121259808D01*
X71205426Y-121259870D01*
X71205482Y-121259916D01*
X71206340Y-121260786D01*
X72146160Y-122200606D01*
X72146160Y-122475013D01*
X72140377Y-122460983D01*
X72031098Y-122296505D01*
X71891953Y-122156385D01*
X71728242Y-122045961D01*
X71546201Y-121969438D01*
X71352763Y-121929731D01*
X71155297Y-121928352D01*
X70961324Y-121965355D01*
X70778232Y-122039329D01*
X70612995Y-122147456D01*
X70471907Y-122285620D01*
X70360342Y-122448556D01*
X70347840Y-122477725D01*
X70347840Y-122396831D01*
X70620223Y-122124449D01*
X70641978Y-122097963D01*
X70663985Y-122071737D01*
X70664923Y-122070029D01*
X70666162Y-122068522D01*
X70682364Y-122038303D01*
X70698852Y-122008314D01*
X70699440Y-122006457D01*
X70700363Y-122004738D01*
X70710391Y-121971936D01*
X70720736Y-121939327D01*
X70720952Y-121937392D01*
X70721524Y-121935525D01*
X70724988Y-121901416D01*
X70728804Y-121867403D01*
X70728830Y-121863592D01*
X70728838Y-121863519D01*
X70728831Y-121863450D01*
X70728840Y-121862225D01*
X70728840Y-120291271D01*
X70744654Y-120276212D01*
X70810982Y-120182187D01*
X70857783Y-120077069D01*
X70883276Y-119964863D01*
X70885111Y-119833436D01*
X70862761Y-119720562D01*
X70818913Y-119614178D01*
X70755237Y-119518338D01*
X70674158Y-119436691D01*
X70578764Y-119372347D01*
X70472689Y-119327757D01*
X70359974Y-119304620D01*
X70244911Y-119303816D01*
X70131883Y-119325378D01*
X70025196Y-119368482D01*
X69928914Y-119431488D01*
X69846702Y-119511995D01*
X69781694Y-119606937D01*
X69736365Y-119712698D01*
X69712441Y-119825249D01*
X69710835Y-119940304D01*
X69716716Y-119972348D01*
X69620017Y-119990796D01*
X69513330Y-120033900D01*
X69417048Y-120096906D01*
X69334836Y-120177413D01*
X69269828Y-120272355D01*
X69224499Y-120378116D01*
X69200575Y-120490667D01*
X69198969Y-120605722D01*
X69219740Y-120718897D01*
X69262099Y-120825882D01*
X69324431Y-120922603D01*
X69404362Y-121005374D01*
X69415640Y-121013212D01*
X69415640Y-121282450D01*
X68238811Y-121282450D01*
X68204673Y-121285797D01*
X68170594Y-121288779D01*
X68168722Y-121289322D01*
X68166781Y-121289513D01*
X68133948Y-121299425D01*
X68101092Y-121308971D01*
X68099363Y-121309866D01*
X68097495Y-121310431D01*
X68067187Y-121326545D01*
X68036837Y-121342278D01*
X68035317Y-121343491D01*
X68033591Y-121344409D01*
X68007007Y-121366090D01*
X67980274Y-121387431D01*
X67977560Y-121390106D01*
X67977504Y-121390153D01*
X67977460Y-121390205D01*
X67976587Y-121391067D01*
X67314467Y-122053188D01*
X67292750Y-122079626D01*
X67270705Y-122105899D01*
X67269764Y-122107609D01*
X67268528Y-122109115D01*
X67252346Y-122139292D01*
X67235838Y-122169322D01*
X67235248Y-122171180D01*
X67234327Y-122172899D01*
X67224306Y-122205673D01*
X67213954Y-122238309D01*
X67213736Y-122240244D01*
X67213166Y-122242112D01*
X67209702Y-122276214D01*
X67205886Y-122310233D01*
X67205859Y-122314043D01*
X67205852Y-122314117D01*
X67205858Y-122314185D01*
X67205850Y-122315411D01*
X67205850Y-124193290D01*
X67209192Y-124227382D01*
X67212179Y-124261507D01*
X67212722Y-124263377D01*
X67212913Y-124265320D01*
X67222829Y-124298166D01*
X67232371Y-124331008D01*
X67233266Y-124332734D01*
X67233831Y-124334606D01*
X67249955Y-124364932D01*
X67265678Y-124395264D01*
X67266891Y-124396783D01*
X67267809Y-124398510D01*
X67289490Y-124425093D01*
X67310831Y-124451827D01*
X67313503Y-124454535D01*
X67313553Y-124454597D01*
X67313609Y-124454643D01*
X67314467Y-124455513D01*
X67831383Y-124972430D01*
X67820342Y-124988556D01*
X67742550Y-125170059D01*
X67701494Y-125363214D01*
X67698737Y-125560666D01*
X67734384Y-125754893D01*
X67807078Y-125938497D01*
X67914050Y-126104485D01*
X68051225Y-126246534D01*
X68213378Y-126359233D01*
X68307972Y-126400560D01*
X66567950Y-126400560D01*
X66623203Y-126379129D01*
X66789934Y-126273319D01*
X66932937Y-126137139D01*
X67046765Y-125975776D01*
X67127084Y-125795377D01*
X67170834Y-125602814D01*
X67173983Y-125377264D01*
X67135627Y-125183554D01*
X67060377Y-125000983D01*
X66951098Y-124836505D01*
X66811953Y-124696385D01*
X66648242Y-124585961D01*
X66466201Y-124509438D01*
X66272763Y-124469731D01*
X66075297Y-124468352D01*
X65881324Y-124505355D01*
X65875538Y-124507692D01*
X65407530Y-124039683D01*
X65407530Y-123599154D01*
X65511225Y-123706534D01*
X65673378Y-123819233D01*
X65854333Y-123898290D01*
X66047197Y-123940694D01*
X66244625Y-123944830D01*
X66439096Y-123910539D01*
X66623203Y-123839129D01*
X66789934Y-123733319D01*
X66932937Y-123597139D01*
X67046765Y-123435776D01*
X67127084Y-123255377D01*
X67170834Y-123062814D01*
X67173983Y-122837264D01*
X67135627Y-122643554D01*
X67060377Y-122460983D01*
X66951098Y-122296505D01*
X66811953Y-122156385D01*
X66648242Y-122045961D01*
X66466201Y-121969438D01*
X66272763Y-121929731D01*
X66075297Y-121928352D01*
X65908153Y-121960236D01*
X67828705Y-120039686D01*
X67850445Y-120013217D01*
X67872466Y-119986975D01*
X67873406Y-119985264D01*
X67874643Y-119983759D01*
X67890843Y-119953546D01*
X67907333Y-119923552D01*
X67907921Y-119921697D01*
X67908845Y-119919975D01*
X67918878Y-119887155D01*
X67929217Y-119854565D01*
X67929434Y-119852629D01*
X67930005Y-119850762D01*
X67933468Y-119816659D01*
X67937285Y-119782641D01*
X67937311Y-119778830D01*
X67937319Y-119778757D01*
X67937312Y-119778688D01*
X67937321Y-119777463D01*
X67937321Y-119658125D01*
X68806470Y-118788975D01*
X68895035Y-118808448D01*
X69010075Y-118810857D01*
X69123392Y-118790876D01*
X69230671Y-118749266D01*
X69327824Y-118687611D01*
X69411151Y-118608259D01*
X69477479Y-118514234D01*
X69524280Y-118409116D01*
X69549773Y-118296910D01*
X69551608Y-118165483D01*
X69529258Y-118052609D01*
X69485410Y-117946225D01*
X69421734Y-117850385D01*
X69340655Y-117768738D01*
X69245261Y-117704394D01*
X69139186Y-117659804D01*
X69026471Y-117636667D01*
X68911408Y-117635863D01*
X68798380Y-117657425D01*
X68691693Y-117700529D01*
X68595411Y-117763535D01*
X68513199Y-117844042D01*
X68448191Y-117938984D01*
X68402862Y-118044745D01*
X68378938Y-118157296D01*
X68378791Y-118167761D01*
X67304258Y-119242296D01*
X67282541Y-119268734D01*
X67260496Y-119295007D01*
X67259555Y-119296717D01*
X67258319Y-119298223D01*
X67242137Y-119328400D01*
X67225629Y-119358430D01*
X67225039Y-119360288D01*
X67224118Y-119362007D01*
X67214097Y-119394781D01*
X67203745Y-119427417D01*
X67203527Y-119429352D01*
X67202957Y-119431220D01*
X67199493Y-119465322D01*
X67195677Y-119499341D01*
X67195650Y-119503151D01*
X67195643Y-119503225D01*
X67195649Y-119503293D01*
X67195641Y-119504519D01*
X67195641Y-119623856D01*
X64774467Y-122045031D01*
X64752750Y-122071469D01*
X64730705Y-122097742D01*
X64729764Y-122099452D01*
X64728528Y-122100958D01*
X64712346Y-122131135D01*
X64695838Y-122161165D01*
X64695248Y-122163023D01*
X64694327Y-122164742D01*
X64684306Y-122197516D01*
X64673954Y-122230152D01*
X64673736Y-122232087D01*
X64673166Y-122233955D01*
X64669702Y-122268057D01*
X64665886Y-122302076D01*
X64665859Y-122305886D01*
X64665852Y-122305960D01*
X64665858Y-122306028D01*
X64665850Y-122307254D01*
X64665850Y-124193290D01*
X64669192Y-124227382D01*
X64672179Y-124261507D01*
X64672722Y-124263377D01*
X64672913Y-124265320D01*
X64682829Y-124298166D01*
X64692371Y-124331008D01*
X64693266Y-124332734D01*
X64693831Y-124334606D01*
X64709955Y-124364932D01*
X64725678Y-124395264D01*
X64726891Y-124396783D01*
X64727809Y-124398510D01*
X64749490Y-124425093D01*
X64770831Y-124451827D01*
X64773503Y-124454535D01*
X64773553Y-124454597D01*
X64773609Y-124454643D01*
X64774467Y-124455513D01*
X65291383Y-124972430D01*
X65280342Y-124988556D01*
X65202550Y-125170059D01*
X65161494Y-125363214D01*
X65158737Y-125560666D01*
X65194384Y-125754893D01*
X65267078Y-125938497D01*
X65374050Y-126104485D01*
X65511225Y-126246534D01*
X65673378Y-126359233D01*
X65767972Y-126400560D01*
X64027950Y-126400560D01*
X64083203Y-126379129D01*
X64249934Y-126273319D01*
X64392937Y-126137139D01*
X64506765Y-125975776D01*
X64587084Y-125795377D01*
X64630834Y-125602814D01*
X64633983Y-125377264D01*
X64633983Y-122837264D01*
X64595627Y-122643554D01*
X64520377Y-122460983D01*
X64411098Y-122296505D01*
X64271953Y-122156385D01*
X64108242Y-122045961D01*
X63926201Y-121969438D01*
X63732763Y-121929731D01*
X63535297Y-121928352D01*
X63341324Y-121965355D01*
X63158232Y-122039329D01*
X62992995Y-122147456D01*
X62851907Y-122285620D01*
X62740342Y-122448556D01*
X62662550Y-122630059D01*
X62621494Y-122823214D01*
X62618737Y-123020666D01*
X62654384Y-123214893D01*
X62727078Y-123398497D01*
X62834050Y-123564485D01*
X62971225Y-123706534D01*
X63133378Y-123819233D01*
X63314333Y-123898290D01*
X63507197Y-123940694D01*
X63704625Y-123944830D01*
X63899096Y-123910539D01*
X64083203Y-123839129D01*
X64249934Y-123733319D01*
X64392937Y-123597139D01*
X64506765Y-123435776D01*
X64587084Y-123255377D01*
X64630834Y-123062814D01*
X64633983Y-122837264D01*
X64633983Y-125377264D01*
X64595627Y-125183554D01*
X64520377Y-125000983D01*
X64411098Y-124836505D01*
X64271953Y-124696385D01*
X64108242Y-124585961D01*
X63926201Y-124509438D01*
X63732763Y-124469731D01*
X63535297Y-124468352D01*
X63341324Y-124505355D01*
X63158232Y-124579329D01*
X62992995Y-124687456D01*
X62851907Y-124825620D01*
X62740342Y-124988556D01*
X62662550Y-125170059D01*
X62621494Y-125363214D01*
X62618737Y-125560666D01*
X62654384Y-125754893D01*
X62727078Y-125938497D01*
X62834050Y-126104485D01*
X62971225Y-126246534D01*
X63133378Y-126359233D01*
X63227972Y-126400560D01*
X62096024Y-126400560D01*
X62096024Y-125551066D01*
X62096024Y-123011066D01*
X62091280Y-122812773D01*
X62047943Y-122619215D01*
X61990490Y-122480512D01*
X61857565Y-122395329D01*
X61316895Y-122936000D01*
X61857565Y-123476671D01*
X61990490Y-123391488D01*
X62061991Y-123206474D01*
X62096024Y-123011066D01*
X62096024Y-125551066D01*
X62091280Y-125352773D01*
X62047943Y-125159215D01*
X61990490Y-125020512D01*
X61857565Y-124935329D01*
X61316895Y-125476000D01*
X61857565Y-126016671D01*
X61990490Y-125931488D01*
X62061991Y-125746474D01*
X62096024Y-125551066D01*
X62096024Y-126400560D01*
X61491620Y-126400560D01*
X61542488Y-126379490D01*
X61627671Y-126246565D01*
X61087000Y-125705895D01*
X61072857Y-125720036D01*
X61051440Y-125698619D01*
X61051440Y-125253381D01*
X61072858Y-125231963D01*
X61087000Y-125246105D01*
X61627671Y-124705435D01*
X61542488Y-124572510D01*
X61357474Y-124501009D01*
X61162066Y-124466976D01*
X61051440Y-124469622D01*
X61051440Y-123944078D01*
X61210227Y-123940280D01*
X61403785Y-123896943D01*
X61542488Y-123839490D01*
X61627671Y-123706565D01*
X61087000Y-123165895D01*
X61072857Y-123180036D01*
X61051440Y-123158619D01*
X61051440Y-122713381D01*
X61072858Y-122691963D01*
X61087000Y-122706105D01*
X61627671Y-122165435D01*
X61542488Y-122032510D01*
X61357474Y-121961009D01*
X61162066Y-121926976D01*
X61051440Y-121929622D01*
X61051440Y-121703876D01*
X62829440Y-119925876D01*
X62829440Y-99659440D01*
X67030402Y-99659440D01*
X66971815Y-99683111D01*
X66852607Y-99761118D01*
X66750822Y-99860794D01*
X66670336Y-99978341D01*
X66614214Y-100109284D01*
X66584594Y-100248633D01*
X66582605Y-100391081D01*
X66608322Y-100531203D01*
X66660766Y-100663661D01*
X66737939Y-100783410D01*
X66836902Y-100885889D01*
X66952142Y-100965983D01*
X66852607Y-101031118D01*
X66750822Y-101130794D01*
X66670336Y-101248341D01*
X66614214Y-101379284D01*
X66584594Y-101518633D01*
X66582605Y-101661081D01*
X66608322Y-101801203D01*
X66660766Y-101933661D01*
X66737939Y-102053410D01*
X66836902Y-102155889D01*
X66953884Y-102237194D01*
X67084431Y-102294228D01*
X67223570Y-102324820D01*
X67366001Y-102327804D01*
X67491268Y-102305715D01*
X67809777Y-102624224D01*
X67836245Y-102645964D01*
X67862488Y-102667985D01*
X67864198Y-102668925D01*
X67865704Y-102670162D01*
X67895916Y-102686362D01*
X67925911Y-102702852D01*
X67927765Y-102703440D01*
X67929488Y-102704364D01*
X67962307Y-102714397D01*
X67994898Y-102724736D01*
X67996833Y-102724953D01*
X67998701Y-102725524D01*
X68032803Y-102728987D01*
X68066822Y-102732804D01*
X68070632Y-102732830D01*
X68070706Y-102732838D01*
X68070774Y-102732831D01*
X68072000Y-102732840D01*
X75234416Y-102732840D01*
X75309882Y-102810987D01*
X75404368Y-102876657D01*
X75509810Y-102922723D01*
X75622192Y-102947432D01*
X75737232Y-102949841D01*
X75752672Y-102947118D01*
X77734160Y-104928606D01*
X77734160Y-105206052D01*
X77737502Y-105240144D01*
X77740489Y-105274269D01*
X77741032Y-105276139D01*
X77741223Y-105278082D01*
X77751139Y-105310928D01*
X77760681Y-105343770D01*
X77761576Y-105345496D01*
X77762141Y-105347368D01*
X77778265Y-105377694D01*
X77793988Y-105408026D01*
X77795201Y-105409545D01*
X77796119Y-105411272D01*
X77817800Y-105437855D01*
X77839141Y-105464589D01*
X77841813Y-105467297D01*
X77841863Y-105467359D01*
X77841919Y-105467405D01*
X77842777Y-105468275D01*
X80283861Y-107909360D01*
X80283861Y-107909360D01*
G37*
X80283861Y-107909360D02*
X79744210Y-107909360D01*
X76754027Y-104919178D01*
X76727588Y-104897461D01*
X76701316Y-104875416D01*
X76699605Y-104874475D01*
X76698100Y-104873239D01*
X76667922Y-104857057D01*
X76637893Y-104840549D01*
X76636034Y-104839959D01*
X76634316Y-104839038D01*
X76601541Y-104829017D01*
X76568906Y-104818665D01*
X76566970Y-104818447D01*
X76565103Y-104817877D01*
X76531000Y-104814413D01*
X76496982Y-104810597D01*
X76493171Y-104810570D01*
X76493098Y-104810563D01*
X76493029Y-104810569D01*
X76491804Y-104810561D01*
X68554599Y-104810561D01*
X68520552Y-104813899D01*
X68486382Y-104816889D01*
X68484505Y-104817434D01*
X68482569Y-104817624D01*
X68449764Y-104827527D01*
X68416881Y-104837082D01*
X68415154Y-104837977D01*
X68413283Y-104838542D01*
X68382996Y-104854645D01*
X68352625Y-104870388D01*
X68351101Y-104871604D01*
X68349379Y-104872520D01*
X68322853Y-104894153D01*
X68314839Y-104900551D01*
X68311428Y-104899851D01*
X68196365Y-104899047D01*
X68083337Y-104920609D01*
X67976650Y-104963713D01*
X67880368Y-105026719D01*
X67798156Y-105107226D01*
X67733148Y-105202168D01*
X67687819Y-105307929D01*
X67663895Y-105420480D01*
X67662289Y-105535535D01*
X67683060Y-105648710D01*
X67725419Y-105755695D01*
X67787751Y-105852416D01*
X67867682Y-105935187D01*
X67962168Y-106000857D01*
X68067610Y-106046923D01*
X68100670Y-106054191D01*
X68088006Y-106113773D01*
X68086400Y-106228828D01*
X68107171Y-106342003D01*
X68149530Y-106448988D01*
X68211862Y-106545709D01*
X68291793Y-106628480D01*
X68386279Y-106694150D01*
X68491721Y-106740216D01*
X68604103Y-106764925D01*
X68719143Y-106767334D01*
X68832460Y-106747353D01*
X68939739Y-106705743D01*
X69036892Y-106644088D01*
X69120219Y-106564736D01*
X69186547Y-106470711D01*
X69211499Y-106414665D01*
X69248273Y-106507542D01*
X69310605Y-106604263D01*
X69390536Y-106687034D01*
X69485022Y-106752704D01*
X69590464Y-106798770D01*
X69695241Y-106821807D01*
X69610898Y-106877001D01*
X69528686Y-106957508D01*
X69463678Y-107052450D01*
X69418349Y-107158211D01*
X69394425Y-107270762D01*
X69392819Y-107385817D01*
X69413590Y-107498992D01*
X69455949Y-107605977D01*
X69518281Y-107702698D01*
X69598212Y-107785469D01*
X69692698Y-107851139D01*
X69798140Y-107897205D01*
X69910522Y-107921914D01*
X70025562Y-107924323D01*
X70138879Y-107904342D01*
X70246158Y-107862732D01*
X70263729Y-107851581D01*
X70284559Y-107883903D01*
X70364490Y-107966674D01*
X70458976Y-108032344D01*
X70564418Y-108078410D01*
X70584076Y-108082732D01*
X70519155Y-108095117D01*
X70412468Y-108138221D01*
X70316186Y-108201227D01*
X70233974Y-108281734D01*
X70168966Y-108376676D01*
X70123637Y-108482437D01*
X70099713Y-108594988D01*
X70098107Y-108710043D01*
X70118878Y-108823218D01*
X70161237Y-108930203D01*
X70223569Y-109026924D01*
X70303500Y-109109695D01*
X70314778Y-109117533D01*
X70314778Y-109166618D01*
X70318120Y-109200710D01*
X70321107Y-109234835D01*
X70321650Y-109236705D01*
X70321841Y-109238648D01*
X70331757Y-109271494D01*
X70341299Y-109304336D01*
X70342194Y-109306062D01*
X70342759Y-109307934D01*
X70358883Y-109338260D01*
X70374606Y-109368592D01*
X70375819Y-109370111D01*
X70376737Y-109371838D01*
X70398418Y-109398421D01*
X70419759Y-109425155D01*
X70422431Y-109427863D01*
X70422481Y-109427925D01*
X70422537Y-109427971D01*
X70423395Y-109428841D01*
X73969278Y-112974725D01*
X73995746Y-112996465D01*
X74021989Y-113018486D01*
X74023699Y-113019426D01*
X74025205Y-113020663D01*
X74055417Y-113036863D01*
X74085412Y-113053353D01*
X74087266Y-113053941D01*
X74088989Y-113054865D01*
X74121808Y-113064898D01*
X74154399Y-113075237D01*
X74156334Y-113075454D01*
X74158202Y-113076025D01*
X74192304Y-113079488D01*
X74226323Y-113083305D01*
X74230133Y-113083331D01*
X74230207Y-113083339D01*
X74230275Y-113083332D01*
X74231501Y-113083341D01*
X75712321Y-113083341D01*
X75746413Y-113079998D01*
X75780538Y-113077012D01*
X75782408Y-113076468D01*
X75784351Y-113076278D01*
X75817197Y-113066361D01*
X75850039Y-113056820D01*
X75851765Y-113055924D01*
X75853637Y-113055360D01*
X75883963Y-113039235D01*
X75914295Y-113023513D01*
X75915814Y-113022299D01*
X75917541Y-113021382D01*
X75944124Y-112999700D01*
X75970858Y-112978360D01*
X75973566Y-112975687D01*
X75973628Y-112975638D01*
X75973674Y-112975581D01*
X75974544Y-112974724D01*
X76121023Y-112828245D01*
X76141260Y-112938510D01*
X76183619Y-113045495D01*
X76245951Y-113142216D01*
X76319086Y-113217950D01*
X73021104Y-113217950D01*
X67109931Y-107306777D01*
X67083492Y-107285060D01*
X67057220Y-107263015D01*
X67055509Y-107262074D01*
X67054004Y-107260838D01*
X67023826Y-107244656D01*
X66993797Y-107228148D01*
X66991938Y-107227558D01*
X66990220Y-107226637D01*
X66957445Y-107216616D01*
X66924810Y-107206264D01*
X66922874Y-107206046D01*
X66921007Y-107205476D01*
X66886904Y-107202012D01*
X66852886Y-107198196D01*
X66849075Y-107198169D01*
X66849002Y-107198162D01*
X66848933Y-107198168D01*
X66847708Y-107198160D01*
X65605807Y-107198160D01*
X65571714Y-107201502D01*
X65537590Y-107204489D01*
X65535719Y-107205032D01*
X65533777Y-107205223D01*
X65500930Y-107215139D01*
X65468089Y-107224681D01*
X65466362Y-107225576D01*
X65464491Y-107226141D01*
X65434164Y-107242265D01*
X65403833Y-107257988D01*
X65402313Y-107259201D01*
X65400587Y-107260119D01*
X65374003Y-107281800D01*
X65347270Y-107303141D01*
X65344561Y-107305813D01*
X65344500Y-107305863D01*
X65344453Y-107305919D01*
X65343584Y-107306777D01*
X64039730Y-108610631D01*
X64018013Y-108637069D01*
X63995968Y-108663342D01*
X63995027Y-108665052D01*
X63993791Y-108666558D01*
X63977609Y-108696735D01*
X63961101Y-108726765D01*
X63960511Y-108728623D01*
X63959590Y-108730342D01*
X63949569Y-108763116D01*
X63939217Y-108795752D01*
X63938999Y-108797687D01*
X63938429Y-108799555D01*
X63934965Y-108833657D01*
X63931149Y-108867676D01*
X63931122Y-108871486D01*
X63931115Y-108871560D01*
X63931121Y-108871628D01*
X63931113Y-108872854D01*
X63931113Y-109421496D01*
X63934455Y-109455588D01*
X63937442Y-109489713D01*
X63937985Y-109491583D01*
X63938176Y-109493526D01*
X63948092Y-109526372D01*
X63957634Y-109559214D01*
X63958529Y-109560940D01*
X63959094Y-109562812D01*
X63975218Y-109593138D01*
X63990941Y-109623470D01*
X63992154Y-109624989D01*
X63993072Y-109626716D01*
X64014753Y-109653299D01*
X64036094Y-109680033D01*
X64038766Y-109682741D01*
X64038816Y-109682803D01*
X64038872Y-109682849D01*
X64039730Y-109683719D01*
X65294581Y-110938570D01*
X65294581Y-111287665D01*
X65213777Y-111366794D01*
X65148769Y-111461736D01*
X65103440Y-111567497D01*
X65079516Y-111680048D01*
X65077910Y-111795103D01*
X65098681Y-111908278D01*
X65141040Y-112015263D01*
X65203372Y-112111984D01*
X65283303Y-112194755D01*
X65377789Y-112260425D01*
X65483231Y-112306491D01*
X65595613Y-112331200D01*
X65710653Y-112333609D01*
X65823970Y-112313628D01*
X65880350Y-112291760D01*
X65880350Y-114494003D01*
X64914177Y-115460177D01*
X64892460Y-115486615D01*
X64870415Y-115512888D01*
X64869474Y-115514598D01*
X64868238Y-115516104D01*
X64852056Y-115546281D01*
X64835548Y-115576311D01*
X64834958Y-115578169D01*
X64834037Y-115579888D01*
X64824016Y-115612662D01*
X64813664Y-115645298D01*
X64813446Y-115647233D01*
X64812876Y-115649101D01*
X64809412Y-115683203D01*
X64805596Y-115717222D01*
X64805569Y-115721032D01*
X64805562Y-115721106D01*
X64805568Y-115721174D01*
X64805560Y-115722400D01*
X64805560Y-117015246D01*
X64808902Y-117049338D01*
X64811889Y-117083463D01*
X64812432Y-117085333D01*
X64812623Y-117087276D01*
X64822539Y-117120122D01*
X64832081Y-117152964D01*
X64832976Y-117154690D01*
X64833541Y-117156562D01*
X64849665Y-117186888D01*
X64865388Y-117217220D01*
X64866601Y-117218739D01*
X64867519Y-117220466D01*
X64889200Y-117247049D01*
X64910541Y-117273783D01*
X64913213Y-117276491D01*
X64913263Y-117276553D01*
X64913319Y-117276599D01*
X64914177Y-117277469D01*
X65945429Y-118308722D01*
X65971897Y-118330462D01*
X65998140Y-118352483D01*
X65999850Y-118353423D01*
X66001356Y-118354660D01*
X66031568Y-118370860D01*
X66061563Y-118387350D01*
X66063417Y-118387938D01*
X66065140Y-118388862D01*
X66098001Y-118398908D01*
X66130550Y-118409234D01*
X66132480Y-118409450D01*
X66134353Y-118410023D01*
X66168504Y-118413491D01*
X66202474Y-118417302D01*
X66206284Y-118417328D01*
X66206358Y-118417336D01*
X66206426Y-118417329D01*
X66207652Y-118417338D01*
X67254521Y-118417339D01*
X67288613Y-118413996D01*
X67322738Y-118411010D01*
X67324608Y-118410466D01*
X67326551Y-118410276D01*
X67359397Y-118400359D01*
X67392239Y-118390818D01*
X67393965Y-118389922D01*
X67395837Y-118389358D01*
X67426163Y-118373233D01*
X67456495Y-118357511D01*
X67458014Y-118356297D01*
X67459741Y-118355380D01*
X67486324Y-118333698D01*
X67513058Y-118312358D01*
X67515766Y-118309685D01*
X67515828Y-118309636D01*
X67515874Y-118309579D01*
X67516744Y-118308722D01*
X68233626Y-117591840D01*
X71229407Y-117591840D01*
X71192787Y-117615804D01*
X71110575Y-117696311D01*
X71100515Y-117711003D01*
X71066235Y-117687881D01*
X70960160Y-117643291D01*
X70847445Y-117620154D01*
X70732382Y-117619350D01*
X70619354Y-117640912D01*
X70512667Y-117684016D01*
X70416385Y-117747022D01*
X70334173Y-117827529D01*
X70269165Y-117922471D01*
X70223836Y-118028232D01*
X70199912Y-118140783D01*
X70198306Y-118255838D01*
X70219077Y-118369013D01*
X70261436Y-118475998D01*
X70323768Y-118572719D01*
X70403699Y-118655490D01*
X70498185Y-118721160D01*
X70603627Y-118767226D01*
X70716009Y-118791935D01*
X70831049Y-118794344D01*
X70846489Y-118791621D01*
X71097723Y-119042855D01*
X71097723Y-120998563D01*
X71101065Y-121032655D01*
X71104052Y-121066780D01*
X71104595Y-121068650D01*
X71104786Y-121070593D01*
X71114702Y-121103439D01*
X71124244Y-121136281D01*
X71125139Y-121138007D01*
X71125704Y-121139879D01*
X71141828Y-121170205D01*
X71157551Y-121200537D01*
X71158764Y-121202056D01*
X71159682Y-121203783D01*
X71181363Y-121230366D01*
X71202704Y-121257100D01*
X71205376Y-121259808D01*
X71205426Y-121259870D01*
X71205482Y-121259916D01*
X71206340Y-121260786D01*
X72146160Y-122200606D01*
X72146160Y-122475013D01*
X72140377Y-122460983D01*
X72031098Y-122296505D01*
X71891953Y-122156385D01*
X71728242Y-122045961D01*
X71546201Y-121969438D01*
X71352763Y-121929731D01*
X71155297Y-121928352D01*
X70961324Y-121965355D01*
X70778232Y-122039329D01*
X70612995Y-122147456D01*
X70471907Y-122285620D01*
X70360342Y-122448556D01*
X70347840Y-122477725D01*
X70347840Y-122396831D01*
X70620223Y-122124449D01*
X70641978Y-122097963D01*
X70663985Y-122071737D01*
X70664923Y-122070029D01*
X70666162Y-122068522D01*
X70682364Y-122038303D01*
X70698852Y-122008314D01*
X70699440Y-122006457D01*
X70700363Y-122004738D01*
X70710391Y-121971936D01*
X70720736Y-121939327D01*
X70720952Y-121937392D01*
X70721524Y-121935525D01*
X70724988Y-121901416D01*
X70728804Y-121867403D01*
X70728830Y-121863592D01*
X70728838Y-121863519D01*
X70728831Y-121863450D01*
X70728840Y-121862225D01*
X70728840Y-120291271D01*
X70744654Y-120276212D01*
X70810982Y-120182187D01*
X70857783Y-120077069D01*
X70883276Y-119964863D01*
X70885111Y-119833436D01*
X70862761Y-119720562D01*
X70818913Y-119614178D01*
X70755237Y-119518338D01*
X70674158Y-119436691D01*
X70578764Y-119372347D01*
X70472689Y-119327757D01*
X70359974Y-119304620D01*
X70244911Y-119303816D01*
X70131883Y-119325378D01*
X70025196Y-119368482D01*
X69928914Y-119431488D01*
X69846702Y-119511995D01*
X69781694Y-119606937D01*
X69736365Y-119712698D01*
X69712441Y-119825249D01*
X69710835Y-119940304D01*
X69716716Y-119972348D01*
X69620017Y-119990796D01*
X69513330Y-120033900D01*
X69417048Y-120096906D01*
X69334836Y-120177413D01*
X69269828Y-120272355D01*
X69224499Y-120378116D01*
X69200575Y-120490667D01*
X69198969Y-120605722D01*
X69219740Y-120718897D01*
X69262099Y-120825882D01*
X69324431Y-120922603D01*
X69404362Y-121005374D01*
X69415640Y-121013212D01*
X69415640Y-121282450D01*
X68238811Y-121282450D01*
X68204673Y-121285797D01*
X68170594Y-121288779D01*
X68168722Y-121289322D01*
X68166781Y-121289513D01*
X68133948Y-121299425D01*
X68101092Y-121308971D01*
X68099363Y-121309866D01*
X68097495Y-121310431D01*
X68067187Y-121326545D01*
X68036837Y-121342278D01*
X68035317Y-121343491D01*
X68033591Y-121344409D01*
X68007007Y-121366090D01*
X67980274Y-121387431D01*
X67977560Y-121390106D01*
X67977504Y-121390153D01*
X67977460Y-121390205D01*
X67976587Y-121391067D01*
X67314467Y-122053188D01*
X67292750Y-122079626D01*
X67270705Y-122105899D01*
X67269764Y-122107609D01*
X67268528Y-122109115D01*
X67252346Y-122139292D01*
X67235838Y-122169322D01*
X67235248Y-122171180D01*
X67234327Y-122172899D01*
X67224306Y-122205673D01*
X67213954Y-122238309D01*
X67213736Y-122240244D01*
X67213166Y-122242112D01*
X67209702Y-122276214D01*
X67205886Y-122310233D01*
X67205859Y-122314043D01*
X67205852Y-122314117D01*
X67205858Y-122314185D01*
X67205850Y-122315411D01*
X67205850Y-124193290D01*
X67209192Y-124227382D01*
X67212179Y-124261507D01*
X67212722Y-124263377D01*
X67212913Y-124265320D01*
X67222829Y-124298166D01*
X67232371Y-124331008D01*
X67233266Y-124332734D01*
X67233831Y-124334606D01*
X67249955Y-124364932D01*
X67265678Y-124395264D01*
X67266891Y-124396783D01*
X67267809Y-124398510D01*
X67289490Y-124425093D01*
X67310831Y-124451827D01*
X67313503Y-124454535D01*
X67313553Y-124454597D01*
X67313609Y-124454643D01*
X67314467Y-124455513D01*
X67831383Y-124972430D01*
X67820342Y-124988556D01*
X67742550Y-125170059D01*
X67701494Y-125363214D01*
X67698737Y-125560666D01*
X67734384Y-125754893D01*
X67807078Y-125938497D01*
X67914050Y-126104485D01*
X68051225Y-126246534D01*
X68213378Y-126359233D01*
X68307972Y-126400560D01*
X66567950Y-126400560D01*
X66623203Y-126379129D01*
X66789934Y-126273319D01*
X66932937Y-126137139D01*
X67046765Y-125975776D01*
X67127084Y-125795377D01*
X67170834Y-125602814D01*
X67173983Y-125377264D01*
X67135627Y-125183554D01*
X67060377Y-125000983D01*
X66951098Y-124836505D01*
X66811953Y-124696385D01*
X66648242Y-124585961D01*
X66466201Y-124509438D01*
X66272763Y-124469731D01*
X66075297Y-124468352D01*
X65881324Y-124505355D01*
X65875538Y-124507692D01*
X65407530Y-124039683D01*
X65407530Y-123599154D01*
X65511225Y-123706534D01*
X65673378Y-123819233D01*
X65854333Y-123898290D01*
X66047197Y-123940694D01*
X66244625Y-123944830D01*
X66439096Y-123910539D01*
X66623203Y-123839129D01*
X66789934Y-123733319D01*
X66932937Y-123597139D01*
X67046765Y-123435776D01*
X67127084Y-123255377D01*
X67170834Y-123062814D01*
X67173983Y-122837264D01*
X67135627Y-122643554D01*
X67060377Y-122460983D01*
X66951098Y-122296505D01*
X66811953Y-122156385D01*
X66648242Y-122045961D01*
X66466201Y-121969438D01*
X66272763Y-121929731D01*
X66075297Y-121928352D01*
X65908153Y-121960236D01*
X67828705Y-120039686D01*
X67850445Y-120013217D01*
X67872466Y-119986975D01*
X67873406Y-119985264D01*
X67874643Y-119983759D01*
X67890843Y-119953546D01*
X67907333Y-119923552D01*
X67907921Y-119921697D01*
X67908845Y-119919975D01*
X67918878Y-119887155D01*
X67929217Y-119854565D01*
X67929434Y-119852629D01*
X67930005Y-119850762D01*
X67933468Y-119816659D01*
X67937285Y-119782641D01*
X67937311Y-119778830D01*
X67937319Y-119778757D01*
X67937312Y-119778688D01*
X67937321Y-119777463D01*
X67937321Y-119658125D01*
X68806470Y-118788975D01*
X68895035Y-118808448D01*
X69010075Y-118810857D01*
X69123392Y-118790876D01*
X69230671Y-118749266D01*
X69327824Y-118687611D01*
X69411151Y-118608259D01*
X69477479Y-118514234D01*
X69524280Y-118409116D01*
X69549773Y-118296910D01*
X69551608Y-118165483D01*
X69529258Y-118052609D01*
X69485410Y-117946225D01*
X69421734Y-117850385D01*
X69340655Y-117768738D01*
X69245261Y-117704394D01*
X69139186Y-117659804D01*
X69026471Y-117636667D01*
X68911408Y-117635863D01*
X68798380Y-117657425D01*
X68691693Y-117700529D01*
X68595411Y-117763535D01*
X68513199Y-117844042D01*
X68448191Y-117938984D01*
X68402862Y-118044745D01*
X68378938Y-118157296D01*
X68378791Y-118167761D01*
X67304258Y-119242296D01*
X67282541Y-119268734D01*
X67260496Y-119295007D01*
X67259555Y-119296717D01*
X67258319Y-119298223D01*
X67242137Y-119328400D01*
X67225629Y-119358430D01*
X67225039Y-119360288D01*
X67224118Y-119362007D01*
X67214097Y-119394781D01*
X67203745Y-119427417D01*
X67203527Y-119429352D01*
X67202957Y-119431220D01*
X67199493Y-119465322D01*
X67195677Y-119499341D01*
X67195650Y-119503151D01*
X67195643Y-119503225D01*
X67195649Y-119503293D01*
X67195641Y-119504519D01*
X67195641Y-119623856D01*
X64774467Y-122045031D01*
X64752750Y-122071469D01*
X64730705Y-122097742D01*
X64729764Y-122099452D01*
X64728528Y-122100958D01*
X64712346Y-122131135D01*
X64695838Y-122161165D01*
X64695248Y-122163023D01*
X64694327Y-122164742D01*
X64684306Y-122197516D01*
X64673954Y-122230152D01*
X64673736Y-122232087D01*
X64673166Y-122233955D01*
X64669702Y-122268057D01*
X64665886Y-122302076D01*
X64665859Y-122305886D01*
X64665852Y-122305960D01*
X64665858Y-122306028D01*
X64665850Y-122307254D01*
X64665850Y-124193290D01*
X64669192Y-124227382D01*
X64672179Y-124261507D01*
X64672722Y-124263377D01*
X64672913Y-124265320D01*
X64682829Y-124298166D01*
X64692371Y-124331008D01*
X64693266Y-124332734D01*
X64693831Y-124334606D01*
X64709955Y-124364932D01*
X64725678Y-124395264D01*
X64726891Y-124396783D01*
X64727809Y-124398510D01*
X64749490Y-124425093D01*
X64770831Y-124451827D01*
X64773503Y-124454535D01*
X64773553Y-124454597D01*
X64773609Y-124454643D01*
X64774467Y-124455513D01*
X65291383Y-124972430D01*
X65280342Y-124988556D01*
X65202550Y-125170059D01*
X65161494Y-125363214D01*
X65158737Y-125560666D01*
X65194384Y-125754893D01*
X65267078Y-125938497D01*
X65374050Y-126104485D01*
X65511225Y-126246534D01*
X65673378Y-126359233D01*
X65767972Y-126400560D01*
X64027950Y-126400560D01*
X64083203Y-126379129D01*
X64249934Y-126273319D01*
X64392937Y-126137139D01*
X64506765Y-125975776D01*
X64587084Y-125795377D01*
X64630834Y-125602814D01*
X64633983Y-125377264D01*
X64633983Y-122837264D01*
X64595627Y-122643554D01*
X64520377Y-122460983D01*
X64411098Y-122296505D01*
X64271953Y-122156385D01*
X64108242Y-122045961D01*
X63926201Y-121969438D01*
X63732763Y-121929731D01*
X63535297Y-121928352D01*
X63341324Y-121965355D01*
X63158232Y-122039329D01*
X62992995Y-122147456D01*
X62851907Y-122285620D01*
X62740342Y-122448556D01*
X62662550Y-122630059D01*
X62621494Y-122823214D01*
X62618737Y-123020666D01*
X62654384Y-123214893D01*
X62727078Y-123398497D01*
X62834050Y-123564485D01*
X62971225Y-123706534D01*
X63133378Y-123819233D01*
X63314333Y-123898290D01*
X63507197Y-123940694D01*
X63704625Y-123944830D01*
X63899096Y-123910539D01*
X64083203Y-123839129D01*
X64249934Y-123733319D01*
X64392937Y-123597139D01*
X64506765Y-123435776D01*
X64587084Y-123255377D01*
X64630834Y-123062814D01*
X64633983Y-122837264D01*
X64633983Y-125377264D01*
X64595627Y-125183554D01*
X64520377Y-125000983D01*
X64411098Y-124836505D01*
X64271953Y-124696385D01*
X64108242Y-124585961D01*
X63926201Y-124509438D01*
X63732763Y-124469731D01*
X63535297Y-124468352D01*
X63341324Y-124505355D01*
X63158232Y-124579329D01*
X62992995Y-124687456D01*
X62851907Y-124825620D01*
X62740342Y-124988556D01*
X62662550Y-125170059D01*
X62621494Y-125363214D01*
X62618737Y-125560666D01*
X62654384Y-125754893D01*
X62727078Y-125938497D01*
X62834050Y-126104485D01*
X62971225Y-126246534D01*
X63133378Y-126359233D01*
X63227972Y-126400560D01*
X62096024Y-126400560D01*
X62096024Y-125551066D01*
X62096024Y-123011066D01*
X62091280Y-122812773D01*
X62047943Y-122619215D01*
X61990490Y-122480512D01*
X61857565Y-122395329D01*
X61316895Y-122936000D01*
X61857565Y-123476671D01*
X61990490Y-123391488D01*
X62061991Y-123206474D01*
X62096024Y-123011066D01*
X62096024Y-125551066D01*
X62091280Y-125352773D01*
X62047943Y-125159215D01*
X61990490Y-125020512D01*
X61857565Y-124935329D01*
X61316895Y-125476000D01*
X61857565Y-126016671D01*
X61990490Y-125931488D01*
X62061991Y-125746474D01*
X62096024Y-125551066D01*
X62096024Y-126400560D01*
X61491620Y-126400560D01*
X61542488Y-126379490D01*
X61627671Y-126246565D01*
X61087000Y-125705895D01*
X61072857Y-125720036D01*
X61051440Y-125698619D01*
X61051440Y-125253381D01*
X61072858Y-125231963D01*
X61087000Y-125246105D01*
X61627671Y-124705435D01*
X61542488Y-124572510D01*
X61357474Y-124501009D01*
X61162066Y-124466976D01*
X61051440Y-124469622D01*
X61051440Y-123944078D01*
X61210227Y-123940280D01*
X61403785Y-123896943D01*
X61542488Y-123839490D01*
X61627671Y-123706565D01*
X61087000Y-123165895D01*
X61072857Y-123180036D01*
X61051440Y-123158619D01*
X61051440Y-122713381D01*
X61072858Y-122691963D01*
X61087000Y-122706105D01*
X61627671Y-122165435D01*
X61542488Y-122032510D01*
X61357474Y-121961009D01*
X61162066Y-121926976D01*
X61051440Y-121929622D01*
X61051440Y-121703876D01*
X62829440Y-119925876D01*
X62829440Y-99659440D01*
X67030402Y-99659440D01*
X66971815Y-99683111D01*
X66852607Y-99761118D01*
X66750822Y-99860794D01*
X66670336Y-99978341D01*
X66614214Y-100109284D01*
X66584594Y-100248633D01*
X66582605Y-100391081D01*
X66608322Y-100531203D01*
X66660766Y-100663661D01*
X66737939Y-100783410D01*
X66836902Y-100885889D01*
X66952142Y-100965983D01*
X66852607Y-101031118D01*
X66750822Y-101130794D01*
X66670336Y-101248341D01*
X66614214Y-101379284D01*
X66584594Y-101518633D01*
X66582605Y-101661081D01*
X66608322Y-101801203D01*
X66660766Y-101933661D01*
X66737939Y-102053410D01*
X66836902Y-102155889D01*
X66953884Y-102237194D01*
X67084431Y-102294228D01*
X67223570Y-102324820D01*
X67366001Y-102327804D01*
X67491268Y-102305715D01*
X67809777Y-102624224D01*
X67836245Y-102645964D01*
X67862488Y-102667985D01*
X67864198Y-102668925D01*
X67865704Y-102670162D01*
X67895916Y-102686362D01*
X67925911Y-102702852D01*
X67927765Y-102703440D01*
X67929488Y-102704364D01*
X67962307Y-102714397D01*
X67994898Y-102724736D01*
X67996833Y-102724953D01*
X67998701Y-102725524D01*
X68032803Y-102728987D01*
X68066822Y-102732804D01*
X68070632Y-102732830D01*
X68070706Y-102732838D01*
X68070774Y-102732831D01*
X68072000Y-102732840D01*
X75234416Y-102732840D01*
X75309882Y-102810987D01*
X75404368Y-102876657D01*
X75509810Y-102922723D01*
X75622192Y-102947432D01*
X75737232Y-102949841D01*
X75752672Y-102947118D01*
X77734160Y-104928606D01*
X77734160Y-105206052D01*
X77737502Y-105240144D01*
X77740489Y-105274269D01*
X77741032Y-105276139D01*
X77741223Y-105278082D01*
X77751139Y-105310928D01*
X77760681Y-105343770D01*
X77761576Y-105345496D01*
X77762141Y-105347368D01*
X77778265Y-105377694D01*
X77793988Y-105408026D01*
X77795201Y-105409545D01*
X77796119Y-105411272D01*
X77817800Y-105437855D01*
X77839141Y-105464589D01*
X77841813Y-105467297D01*
X77841863Y-105467359D01*
X77841919Y-105467405D01*
X77842777Y-105468275D01*
X80283861Y-107909360D01*
G36*
X80990192Y-122018335D02*
X80938232Y-122039329D01*
X80772995Y-122147456D01*
X80631907Y-122285620D01*
X80520342Y-122448556D01*
X80507840Y-122477725D01*
X80507840Y-122156881D01*
X80504492Y-122122743D01*
X80501511Y-122088664D01*
X80500967Y-122086793D01*
X80500777Y-122084851D01*
X80490860Y-122052004D01*
X80481319Y-122019163D01*
X80480423Y-122017436D01*
X80479859Y-122015565D01*
X80463734Y-121985238D01*
X80448012Y-121954907D01*
X80446798Y-121953387D01*
X80445881Y-121951661D01*
X80424199Y-121925077D01*
X80402859Y-121898344D01*
X80400183Y-121895630D01*
X80400137Y-121895574D01*
X80400084Y-121895530D01*
X80399223Y-121894657D01*
X76873063Y-118368498D01*
X76846624Y-118346781D01*
X76820352Y-118324736D01*
X76818641Y-118323795D01*
X76817136Y-118322559D01*
X76786958Y-118306377D01*
X76756929Y-118289869D01*
X76755070Y-118289279D01*
X76753352Y-118288358D01*
X76720577Y-118278337D01*
X76687942Y-118267985D01*
X76686006Y-118267767D01*
X76684139Y-118267197D01*
X76650036Y-118263733D01*
X76639654Y-118262568D01*
X76636679Y-118258090D01*
X76555600Y-118176443D01*
X76460206Y-118112099D01*
X76354131Y-118067509D01*
X76241416Y-118044372D01*
X76126353Y-118043568D01*
X76013325Y-118065130D01*
X75906638Y-118108234D01*
X75810356Y-118171240D01*
X75728144Y-118251747D01*
X75663136Y-118346689D01*
X75617807Y-118452450D01*
X75604674Y-118514230D01*
X73693611Y-116603167D01*
X73667172Y-116581450D01*
X73640900Y-116559405D01*
X73639189Y-116558464D01*
X73637684Y-116557228D01*
X73607506Y-116541046D01*
X73577477Y-116524538D01*
X73575618Y-116523948D01*
X73573900Y-116523027D01*
X73541125Y-116513006D01*
X73508490Y-116502654D01*
X73506554Y-116502436D01*
X73504687Y-116501866D01*
X73470584Y-116498402D01*
X73436566Y-116494586D01*
X73432755Y-116494559D01*
X73432682Y-116494552D01*
X73432613Y-116494558D01*
X73431388Y-116494550D01*
X67932721Y-116494551D01*
X67898583Y-116497898D01*
X67864504Y-116500880D01*
X67862632Y-116501423D01*
X67860691Y-116501614D01*
X67827858Y-116511526D01*
X67795002Y-116521072D01*
X67793273Y-116521967D01*
X67791405Y-116522532D01*
X67761097Y-116538646D01*
X67730747Y-116554379D01*
X67729227Y-116555592D01*
X67727501Y-116556510D01*
X67700917Y-116578191D01*
X67674184Y-116599532D01*
X67671470Y-116602207D01*
X67671414Y-116602254D01*
X67671370Y-116602306D01*
X67670497Y-116603168D01*
X66953616Y-117320049D01*
X66508557Y-117320049D01*
X65902850Y-116714341D01*
X65902850Y-116417373D01*
X65911392Y-116463916D01*
X65953751Y-116570901D01*
X66016083Y-116667622D01*
X66096014Y-116750393D01*
X66190500Y-116816063D01*
X66295942Y-116862129D01*
X66408324Y-116886838D01*
X66523364Y-116889247D01*
X66636681Y-116869266D01*
X66743960Y-116827656D01*
X66841113Y-116766001D01*
X66924440Y-116686649D01*
X66990768Y-116592624D01*
X67037569Y-116487506D01*
X67050419Y-116430947D01*
X76446697Y-116430947D01*
X77136800Y-117121050D01*
X77136489Y-117143335D01*
X77157260Y-117256510D01*
X77199619Y-117363495D01*
X77261951Y-117460216D01*
X77341882Y-117542987D01*
X77436368Y-117608657D01*
X77541810Y-117654723D01*
X77654192Y-117679432D01*
X77769232Y-117681841D01*
X77882549Y-117661860D01*
X77989828Y-117620250D01*
X78086981Y-117558595D01*
X78120329Y-117526836D01*
X78144943Y-117524423D01*
X78184897Y-117520928D01*
X78187089Y-117520291D01*
X78189364Y-117520068D01*
X78227746Y-117508479D01*
X78266300Y-117497279D01*
X78268331Y-117496225D01*
X78270514Y-117495567D01*
X78305900Y-117476751D01*
X78341559Y-117458268D01*
X78343344Y-117456842D01*
X78345360Y-117455771D01*
X78376439Y-117430423D01*
X78407807Y-117405383D01*
X78410986Y-117402247D01*
X78411051Y-117402195D01*
X78411100Y-117402135D01*
X78412125Y-117401125D01*
X78716097Y-117097152D01*
X78734534Y-117097539D01*
X78847851Y-117077558D01*
X78955130Y-117035948D01*
X79052283Y-116974293D01*
X79135610Y-116894941D01*
X79201938Y-116800916D01*
X79248739Y-116695798D01*
X79274232Y-116583592D01*
X79276067Y-116452165D01*
X79253717Y-116339291D01*
X79209869Y-116232907D01*
X79146193Y-116137067D01*
X79065114Y-116055420D01*
X78969720Y-115991076D01*
X78863645Y-115946486D01*
X78750930Y-115923349D01*
X78635867Y-115922545D01*
X78522839Y-115944107D01*
X78416152Y-115987211D01*
X78319870Y-116050217D01*
X78237658Y-116130724D01*
X78172650Y-116225666D01*
X78127321Y-116331427D01*
X78103397Y-116443978D01*
X78102867Y-116481882D01*
X78007376Y-116577373D01*
X78004418Y-116575378D01*
X77898343Y-116530788D01*
X77785628Y-116507651D01*
X77751663Y-116507413D01*
X76933732Y-115689482D01*
X76902736Y-115664022D01*
X76871995Y-115638227D01*
X76869991Y-115637125D01*
X76868228Y-115635677D01*
X76832880Y-115616723D01*
X76797712Y-115597390D01*
X76795535Y-115596699D01*
X76793522Y-115595620D01*
X76755155Y-115583890D01*
X76716911Y-115571758D01*
X76714640Y-115571503D01*
X76712458Y-115570836D01*
X76672540Y-115566781D01*
X76632671Y-115562309D01*
X76628212Y-115562278D01*
X76628123Y-115562269D01*
X76628039Y-115562276D01*
X76626607Y-115562267D01*
X66782931Y-115562267D01*
X66743037Y-115566178D01*
X66703034Y-115569678D01*
X66700836Y-115570316D01*
X66698567Y-115570539D01*
X66660212Y-115582118D01*
X66621632Y-115593328D01*
X66619601Y-115594380D01*
X66617417Y-115595040D01*
X66582012Y-115613864D01*
X66546372Y-115632339D01*
X66544586Y-115633764D01*
X66542571Y-115634836D01*
X66511491Y-115660183D01*
X66480124Y-115685224D01*
X66476944Y-115688359D01*
X66476880Y-115688412D01*
X66476830Y-115688471D01*
X66475806Y-115689482D01*
X66450852Y-115714435D01*
X66424697Y-115714253D01*
X66311669Y-115735815D01*
X66204982Y-115778919D01*
X66126122Y-115830524D01*
X66911833Y-115044814D01*
X66933570Y-115018350D01*
X66955595Y-114992102D01*
X66956535Y-114990391D01*
X66957772Y-114988886D01*
X66973953Y-114958708D01*
X66990462Y-114928679D01*
X66991051Y-114926820D01*
X66991973Y-114925102D01*
X67001993Y-114892327D01*
X67012346Y-114859692D01*
X67012563Y-114857756D01*
X67013134Y-114855889D01*
X67016597Y-114821786D01*
X67020414Y-114787768D01*
X67020440Y-114783957D01*
X67020448Y-114783884D01*
X67020441Y-114783815D01*
X67020450Y-114782590D01*
X67020450Y-109640308D01*
X67017102Y-109606170D01*
X67014121Y-109572091D01*
X67013577Y-109570220D01*
X67013387Y-109568278D01*
X67003470Y-109535431D01*
X66993929Y-109502590D01*
X66993033Y-109500863D01*
X66992469Y-109498992D01*
X66976344Y-109468665D01*
X66960622Y-109438334D01*
X66959408Y-109436814D01*
X66958491Y-109435088D01*
X66936809Y-109408504D01*
X66915469Y-109381771D01*
X66912793Y-109379057D01*
X66912747Y-109379001D01*
X66912694Y-109378957D01*
X66911833Y-109378084D01*
X66354292Y-108820544D01*
X66327853Y-108798827D01*
X66301581Y-108776782D01*
X66299870Y-108775841D01*
X66298365Y-108774605D01*
X66268187Y-108758423D01*
X66238158Y-108741915D01*
X66236870Y-108741506D01*
X66216028Y-108710136D01*
X66134949Y-108628489D01*
X66039555Y-108564145D01*
X65998280Y-108546794D01*
X66202817Y-108342258D01*
X66453071Y-108342258D01*
X72317436Y-114206623D01*
X72343899Y-114228360D01*
X72370148Y-114250385D01*
X72371858Y-114251325D01*
X72373364Y-114252562D01*
X72403560Y-114268753D01*
X72433571Y-114285252D01*
X72435427Y-114285840D01*
X72437147Y-114286763D01*
X72469948Y-114296791D01*
X72502558Y-114307136D01*
X72504492Y-114307352D01*
X72506360Y-114307924D01*
X72540468Y-114311388D01*
X72574482Y-114315204D01*
X72578292Y-114315230D01*
X72578366Y-114315238D01*
X72578434Y-114315231D01*
X72579660Y-114315240D01*
X77872269Y-114315240D01*
X79385160Y-115828130D01*
X79385160Y-120259696D01*
X79388502Y-120293788D01*
X79391489Y-120327913D01*
X79392032Y-120329783D01*
X79392223Y-120331726D01*
X79402139Y-120364572D01*
X79411681Y-120397414D01*
X79412576Y-120399140D01*
X79413141Y-120401012D01*
X79429265Y-120431338D01*
X79444988Y-120461670D01*
X79446201Y-120463189D01*
X79447119Y-120464916D01*
X79468800Y-120491499D01*
X79490141Y-120518233D01*
X79492813Y-120520941D01*
X79492863Y-120521003D01*
X79492919Y-120521049D01*
X79493777Y-120521919D01*
X80990192Y-122018335D01*
X80990192Y-122018335D01*
G37*
X80990192Y-122018335D02*
X80938232Y-122039329D01*
X80772995Y-122147456D01*
X80631907Y-122285620D01*
X80520342Y-122448556D01*
X80507840Y-122477725D01*
X80507840Y-122156881D01*
X80504492Y-122122743D01*
X80501511Y-122088664D01*
X80500967Y-122086793D01*
X80500777Y-122084851D01*
X80490860Y-122052004D01*
X80481319Y-122019163D01*
X80480423Y-122017436D01*
X80479859Y-122015565D01*
X80463734Y-121985238D01*
X80448012Y-121954907D01*
X80446798Y-121953387D01*
X80445881Y-121951661D01*
X80424199Y-121925077D01*
X80402859Y-121898344D01*
X80400183Y-121895630D01*
X80400137Y-121895574D01*
X80400084Y-121895530D01*
X80399223Y-121894657D01*
X76873063Y-118368498D01*
X76846624Y-118346781D01*
X76820352Y-118324736D01*
X76818641Y-118323795D01*
X76817136Y-118322559D01*
X76786958Y-118306377D01*
X76756929Y-118289869D01*
X76755070Y-118289279D01*
X76753352Y-118288358D01*
X76720577Y-118278337D01*
X76687942Y-118267985D01*
X76686006Y-118267767D01*
X76684139Y-118267197D01*
X76650036Y-118263733D01*
X76639654Y-118262568D01*
X76636679Y-118258090D01*
X76555600Y-118176443D01*
X76460206Y-118112099D01*
X76354131Y-118067509D01*
X76241416Y-118044372D01*
X76126353Y-118043568D01*
X76013325Y-118065130D01*
X75906638Y-118108234D01*
X75810356Y-118171240D01*
X75728144Y-118251747D01*
X75663136Y-118346689D01*
X75617807Y-118452450D01*
X75604674Y-118514230D01*
X73693611Y-116603167D01*
X73667172Y-116581450D01*
X73640900Y-116559405D01*
X73639189Y-116558464D01*
X73637684Y-116557228D01*
X73607506Y-116541046D01*
X73577477Y-116524538D01*
X73575618Y-116523948D01*
X73573900Y-116523027D01*
X73541125Y-116513006D01*
X73508490Y-116502654D01*
X73506554Y-116502436D01*
X73504687Y-116501866D01*
X73470584Y-116498402D01*
X73436566Y-116494586D01*
X73432755Y-116494559D01*
X73432682Y-116494552D01*
X73432613Y-116494558D01*
X73431388Y-116494550D01*
X67932721Y-116494551D01*
X67898583Y-116497898D01*
X67864504Y-116500880D01*
X67862632Y-116501423D01*
X67860691Y-116501614D01*
X67827858Y-116511526D01*
X67795002Y-116521072D01*
X67793273Y-116521967D01*
X67791405Y-116522532D01*
X67761097Y-116538646D01*
X67730747Y-116554379D01*
X67729227Y-116555592D01*
X67727501Y-116556510D01*
X67700917Y-116578191D01*
X67674184Y-116599532D01*
X67671470Y-116602207D01*
X67671414Y-116602254D01*
X67671370Y-116602306D01*
X67670497Y-116603168D01*
X66953616Y-117320049D01*
X66508557Y-117320049D01*
X65902850Y-116714341D01*
X65902850Y-116417373D01*
X65911392Y-116463916D01*
X65953751Y-116570901D01*
X66016083Y-116667622D01*
X66096014Y-116750393D01*
X66190500Y-116816063D01*
X66295942Y-116862129D01*
X66408324Y-116886838D01*
X66523364Y-116889247D01*
X66636681Y-116869266D01*
X66743960Y-116827656D01*
X66841113Y-116766001D01*
X66924440Y-116686649D01*
X66990768Y-116592624D01*
X67037569Y-116487506D01*
X67050419Y-116430947D01*
X76446697Y-116430947D01*
X77136800Y-117121050D01*
X77136489Y-117143335D01*
X77157260Y-117256510D01*
X77199619Y-117363495D01*
X77261951Y-117460216D01*
X77341882Y-117542987D01*
X77436368Y-117608657D01*
X77541810Y-117654723D01*
X77654192Y-117679432D01*
X77769232Y-117681841D01*
X77882549Y-117661860D01*
X77989828Y-117620250D01*
X78086981Y-117558595D01*
X78120329Y-117526836D01*
X78144943Y-117524423D01*
X78184897Y-117520928D01*
X78187089Y-117520291D01*
X78189364Y-117520068D01*
X78227746Y-117508479D01*
X78266300Y-117497279D01*
X78268331Y-117496225D01*
X78270514Y-117495567D01*
X78305900Y-117476751D01*
X78341559Y-117458268D01*
X78343344Y-117456842D01*
X78345360Y-117455771D01*
X78376439Y-117430423D01*
X78407807Y-117405383D01*
X78410986Y-117402247D01*
X78411051Y-117402195D01*
X78411100Y-117402135D01*
X78412125Y-117401125D01*
X78716097Y-117097152D01*
X78734534Y-117097539D01*
X78847851Y-117077558D01*
X78955130Y-117035948D01*
X79052283Y-116974293D01*
X79135610Y-116894941D01*
X79201938Y-116800916D01*
X79248739Y-116695798D01*
X79274232Y-116583592D01*
X79276067Y-116452165D01*
X79253717Y-116339291D01*
X79209869Y-116232907D01*
X79146193Y-116137067D01*
X79065114Y-116055420D01*
X78969720Y-115991076D01*
X78863645Y-115946486D01*
X78750930Y-115923349D01*
X78635867Y-115922545D01*
X78522839Y-115944107D01*
X78416152Y-115987211D01*
X78319870Y-116050217D01*
X78237658Y-116130724D01*
X78172650Y-116225666D01*
X78127321Y-116331427D01*
X78103397Y-116443978D01*
X78102867Y-116481882D01*
X78007376Y-116577373D01*
X78004418Y-116575378D01*
X77898343Y-116530788D01*
X77785628Y-116507651D01*
X77751663Y-116507413D01*
X76933732Y-115689482D01*
X76902736Y-115664022D01*
X76871995Y-115638227D01*
X76869991Y-115637125D01*
X76868228Y-115635677D01*
X76832880Y-115616723D01*
X76797712Y-115597390D01*
X76795535Y-115596699D01*
X76793522Y-115595620D01*
X76755155Y-115583890D01*
X76716911Y-115571758D01*
X76714640Y-115571503D01*
X76712458Y-115570836D01*
X76672540Y-115566781D01*
X76632671Y-115562309D01*
X76628212Y-115562278D01*
X76628123Y-115562269D01*
X76628039Y-115562276D01*
X76626607Y-115562267D01*
X66782931Y-115562267D01*
X66743037Y-115566178D01*
X66703034Y-115569678D01*
X66700836Y-115570316D01*
X66698567Y-115570539D01*
X66660212Y-115582118D01*
X66621632Y-115593328D01*
X66619601Y-115594380D01*
X66617417Y-115595040D01*
X66582012Y-115613864D01*
X66546372Y-115632339D01*
X66544586Y-115633764D01*
X66542571Y-115634836D01*
X66511491Y-115660183D01*
X66480124Y-115685224D01*
X66476944Y-115688359D01*
X66476880Y-115688412D01*
X66476830Y-115688471D01*
X66475806Y-115689482D01*
X66450852Y-115714435D01*
X66424697Y-115714253D01*
X66311669Y-115735815D01*
X66204982Y-115778919D01*
X66126122Y-115830524D01*
X66911833Y-115044814D01*
X66933570Y-115018350D01*
X66955595Y-114992102D01*
X66956535Y-114990391D01*
X66957772Y-114988886D01*
X66973953Y-114958708D01*
X66990462Y-114928679D01*
X66991051Y-114926820D01*
X66991973Y-114925102D01*
X67001993Y-114892327D01*
X67012346Y-114859692D01*
X67012563Y-114857756D01*
X67013134Y-114855889D01*
X67016597Y-114821786D01*
X67020414Y-114787768D01*
X67020440Y-114783957D01*
X67020448Y-114783884D01*
X67020441Y-114783815D01*
X67020450Y-114782590D01*
X67020450Y-109640308D01*
X67017102Y-109606170D01*
X67014121Y-109572091D01*
X67013577Y-109570220D01*
X67013387Y-109568278D01*
X67003470Y-109535431D01*
X66993929Y-109502590D01*
X66993033Y-109500863D01*
X66992469Y-109498992D01*
X66976344Y-109468665D01*
X66960622Y-109438334D01*
X66959408Y-109436814D01*
X66958491Y-109435088D01*
X66936809Y-109408504D01*
X66915469Y-109381771D01*
X66912793Y-109379057D01*
X66912747Y-109379001D01*
X66912694Y-109378957D01*
X66911833Y-109378084D01*
X66354292Y-108820544D01*
X66327853Y-108798827D01*
X66301581Y-108776782D01*
X66299870Y-108775841D01*
X66298365Y-108774605D01*
X66268187Y-108758423D01*
X66238158Y-108741915D01*
X66236870Y-108741506D01*
X66216028Y-108710136D01*
X66134949Y-108628489D01*
X66039555Y-108564145D01*
X65998280Y-108546794D01*
X66202817Y-108342258D01*
X66453071Y-108342258D01*
X72317436Y-114206623D01*
X72343899Y-114228360D01*
X72370148Y-114250385D01*
X72371858Y-114251325D01*
X72373364Y-114252562D01*
X72403560Y-114268753D01*
X72433571Y-114285252D01*
X72435427Y-114285840D01*
X72437147Y-114286763D01*
X72469948Y-114296791D01*
X72502558Y-114307136D01*
X72504492Y-114307352D01*
X72506360Y-114307924D01*
X72540468Y-114311388D01*
X72574482Y-114315204D01*
X72578292Y-114315230D01*
X72578366Y-114315238D01*
X72578434Y-114315231D01*
X72579660Y-114315240D01*
X77872269Y-114315240D01*
X79385160Y-115828130D01*
X79385160Y-120259696D01*
X79388502Y-120293788D01*
X79391489Y-120327913D01*
X79392032Y-120329783D01*
X79392223Y-120331726D01*
X79402139Y-120364572D01*
X79411681Y-120397414D01*
X79412576Y-120399140D01*
X79413141Y-120401012D01*
X79429265Y-120431338D01*
X79444988Y-120461670D01*
X79446201Y-120463189D01*
X79447119Y-120464916D01*
X79468800Y-120491499D01*
X79490141Y-120518233D01*
X79492813Y-120520941D01*
X79492863Y-120521003D01*
X79492919Y-120521049D01*
X79493777Y-120521919D01*
X80990192Y-122018335D01*
G36*
X88275160Y-110980593D02*
X88274953Y-110980385D01*
X88111242Y-110869961D01*
X87929201Y-110793438D01*
X87735763Y-110753731D01*
X87655617Y-110753171D01*
X87009139Y-110106693D01*
X87009139Y-110014799D01*
X87136378Y-110103233D01*
X87317333Y-110182290D01*
X87510197Y-110224694D01*
X87707625Y-110228830D01*
X87902096Y-110194539D01*
X88084659Y-110123727D01*
X88084659Y-110383321D01*
X88088001Y-110417413D01*
X88090988Y-110451538D01*
X88091531Y-110453408D01*
X88091722Y-110455351D01*
X88101638Y-110488197D01*
X88111180Y-110521039D01*
X88112075Y-110522765D01*
X88112640Y-110524637D01*
X88128764Y-110554963D01*
X88144487Y-110585295D01*
X88145700Y-110586814D01*
X88146618Y-110588541D01*
X88168299Y-110615124D01*
X88189640Y-110641858D01*
X88192312Y-110644566D01*
X88192362Y-110644628D01*
X88192418Y-110644674D01*
X88193276Y-110645544D01*
X88275160Y-110727428D01*
X88275160Y-110980593D01*
X88275160Y-110980593D01*
G37*
X88275160Y-110980593D02*
X88274953Y-110980385D01*
X88111242Y-110869961D01*
X87929201Y-110793438D01*
X87735763Y-110753731D01*
X87655617Y-110753171D01*
X87009139Y-110106693D01*
X87009139Y-110014799D01*
X87136378Y-110103233D01*
X87317333Y-110182290D01*
X87510197Y-110224694D01*
X87707625Y-110228830D01*
X87902096Y-110194539D01*
X88084659Y-110123727D01*
X88084659Y-110383321D01*
X88088001Y-110417413D01*
X88090988Y-110451538D01*
X88091531Y-110453408D01*
X88091722Y-110455351D01*
X88101638Y-110488197D01*
X88111180Y-110521039D01*
X88112075Y-110522765D01*
X88112640Y-110524637D01*
X88128764Y-110554963D01*
X88144487Y-110585295D01*
X88145700Y-110586814D01*
X88146618Y-110588541D01*
X88168299Y-110615124D01*
X88189640Y-110641858D01*
X88192312Y-110644566D01*
X88192362Y-110644628D01*
X88192418Y-110644674D01*
X88193276Y-110645544D01*
X88275160Y-110727428D01*
X88275160Y-110980593D01*
G36*
X89449427Y-110934284D02*
X89425677Y-110953655D01*
X89351105Y-111043797D01*
X89295461Y-111146708D01*
X89260866Y-111258466D01*
X89248638Y-111374815D01*
X89255611Y-111451441D01*
X89016840Y-111690213D01*
X89016840Y-110573822D01*
X89013492Y-110539684D01*
X89010511Y-110505605D01*
X89009967Y-110503734D01*
X89009777Y-110501792D01*
X88999860Y-110468945D01*
X88990319Y-110436104D01*
X88989423Y-110434377D01*
X88988859Y-110432506D01*
X88972734Y-110402179D01*
X88957012Y-110371848D01*
X88955798Y-110370328D01*
X88954881Y-110368602D01*
X88933199Y-110342018D01*
X88911859Y-110315285D01*
X88909183Y-110312571D01*
X88909137Y-110312515D01*
X88909084Y-110312471D01*
X88908223Y-110311598D01*
X88826339Y-110229714D01*
X88826339Y-109988285D01*
X88908223Y-109906402D01*
X88929960Y-109879938D01*
X88951985Y-109853690D01*
X88952925Y-109851979D01*
X88954162Y-109850474D01*
X88970343Y-109820296D01*
X88986852Y-109790267D01*
X88987441Y-109788408D01*
X88988363Y-109786690D01*
X88998383Y-109753915D01*
X89008736Y-109721280D01*
X89008953Y-109719344D01*
X89009524Y-109717477D01*
X89012987Y-109683374D01*
X89016804Y-109649356D01*
X89016830Y-109645545D01*
X89016838Y-109645472D01*
X89016831Y-109645403D01*
X89016840Y-109644178D01*
X89016840Y-109289786D01*
X89255792Y-109528739D01*
X89248638Y-109596815D01*
X89259241Y-109713324D01*
X89292272Y-109825554D01*
X89346473Y-109929231D01*
X89419779Y-110020406D01*
X89449427Y-110045284D01*
X89425677Y-110064655D01*
X89351105Y-110154797D01*
X89295461Y-110257708D01*
X89260866Y-110369466D01*
X89248638Y-110485815D01*
X89259241Y-110602324D01*
X89292272Y-110714554D01*
X89346473Y-110818231D01*
X89419779Y-110909406D01*
X89449427Y-110934284D01*
X89449427Y-110934284D01*
G37*
X89449427Y-110934284D02*
X89425677Y-110953655D01*
X89351105Y-111043797D01*
X89295461Y-111146708D01*
X89260866Y-111258466D01*
X89248638Y-111374815D01*
X89255611Y-111451441D01*
X89016840Y-111690213D01*
X89016840Y-110573822D01*
X89013492Y-110539684D01*
X89010511Y-110505605D01*
X89009967Y-110503734D01*
X89009777Y-110501792D01*
X88999860Y-110468945D01*
X88990319Y-110436104D01*
X88989423Y-110434377D01*
X88988859Y-110432506D01*
X88972734Y-110402179D01*
X88957012Y-110371848D01*
X88955798Y-110370328D01*
X88954881Y-110368602D01*
X88933199Y-110342018D01*
X88911859Y-110315285D01*
X88909183Y-110312571D01*
X88909137Y-110312515D01*
X88909084Y-110312471D01*
X88908223Y-110311598D01*
X88826339Y-110229714D01*
X88826339Y-109988285D01*
X88908223Y-109906402D01*
X88929960Y-109879938D01*
X88951985Y-109853690D01*
X88952925Y-109851979D01*
X88954162Y-109850474D01*
X88970343Y-109820296D01*
X88986852Y-109790267D01*
X88987441Y-109788408D01*
X88988363Y-109786690D01*
X88998383Y-109753915D01*
X89008736Y-109721280D01*
X89008953Y-109719344D01*
X89009524Y-109717477D01*
X89012987Y-109683374D01*
X89016804Y-109649356D01*
X89016830Y-109645545D01*
X89016838Y-109645472D01*
X89016831Y-109645403D01*
X89016840Y-109644178D01*
X89016840Y-109289786D01*
X89255792Y-109528739D01*
X89248638Y-109596815D01*
X89259241Y-109713324D01*
X89292272Y-109825554D01*
X89346473Y-109929231D01*
X89419779Y-110020406D01*
X89449427Y-110045284D01*
X89425677Y-110064655D01*
X89351105Y-110154797D01*
X89295461Y-110257708D01*
X89260866Y-110369466D01*
X89248638Y-110485815D01*
X89259241Y-110602324D01*
X89292272Y-110714554D01*
X89346473Y-110818231D01*
X89419779Y-110909406D01*
X89449427Y-110934284D01*
G36*
X90352560Y-108870750D02*
X90332560Y-108870750D01*
X90332560Y-108894560D01*
X90007440Y-108894560D01*
X90007440Y-108870750D01*
X89987440Y-108870750D01*
X89987440Y-108553250D01*
X90007440Y-108553250D01*
X90007440Y-108529440D01*
X90185905Y-108529440D01*
X90229156Y-108574227D01*
X90352560Y-108659995D01*
X90352560Y-108870750D01*
X90352560Y-108870750D01*
G37*
X90352560Y-108870750D02*
X90332560Y-108870750D01*
X90332560Y-108894560D01*
X90007440Y-108894560D01*
X90007440Y-108870750D01*
X89987440Y-108870750D01*
X89987440Y-108553250D01*
X90007440Y-108553250D01*
X90007440Y-108529440D01*
X90185905Y-108529440D01*
X90229156Y-108574227D01*
X90352560Y-108659995D01*
X90352560Y-108870750D01*
G36*
X92618560Y-103814560D02*
X92547440Y-103814560D01*
X92547440Y-103790750D01*
X91887929Y-103790750D01*
X91846414Y-103879220D01*
X91894247Y-104032309D01*
X91961378Y-104100851D01*
X91891105Y-104185797D01*
X91835461Y-104288708D01*
X91800866Y-104400466D01*
X91788638Y-104516815D01*
X91799241Y-104633324D01*
X91832272Y-104745554D01*
X91886473Y-104849231D01*
X91959779Y-104940406D01*
X91989427Y-104965284D01*
X91965677Y-104984655D01*
X91891105Y-105074797D01*
X91835461Y-105177708D01*
X91800866Y-105289466D01*
X91788638Y-105405815D01*
X91791099Y-105432860D01*
X91752293Y-105432860D01*
X91596247Y-105276814D01*
X91596247Y-102786191D01*
X91563690Y-102621766D01*
X91499816Y-102466796D01*
X91407058Y-102327184D01*
X91288949Y-102208248D01*
X91149988Y-102114517D01*
X91089250Y-102088985D01*
X91080759Y-101995676D01*
X91047728Y-101883446D01*
X90993527Y-101779769D01*
X90920221Y-101688594D01*
X90918943Y-101687522D01*
X90985753Y-101619309D01*
X91033586Y-101466220D01*
X91033586Y-100971780D01*
X90985753Y-100818691D01*
X90898083Y-100729178D01*
X90794634Y-100658489D01*
X90679382Y-100609340D01*
X90556756Y-100583620D01*
X90431469Y-100582317D01*
X90332560Y-100669406D01*
X90332560Y-101060250D01*
X90992071Y-101060250D01*
X91033586Y-100971780D01*
X91033586Y-101466220D01*
X90992071Y-101377750D01*
X90332560Y-101377750D01*
X90332560Y-101401560D01*
X90007440Y-101401560D01*
X90007440Y-101377750D01*
X90007440Y-101060250D01*
X90007440Y-100669406D01*
X89908531Y-100582317D01*
X89783244Y-100583620D01*
X89660618Y-100609340D01*
X89545366Y-100658489D01*
X89441917Y-100729178D01*
X89354247Y-100818691D01*
X89306414Y-100971780D01*
X89347929Y-101060250D01*
X90007440Y-101060250D01*
X90007440Y-101377750D01*
X89347929Y-101377750D01*
X89306414Y-101466220D01*
X89354247Y-101619309D01*
X89421378Y-101687851D01*
X89351105Y-101772797D01*
X89295461Y-101875708D01*
X89260866Y-101987466D01*
X89248638Y-102103815D01*
X89259241Y-102220324D01*
X89292272Y-102332554D01*
X89346473Y-102436231D01*
X89419779Y-102527406D01*
X89509399Y-102602606D01*
X89611918Y-102658966D01*
X89723432Y-102694341D01*
X89839694Y-102707382D01*
X89848063Y-102707440D01*
X89902210Y-102707440D01*
X89888006Y-102774265D01*
X89885666Y-102941866D01*
X89915924Y-103106730D01*
X89977628Y-103262577D01*
X90068428Y-103403470D01*
X90184865Y-103524044D01*
X90322504Y-103619706D01*
X90476102Y-103686811D01*
X90639809Y-103722804D01*
X90807390Y-103726315D01*
X90972461Y-103697208D01*
X91128734Y-103636594D01*
X91270258Y-103546780D01*
X91391642Y-103431188D01*
X91488262Y-103294220D01*
X91556438Y-103141094D01*
X91593574Y-102977642D01*
X91596247Y-102786191D01*
X91596247Y-105276814D01*
X91086210Y-104766777D01*
X91059771Y-104745060D01*
X91033499Y-104723015D01*
X91031788Y-104722074D01*
X91030283Y-104720838D01*
X91000105Y-104704656D01*
X90970076Y-104688148D01*
X90968217Y-104687558D01*
X90966499Y-104686637D01*
X90933724Y-104676616D01*
X90901089Y-104666264D01*
X90899153Y-104666046D01*
X90897286Y-104665476D01*
X90863183Y-104662012D01*
X90829165Y-104658196D01*
X90825354Y-104658169D01*
X90825281Y-104658162D01*
X90825212Y-104658168D01*
X90823987Y-104658160D01*
X89662000Y-104658160D01*
X89627907Y-104661502D01*
X89593783Y-104664489D01*
X89591912Y-104665032D01*
X89589970Y-104665223D01*
X89557123Y-104675139D01*
X89524282Y-104684681D01*
X89522555Y-104685576D01*
X89520684Y-104686141D01*
X89490357Y-104702265D01*
X89460026Y-104717988D01*
X89458506Y-104719201D01*
X89456780Y-104720119D01*
X89430196Y-104741800D01*
X89403463Y-104763141D01*
X89400754Y-104765813D01*
X89400693Y-104765863D01*
X89400646Y-104765919D01*
X89399777Y-104766777D01*
X88383777Y-105782777D01*
X88362060Y-105809215D01*
X88340015Y-105835488D01*
X88339074Y-105837198D01*
X88337838Y-105838704D01*
X88321656Y-105868881D01*
X88305148Y-105898911D01*
X88304558Y-105900769D01*
X88303637Y-105902488D01*
X88297376Y-105922965D01*
X88274953Y-105900385D01*
X88111242Y-105789961D01*
X87929201Y-105713438D01*
X87735763Y-105673731D01*
X87538297Y-105672352D01*
X87344324Y-105709355D01*
X87161232Y-105783329D01*
X86995995Y-105891456D01*
X86854907Y-106029620D01*
X86743342Y-106192556D01*
X86665550Y-106374059D01*
X86624494Y-106567214D01*
X86621737Y-106764666D01*
X86657384Y-106958893D01*
X86705396Y-107080157D01*
X84673450Y-109112104D01*
X84673450Y-107996904D01*
X87525343Y-105145011D01*
X87707625Y-105148830D01*
X87902096Y-105114539D01*
X88086203Y-105043129D01*
X88252934Y-104937319D01*
X88395937Y-104801139D01*
X88509765Y-104639776D01*
X88590084Y-104459377D01*
X88633834Y-104266814D01*
X88636983Y-104041264D01*
X88598627Y-103847554D01*
X88523377Y-103664983D01*
X88414098Y-103500505D01*
X88274953Y-103360385D01*
X88111242Y-103249961D01*
X87929201Y-103173438D01*
X87735763Y-103133731D01*
X87538297Y-103132352D01*
X87344324Y-103169355D01*
X87161232Y-103243329D01*
X87009139Y-103342854D01*
X87009139Y-102745307D01*
X87230216Y-102524229D01*
X87317333Y-102562290D01*
X87510197Y-102604694D01*
X87707625Y-102608830D01*
X87902096Y-102574539D01*
X88086203Y-102503129D01*
X88252934Y-102397319D01*
X88395937Y-102261139D01*
X88509765Y-102099776D01*
X88590084Y-101919377D01*
X88633834Y-101726814D01*
X88636983Y-101501264D01*
X88598627Y-101307554D01*
X88523377Y-101124983D01*
X88414098Y-100960505D01*
X88274953Y-100820385D01*
X88111242Y-100709961D01*
X87929201Y-100633438D01*
X87735763Y-100593731D01*
X87538297Y-100592352D01*
X87344324Y-100629355D01*
X87161232Y-100703329D01*
X86995995Y-100811456D01*
X86854907Y-100949620D01*
X86743342Y-101112556D01*
X86665550Y-101294059D01*
X86624494Y-101487214D01*
X86621737Y-101684666D01*
X86657384Y-101878893D01*
X86705396Y-102000157D01*
X86376076Y-102329478D01*
X86354359Y-102355916D01*
X86332314Y-102382189D01*
X86331373Y-102383899D01*
X86330137Y-102385405D01*
X86313955Y-102415582D01*
X86297447Y-102445612D01*
X86296857Y-102447470D01*
X86295936Y-102449189D01*
X86285915Y-102481963D01*
X86275563Y-102514599D01*
X86275345Y-102516534D01*
X86274775Y-102518402D01*
X86271311Y-102552504D01*
X86267495Y-102586523D01*
X86267468Y-102590333D01*
X86267461Y-102590407D01*
X86267467Y-102590475D01*
X86267459Y-102591701D01*
X86267459Y-104851094D01*
X85295765Y-105822788D01*
X85295765Y-105098467D01*
X85273415Y-104985593D01*
X85229567Y-104879209D01*
X85165891Y-104783369D01*
X85084812Y-104701722D01*
X84989418Y-104637378D01*
X84883343Y-104592788D01*
X84770628Y-104569651D01*
X84692365Y-104569104D01*
X84867853Y-104425980D01*
X85029321Y-104230799D01*
X85149803Y-104007972D01*
X85224710Y-103765987D01*
X85251188Y-103514061D01*
X85228230Y-103261790D01*
X85156709Y-103018783D01*
X85039350Y-102794296D01*
X84880623Y-102596879D01*
X84686573Y-102434052D01*
X84464593Y-102312017D01*
X84223137Y-102235423D01*
X84216950Y-102234729D01*
X84447886Y-102165005D01*
X84671549Y-102046082D01*
X84867853Y-101885980D01*
X85029321Y-101690799D01*
X85149803Y-101467972D01*
X85224710Y-101225987D01*
X85251188Y-100974061D01*
X85228230Y-100721790D01*
X85156709Y-100478783D01*
X85039350Y-100254296D01*
X84880623Y-100056879D01*
X84686573Y-99894052D01*
X84464593Y-99772017D01*
X84223137Y-99695423D01*
X83971402Y-99667187D01*
X83953280Y-99667060D01*
X83940720Y-99667060D01*
X83688615Y-99691779D01*
X83446114Y-99764995D01*
X83222451Y-99883918D01*
X83026147Y-100044020D01*
X82864679Y-100239201D01*
X82744197Y-100462028D01*
X82704940Y-100588846D01*
X82704940Y-99976769D01*
X82704940Y-99921232D01*
X82694105Y-99866761D01*
X82672852Y-99815452D01*
X82641997Y-99769274D01*
X82602727Y-99730003D01*
X82556549Y-99699148D01*
X82505239Y-99677895D01*
X82450769Y-99667060D01*
X81640045Y-99667060D01*
X81569560Y-99737545D01*
X81569560Y-100802440D01*
X81589560Y-100802440D01*
X81589560Y-101127560D01*
X81569560Y-101127560D01*
X81569560Y-102192455D01*
X81612105Y-102235000D01*
X81569560Y-102277545D01*
X81569560Y-103342440D01*
X81589560Y-103342440D01*
X81589560Y-103667560D01*
X81569560Y-103667560D01*
X81569560Y-104732455D01*
X81640045Y-104802940D01*
X82450769Y-104802940D01*
X82505239Y-104792105D01*
X82556549Y-104770852D01*
X82602727Y-104739997D01*
X82641997Y-104700726D01*
X82672852Y-104654548D01*
X82694105Y-104603239D01*
X82704940Y-104548768D01*
X82704940Y-104493231D01*
X82704940Y-103881297D01*
X82737291Y-103991217D01*
X82854650Y-104215704D01*
X83013377Y-104413121D01*
X83207427Y-104575948D01*
X83429407Y-104697983D01*
X83670863Y-104774577D01*
X83922598Y-104802813D01*
X83940720Y-104802940D01*
X83953280Y-104802940D01*
X84205385Y-104778221D01*
X84278757Y-104756068D01*
X84257356Y-104777026D01*
X84192348Y-104871968D01*
X84147019Y-104977729D01*
X84123095Y-105090280D01*
X84121489Y-105205335D01*
X84123618Y-105216935D01*
X84047393Y-105293160D01*
X81244440Y-105293160D01*
X81244440Y-104732455D01*
X81244440Y-103667560D01*
X81244440Y-103342440D01*
X81244440Y-102277545D01*
X81201895Y-102235000D01*
X81244440Y-102192455D01*
X81244440Y-101127560D01*
X81244440Y-100802440D01*
X81244440Y-99737545D01*
X81173955Y-99667060D01*
X80363231Y-99667060D01*
X80308761Y-99677895D01*
X80257451Y-99699148D01*
X80211273Y-99730003D01*
X80172003Y-99769274D01*
X80141148Y-99815452D01*
X80119895Y-99866761D01*
X80109060Y-99921232D01*
X80109060Y-99976769D01*
X80109060Y-100731955D01*
X80179545Y-100802440D01*
X81244440Y-100802440D01*
X81244440Y-101127560D01*
X80179545Y-101127560D01*
X80109060Y-101198045D01*
X80109060Y-101953231D01*
X80109060Y-102008768D01*
X80119895Y-102063239D01*
X80141148Y-102114548D01*
X80172003Y-102160726D01*
X80211273Y-102199997D01*
X80257451Y-102230852D01*
X80267465Y-102235000D01*
X80257451Y-102239148D01*
X80211273Y-102270003D01*
X80172003Y-102309274D01*
X80141148Y-102355452D01*
X80119895Y-102406761D01*
X80109060Y-102461232D01*
X80109060Y-102516769D01*
X80109060Y-103271955D01*
X80179545Y-103342440D01*
X81244440Y-103342440D01*
X81244440Y-103667560D01*
X80179545Y-103667560D01*
X80109060Y-103738045D01*
X80109060Y-104493231D01*
X80109060Y-104548768D01*
X80119895Y-104603239D01*
X80141148Y-104654548D01*
X80172003Y-104700726D01*
X80211273Y-104739997D01*
X80257451Y-104770852D01*
X80308761Y-104792105D01*
X80363231Y-104802940D01*
X81173955Y-104802940D01*
X81244440Y-104732455D01*
X81244440Y-105293160D01*
X80508040Y-105293160D01*
X79676856Y-104461976D01*
X79650417Y-104440259D01*
X79624145Y-104418214D01*
X79622434Y-104417273D01*
X79620929Y-104416037D01*
X79605524Y-104407776D01*
X79606165Y-104361867D01*
X79583815Y-104248993D01*
X79539967Y-104142609D01*
X79476291Y-104046769D01*
X79395212Y-103965122D01*
X79299818Y-103900778D01*
X79193743Y-103856188D01*
X79081028Y-103833051D01*
X78965965Y-103832247D01*
X78852937Y-103853809D01*
X78746250Y-103896913D01*
X78649968Y-103959919D01*
X78567756Y-104040426D01*
X78502748Y-104135368D01*
X78457419Y-104241129D01*
X78433495Y-104353680D01*
X78431889Y-104468735D01*
X78452660Y-104581910D01*
X78495019Y-104688895D01*
X78557351Y-104785616D01*
X78637282Y-104868387D01*
X78731768Y-104934057D01*
X78837210Y-104980123D01*
X78949592Y-105004832D01*
X79064632Y-105007241D01*
X79083310Y-105003947D01*
X79088444Y-105008163D01*
X79114687Y-105030184D01*
X79116397Y-105031124D01*
X79117903Y-105032361D01*
X79148115Y-105048561D01*
X79178110Y-105065051D01*
X79179964Y-105065639D01*
X79181687Y-105066563D01*
X79214506Y-105076596D01*
X79247097Y-105086935D01*
X79249032Y-105087152D01*
X79250900Y-105087723D01*
X79254028Y-105088040D01*
X80092210Y-105926223D01*
X80118695Y-105947978D01*
X80144922Y-105969985D01*
X80146629Y-105970923D01*
X80148137Y-105972162D01*
X80178355Y-105988364D01*
X80208345Y-106004852D01*
X80210201Y-106005440D01*
X80211921Y-106006363D01*
X80244722Y-106016391D01*
X80277332Y-106026736D01*
X80279266Y-106026952D01*
X80281134Y-106027524D01*
X80315242Y-106030988D01*
X80349256Y-106034804D01*
X80353066Y-106034830D01*
X80353140Y-106034838D01*
X80353208Y-106034831D01*
X80354434Y-106034840D01*
X84201000Y-106034840D01*
X84235092Y-106031497D01*
X84269217Y-106028511D01*
X84271087Y-106027967D01*
X84273030Y-106027777D01*
X84305876Y-106017860D01*
X84338718Y-106008319D01*
X84340444Y-106007423D01*
X84342316Y-106006859D01*
X84372642Y-105990734D01*
X84402974Y-105975012D01*
X84404493Y-105973798D01*
X84406220Y-105972881D01*
X84432803Y-105951199D01*
X84459537Y-105929859D01*
X84462245Y-105927186D01*
X84462307Y-105927137D01*
X84462353Y-105927080D01*
X84463223Y-105926223D01*
X84647833Y-105741612D01*
X84754232Y-105743841D01*
X84867549Y-105723860D01*
X84974828Y-105682250D01*
X85071981Y-105620595D01*
X85155308Y-105541243D01*
X85221636Y-105447218D01*
X85268437Y-105342100D01*
X85293930Y-105229894D01*
X85295765Y-105098467D01*
X85295765Y-105822788D01*
X83684777Y-107433777D01*
X83663060Y-107460215D01*
X83641015Y-107486488D01*
X83640074Y-107488198D01*
X83638838Y-107489704D01*
X83622656Y-107519881D01*
X83606148Y-107549911D01*
X83605558Y-107551769D01*
X83604637Y-107553488D01*
X83594616Y-107586262D01*
X83584264Y-107618898D01*
X83584046Y-107620833D01*
X83583476Y-107622701D01*
X83580012Y-107656803D01*
X83576196Y-107690822D01*
X83576169Y-107694632D01*
X83576162Y-107694706D01*
X83576168Y-107694774D01*
X83576160Y-107696000D01*
X83576160Y-114604361D01*
X83492340Y-114688181D01*
X83492340Y-111329214D01*
X83488432Y-111289365D01*
X83484929Y-111249317D01*
X83484290Y-111247119D01*
X83484068Y-111244850D01*
X83472488Y-111206495D01*
X83461279Y-111167915D01*
X83460226Y-111165884D01*
X83459567Y-111163700D01*
X83440763Y-111128334D01*
X83422269Y-111092655D01*
X83420840Y-111090865D01*
X83419771Y-111088854D01*
X83394445Y-111057801D01*
X83369383Y-111026407D01*
X83366250Y-111023231D01*
X83366195Y-111023163D01*
X83366131Y-111023110D01*
X83365125Y-111022090D01*
X82793815Y-110450779D01*
X82794229Y-110421145D01*
X82771879Y-110308271D01*
X82728031Y-110201887D01*
X82664355Y-110106047D01*
X82583276Y-110024400D01*
X82487882Y-109960056D01*
X82381807Y-109915466D01*
X82269092Y-109892329D01*
X82154029Y-109891525D01*
X82041001Y-109913087D01*
X81968341Y-109942443D01*
X81968341Y-109209863D01*
X81965002Y-109175811D01*
X81962013Y-109141647D01*
X81961468Y-109139771D01*
X81961278Y-109137833D01*
X81951384Y-109105062D01*
X81941821Y-109072145D01*
X81940923Y-109070413D01*
X81940360Y-109068547D01*
X81924264Y-109038275D01*
X81908514Y-109007890D01*
X81907299Y-109006368D01*
X81906382Y-109004643D01*
X81884710Y-108978071D01*
X81863361Y-108951327D01*
X81860684Y-108948612D01*
X81860638Y-108948556D01*
X81860585Y-108948512D01*
X81859725Y-108947640D01*
X81685234Y-108773149D01*
X81692549Y-108771860D01*
X81799828Y-108730250D01*
X81896981Y-108668595D01*
X81980308Y-108589243D01*
X82046636Y-108495218D01*
X82093437Y-108390100D01*
X82118930Y-108277894D01*
X82120765Y-108146467D01*
X82098415Y-108033593D01*
X82054567Y-107927209D01*
X81990891Y-107831369D01*
X81909812Y-107749722D01*
X81814418Y-107685378D01*
X81708343Y-107640788D01*
X81595628Y-107617651D01*
X81480565Y-107616847D01*
X81367537Y-107638409D01*
X81260850Y-107681513D01*
X81166590Y-107743195D01*
X78475840Y-105052445D01*
X78475840Y-104775000D01*
X78472492Y-104740862D01*
X78469511Y-104706783D01*
X78468967Y-104704912D01*
X78468777Y-104702970D01*
X78458860Y-104670123D01*
X78449319Y-104637282D01*
X78448423Y-104635555D01*
X78447859Y-104633684D01*
X78431734Y-104603357D01*
X78416012Y-104573026D01*
X78414798Y-104571506D01*
X78413881Y-104569780D01*
X78392199Y-104543196D01*
X78370859Y-104516463D01*
X78368183Y-104513749D01*
X78368137Y-104513693D01*
X78368084Y-104513649D01*
X78367223Y-104512776D01*
X76277114Y-102422668D01*
X76278765Y-102304467D01*
X76256415Y-102191593D01*
X76212567Y-102085209D01*
X76148891Y-101989369D01*
X76067812Y-101907722D01*
X75972418Y-101843378D01*
X75866343Y-101798788D01*
X75753628Y-101775651D01*
X75638565Y-101774847D01*
X75525537Y-101796409D01*
X75418850Y-101839513D01*
X75322568Y-101902519D01*
X75240356Y-101983026D01*
X75234786Y-101991160D01*
X73003102Y-101991160D01*
X73024692Y-101960555D01*
X73082637Y-101830410D01*
X73114199Y-101691488D01*
X73116471Y-101528769D01*
X73088800Y-101389020D01*
X73034512Y-101257307D01*
X72955675Y-101138647D01*
X72855291Y-101037560D01*
X72746493Y-100964175D01*
X72839405Y-100905212D01*
X72942572Y-100806968D01*
X73024692Y-100690555D01*
X73082637Y-100560410D01*
X73114199Y-100421488D01*
X73116471Y-100258769D01*
X73088800Y-100119020D01*
X73034512Y-99987307D01*
X72955675Y-99868647D01*
X72855291Y-99767560D01*
X72737184Y-99687896D01*
X72669489Y-99659440D01*
X92618560Y-99659440D01*
X92618560Y-103032560D01*
X92547438Y-103032560D01*
X92547438Y-103082404D01*
X92448531Y-102995317D01*
X92323244Y-102996620D01*
X92200618Y-103022340D01*
X92085366Y-103071489D01*
X91981917Y-103142178D01*
X91894247Y-103231691D01*
X91846414Y-103384780D01*
X91887929Y-103473250D01*
X92547440Y-103473250D01*
X92547440Y-103449440D01*
X92618560Y-103449440D01*
X92618560Y-103814560D01*
X92618560Y-103814560D01*
G37*
X92618560Y-103814560D02*
X92547440Y-103814560D01*
X92547440Y-103790750D01*
X91887929Y-103790750D01*
X91846414Y-103879220D01*
X91894247Y-104032309D01*
X91961378Y-104100851D01*
X91891105Y-104185797D01*
X91835461Y-104288708D01*
X91800866Y-104400466D01*
X91788638Y-104516815D01*
X91799241Y-104633324D01*
X91832272Y-104745554D01*
X91886473Y-104849231D01*
X91959779Y-104940406D01*
X91989427Y-104965284D01*
X91965677Y-104984655D01*
X91891105Y-105074797D01*
X91835461Y-105177708D01*
X91800866Y-105289466D01*
X91788638Y-105405815D01*
X91791099Y-105432860D01*
X91752293Y-105432860D01*
X91596247Y-105276814D01*
X91596247Y-102786191D01*
X91563690Y-102621766D01*
X91499816Y-102466796D01*
X91407058Y-102327184D01*
X91288949Y-102208248D01*
X91149988Y-102114517D01*
X91089250Y-102088985D01*
X91080759Y-101995676D01*
X91047728Y-101883446D01*
X90993527Y-101779769D01*
X90920221Y-101688594D01*
X90918943Y-101687522D01*
X90985753Y-101619309D01*
X91033586Y-101466220D01*
X91033586Y-100971780D01*
X90985753Y-100818691D01*
X90898083Y-100729178D01*
X90794634Y-100658489D01*
X90679382Y-100609340D01*
X90556756Y-100583620D01*
X90431469Y-100582317D01*
X90332560Y-100669406D01*
X90332560Y-101060250D01*
X90992071Y-101060250D01*
X91033586Y-100971780D01*
X91033586Y-101466220D01*
X90992071Y-101377750D01*
X90332560Y-101377750D01*
X90332560Y-101401560D01*
X90007440Y-101401560D01*
X90007440Y-101377750D01*
X90007440Y-101060250D01*
X90007440Y-100669406D01*
X89908531Y-100582317D01*
X89783244Y-100583620D01*
X89660618Y-100609340D01*
X89545366Y-100658489D01*
X89441917Y-100729178D01*
X89354247Y-100818691D01*
X89306414Y-100971780D01*
X89347929Y-101060250D01*
X90007440Y-101060250D01*
X90007440Y-101377750D01*
X89347929Y-101377750D01*
X89306414Y-101466220D01*
X89354247Y-101619309D01*
X89421378Y-101687851D01*
X89351105Y-101772797D01*
X89295461Y-101875708D01*
X89260866Y-101987466D01*
X89248638Y-102103815D01*
X89259241Y-102220324D01*
X89292272Y-102332554D01*
X89346473Y-102436231D01*
X89419779Y-102527406D01*
X89509399Y-102602606D01*
X89611918Y-102658966D01*
X89723432Y-102694341D01*
X89839694Y-102707382D01*
X89848063Y-102707440D01*
X89902210Y-102707440D01*
X89888006Y-102774265D01*
X89885666Y-102941866D01*
X89915924Y-103106730D01*
X89977628Y-103262577D01*
X90068428Y-103403470D01*
X90184865Y-103524044D01*
X90322504Y-103619706D01*
X90476102Y-103686811D01*
X90639809Y-103722804D01*
X90807390Y-103726315D01*
X90972461Y-103697208D01*
X91128734Y-103636594D01*
X91270258Y-103546780D01*
X91391642Y-103431188D01*
X91488262Y-103294220D01*
X91556438Y-103141094D01*
X91593574Y-102977642D01*
X91596247Y-102786191D01*
X91596247Y-105276814D01*
X91086210Y-104766777D01*
X91059771Y-104745060D01*
X91033499Y-104723015D01*
X91031788Y-104722074D01*
X91030283Y-104720838D01*
X91000105Y-104704656D01*
X90970076Y-104688148D01*
X90968217Y-104687558D01*
X90966499Y-104686637D01*
X90933724Y-104676616D01*
X90901089Y-104666264D01*
X90899153Y-104666046D01*
X90897286Y-104665476D01*
X90863183Y-104662012D01*
X90829165Y-104658196D01*
X90825354Y-104658169D01*
X90825281Y-104658162D01*
X90825212Y-104658168D01*
X90823987Y-104658160D01*
X89662000Y-104658160D01*
X89627907Y-104661502D01*
X89593783Y-104664489D01*
X89591912Y-104665032D01*
X89589970Y-104665223D01*
X89557123Y-104675139D01*
X89524282Y-104684681D01*
X89522555Y-104685576D01*
X89520684Y-104686141D01*
X89490357Y-104702265D01*
X89460026Y-104717988D01*
X89458506Y-104719201D01*
X89456780Y-104720119D01*
X89430196Y-104741800D01*
X89403463Y-104763141D01*
X89400754Y-104765813D01*
X89400693Y-104765863D01*
X89400646Y-104765919D01*
X89399777Y-104766777D01*
X88383777Y-105782777D01*
X88362060Y-105809215D01*
X88340015Y-105835488D01*
X88339074Y-105837198D01*
X88337838Y-105838704D01*
X88321656Y-105868881D01*
X88305148Y-105898911D01*
X88304558Y-105900769D01*
X88303637Y-105902488D01*
X88297376Y-105922965D01*
X88274953Y-105900385D01*
X88111242Y-105789961D01*
X87929201Y-105713438D01*
X87735763Y-105673731D01*
X87538297Y-105672352D01*
X87344324Y-105709355D01*
X87161232Y-105783329D01*
X86995995Y-105891456D01*
X86854907Y-106029620D01*
X86743342Y-106192556D01*
X86665550Y-106374059D01*
X86624494Y-106567214D01*
X86621737Y-106764666D01*
X86657384Y-106958893D01*
X86705396Y-107080157D01*
X84673450Y-109112104D01*
X84673450Y-107996904D01*
X87525343Y-105145011D01*
X87707625Y-105148830D01*
X87902096Y-105114539D01*
X88086203Y-105043129D01*
X88252934Y-104937319D01*
X88395937Y-104801139D01*
X88509765Y-104639776D01*
X88590084Y-104459377D01*
X88633834Y-104266814D01*
X88636983Y-104041264D01*
X88598627Y-103847554D01*
X88523377Y-103664983D01*
X88414098Y-103500505D01*
X88274953Y-103360385D01*
X88111242Y-103249961D01*
X87929201Y-103173438D01*
X87735763Y-103133731D01*
X87538297Y-103132352D01*
X87344324Y-103169355D01*
X87161232Y-103243329D01*
X87009139Y-103342854D01*
X87009139Y-102745307D01*
X87230216Y-102524229D01*
X87317333Y-102562290D01*
X87510197Y-102604694D01*
X87707625Y-102608830D01*
X87902096Y-102574539D01*
X88086203Y-102503129D01*
X88252934Y-102397319D01*
X88395937Y-102261139D01*
X88509765Y-102099776D01*
X88590084Y-101919377D01*
X88633834Y-101726814D01*
X88636983Y-101501264D01*
X88598627Y-101307554D01*
X88523377Y-101124983D01*
X88414098Y-100960505D01*
X88274953Y-100820385D01*
X88111242Y-100709961D01*
X87929201Y-100633438D01*
X87735763Y-100593731D01*
X87538297Y-100592352D01*
X87344324Y-100629355D01*
X87161232Y-100703329D01*
X86995995Y-100811456D01*
X86854907Y-100949620D01*
X86743342Y-101112556D01*
X86665550Y-101294059D01*
X86624494Y-101487214D01*
X86621737Y-101684666D01*
X86657384Y-101878893D01*
X86705396Y-102000157D01*
X86376076Y-102329478D01*
X86354359Y-102355916D01*
X86332314Y-102382189D01*
X86331373Y-102383899D01*
X86330137Y-102385405D01*
X86313955Y-102415582D01*
X86297447Y-102445612D01*
X86296857Y-102447470D01*
X86295936Y-102449189D01*
X86285915Y-102481963D01*
X86275563Y-102514599D01*
X86275345Y-102516534D01*
X86274775Y-102518402D01*
X86271311Y-102552504D01*
X86267495Y-102586523D01*
X86267468Y-102590333D01*
X86267461Y-102590407D01*
X86267467Y-102590475D01*
X86267459Y-102591701D01*
X86267459Y-104851094D01*
X85295765Y-105822788D01*
X85295765Y-105098467D01*
X85273415Y-104985593D01*
X85229567Y-104879209D01*
X85165891Y-104783369D01*
X85084812Y-104701722D01*
X84989418Y-104637378D01*
X84883343Y-104592788D01*
X84770628Y-104569651D01*
X84692365Y-104569104D01*
X84867853Y-104425980D01*
X85029321Y-104230799D01*
X85149803Y-104007972D01*
X85224710Y-103765987D01*
X85251188Y-103514061D01*
X85228230Y-103261790D01*
X85156709Y-103018783D01*
X85039350Y-102794296D01*
X84880623Y-102596879D01*
X84686573Y-102434052D01*
X84464593Y-102312017D01*
X84223137Y-102235423D01*
X84216950Y-102234729D01*
X84447886Y-102165005D01*
X84671549Y-102046082D01*
X84867853Y-101885980D01*
X85029321Y-101690799D01*
X85149803Y-101467972D01*
X85224710Y-101225987D01*
X85251188Y-100974061D01*
X85228230Y-100721790D01*
X85156709Y-100478783D01*
X85039350Y-100254296D01*
X84880623Y-100056879D01*
X84686573Y-99894052D01*
X84464593Y-99772017D01*
X84223137Y-99695423D01*
X83971402Y-99667187D01*
X83953280Y-99667060D01*
X83940720Y-99667060D01*
X83688615Y-99691779D01*
X83446114Y-99764995D01*
X83222451Y-99883918D01*
X83026147Y-100044020D01*
X82864679Y-100239201D01*
X82744197Y-100462028D01*
X82704940Y-100588846D01*
X82704940Y-99976769D01*
X82704940Y-99921232D01*
X82694105Y-99866761D01*
X82672852Y-99815452D01*
X82641997Y-99769274D01*
X82602727Y-99730003D01*
X82556549Y-99699148D01*
X82505239Y-99677895D01*
X82450769Y-99667060D01*
X81640045Y-99667060D01*
X81569560Y-99737545D01*
X81569560Y-100802440D01*
X81589560Y-100802440D01*
X81589560Y-101127560D01*
X81569560Y-101127560D01*
X81569560Y-102192455D01*
X81612105Y-102235000D01*
X81569560Y-102277545D01*
X81569560Y-103342440D01*
X81589560Y-103342440D01*
X81589560Y-103667560D01*
X81569560Y-103667560D01*
X81569560Y-104732455D01*
X81640045Y-104802940D01*
X82450769Y-104802940D01*
X82505239Y-104792105D01*
X82556549Y-104770852D01*
X82602727Y-104739997D01*
X82641997Y-104700726D01*
X82672852Y-104654548D01*
X82694105Y-104603239D01*
X82704940Y-104548768D01*
X82704940Y-104493231D01*
X82704940Y-103881297D01*
X82737291Y-103991217D01*
X82854650Y-104215704D01*
X83013377Y-104413121D01*
X83207427Y-104575948D01*
X83429407Y-104697983D01*
X83670863Y-104774577D01*
X83922598Y-104802813D01*
X83940720Y-104802940D01*
X83953280Y-104802940D01*
X84205385Y-104778221D01*
X84278757Y-104756068D01*
X84257356Y-104777026D01*
X84192348Y-104871968D01*
X84147019Y-104977729D01*
X84123095Y-105090280D01*
X84121489Y-105205335D01*
X84123618Y-105216935D01*
X84047393Y-105293160D01*
X81244440Y-105293160D01*
X81244440Y-104732455D01*
X81244440Y-103667560D01*
X81244440Y-103342440D01*
X81244440Y-102277545D01*
X81201895Y-102235000D01*
X81244440Y-102192455D01*
X81244440Y-101127560D01*
X81244440Y-100802440D01*
X81244440Y-99737545D01*
X81173955Y-99667060D01*
X80363231Y-99667060D01*
X80308761Y-99677895D01*
X80257451Y-99699148D01*
X80211273Y-99730003D01*
X80172003Y-99769274D01*
X80141148Y-99815452D01*
X80119895Y-99866761D01*
X80109060Y-99921232D01*
X80109060Y-99976769D01*
X80109060Y-100731955D01*
X80179545Y-100802440D01*
X81244440Y-100802440D01*
X81244440Y-101127560D01*
X80179545Y-101127560D01*
X80109060Y-101198045D01*
X80109060Y-101953231D01*
X80109060Y-102008768D01*
X80119895Y-102063239D01*
X80141148Y-102114548D01*
X80172003Y-102160726D01*
X80211273Y-102199997D01*
X80257451Y-102230852D01*
X80267465Y-102235000D01*
X80257451Y-102239148D01*
X80211273Y-102270003D01*
X80172003Y-102309274D01*
X80141148Y-102355452D01*
X80119895Y-102406761D01*
X80109060Y-102461232D01*
X80109060Y-102516769D01*
X80109060Y-103271955D01*
X80179545Y-103342440D01*
X81244440Y-103342440D01*
X81244440Y-103667560D01*
X80179545Y-103667560D01*
X80109060Y-103738045D01*
X80109060Y-104493231D01*
X80109060Y-104548768D01*
X80119895Y-104603239D01*
X80141148Y-104654548D01*
X80172003Y-104700726D01*
X80211273Y-104739997D01*
X80257451Y-104770852D01*
X80308761Y-104792105D01*
X80363231Y-104802940D01*
X81173955Y-104802940D01*
X81244440Y-104732455D01*
X81244440Y-105293160D01*
X80508040Y-105293160D01*
X79676856Y-104461976D01*
X79650417Y-104440259D01*
X79624145Y-104418214D01*
X79622434Y-104417273D01*
X79620929Y-104416037D01*
X79605524Y-104407776D01*
X79606165Y-104361867D01*
X79583815Y-104248993D01*
X79539967Y-104142609D01*
X79476291Y-104046769D01*
X79395212Y-103965122D01*
X79299818Y-103900778D01*
X79193743Y-103856188D01*
X79081028Y-103833051D01*
X78965965Y-103832247D01*
X78852937Y-103853809D01*
X78746250Y-103896913D01*
X78649968Y-103959919D01*
X78567756Y-104040426D01*
X78502748Y-104135368D01*
X78457419Y-104241129D01*
X78433495Y-104353680D01*
X78431889Y-104468735D01*
X78452660Y-104581910D01*
X78495019Y-104688895D01*
X78557351Y-104785616D01*
X78637282Y-104868387D01*
X78731768Y-104934057D01*
X78837210Y-104980123D01*
X78949592Y-105004832D01*
X79064632Y-105007241D01*
X79083310Y-105003947D01*
X79088444Y-105008163D01*
X79114687Y-105030184D01*
X79116397Y-105031124D01*
X79117903Y-105032361D01*
X79148115Y-105048561D01*
X79178110Y-105065051D01*
X79179964Y-105065639D01*
X79181687Y-105066563D01*
X79214506Y-105076596D01*
X79247097Y-105086935D01*
X79249032Y-105087152D01*
X79250900Y-105087723D01*
X79254028Y-105088040D01*
X80092210Y-105926223D01*
X80118695Y-105947978D01*
X80144922Y-105969985D01*
X80146629Y-105970923D01*
X80148137Y-105972162D01*
X80178355Y-105988364D01*
X80208345Y-106004852D01*
X80210201Y-106005440D01*
X80211921Y-106006363D01*
X80244722Y-106016391D01*
X80277332Y-106026736D01*
X80279266Y-106026952D01*
X80281134Y-106027524D01*
X80315242Y-106030988D01*
X80349256Y-106034804D01*
X80353066Y-106034830D01*
X80353140Y-106034838D01*
X80353208Y-106034831D01*
X80354434Y-106034840D01*
X84201000Y-106034840D01*
X84235092Y-106031497D01*
X84269217Y-106028511D01*
X84271087Y-106027967D01*
X84273030Y-106027777D01*
X84305876Y-106017860D01*
X84338718Y-106008319D01*
X84340444Y-106007423D01*
X84342316Y-106006859D01*
X84372642Y-105990734D01*
X84402974Y-105975012D01*
X84404493Y-105973798D01*
X84406220Y-105972881D01*
X84432803Y-105951199D01*
X84459537Y-105929859D01*
X84462245Y-105927186D01*
X84462307Y-105927137D01*
X84462353Y-105927080D01*
X84463223Y-105926223D01*
X84647833Y-105741612D01*
X84754232Y-105743841D01*
X84867549Y-105723860D01*
X84974828Y-105682250D01*
X85071981Y-105620595D01*
X85155308Y-105541243D01*
X85221636Y-105447218D01*
X85268437Y-105342100D01*
X85293930Y-105229894D01*
X85295765Y-105098467D01*
X85295765Y-105822788D01*
X83684777Y-107433777D01*
X83663060Y-107460215D01*
X83641015Y-107486488D01*
X83640074Y-107488198D01*
X83638838Y-107489704D01*
X83622656Y-107519881D01*
X83606148Y-107549911D01*
X83605558Y-107551769D01*
X83604637Y-107553488D01*
X83594616Y-107586262D01*
X83584264Y-107618898D01*
X83584046Y-107620833D01*
X83583476Y-107622701D01*
X83580012Y-107656803D01*
X83576196Y-107690822D01*
X83576169Y-107694632D01*
X83576162Y-107694706D01*
X83576168Y-107694774D01*
X83576160Y-107696000D01*
X83576160Y-114604361D01*
X83492340Y-114688181D01*
X83492340Y-111329214D01*
X83488432Y-111289365D01*
X83484929Y-111249317D01*
X83484290Y-111247119D01*
X83484068Y-111244850D01*
X83472488Y-111206495D01*
X83461279Y-111167915D01*
X83460226Y-111165884D01*
X83459567Y-111163700D01*
X83440763Y-111128334D01*
X83422269Y-111092655D01*
X83420840Y-111090865D01*
X83419771Y-111088854D01*
X83394445Y-111057801D01*
X83369383Y-111026407D01*
X83366250Y-111023231D01*
X83366195Y-111023163D01*
X83366131Y-111023110D01*
X83365125Y-111022090D01*
X82793815Y-110450779D01*
X82794229Y-110421145D01*
X82771879Y-110308271D01*
X82728031Y-110201887D01*
X82664355Y-110106047D01*
X82583276Y-110024400D01*
X82487882Y-109960056D01*
X82381807Y-109915466D01*
X82269092Y-109892329D01*
X82154029Y-109891525D01*
X82041001Y-109913087D01*
X81968341Y-109942443D01*
X81968341Y-109209863D01*
X81965002Y-109175811D01*
X81962013Y-109141647D01*
X81961468Y-109139771D01*
X81961278Y-109137833D01*
X81951384Y-109105062D01*
X81941821Y-109072145D01*
X81940923Y-109070413D01*
X81940360Y-109068547D01*
X81924264Y-109038275D01*
X81908514Y-109007890D01*
X81907299Y-109006368D01*
X81906382Y-109004643D01*
X81884710Y-108978071D01*
X81863361Y-108951327D01*
X81860684Y-108948612D01*
X81860638Y-108948556D01*
X81860585Y-108948512D01*
X81859725Y-108947640D01*
X81685234Y-108773149D01*
X81692549Y-108771860D01*
X81799828Y-108730250D01*
X81896981Y-108668595D01*
X81980308Y-108589243D01*
X82046636Y-108495218D01*
X82093437Y-108390100D01*
X82118930Y-108277894D01*
X82120765Y-108146467D01*
X82098415Y-108033593D01*
X82054567Y-107927209D01*
X81990891Y-107831369D01*
X81909812Y-107749722D01*
X81814418Y-107685378D01*
X81708343Y-107640788D01*
X81595628Y-107617651D01*
X81480565Y-107616847D01*
X81367537Y-107638409D01*
X81260850Y-107681513D01*
X81166590Y-107743195D01*
X78475840Y-105052445D01*
X78475840Y-104775000D01*
X78472492Y-104740862D01*
X78469511Y-104706783D01*
X78468967Y-104704912D01*
X78468777Y-104702970D01*
X78458860Y-104670123D01*
X78449319Y-104637282D01*
X78448423Y-104635555D01*
X78447859Y-104633684D01*
X78431734Y-104603357D01*
X78416012Y-104573026D01*
X78414798Y-104571506D01*
X78413881Y-104569780D01*
X78392199Y-104543196D01*
X78370859Y-104516463D01*
X78368183Y-104513749D01*
X78368137Y-104513693D01*
X78368084Y-104513649D01*
X78367223Y-104512776D01*
X76277114Y-102422668D01*
X76278765Y-102304467D01*
X76256415Y-102191593D01*
X76212567Y-102085209D01*
X76148891Y-101989369D01*
X76067812Y-101907722D01*
X75972418Y-101843378D01*
X75866343Y-101798788D01*
X75753628Y-101775651D01*
X75638565Y-101774847D01*
X75525537Y-101796409D01*
X75418850Y-101839513D01*
X75322568Y-101902519D01*
X75240356Y-101983026D01*
X75234786Y-101991160D01*
X73003102Y-101991160D01*
X73024692Y-101960555D01*
X73082637Y-101830410D01*
X73114199Y-101691488D01*
X73116471Y-101528769D01*
X73088800Y-101389020D01*
X73034512Y-101257307D01*
X72955675Y-101138647D01*
X72855291Y-101037560D01*
X72746493Y-100964175D01*
X72839405Y-100905212D01*
X72942572Y-100806968D01*
X73024692Y-100690555D01*
X73082637Y-100560410D01*
X73114199Y-100421488D01*
X73116471Y-100258769D01*
X73088800Y-100119020D01*
X73034512Y-99987307D01*
X72955675Y-99868647D01*
X72855291Y-99767560D01*
X72737184Y-99687896D01*
X72669489Y-99659440D01*
X92618560Y-99659440D01*
X92618560Y-103032560D01*
X92547438Y-103032560D01*
X92547438Y-103082404D01*
X92448531Y-102995317D01*
X92323244Y-102996620D01*
X92200618Y-103022340D01*
X92085366Y-103071489D01*
X91981917Y-103142178D01*
X91894247Y-103231691D01*
X91846414Y-103384780D01*
X91887929Y-103473250D01*
X92547440Y-103473250D01*
X92547440Y-103449440D01*
X92618560Y-103449440D01*
X92618560Y-103814560D01*
G36*
X92618560Y-113974560D02*
X92547440Y-113974560D01*
X92547440Y-113950750D01*
X91887929Y-113950750D01*
X91846414Y-114039220D01*
X91894247Y-114192309D01*
X91961378Y-114260851D01*
X91920586Y-114310160D01*
X91144986Y-114310160D01*
X91110889Y-114313503D01*
X91076769Y-114316489D01*
X91074898Y-114317032D01*
X91072956Y-114317223D01*
X91040109Y-114327139D01*
X91007268Y-114336681D01*
X91005541Y-114337576D01*
X91003670Y-114338141D01*
X90973383Y-114354244D01*
X90943012Y-114369987D01*
X90941488Y-114371203D01*
X90939766Y-114372119D01*
X90913210Y-114393777D01*
X90886449Y-114415141D01*
X90883735Y-114417816D01*
X90883679Y-114417863D01*
X90883635Y-114417915D01*
X90882763Y-114418776D01*
X88624304Y-116677235D01*
X88598627Y-116547554D01*
X88554340Y-116440106D01*
X89263833Y-115730614D01*
X89285588Y-115704128D01*
X89307595Y-115677902D01*
X89308533Y-115676194D01*
X89309772Y-115674687D01*
X89325974Y-115644468D01*
X89342462Y-115614479D01*
X89343050Y-115612622D01*
X89343973Y-115610903D01*
X89354001Y-115578101D01*
X89364346Y-115545492D01*
X89364562Y-115543557D01*
X89365134Y-115541690D01*
X89368598Y-115507581D01*
X89372414Y-115473568D01*
X89372440Y-115469757D01*
X89372448Y-115469684D01*
X89372441Y-115469615D01*
X89372450Y-115468390D01*
X89372450Y-112628540D01*
X89419779Y-112687406D01*
X89509399Y-112762606D01*
X89611918Y-112818966D01*
X89723432Y-112854341D01*
X89839694Y-112867382D01*
X89848063Y-112867440D01*
X89902210Y-112867440D01*
X89888006Y-112934265D01*
X89885666Y-113101866D01*
X89915924Y-113266730D01*
X89977628Y-113422577D01*
X90068428Y-113563470D01*
X90184865Y-113684044D01*
X90322504Y-113779706D01*
X90476102Y-113846811D01*
X90639809Y-113882804D01*
X90807390Y-113886315D01*
X90972461Y-113857208D01*
X91128734Y-113796594D01*
X91270258Y-113706780D01*
X91391642Y-113591188D01*
X91488262Y-113454220D01*
X91556438Y-113301094D01*
X91593574Y-113137642D01*
X91596247Y-112946191D01*
X91563690Y-112781766D01*
X91499816Y-112626796D01*
X91407058Y-112487184D01*
X91288949Y-112368248D01*
X91149988Y-112274517D01*
X91089250Y-112248985D01*
X91080759Y-112155676D01*
X91047728Y-112043446D01*
X90993527Y-111939769D01*
X90920221Y-111848594D01*
X90890572Y-111823715D01*
X90914323Y-111804345D01*
X90988895Y-111714203D01*
X91044539Y-111611292D01*
X91079134Y-111499534D01*
X91091362Y-111383185D01*
X91080759Y-111266676D01*
X91047728Y-111154446D01*
X90993527Y-111050769D01*
X90920221Y-110959594D01*
X90890572Y-110934715D01*
X90914323Y-110915345D01*
X90988895Y-110825203D01*
X91044539Y-110722292D01*
X91079134Y-110610534D01*
X91091362Y-110494185D01*
X91080759Y-110377676D01*
X91047728Y-110265446D01*
X90993527Y-110161769D01*
X90920221Y-110070594D01*
X90890572Y-110045715D01*
X90914323Y-110026345D01*
X90988895Y-109936203D01*
X91044539Y-109833292D01*
X91079134Y-109721534D01*
X91091362Y-109605185D01*
X91080759Y-109488676D01*
X91047728Y-109376446D01*
X90993527Y-109272769D01*
X90920221Y-109181594D01*
X90918943Y-109180522D01*
X90985753Y-109112309D01*
X91033586Y-108959220D01*
X90993859Y-108874562D01*
X91086940Y-108874562D01*
X91086940Y-108781380D01*
X91133779Y-108773121D01*
X91313273Y-108703500D01*
X91475825Y-108600341D01*
X91615245Y-108467573D01*
X91726222Y-108310254D01*
X91804528Y-108134375D01*
X91847181Y-107946636D01*
X91850252Y-107726738D01*
X91812857Y-107537882D01*
X91739492Y-107359885D01*
X91632952Y-107199528D01*
X91497293Y-107062920D01*
X91337684Y-106955262D01*
X91160204Y-106880656D01*
X90971613Y-106841944D01*
X90779095Y-106840600D01*
X90589981Y-106876675D01*
X90411477Y-106948796D01*
X90250380Y-107054214D01*
X90112828Y-107188916D01*
X90004059Y-107347769D01*
X89928216Y-107524724D01*
X89888188Y-107713040D01*
X89885500Y-107905545D01*
X89918225Y-108083853D01*
X89908531Y-108075317D01*
X89783244Y-108076620D01*
X89660618Y-108102340D01*
X89545366Y-108151489D01*
X89524840Y-108165514D01*
X89524840Y-107976606D01*
X89682914Y-107818533D01*
X89704654Y-107792064D01*
X89726675Y-107765822D01*
X89727615Y-107764111D01*
X89728852Y-107762606D01*
X89745052Y-107732393D01*
X89761542Y-107702399D01*
X89762130Y-107700544D01*
X89763054Y-107698822D01*
X89773100Y-107665960D01*
X89783426Y-107633412D01*
X89783642Y-107631481D01*
X89784215Y-107629609D01*
X89787683Y-107595457D01*
X89791494Y-107561488D01*
X89791520Y-107557677D01*
X89791528Y-107557604D01*
X89791521Y-107557535D01*
X89791530Y-107556310D01*
X89791530Y-107433430D01*
X90178223Y-107046738D01*
X90199960Y-107020274D01*
X90221985Y-106994026D01*
X90222925Y-106992315D01*
X90224162Y-106990810D01*
X90240353Y-106960613D01*
X90256852Y-106930603D01*
X90257440Y-106928746D01*
X90258363Y-106927027D01*
X90268387Y-106894237D01*
X90278736Y-106861616D01*
X90278953Y-106859680D01*
X90279524Y-106857813D01*
X90282987Y-106823710D01*
X90286804Y-106789692D01*
X90286830Y-106785881D01*
X90286838Y-106785808D01*
X90286831Y-106785739D01*
X90286840Y-106784514D01*
X90286840Y-106121110D01*
X90362308Y-106049243D01*
X90428636Y-105955218D01*
X90475437Y-105850100D01*
X90500930Y-105737894D01*
X90502765Y-105606467D01*
X90480415Y-105493593D01*
X90441773Y-105399840D01*
X90670380Y-105399840D01*
X91336463Y-106065923D01*
X91362926Y-106087660D01*
X91389175Y-106109685D01*
X91390885Y-106110625D01*
X91392391Y-106111862D01*
X91422587Y-106128053D01*
X91452598Y-106144552D01*
X91454454Y-106145140D01*
X91456174Y-106146063D01*
X91488975Y-106156091D01*
X91521585Y-106166436D01*
X91523519Y-106166652D01*
X91525387Y-106167224D01*
X91559495Y-106170688D01*
X91593509Y-106174504D01*
X91597319Y-106174530D01*
X91597393Y-106174538D01*
X91597461Y-106174531D01*
X91598687Y-106174540D01*
X91743594Y-106174540D01*
X91795792Y-106226738D01*
X91788638Y-106294815D01*
X91799241Y-106411324D01*
X91832272Y-106523554D01*
X91886473Y-106627231D01*
X91959779Y-106718406D01*
X91989427Y-106743284D01*
X91965677Y-106762655D01*
X91891105Y-106852797D01*
X91835461Y-106955708D01*
X91800866Y-107067466D01*
X91788638Y-107183815D01*
X91799241Y-107300324D01*
X91832272Y-107412554D01*
X91886473Y-107516231D01*
X91959779Y-107607406D01*
X92049399Y-107682606D01*
X92151918Y-107738966D01*
X92263432Y-107774341D01*
X92379694Y-107787382D01*
X92388063Y-107787440D01*
X92618560Y-107787440D01*
X92618560Y-113192560D01*
X92547438Y-113192560D01*
X92547438Y-113242404D01*
X92448531Y-113155317D01*
X92323244Y-113156620D01*
X92200618Y-113182340D01*
X92085366Y-113231489D01*
X91981917Y-113302178D01*
X91894247Y-113391691D01*
X91846414Y-113544780D01*
X91887929Y-113633250D01*
X92547440Y-113633250D01*
X92547440Y-113609440D01*
X92618560Y-113609440D01*
X92618560Y-113974560D01*
X92618560Y-113974560D01*
G37*
X92618560Y-113974560D02*
X92547440Y-113974560D01*
X92547440Y-113950750D01*
X91887929Y-113950750D01*
X91846414Y-114039220D01*
X91894247Y-114192309D01*
X91961378Y-114260851D01*
X91920586Y-114310160D01*
X91144986Y-114310160D01*
X91110889Y-114313503D01*
X91076769Y-114316489D01*
X91074898Y-114317032D01*
X91072956Y-114317223D01*
X91040109Y-114327139D01*
X91007268Y-114336681D01*
X91005541Y-114337576D01*
X91003670Y-114338141D01*
X90973383Y-114354244D01*
X90943012Y-114369987D01*
X90941488Y-114371203D01*
X90939766Y-114372119D01*
X90913210Y-114393777D01*
X90886449Y-114415141D01*
X90883735Y-114417816D01*
X90883679Y-114417863D01*
X90883635Y-114417915D01*
X90882763Y-114418776D01*
X88624304Y-116677235D01*
X88598627Y-116547554D01*
X88554340Y-116440106D01*
X89263833Y-115730614D01*
X89285588Y-115704128D01*
X89307595Y-115677902D01*
X89308533Y-115676194D01*
X89309772Y-115674687D01*
X89325974Y-115644468D01*
X89342462Y-115614479D01*
X89343050Y-115612622D01*
X89343973Y-115610903D01*
X89354001Y-115578101D01*
X89364346Y-115545492D01*
X89364562Y-115543557D01*
X89365134Y-115541690D01*
X89368598Y-115507581D01*
X89372414Y-115473568D01*
X89372440Y-115469757D01*
X89372448Y-115469684D01*
X89372441Y-115469615D01*
X89372450Y-115468390D01*
X89372450Y-112628540D01*
X89419779Y-112687406D01*
X89509399Y-112762606D01*
X89611918Y-112818966D01*
X89723432Y-112854341D01*
X89839694Y-112867382D01*
X89848063Y-112867440D01*
X89902210Y-112867440D01*
X89888006Y-112934265D01*
X89885666Y-113101866D01*
X89915924Y-113266730D01*
X89977628Y-113422577D01*
X90068428Y-113563470D01*
X90184865Y-113684044D01*
X90322504Y-113779706D01*
X90476102Y-113846811D01*
X90639809Y-113882804D01*
X90807390Y-113886315D01*
X90972461Y-113857208D01*
X91128734Y-113796594D01*
X91270258Y-113706780D01*
X91391642Y-113591188D01*
X91488262Y-113454220D01*
X91556438Y-113301094D01*
X91593574Y-113137642D01*
X91596247Y-112946191D01*
X91563690Y-112781766D01*
X91499816Y-112626796D01*
X91407058Y-112487184D01*
X91288949Y-112368248D01*
X91149988Y-112274517D01*
X91089250Y-112248985D01*
X91080759Y-112155676D01*
X91047728Y-112043446D01*
X90993527Y-111939769D01*
X90920221Y-111848594D01*
X90890572Y-111823715D01*
X90914323Y-111804345D01*
X90988895Y-111714203D01*
X91044539Y-111611292D01*
X91079134Y-111499534D01*
X91091362Y-111383185D01*
X91080759Y-111266676D01*
X91047728Y-111154446D01*
X90993527Y-111050769D01*
X90920221Y-110959594D01*
X90890572Y-110934715D01*
X90914323Y-110915345D01*
X90988895Y-110825203D01*
X91044539Y-110722292D01*
X91079134Y-110610534D01*
X91091362Y-110494185D01*
X91080759Y-110377676D01*
X91047728Y-110265446D01*
X90993527Y-110161769D01*
X90920221Y-110070594D01*
X90890572Y-110045715D01*
X90914323Y-110026345D01*
X90988895Y-109936203D01*
X91044539Y-109833292D01*
X91079134Y-109721534D01*
X91091362Y-109605185D01*
X91080759Y-109488676D01*
X91047728Y-109376446D01*
X90993527Y-109272769D01*
X90920221Y-109181594D01*
X90918943Y-109180522D01*
X90985753Y-109112309D01*
X91033586Y-108959220D01*
X90993859Y-108874562D01*
X91086940Y-108874562D01*
X91086940Y-108781380D01*
X91133779Y-108773121D01*
X91313273Y-108703500D01*
X91475825Y-108600341D01*
X91615245Y-108467573D01*
X91726222Y-108310254D01*
X91804528Y-108134375D01*
X91847181Y-107946636D01*
X91850252Y-107726738D01*
X91812857Y-107537882D01*
X91739492Y-107359885D01*
X91632952Y-107199528D01*
X91497293Y-107062920D01*
X91337684Y-106955262D01*
X91160204Y-106880656D01*
X90971613Y-106841944D01*
X90779095Y-106840600D01*
X90589981Y-106876675D01*
X90411477Y-106948796D01*
X90250380Y-107054214D01*
X90112828Y-107188916D01*
X90004059Y-107347769D01*
X89928216Y-107524724D01*
X89888188Y-107713040D01*
X89885500Y-107905545D01*
X89918225Y-108083853D01*
X89908531Y-108075317D01*
X89783244Y-108076620D01*
X89660618Y-108102340D01*
X89545366Y-108151489D01*
X89524840Y-108165514D01*
X89524840Y-107976606D01*
X89682914Y-107818533D01*
X89704654Y-107792064D01*
X89726675Y-107765822D01*
X89727615Y-107764111D01*
X89728852Y-107762606D01*
X89745052Y-107732393D01*
X89761542Y-107702399D01*
X89762130Y-107700544D01*
X89763054Y-107698822D01*
X89773100Y-107665960D01*
X89783426Y-107633412D01*
X89783642Y-107631481D01*
X89784215Y-107629609D01*
X89787683Y-107595457D01*
X89791494Y-107561488D01*
X89791520Y-107557677D01*
X89791528Y-107557604D01*
X89791521Y-107557535D01*
X89791530Y-107556310D01*
X89791530Y-107433430D01*
X90178223Y-107046738D01*
X90199960Y-107020274D01*
X90221985Y-106994026D01*
X90222925Y-106992315D01*
X90224162Y-106990810D01*
X90240353Y-106960613D01*
X90256852Y-106930603D01*
X90257440Y-106928746D01*
X90258363Y-106927027D01*
X90268387Y-106894237D01*
X90278736Y-106861616D01*
X90278953Y-106859680D01*
X90279524Y-106857813D01*
X90282987Y-106823710D01*
X90286804Y-106789692D01*
X90286830Y-106785881D01*
X90286838Y-106785808D01*
X90286831Y-106785739D01*
X90286840Y-106784514D01*
X90286840Y-106121110D01*
X90362308Y-106049243D01*
X90428636Y-105955218D01*
X90475437Y-105850100D01*
X90500930Y-105737894D01*
X90502765Y-105606467D01*
X90480415Y-105493593D01*
X90441773Y-105399840D01*
X90670380Y-105399840D01*
X91336463Y-106065923D01*
X91362926Y-106087660D01*
X91389175Y-106109685D01*
X91390885Y-106110625D01*
X91392391Y-106111862D01*
X91422587Y-106128053D01*
X91452598Y-106144552D01*
X91454454Y-106145140D01*
X91456174Y-106146063D01*
X91488975Y-106156091D01*
X91521585Y-106166436D01*
X91523519Y-106166652D01*
X91525387Y-106167224D01*
X91559495Y-106170688D01*
X91593509Y-106174504D01*
X91597319Y-106174530D01*
X91597393Y-106174538D01*
X91597461Y-106174531D01*
X91598687Y-106174540D01*
X91743594Y-106174540D01*
X91795792Y-106226738D01*
X91788638Y-106294815D01*
X91799241Y-106411324D01*
X91832272Y-106523554D01*
X91886473Y-106627231D01*
X91959779Y-106718406D01*
X91989427Y-106743284D01*
X91965677Y-106762655D01*
X91891105Y-106852797D01*
X91835461Y-106955708D01*
X91800866Y-107067466D01*
X91788638Y-107183815D01*
X91799241Y-107300324D01*
X91832272Y-107412554D01*
X91886473Y-107516231D01*
X91959779Y-107607406D01*
X92049399Y-107682606D01*
X92151918Y-107738966D01*
X92263432Y-107774341D01*
X92379694Y-107787382D01*
X92388063Y-107787440D01*
X92618560Y-107787440D01*
X92618560Y-113192560D01*
X92547438Y-113192560D01*
X92547438Y-113242404D01*
X92448531Y-113155317D01*
X92323244Y-113156620D01*
X92200618Y-113182340D01*
X92085366Y-113231489D01*
X91981917Y-113302178D01*
X91894247Y-113391691D01*
X91846414Y-113544780D01*
X91887929Y-113633250D01*
X92547440Y-113633250D01*
X92547440Y-113609440D01*
X92618560Y-113609440D01*
X92618560Y-113974560D01*
G36*
X92618560Y-123352560D02*
X92388063Y-123352560D01*
X92271631Y-123363976D01*
X92159634Y-123397790D01*
X92056338Y-123452714D01*
X91965677Y-123526655D01*
X91891105Y-123616797D01*
X91850252Y-123692352D01*
X91850252Y-118267738D01*
X91812857Y-118078882D01*
X91739492Y-117900885D01*
X91632952Y-117740528D01*
X91497293Y-117603920D01*
X91337684Y-117496262D01*
X91160204Y-117421656D01*
X90971613Y-117382944D01*
X90779095Y-117381600D01*
X90589981Y-117417675D01*
X90411477Y-117489796D01*
X90250380Y-117595214D01*
X90112828Y-117729916D01*
X90004059Y-117888769D01*
X89928216Y-118065724D01*
X89892131Y-118235487D01*
X89783244Y-118236620D01*
X89660618Y-118262340D01*
X89545366Y-118311489D01*
X89441917Y-118382178D01*
X89354247Y-118471691D01*
X89306414Y-118624780D01*
X89347929Y-118713250D01*
X89950876Y-118713250D01*
X89991126Y-118814909D01*
X90095418Y-118976737D01*
X90170570Y-119054560D01*
X90007440Y-119054560D01*
X90007440Y-119030750D01*
X89347929Y-119030750D01*
X89306414Y-119119220D01*
X89354247Y-119272309D01*
X89421378Y-119340851D01*
X89351105Y-119425797D01*
X89295461Y-119528708D01*
X89260866Y-119640466D01*
X89248638Y-119756815D01*
X89259241Y-119873324D01*
X89292272Y-119985554D01*
X89346473Y-120089231D01*
X89419779Y-120180406D01*
X89449427Y-120205284D01*
X89425677Y-120224655D01*
X89351105Y-120314797D01*
X89295461Y-120417708D01*
X89260866Y-120529466D01*
X89248638Y-120645815D01*
X89259241Y-120762324D01*
X89292272Y-120874554D01*
X89346473Y-120978231D01*
X89419779Y-121069406D01*
X89449427Y-121094284D01*
X89425677Y-121113655D01*
X89351105Y-121203797D01*
X89295461Y-121306708D01*
X89260866Y-121418466D01*
X89248638Y-121534815D01*
X89259241Y-121651324D01*
X89292272Y-121763554D01*
X89346473Y-121867231D01*
X89419779Y-121958406D01*
X89449427Y-121983284D01*
X89425677Y-122002655D01*
X89351105Y-122092797D01*
X89295461Y-122195708D01*
X89260866Y-122307466D01*
X89248638Y-122423815D01*
X89259241Y-122540324D01*
X89292272Y-122652554D01*
X89346473Y-122756231D01*
X89419779Y-122847406D01*
X89509399Y-122922606D01*
X89611918Y-122978966D01*
X89723432Y-123014341D01*
X89839694Y-123027382D01*
X89848063Y-123027440D01*
X89902210Y-123027440D01*
X89888006Y-123094265D01*
X89885666Y-123261866D01*
X89915924Y-123426730D01*
X89977628Y-123582577D01*
X90068428Y-123723470D01*
X90184865Y-123844044D01*
X90322504Y-123939706D01*
X90476102Y-124006811D01*
X90639809Y-124042804D01*
X90807390Y-124046315D01*
X90972461Y-124017208D01*
X91128734Y-123956594D01*
X91270258Y-123866780D01*
X91391642Y-123751188D01*
X91488262Y-123614220D01*
X91556438Y-123461094D01*
X91593574Y-123297642D01*
X91596247Y-123106191D01*
X91563690Y-122941766D01*
X91499816Y-122786796D01*
X91407058Y-122647184D01*
X91288949Y-122528248D01*
X91149988Y-122434517D01*
X91089250Y-122408985D01*
X91080759Y-122315676D01*
X91047728Y-122203446D01*
X90993527Y-122099769D01*
X90920221Y-122008594D01*
X90890572Y-121983715D01*
X90914323Y-121964345D01*
X90988895Y-121874203D01*
X91044539Y-121771292D01*
X91079134Y-121659534D01*
X91091362Y-121543185D01*
X91080759Y-121426676D01*
X91047728Y-121314446D01*
X90993527Y-121210769D01*
X90920221Y-121119594D01*
X90890572Y-121094715D01*
X90914323Y-121075345D01*
X90988895Y-120985203D01*
X91044539Y-120882292D01*
X91079134Y-120770534D01*
X91091362Y-120654185D01*
X91080759Y-120537676D01*
X91047728Y-120425446D01*
X90993527Y-120321769D01*
X90920221Y-120230594D01*
X90890572Y-120205715D01*
X90914323Y-120186345D01*
X90988895Y-120096203D01*
X91044539Y-119993292D01*
X91079134Y-119881534D01*
X91091362Y-119765185D01*
X91080759Y-119648676D01*
X91047728Y-119536446D01*
X90993527Y-119432769D01*
X90924683Y-119347144D01*
X90944180Y-119347553D01*
X91133779Y-119314121D01*
X91313273Y-119244500D01*
X91475825Y-119141341D01*
X91615245Y-119008573D01*
X91726222Y-118851254D01*
X91804528Y-118675375D01*
X91847181Y-118487636D01*
X91850252Y-118267738D01*
X91850252Y-123692352D01*
X91835461Y-123719708D01*
X91802111Y-123827441D01*
X91540393Y-124089160D01*
X90323606Y-124089160D01*
X88554267Y-122319821D01*
X88590084Y-122239377D01*
X88633834Y-122046814D01*
X88636983Y-121821264D01*
X88598627Y-121627554D01*
X88580551Y-121583698D01*
X88953055Y-121211193D01*
X88953125Y-121211125D01*
X88992326Y-121171923D01*
X89017765Y-121140953D01*
X89043581Y-121110187D01*
X89044682Y-121108183D01*
X89046131Y-121106420D01*
X89065074Y-121071090D01*
X89084418Y-121035904D01*
X89085109Y-121033724D01*
X89086188Y-121031713D01*
X89097909Y-120993374D01*
X89110050Y-120955103D01*
X89110304Y-120952831D01*
X89110972Y-120950649D01*
X89115026Y-120910737D01*
X89119499Y-120870863D01*
X89119529Y-120866404D01*
X89119539Y-120866315D01*
X89119531Y-120866231D01*
X89119541Y-120864799D01*
X89119541Y-118834253D01*
X89115633Y-118794404D01*
X89112130Y-118754356D01*
X89111491Y-118752158D01*
X89111269Y-118749889D01*
X89105449Y-118730613D01*
X89158636Y-118655218D01*
X89205437Y-118550100D01*
X89230930Y-118437894D01*
X89232765Y-118306467D01*
X89210415Y-118193593D01*
X89166567Y-118087209D01*
X89102891Y-117991369D01*
X89021812Y-117909722D01*
X89016840Y-117906368D01*
X89016840Y-117333592D01*
X91298592Y-115051840D01*
X91920731Y-115051840D01*
X91959779Y-115100406D01*
X91989427Y-115125284D01*
X91965677Y-115144655D01*
X91891105Y-115234797D01*
X91835461Y-115337708D01*
X91800866Y-115449466D01*
X91788638Y-115565815D01*
X91799241Y-115682324D01*
X91832272Y-115794554D01*
X91886473Y-115898231D01*
X91959779Y-115989406D01*
X91989427Y-116014284D01*
X91965677Y-116033655D01*
X91891105Y-116123797D01*
X91835461Y-116226708D01*
X91800866Y-116338466D01*
X91788638Y-116454815D01*
X91799241Y-116571324D01*
X91832272Y-116683554D01*
X91886473Y-116787231D01*
X91959779Y-116878406D01*
X91989427Y-116903284D01*
X91965677Y-116922655D01*
X91891105Y-117012797D01*
X91835461Y-117115708D01*
X91800866Y-117227466D01*
X91788638Y-117343815D01*
X91799241Y-117460324D01*
X91832272Y-117572554D01*
X91886473Y-117676231D01*
X91959779Y-117767406D01*
X92049399Y-117842606D01*
X92151918Y-117898966D01*
X92263432Y-117934341D01*
X92379694Y-117947382D01*
X92388063Y-117947440D01*
X92618560Y-117947440D01*
X92618560Y-123352560D01*
X92618560Y-123352560D01*
G37*
X92618560Y-123352560D02*
X92388063Y-123352560D01*
X92271631Y-123363976D01*
X92159634Y-123397790D01*
X92056338Y-123452714D01*
X91965677Y-123526655D01*
X91891105Y-123616797D01*
X91850252Y-123692352D01*
X91850252Y-118267738D01*
X91812857Y-118078882D01*
X91739492Y-117900885D01*
X91632952Y-117740528D01*
X91497293Y-117603920D01*
X91337684Y-117496262D01*
X91160204Y-117421656D01*
X90971613Y-117382944D01*
X90779095Y-117381600D01*
X90589981Y-117417675D01*
X90411477Y-117489796D01*
X90250380Y-117595214D01*
X90112828Y-117729916D01*
X90004059Y-117888769D01*
X89928216Y-118065724D01*
X89892131Y-118235487D01*
X89783244Y-118236620D01*
X89660618Y-118262340D01*
X89545366Y-118311489D01*
X89441917Y-118382178D01*
X89354247Y-118471691D01*
X89306414Y-118624780D01*
X89347929Y-118713250D01*
X89950876Y-118713250D01*
X89991126Y-118814909D01*
X90095418Y-118976737D01*
X90170570Y-119054560D01*
X90007440Y-119054560D01*
X90007440Y-119030750D01*
X89347929Y-119030750D01*
X89306414Y-119119220D01*
X89354247Y-119272309D01*
X89421378Y-119340851D01*
X89351105Y-119425797D01*
X89295461Y-119528708D01*
X89260866Y-119640466D01*
X89248638Y-119756815D01*
X89259241Y-119873324D01*
X89292272Y-119985554D01*
X89346473Y-120089231D01*
X89419779Y-120180406D01*
X89449427Y-120205284D01*
X89425677Y-120224655D01*
X89351105Y-120314797D01*
X89295461Y-120417708D01*
X89260866Y-120529466D01*
X89248638Y-120645815D01*
X89259241Y-120762324D01*
X89292272Y-120874554D01*
X89346473Y-120978231D01*
X89419779Y-121069406D01*
X89449427Y-121094284D01*
X89425677Y-121113655D01*
X89351105Y-121203797D01*
X89295461Y-121306708D01*
X89260866Y-121418466D01*
X89248638Y-121534815D01*
X89259241Y-121651324D01*
X89292272Y-121763554D01*
X89346473Y-121867231D01*
X89419779Y-121958406D01*
X89449427Y-121983284D01*
X89425677Y-122002655D01*
X89351105Y-122092797D01*
X89295461Y-122195708D01*
X89260866Y-122307466D01*
X89248638Y-122423815D01*
X89259241Y-122540324D01*
X89292272Y-122652554D01*
X89346473Y-122756231D01*
X89419779Y-122847406D01*
X89509399Y-122922606D01*
X89611918Y-122978966D01*
X89723432Y-123014341D01*
X89839694Y-123027382D01*
X89848063Y-123027440D01*
X89902210Y-123027440D01*
X89888006Y-123094265D01*
X89885666Y-123261866D01*
X89915924Y-123426730D01*
X89977628Y-123582577D01*
X90068428Y-123723470D01*
X90184865Y-123844044D01*
X90322504Y-123939706D01*
X90476102Y-124006811D01*
X90639809Y-124042804D01*
X90807390Y-124046315D01*
X90972461Y-124017208D01*
X91128734Y-123956594D01*
X91270258Y-123866780D01*
X91391642Y-123751188D01*
X91488262Y-123614220D01*
X91556438Y-123461094D01*
X91593574Y-123297642D01*
X91596247Y-123106191D01*
X91563690Y-122941766D01*
X91499816Y-122786796D01*
X91407058Y-122647184D01*
X91288949Y-122528248D01*
X91149988Y-122434517D01*
X91089250Y-122408985D01*
X91080759Y-122315676D01*
X91047728Y-122203446D01*
X90993527Y-122099769D01*
X90920221Y-122008594D01*
X90890572Y-121983715D01*
X90914323Y-121964345D01*
X90988895Y-121874203D01*
X91044539Y-121771292D01*
X91079134Y-121659534D01*
X91091362Y-121543185D01*
X91080759Y-121426676D01*
X91047728Y-121314446D01*
X90993527Y-121210769D01*
X90920221Y-121119594D01*
X90890572Y-121094715D01*
X90914323Y-121075345D01*
X90988895Y-120985203D01*
X91044539Y-120882292D01*
X91079134Y-120770534D01*
X91091362Y-120654185D01*
X91080759Y-120537676D01*
X91047728Y-120425446D01*
X90993527Y-120321769D01*
X90920221Y-120230594D01*
X90890572Y-120205715D01*
X90914323Y-120186345D01*
X90988895Y-120096203D01*
X91044539Y-119993292D01*
X91079134Y-119881534D01*
X91091362Y-119765185D01*
X91080759Y-119648676D01*
X91047728Y-119536446D01*
X90993527Y-119432769D01*
X90924683Y-119347144D01*
X90944180Y-119347553D01*
X91133779Y-119314121D01*
X91313273Y-119244500D01*
X91475825Y-119141341D01*
X91615245Y-119008573D01*
X91726222Y-118851254D01*
X91804528Y-118675375D01*
X91847181Y-118487636D01*
X91850252Y-118267738D01*
X91850252Y-123692352D01*
X91835461Y-123719708D01*
X91802111Y-123827441D01*
X91540393Y-124089160D01*
X90323606Y-124089160D01*
X88554267Y-122319821D01*
X88590084Y-122239377D01*
X88633834Y-122046814D01*
X88636983Y-121821264D01*
X88598627Y-121627554D01*
X88580551Y-121583698D01*
X88953055Y-121211193D01*
X88953125Y-121211125D01*
X88992326Y-121171923D01*
X89017765Y-121140953D01*
X89043581Y-121110187D01*
X89044682Y-121108183D01*
X89046131Y-121106420D01*
X89065074Y-121071090D01*
X89084418Y-121035904D01*
X89085109Y-121033724D01*
X89086188Y-121031713D01*
X89097909Y-120993374D01*
X89110050Y-120955103D01*
X89110304Y-120952831D01*
X89110972Y-120950649D01*
X89115026Y-120910737D01*
X89119499Y-120870863D01*
X89119529Y-120866404D01*
X89119539Y-120866315D01*
X89119531Y-120866231D01*
X89119541Y-120864799D01*
X89119541Y-118834253D01*
X89115633Y-118794404D01*
X89112130Y-118754356D01*
X89111491Y-118752158D01*
X89111269Y-118749889D01*
X89105449Y-118730613D01*
X89158636Y-118655218D01*
X89205437Y-118550100D01*
X89230930Y-118437894D01*
X89232765Y-118306467D01*
X89210415Y-118193593D01*
X89166567Y-118087209D01*
X89102891Y-117991369D01*
X89021812Y-117909722D01*
X89016840Y-117906368D01*
X89016840Y-117333592D01*
X91298592Y-115051840D01*
X91920731Y-115051840D01*
X91959779Y-115100406D01*
X91989427Y-115125284D01*
X91965677Y-115144655D01*
X91891105Y-115234797D01*
X91835461Y-115337708D01*
X91800866Y-115449466D01*
X91788638Y-115565815D01*
X91799241Y-115682324D01*
X91832272Y-115794554D01*
X91886473Y-115898231D01*
X91959779Y-115989406D01*
X91989427Y-116014284D01*
X91965677Y-116033655D01*
X91891105Y-116123797D01*
X91835461Y-116226708D01*
X91800866Y-116338466D01*
X91788638Y-116454815D01*
X91799241Y-116571324D01*
X91832272Y-116683554D01*
X91886473Y-116787231D01*
X91959779Y-116878406D01*
X91989427Y-116903284D01*
X91965677Y-116922655D01*
X91891105Y-117012797D01*
X91835461Y-117115708D01*
X91800866Y-117227466D01*
X91788638Y-117343815D01*
X91799241Y-117460324D01*
X91832272Y-117572554D01*
X91886473Y-117676231D01*
X91959779Y-117767406D01*
X92049399Y-117842606D01*
X92151918Y-117898966D01*
X92263432Y-117934341D01*
X92379694Y-117947382D01*
X92388063Y-117947440D01*
X92618560Y-117947440D01*
X92618560Y-123352560D01*
G36*
X92618560Y-126400560D02*
X92547440Y-126400560D01*
X88639024Y-126400560D01*
X88639024Y-124535066D01*
X88634280Y-124336773D01*
X88590943Y-124143215D01*
X88533490Y-124004512D01*
X88400565Y-123919329D01*
X88170671Y-124149223D01*
X88170671Y-123689435D01*
X88085488Y-123556510D01*
X87900474Y-123485009D01*
X87705066Y-123450976D01*
X87506773Y-123455720D01*
X87313215Y-123499057D01*
X87174512Y-123556510D01*
X87089329Y-123689435D01*
X87630000Y-124230105D01*
X88170671Y-123689435D01*
X88170671Y-124149223D01*
X87859895Y-124460000D01*
X88400565Y-125000671D01*
X88533490Y-124915488D01*
X88604991Y-124730474D01*
X88639024Y-124535066D01*
X88639024Y-126400560D01*
X88170671Y-126400560D01*
X88170671Y-125230565D01*
X87630000Y-124689895D01*
X87400105Y-124919789D01*
X87400105Y-124460000D01*
X86859435Y-123919329D01*
X86726510Y-124004512D01*
X86655009Y-124189526D01*
X86620976Y-124384934D01*
X86625720Y-124583227D01*
X86669057Y-124776785D01*
X86726510Y-124915488D01*
X86859435Y-125000671D01*
X87400105Y-124460000D01*
X87400105Y-124919789D01*
X87089329Y-125230565D01*
X87174512Y-125363490D01*
X87359526Y-125434991D01*
X87554934Y-125469024D01*
X87753227Y-125464280D01*
X87946785Y-125420943D01*
X88085488Y-125363490D01*
X88170671Y-125230565D01*
X88170671Y-126400560D01*
X84347950Y-126400560D01*
X84403203Y-126379129D01*
X84569934Y-126273319D01*
X84712937Y-126137139D01*
X84826765Y-125975776D01*
X84907084Y-125795377D01*
X84950834Y-125602814D01*
X84953983Y-125377264D01*
X84915627Y-125183554D01*
X84840377Y-125000983D01*
X84731098Y-124836505D01*
X84591953Y-124696385D01*
X84428242Y-124585961D01*
X84246201Y-124509438D01*
X84052763Y-124469731D01*
X83855297Y-124468352D01*
X83661324Y-124505355D01*
X83546993Y-124551547D01*
X83047840Y-124052393D01*
X83047840Y-123399679D01*
X83154050Y-123564485D01*
X83291225Y-123706534D01*
X83453378Y-123819233D01*
X83634333Y-123898290D01*
X83827197Y-123940694D01*
X84024625Y-123944830D01*
X84219096Y-123910539D01*
X84403203Y-123839129D01*
X84569934Y-123733319D01*
X84712937Y-123597139D01*
X84762615Y-123526714D01*
X84777260Y-123606510D01*
X84819619Y-123713495D01*
X84881951Y-123810216D01*
X84961882Y-123892987D01*
X85056368Y-123958657D01*
X85161810Y-124004723D01*
X85274192Y-124029432D01*
X85389232Y-124031841D01*
X85502549Y-124011860D01*
X85609828Y-123970250D01*
X85706981Y-123908595D01*
X85790308Y-123829243D01*
X85856636Y-123735218D01*
X85903437Y-123630100D01*
X85928930Y-123517894D01*
X85930765Y-123386467D01*
X85929974Y-123382472D01*
X86368224Y-122944223D01*
X86389964Y-122917754D01*
X86411985Y-122891512D01*
X86412925Y-122889801D01*
X86414162Y-122888296D01*
X86430362Y-122858083D01*
X86446852Y-122828089D01*
X86447440Y-122826234D01*
X86448364Y-122824512D01*
X86458397Y-122791692D01*
X86468736Y-122759102D01*
X86468953Y-122757166D01*
X86469524Y-122755299D01*
X86472987Y-122721196D01*
X86476804Y-122687178D01*
X86476830Y-122683367D01*
X86476838Y-122683294D01*
X86476831Y-122683225D01*
X86476840Y-122682000D01*
X86476840Y-120599110D01*
X86552308Y-120527243D01*
X86618636Y-120433218D01*
X86665437Y-120328100D01*
X86690930Y-120215894D01*
X86692765Y-120084467D01*
X86670415Y-119971593D01*
X86626567Y-119865209D01*
X86603840Y-119831002D01*
X86603840Y-112172146D01*
X86600501Y-112138099D01*
X86597512Y-112103929D01*
X86596966Y-112102052D01*
X86596777Y-112100116D01*
X86586873Y-112067311D01*
X86577319Y-112034428D01*
X86576423Y-112032701D01*
X86575859Y-112030830D01*
X86559755Y-112000543D01*
X86544013Y-111970172D01*
X86542796Y-111968648D01*
X86541881Y-111966926D01*
X86520227Y-111940376D01*
X86498860Y-111913610D01*
X86496183Y-111910895D01*
X86496137Y-111910839D01*
X86496084Y-111910795D01*
X86495224Y-111909923D01*
X85841840Y-111256539D01*
X85841840Y-110566110D01*
X85917308Y-110494243D01*
X85983636Y-110400218D01*
X86030437Y-110295100D01*
X86055930Y-110182894D01*
X86057765Y-110051467D01*
X86035415Y-109938593D01*
X85991567Y-109832209D01*
X85927891Y-109736369D01*
X85846812Y-109654722D01*
X85751418Y-109590378D01*
X85645343Y-109545788D01*
X85532628Y-109522651D01*
X85417565Y-109521847D01*
X85304537Y-109543409D01*
X85281885Y-109552560D01*
X87230216Y-107604229D01*
X87246493Y-107611341D01*
X86376076Y-108481760D01*
X86354359Y-108508198D01*
X86332314Y-108534471D01*
X86331373Y-108536181D01*
X86330137Y-108537687D01*
X86313955Y-108567864D01*
X86297447Y-108597894D01*
X86296857Y-108599752D01*
X86295936Y-108601471D01*
X86285915Y-108634245D01*
X86275563Y-108666881D01*
X86275345Y-108668816D01*
X86274775Y-108670684D01*
X86271311Y-108704786D01*
X86267495Y-108738805D01*
X86267468Y-108742615D01*
X86267461Y-108742689D01*
X86267467Y-108742757D01*
X86267459Y-108743983D01*
X86267459Y-110260299D01*
X86270801Y-110294391D01*
X86273788Y-110328516D01*
X86274331Y-110330386D01*
X86274522Y-110332329D01*
X86284438Y-110365175D01*
X86293980Y-110398017D01*
X86294875Y-110399743D01*
X86295440Y-110401615D01*
X86311564Y-110431941D01*
X86327287Y-110462273D01*
X86328500Y-110463792D01*
X86329418Y-110465519D01*
X86351099Y-110492102D01*
X86372440Y-110518836D01*
X86375112Y-110521544D01*
X86375162Y-110521606D01*
X86375218Y-110521652D01*
X86376076Y-110522522D01*
X86909607Y-111056053D01*
X86854907Y-111109620D01*
X86743342Y-111272556D01*
X86665550Y-111454059D01*
X86624494Y-111647214D01*
X86621737Y-111844666D01*
X86657384Y-112038893D01*
X86730078Y-112222497D01*
X86837050Y-112388485D01*
X86974225Y-112530534D01*
X87136378Y-112643233D01*
X87317333Y-112722290D01*
X87510197Y-112764694D01*
X87707625Y-112768830D01*
X87902096Y-112734539D01*
X88086203Y-112663129D01*
X88252934Y-112557319D01*
X88275160Y-112536153D01*
X88275160Y-113130394D01*
X88029819Y-113375734D01*
X87929201Y-113333438D01*
X87735763Y-113293731D01*
X87538297Y-113292352D01*
X87344324Y-113329355D01*
X87161232Y-113403329D01*
X86995995Y-113511456D01*
X86854907Y-113649620D01*
X86743342Y-113812556D01*
X86665550Y-113994059D01*
X86624494Y-114187214D01*
X86621737Y-114384666D01*
X86657384Y-114578893D01*
X86730078Y-114762497D01*
X86837050Y-114928485D01*
X86974225Y-115070534D01*
X87136378Y-115183233D01*
X87317333Y-115262290D01*
X87510197Y-115304694D01*
X87707625Y-115308830D01*
X87902096Y-115274539D01*
X88086203Y-115203129D01*
X88252934Y-115097319D01*
X88395937Y-114961139D01*
X88509765Y-114799776D01*
X88590084Y-114619377D01*
X88630770Y-114440300D01*
X88630770Y-115314783D01*
X88029819Y-115915734D01*
X87929201Y-115873438D01*
X87735763Y-115833731D01*
X87538297Y-115832352D01*
X87344324Y-115869355D01*
X87161232Y-115943329D01*
X86995995Y-116051456D01*
X86854907Y-116189620D01*
X86743342Y-116352556D01*
X86665550Y-116534059D01*
X86624494Y-116727214D01*
X86621737Y-116924666D01*
X86657384Y-117118893D01*
X86730078Y-117302497D01*
X86837050Y-117468485D01*
X86974225Y-117610534D01*
X87136378Y-117723233D01*
X87317333Y-117802290D01*
X87510197Y-117844694D01*
X87707625Y-117848830D01*
X87902096Y-117814539D01*
X88086203Y-117743129D01*
X88252934Y-117637319D01*
X88275160Y-117616153D01*
X88275160Y-117905897D01*
X88194356Y-117985026D01*
X88129348Y-118079968D01*
X88084019Y-118185729D01*
X88060095Y-118298280D01*
X88058489Y-118413335D01*
X88069317Y-118472337D01*
X87929201Y-118413438D01*
X87735763Y-118373731D01*
X87538297Y-118372352D01*
X87344324Y-118409355D01*
X87161232Y-118483329D01*
X86995995Y-118591456D01*
X86854907Y-118729620D01*
X86743342Y-118892556D01*
X86665550Y-119074059D01*
X86624494Y-119267214D01*
X86621737Y-119464666D01*
X86657384Y-119658893D01*
X86730078Y-119842497D01*
X86837050Y-120008485D01*
X86974225Y-120150534D01*
X87136378Y-120263233D01*
X87317333Y-120342290D01*
X87510197Y-120384694D01*
X87707625Y-120388830D01*
X87902096Y-120354539D01*
X88086203Y-120283129D01*
X88250861Y-120178634D01*
X88250861Y-120684889D01*
X87966594Y-120969156D01*
X87929201Y-120953438D01*
X87735763Y-120913731D01*
X87538297Y-120912352D01*
X87344324Y-120949355D01*
X87161232Y-121023329D01*
X86995995Y-121131456D01*
X86854907Y-121269620D01*
X86743342Y-121432556D01*
X86665550Y-121614059D01*
X86624494Y-121807214D01*
X86621737Y-122004666D01*
X86657384Y-122198893D01*
X86730078Y-122382497D01*
X86837050Y-122548485D01*
X86974225Y-122690534D01*
X87136378Y-122803233D01*
X87317333Y-122882290D01*
X87510197Y-122924694D01*
X87707625Y-122928830D01*
X87902096Y-122894539D01*
X88030347Y-122844793D01*
X89907776Y-124722223D01*
X89934261Y-124743978D01*
X89960488Y-124765985D01*
X89962195Y-124766923D01*
X89963703Y-124768162D01*
X89993921Y-124784364D01*
X90023911Y-124800852D01*
X90025767Y-124801440D01*
X90027487Y-124802363D01*
X90060288Y-124812391D01*
X90092898Y-124822736D01*
X90094832Y-124822952D01*
X90096700Y-124823524D01*
X90130808Y-124826988D01*
X90164822Y-124830804D01*
X90168632Y-124830830D01*
X90168706Y-124830838D01*
X90168774Y-124830831D01*
X90170000Y-124830840D01*
X91694000Y-124830840D01*
X91728092Y-124827497D01*
X91762217Y-124824511D01*
X91764087Y-124823967D01*
X91766030Y-124823777D01*
X91798876Y-124813860D01*
X91831718Y-124804319D01*
X91833444Y-124803423D01*
X91835316Y-124802859D01*
X91865642Y-124786734D01*
X91895974Y-124771012D01*
X91897493Y-124769798D01*
X91899220Y-124768881D01*
X91925803Y-124747199D01*
X91952537Y-124725859D01*
X91955245Y-124723186D01*
X91955307Y-124723137D01*
X91955353Y-124723080D01*
X91956223Y-124722223D01*
X91996196Y-124682250D01*
X92547440Y-124682250D01*
X92547440Y-124658440D01*
X92618560Y-124658440D01*
X92618560Y-125023560D01*
X92547440Y-125023560D01*
X92547440Y-124999750D01*
X91887929Y-124999750D01*
X91846414Y-125088220D01*
X91894247Y-125241309D01*
X91981917Y-125330822D01*
X92085366Y-125401511D01*
X92200618Y-125450660D01*
X92323244Y-125476380D01*
X92448531Y-125477683D01*
X92547438Y-125390595D01*
X92547438Y-125440440D01*
X92547440Y-125440440D01*
X92618560Y-125440440D01*
X92618560Y-126400560D01*
X92618560Y-126400560D01*
G37*
X92618560Y-126400560D02*
X92547440Y-126400560D01*
X88639024Y-126400560D01*
X88639024Y-124535066D01*
X88634280Y-124336773D01*
X88590943Y-124143215D01*
X88533490Y-124004512D01*
X88400565Y-123919329D01*
X88170671Y-124149223D01*
X88170671Y-123689435D01*
X88085488Y-123556510D01*
X87900474Y-123485009D01*
X87705066Y-123450976D01*
X87506773Y-123455720D01*
X87313215Y-123499057D01*
X87174512Y-123556510D01*
X87089329Y-123689435D01*
X87630000Y-124230105D01*
X88170671Y-123689435D01*
X88170671Y-124149223D01*
X87859895Y-124460000D01*
X88400565Y-125000671D01*
X88533490Y-124915488D01*
X88604991Y-124730474D01*
X88639024Y-124535066D01*
X88639024Y-126400560D01*
X88170671Y-126400560D01*
X88170671Y-125230565D01*
X87630000Y-124689895D01*
X87400105Y-124919789D01*
X87400105Y-124460000D01*
X86859435Y-123919329D01*
X86726510Y-124004512D01*
X86655009Y-124189526D01*
X86620976Y-124384934D01*
X86625720Y-124583227D01*
X86669057Y-124776785D01*
X86726510Y-124915488D01*
X86859435Y-125000671D01*
X87400105Y-124460000D01*
X87400105Y-124919789D01*
X87089329Y-125230565D01*
X87174512Y-125363490D01*
X87359526Y-125434991D01*
X87554934Y-125469024D01*
X87753227Y-125464280D01*
X87946785Y-125420943D01*
X88085488Y-125363490D01*
X88170671Y-125230565D01*
X88170671Y-126400560D01*
X84347950Y-126400560D01*
X84403203Y-126379129D01*
X84569934Y-126273319D01*
X84712937Y-126137139D01*
X84826765Y-125975776D01*
X84907084Y-125795377D01*
X84950834Y-125602814D01*
X84953983Y-125377264D01*
X84915627Y-125183554D01*
X84840377Y-125000983D01*
X84731098Y-124836505D01*
X84591953Y-124696385D01*
X84428242Y-124585961D01*
X84246201Y-124509438D01*
X84052763Y-124469731D01*
X83855297Y-124468352D01*
X83661324Y-124505355D01*
X83546993Y-124551547D01*
X83047840Y-124052393D01*
X83047840Y-123399679D01*
X83154050Y-123564485D01*
X83291225Y-123706534D01*
X83453378Y-123819233D01*
X83634333Y-123898290D01*
X83827197Y-123940694D01*
X84024625Y-123944830D01*
X84219096Y-123910539D01*
X84403203Y-123839129D01*
X84569934Y-123733319D01*
X84712937Y-123597139D01*
X84762615Y-123526714D01*
X84777260Y-123606510D01*
X84819619Y-123713495D01*
X84881951Y-123810216D01*
X84961882Y-123892987D01*
X85056368Y-123958657D01*
X85161810Y-124004723D01*
X85274192Y-124029432D01*
X85389232Y-124031841D01*
X85502549Y-124011860D01*
X85609828Y-123970250D01*
X85706981Y-123908595D01*
X85790308Y-123829243D01*
X85856636Y-123735218D01*
X85903437Y-123630100D01*
X85928930Y-123517894D01*
X85930765Y-123386467D01*
X85929974Y-123382472D01*
X86368224Y-122944223D01*
X86389964Y-122917754D01*
X86411985Y-122891512D01*
X86412925Y-122889801D01*
X86414162Y-122888296D01*
X86430362Y-122858083D01*
X86446852Y-122828089D01*
X86447440Y-122826234D01*
X86448364Y-122824512D01*
X86458397Y-122791692D01*
X86468736Y-122759102D01*
X86468953Y-122757166D01*
X86469524Y-122755299D01*
X86472987Y-122721196D01*
X86476804Y-122687178D01*
X86476830Y-122683367D01*
X86476838Y-122683294D01*
X86476831Y-122683225D01*
X86476840Y-122682000D01*
X86476840Y-120599110D01*
X86552308Y-120527243D01*
X86618636Y-120433218D01*
X86665437Y-120328100D01*
X86690930Y-120215894D01*
X86692765Y-120084467D01*
X86670415Y-119971593D01*
X86626567Y-119865209D01*
X86603840Y-119831002D01*
X86603840Y-112172146D01*
X86600501Y-112138099D01*
X86597512Y-112103929D01*
X86596966Y-112102052D01*
X86596777Y-112100116D01*
X86586873Y-112067311D01*
X86577319Y-112034428D01*
X86576423Y-112032701D01*
X86575859Y-112030830D01*
X86559755Y-112000543D01*
X86544013Y-111970172D01*
X86542796Y-111968648D01*
X86541881Y-111966926D01*
X86520227Y-111940376D01*
X86498860Y-111913610D01*
X86496183Y-111910895D01*
X86496137Y-111910839D01*
X86496084Y-111910795D01*
X86495224Y-111909923D01*
X85841840Y-111256539D01*
X85841840Y-110566110D01*
X85917308Y-110494243D01*
X85983636Y-110400218D01*
X86030437Y-110295100D01*
X86055930Y-110182894D01*
X86057765Y-110051467D01*
X86035415Y-109938593D01*
X85991567Y-109832209D01*
X85927891Y-109736369D01*
X85846812Y-109654722D01*
X85751418Y-109590378D01*
X85645343Y-109545788D01*
X85532628Y-109522651D01*
X85417565Y-109521847D01*
X85304537Y-109543409D01*
X85281885Y-109552560D01*
X87230216Y-107604229D01*
X87246493Y-107611341D01*
X86376076Y-108481760D01*
X86354359Y-108508198D01*
X86332314Y-108534471D01*
X86331373Y-108536181D01*
X86330137Y-108537687D01*
X86313955Y-108567864D01*
X86297447Y-108597894D01*
X86296857Y-108599752D01*
X86295936Y-108601471D01*
X86285915Y-108634245D01*
X86275563Y-108666881D01*
X86275345Y-108668816D01*
X86274775Y-108670684D01*
X86271311Y-108704786D01*
X86267495Y-108738805D01*
X86267468Y-108742615D01*
X86267461Y-108742689D01*
X86267467Y-108742757D01*
X86267459Y-108743983D01*
X86267459Y-110260299D01*
X86270801Y-110294391D01*
X86273788Y-110328516D01*
X86274331Y-110330386D01*
X86274522Y-110332329D01*
X86284438Y-110365175D01*
X86293980Y-110398017D01*
X86294875Y-110399743D01*
X86295440Y-110401615D01*
X86311564Y-110431941D01*
X86327287Y-110462273D01*
X86328500Y-110463792D01*
X86329418Y-110465519D01*
X86351099Y-110492102D01*
X86372440Y-110518836D01*
X86375112Y-110521544D01*
X86375162Y-110521606D01*
X86375218Y-110521652D01*
X86376076Y-110522522D01*
X86909607Y-111056053D01*
X86854907Y-111109620D01*
X86743342Y-111272556D01*
X86665550Y-111454059D01*
X86624494Y-111647214D01*
X86621737Y-111844666D01*
X86657384Y-112038893D01*
X86730078Y-112222497D01*
X86837050Y-112388485D01*
X86974225Y-112530534D01*
X87136378Y-112643233D01*
X87317333Y-112722290D01*
X87510197Y-112764694D01*
X87707625Y-112768830D01*
X87902096Y-112734539D01*
X88086203Y-112663129D01*
X88252934Y-112557319D01*
X88275160Y-112536153D01*
X88275160Y-113130394D01*
X88029819Y-113375734D01*
X87929201Y-113333438D01*
X87735763Y-113293731D01*
X87538297Y-113292352D01*
X87344324Y-113329355D01*
X87161232Y-113403329D01*
X86995995Y-113511456D01*
X86854907Y-113649620D01*
X86743342Y-113812556D01*
X86665550Y-113994059D01*
X86624494Y-114187214D01*
X86621737Y-114384666D01*
X86657384Y-114578893D01*
X86730078Y-114762497D01*
X86837050Y-114928485D01*
X86974225Y-115070534D01*
X87136378Y-115183233D01*
X87317333Y-115262290D01*
X87510197Y-115304694D01*
X87707625Y-115308830D01*
X87902096Y-115274539D01*
X88086203Y-115203129D01*
X88252934Y-115097319D01*
X88395937Y-114961139D01*
X88509765Y-114799776D01*
X88590084Y-114619377D01*
X88630770Y-114440300D01*
X88630770Y-115314783D01*
X88029819Y-115915734D01*
X87929201Y-115873438D01*
X87735763Y-115833731D01*
X87538297Y-115832352D01*
X87344324Y-115869355D01*
X87161232Y-115943329D01*
X86995995Y-116051456D01*
X86854907Y-116189620D01*
X86743342Y-116352556D01*
X86665550Y-116534059D01*
X86624494Y-116727214D01*
X86621737Y-116924666D01*
X86657384Y-117118893D01*
X86730078Y-117302497D01*
X86837050Y-117468485D01*
X86974225Y-117610534D01*
X87136378Y-117723233D01*
X87317333Y-117802290D01*
X87510197Y-117844694D01*
X87707625Y-117848830D01*
X87902096Y-117814539D01*
X88086203Y-117743129D01*
X88252934Y-117637319D01*
X88275160Y-117616153D01*
X88275160Y-117905897D01*
X88194356Y-117985026D01*
X88129348Y-118079968D01*
X88084019Y-118185729D01*
X88060095Y-118298280D01*
X88058489Y-118413335D01*
X88069317Y-118472337D01*
X87929201Y-118413438D01*
X87735763Y-118373731D01*
X87538297Y-118372352D01*
X87344324Y-118409355D01*
X87161232Y-118483329D01*
X86995995Y-118591456D01*
X86854907Y-118729620D01*
X86743342Y-118892556D01*
X86665550Y-119074059D01*
X86624494Y-119267214D01*
X86621737Y-119464666D01*
X86657384Y-119658893D01*
X86730078Y-119842497D01*
X86837050Y-120008485D01*
X86974225Y-120150534D01*
X87136378Y-120263233D01*
X87317333Y-120342290D01*
X87510197Y-120384694D01*
X87707625Y-120388830D01*
X87902096Y-120354539D01*
X88086203Y-120283129D01*
X88250861Y-120178634D01*
X88250861Y-120684889D01*
X87966594Y-120969156D01*
X87929201Y-120953438D01*
X87735763Y-120913731D01*
X87538297Y-120912352D01*
X87344324Y-120949355D01*
X87161232Y-121023329D01*
X86995995Y-121131456D01*
X86854907Y-121269620D01*
X86743342Y-121432556D01*
X86665550Y-121614059D01*
X86624494Y-121807214D01*
X86621737Y-122004666D01*
X86657384Y-122198893D01*
X86730078Y-122382497D01*
X86837050Y-122548485D01*
X86974225Y-122690534D01*
X87136378Y-122803233D01*
X87317333Y-122882290D01*
X87510197Y-122924694D01*
X87707625Y-122928830D01*
X87902096Y-122894539D01*
X88030347Y-122844793D01*
X89907776Y-124722223D01*
X89934261Y-124743978D01*
X89960488Y-124765985D01*
X89962195Y-124766923D01*
X89963703Y-124768162D01*
X89993921Y-124784364D01*
X90023911Y-124800852D01*
X90025767Y-124801440D01*
X90027487Y-124802363D01*
X90060288Y-124812391D01*
X90092898Y-124822736D01*
X90094832Y-124822952D01*
X90096700Y-124823524D01*
X90130808Y-124826988D01*
X90164822Y-124830804D01*
X90168632Y-124830830D01*
X90168706Y-124830838D01*
X90168774Y-124830831D01*
X90170000Y-124830840D01*
X91694000Y-124830840D01*
X91728092Y-124827497D01*
X91762217Y-124824511D01*
X91764087Y-124823967D01*
X91766030Y-124823777D01*
X91798876Y-124813860D01*
X91831718Y-124804319D01*
X91833444Y-124803423D01*
X91835316Y-124802859D01*
X91865642Y-124786734D01*
X91895974Y-124771012D01*
X91897493Y-124769798D01*
X91899220Y-124768881D01*
X91925803Y-124747199D01*
X91952537Y-124725859D01*
X91955245Y-124723186D01*
X91955307Y-124723137D01*
X91955353Y-124723080D01*
X91956223Y-124722223D01*
X91996196Y-124682250D01*
X92547440Y-124682250D01*
X92547440Y-124658440D01*
X92618560Y-124658440D01*
X92618560Y-125023560D01*
X92547440Y-125023560D01*
X92547440Y-124999750D01*
X91887929Y-124999750D01*
X91846414Y-125088220D01*
X91894247Y-125241309D01*
X91981917Y-125330822D01*
X92085366Y-125401511D01*
X92200618Y-125450660D01*
X92323244Y-125476380D01*
X92448531Y-125477683D01*
X92547438Y-125390595D01*
X92547438Y-125440440D01*
X92547440Y-125440440D01*
X92618560Y-125440440D01*
X92618560Y-126400560D01*
M02*
