M48
;DRILL file {kicad 0.201502111101+5414~21~ubuntu14.04.1-product} date Thu 12 Feb 2015 12:54:52 PM PST
;FORMAT={-:-/ absolute / inch / decimal}
FMAT,2
INCH,TZ
T1C0.015
T2C0.016
T3C0.020
T4C0.033
T5C0.040
%
G90
G05
M72
T1
X3.55Y-3.985
X3.55Y-4.02
X3.55Y-4.28
X3.55Y-4.315
X3.55Y-4.35
X3.55Y-4.385
X3.55Y-4.42
X3.55Y-4.68
X3.55Y-4.715
X3.55Y-4.75
X3.55Y-4.785
X3.55Y-4.82
X3.65Y-4.08
X3.65Y-4.115
X3.65Y-4.15
X3.65Y-4.185
X3.65Y-4.22
X3.65Y-4.48
X3.65Y-4.515
X3.65Y-4.55
X3.65Y-4.585
X3.65Y-4.62
X3.65Y-4.88
X3.65Y-4.915
T2
X2.445Y-4.77
X2.48Y-4.365
X2.48Y-4.43
X2.483Y-4.321
X2.485Y-3.935
X2.485Y-3.995
X2.485Y-4.05
X2.485Y-4.11
X2.485Y-4.165
X2.485Y-4.22
X2.485Y-4.275
X2.485Y-4.485
X2.485Y-4.53
X2.485Y-4.595
X2.485Y-4.665
X2.485Y-4.725
X2.51Y-4.321
X2.51Y-4.68
X2.5198Y-4.5958
X2.535Y-3.935
X2.5541Y-4.2971
X2.5795Y-4.6537
X2.5824Y-4.5099
X2.5853Y-4.3994
X2.5889Y-4.2946
X2.59Y-3.935
X2.5963Y-4.3284
X2.6115Y-4.2733
X2.6172Y-4.5788
X2.6204Y-4.6096
X2.625Y-4.13
X2.63Y-4.67
X2.665Y-4.465
X2.68Y-4.375
X2.68Y-4.52
X2.687Y-4.153
X2.7037Y-4.1803
X2.715Y-4.6854
X2.7152Y-4.6544
X2.72Y-4.767
X2.725Y-4.07
X2.747Y-4.1826
X2.7475Y-4.7463
X2.75Y-4.45
X2.7551Y-4.2258
X2.7677Y-4.7201
X2.779Y-4.69
X2.7829Y-4.278
X2.7853Y-4.233
X2.7868Y-4.6538
X2.8174Y-4.6486
X2.82Y-4.09
X2.82Y-4.52
X2.825Y-4.375
X2.865Y-4.09
X2.8695Y-4.7401
X2.884Y-4.307
X2.915Y-4.295
X2.925Y-4.38
X2.929Y-4.246
X2.9348Y-4.7401
X2.937Y-4.693
X2.9616Y-4.7246
X2.97Y-4.415
X2.98Y-4.03
X2.98Y-4.32
X2.98Y-4.61
X2.99Y-4.2255
X2.9992Y-4.6705
X3.01Y-4.335
X3.0151Y-4.3799
X3.02Y-4.44
X3.025Y-4.733
X3.048Y-4.139
X3.06Y-4.61
X3.061Y-4.673
X3.07Y-4.315
X3.098Y-4.587
X3.1024Y-4.7235
X3.105Y-4.555
X3.11Y-4.41
X3.111Y-4.111
X3.1198Y-4.4394
X3.1456Y-4.5264
X3.15Y-4.315
X3.1502Y-4.383
X3.1503Y-4.18
X3.1649Y-4.4307
X3.18Y-4.135
X3.18Y-4.215
X3.2055Y-4.59
X3.21Y-4.26
X3.21Y-4.437
X3.2194Y-4.7235
X3.2365Y-4.3496
X3.26Y-4.762
X3.275Y-4.665
X3.28Y-4.345
X3.2861Y-4.7787
X3.295Y-4.545
X3.325Y-4.53
X3.335Y-4.14
X3.34Y-4.63
X3.3415Y-4.4978
X3.3415Y-4.2758
X3.3557Y-4.453
X3.36Y-4.76
X3.36Y-4.86
X3.365Y-4.335
X3.3724Y-4.4269
X3.39Y-4.73
X3.405Y-4.37
X3.455Y-4.35
X3.49Y-4.66
X3.5Y-4.115
X3.5049Y-4.8051
X3.505Y-4.335
X3.5131Y-4.1966
X3.525Y-4.635
X3.54Y-4.16
X3.5404Y-4.5174
X3.5714Y-4.1625
X3.6Y-4.545
X3.6088Y-4.1362
T3
X2.65Y-3.95
X2.65Y-4.
X2.7Y-3.95
X2.7Y-4.
X2.75Y-3.95
X2.75Y-4.
X2.8Y-3.95
X2.8Y-4.
X2.85Y-3.95
X2.85Y-4.
T4
X2.405Y-4.84
X2.405Y-4.94
X2.505Y-4.84
X2.505Y-4.94
X2.605Y-4.84
X2.605Y-4.94
X2.705Y-4.84
X2.705Y-4.94
X2.805Y-4.84
X2.805Y-4.94
X2.905Y-4.84
X2.905Y-4.94
X3.005Y-4.84
X3.005Y-4.94
X3.105Y-4.84
X3.105Y-4.94
X3.205Y-4.84
X3.205Y-4.94
X3.305Y-4.84
X3.305Y-4.94
X3.45Y-4.
X3.45Y-4.1
X3.45Y-4.2
X3.45Y-4.3
X3.45Y-4.4
X3.45Y-4.5
X3.45Y-4.6
X3.45Y-4.7
X3.45Y-4.8
X3.45Y-4.9
T5
X3.205Y-3.975
X3.205Y-4.075
X3.305Y-3.975
X3.305Y-4.075
T0
M30
