G04 #@! TF.FileFunction,Soldermask,Bot*
%FSLAX46Y46*%
G04 Gerber Fmt 4.6, Leading zero omitted, Abs format (unit mm)*
G04 Created by KiCad (PCBNEW 0.201502161433+5424~21~ubuntu14.04.1-product) date Mon 16 Feb 2015 01:02:52 PM PST*
%MOMM*%
G01*
G04 APERTURE LIST*
%ADD10C,0.100000*%
%ADD11C,0.381000*%
%ADD12R,2.184400X2.184400*%
%ADD13O,2.184400X2.184400*%
%ADD14C,1.602400*%
%ADD15C,1.041400*%
G04 APERTURE END LIST*
D10*
D11*
X90360500Y-108712000D02*
G75*
G03X90360500Y-108712000I-190500J0D01*
G01*
X90360500Y-109601000D02*
G75*
G03X90360500Y-109601000I-190500J0D01*
G01*
X90360500Y-110490000D02*
G75*
G03X90360500Y-110490000I-190500J0D01*
G01*
X90360500Y-111379000D02*
G75*
G03X90360500Y-111379000I-190500J0D01*
G01*
X90360500Y-112268000D02*
G75*
G03X90360500Y-112268000I-190500J0D01*
G01*
X92900500Y-113792000D02*
G75*
G03X92900500Y-113792000I-190500J0D01*
G01*
X92900500Y-114681000D02*
G75*
G03X92900500Y-114681000I-190500J0D01*
G01*
X92900500Y-115570000D02*
G75*
G03X92900500Y-115570000I-190500J0D01*
G01*
X92900500Y-116459000D02*
G75*
G03X92900500Y-116459000I-190500J0D01*
G01*
X92900500Y-117348000D02*
G75*
G03X92900500Y-117348000I-190500J0D01*
G01*
X92900500Y-103632000D02*
G75*
G03X92900500Y-103632000I-190500J0D01*
G01*
X92900500Y-104521000D02*
G75*
G03X92900500Y-104521000I-190500J0D01*
G01*
X92900500Y-105410000D02*
G75*
G03X92900500Y-105410000I-190500J0D01*
G01*
X92900500Y-106299000D02*
G75*
G03X92900500Y-106299000I-190500J0D01*
G01*
X92900500Y-107188000D02*
G75*
G03X92900500Y-107188000I-190500J0D01*
G01*
X90360500Y-118872000D02*
G75*
G03X90360500Y-118872000I-190500J0D01*
G01*
X90360500Y-119761000D02*
G75*
G03X90360500Y-119761000I-190500J0D01*
G01*
X90360500Y-120650000D02*
G75*
G03X90360500Y-120650000I-190500J0D01*
G01*
X90360500Y-121539000D02*
G75*
G03X90360500Y-121539000I-190500J0D01*
G01*
X90360500Y-122428000D02*
G75*
G03X90360500Y-122428000I-190500J0D01*
G01*
X92900500Y-124841000D02*
G75*
G03X92900500Y-124841000I-190500J0D01*
G01*
X92900500Y-123952000D02*
G75*
G03X92900500Y-123952000I-190500J0D01*
G01*
X90360500Y-101219000D02*
G75*
G03X90360500Y-101219000I-190500J0D01*
G01*
X90360500Y-102108000D02*
G75*
G03X90360500Y-102108000I-190500J0D01*
G01*
D12*
X81407000Y-100965000D03*
D13*
X83947000Y-100965000D03*
D12*
X81407000Y-103505000D03*
D13*
X83947000Y-103505000D03*
D14*
X87630000Y-124460000D03*
X87630000Y-121920000D03*
X87630000Y-119380000D03*
X87630000Y-116840000D03*
X87630000Y-114300000D03*
X87630000Y-111760000D03*
X87630000Y-109220000D03*
X87630000Y-106680000D03*
X87630000Y-104140000D03*
X87630000Y-101600000D03*
D15*
X67310000Y-101600000D03*
X67310000Y-100330000D03*
X68580000Y-101600000D03*
X68580000Y-100330000D03*
X69850000Y-101600000D03*
X69850000Y-100330000D03*
X71120000Y-101600000D03*
X71120000Y-100330000D03*
X72390000Y-101600000D03*
X72390000Y-100330000D03*
D14*
X61087000Y-122936000D03*
X63627000Y-122936000D03*
X66167000Y-122936000D03*
X68707000Y-122936000D03*
X71247000Y-122936000D03*
X73787000Y-122936000D03*
X76327000Y-122936000D03*
X78867000Y-122936000D03*
X81407000Y-122936000D03*
X83947000Y-122936000D03*
X61087000Y-125476000D03*
X63627000Y-125476000D03*
X66167000Y-125476000D03*
X68707000Y-125476000D03*
X71247000Y-125476000D03*
X73787000Y-125476000D03*
X76327000Y-125476000D03*
X78867000Y-125476000D03*
X81407000Y-125476000D03*
X83947000Y-125476000D03*
M02*
