G04 #@! TF.FileFunction,Soldermask,Top*
%FSLAX46Y46*%
G04 Gerber Fmt 4.6, Leading zero omitted, Abs format (unit mm)*
G04 Created by KiCad (PCBNEW 0.201502122346+5414~21~ubuntu14.04.1-product) date Fri 13 Feb 2015 11:21:42 AM PST*
%MOMM*%
G01*
G04 APERTURE LIST*
%ADD10C,0.100000*%
%ADD11R,0.802400X1.452400*%
%ADD12R,1.402400X2.252400*%
%ADD13R,0.949960X0.949960*%
%ADD14R,2.184400X2.184400*%
%ADD15O,2.184400X2.184400*%
%ADD16C,1.602400*%
%ADD17R,0.552400X1.252400*%
%ADD18R,0.751840X0.401320*%
%ADD19R,0.401320X0.751840*%
%ADD20R,5.302400X5.302400*%
%ADD21R,0.787400X1.295400*%
%ADD22R,0.551180X0.751840*%
%ADD23R,0.751840X0.551180*%
%ADD24R,1.295400X0.787400*%
%ADD25C,1.041400*%
%ADD26R,1.552400X1.102400*%
%ADD27R,1.352400X1.152400*%
%ADD28R,0.452400X0.362400*%
%ADD29R,0.252400X0.582400*%
G04 APERTURE END LIST*
D10*
D11*
X73692000Y-120396000D03*
X71342000Y-120396000D03*
D12*
X59636000Y-117602000D03*
X52886000Y-117602000D03*
D13*
X71628000Y-107810300D03*
X71628000Y-106311700D03*
X72771000Y-107810300D03*
X72771000Y-106311700D03*
D14*
X81407000Y-100965000D03*
D15*
X83947000Y-100965000D03*
D14*
X81407000Y-103505000D03*
D15*
X83947000Y-103505000D03*
D16*
X87630000Y-124460000D03*
X87630000Y-121920000D03*
X87630000Y-119380000D03*
X87630000Y-116840000D03*
X87630000Y-114300000D03*
X87630000Y-111760000D03*
X87630000Y-109220000D03*
X87630000Y-106680000D03*
X87630000Y-104140000D03*
X87630000Y-101600000D03*
D17*
X79334000Y-106435000D03*
X78684000Y-106435000D03*
X78034000Y-106435000D03*
X77384000Y-106435000D03*
X77384000Y-110735000D03*
X78034000Y-110735000D03*
X78684000Y-110735000D03*
X79334000Y-110735000D03*
D18*
X73248520Y-115778280D03*
X73248520Y-115277900D03*
X73248520Y-114777520D03*
X73248520Y-114277140D03*
X73248520Y-113779300D03*
X73248520Y-113278920D03*
X73248520Y-112778540D03*
X73248520Y-112278160D03*
X73248520Y-111777780D03*
X73248520Y-111277400D03*
X73248520Y-110777020D03*
X73248520Y-110279180D03*
X66451480Y-114282220D03*
X66451480Y-114780060D03*
X66451480Y-115280440D03*
X66451480Y-115780820D03*
D19*
X70599300Y-109628940D03*
X70100000Y-109630000D03*
X69601080Y-109628940D03*
X69100700Y-109628940D03*
X68600320Y-109628940D03*
X68099940Y-109628940D03*
X67599560Y-109628940D03*
X67099180Y-109628940D03*
X72598280Y-109628940D03*
X72097900Y-109628940D03*
X71597520Y-109628940D03*
X71099680Y-109628940D03*
D18*
X66451480Y-110281720D03*
X66448940Y-110782100D03*
X66448940Y-111279940D03*
X66448940Y-111780320D03*
X66448940Y-112280700D03*
X66448940Y-112781080D03*
X66448940Y-113281460D03*
X66448940Y-113781840D03*
D19*
X67099180Y-116428520D03*
X67599560Y-116428520D03*
X68099940Y-116428520D03*
X68597780Y-116428520D03*
X69098160Y-116428520D03*
X69598540Y-116428520D03*
X70098920Y-116428520D03*
X70599300Y-116428520D03*
X71099680Y-116428520D03*
X71600060Y-116428520D03*
X72097900Y-116428520D03*
X72598280Y-116428520D03*
D20*
X69850000Y-113030000D03*
D21*
X82296000Y-106045000D03*
X80772000Y-106045000D03*
D22*
X75887580Y-111252000D03*
X74988420Y-111252000D03*
D23*
X73914000Y-104960420D03*
X73914000Y-105859580D03*
X68961000Y-120591580D03*
X68961000Y-119692420D03*
D22*
X73855580Y-118999000D03*
X72956420Y-118999000D03*
D21*
X82296000Y-109220000D03*
X83820000Y-109220000D03*
D22*
X74998580Y-109982000D03*
X74099420Y-109982000D03*
X63939420Y-120650000D03*
X64838580Y-120650000D03*
X71178420Y-118999000D03*
X72077580Y-118999000D03*
D21*
X74803000Y-117221000D03*
X76327000Y-117221000D03*
D23*
X63750142Y-110428052D03*
X63750142Y-111327212D03*
X68199000Y-118559580D03*
X68199000Y-117660420D03*
X64770000Y-114739420D03*
X64770000Y-115638580D03*
D22*
X63050420Y-115951000D03*
X63949580Y-115951000D03*
D23*
X65836800Y-117518180D03*
X65836800Y-116619020D03*
D24*
X77724000Y-116459000D03*
X77724000Y-117983000D03*
D23*
X64516000Y-118940580D03*
X64516000Y-118041420D03*
X63750142Y-112978212D03*
X63750142Y-112079052D03*
X64770000Y-113987580D03*
X64770000Y-113088420D03*
D21*
X76327000Y-115697000D03*
X74803000Y-115697000D03*
D22*
X77274420Y-115443000D03*
X78173580Y-115443000D03*
D23*
X64770000Y-116390420D03*
X64770000Y-117289580D03*
D22*
X84650580Y-105791000D03*
X83751420Y-105791000D03*
X83751420Y-107823000D03*
X84650580Y-107823000D03*
D23*
X71628000Y-104579420D03*
X71628000Y-105478580D03*
X78359000Y-100642420D03*
X78359000Y-101541580D03*
D22*
X84650580Y-106807000D03*
X83751420Y-106807000D03*
D23*
X72771000Y-104579420D03*
X72771000Y-105478580D03*
D22*
X71188580Y-103124000D03*
X70289420Y-103124000D03*
D23*
X68199000Y-104081580D03*
X68199000Y-103182420D03*
D22*
X66352420Y-104013000D03*
X67251580Y-104013000D03*
D23*
X78105000Y-111818420D03*
X78105000Y-112717580D03*
X75946000Y-108907580D03*
X75946000Y-108008420D03*
X83820000Y-116898420D03*
X83820000Y-117797580D03*
X84582000Y-119448580D03*
X84582000Y-118549420D03*
X64770000Y-111056420D03*
X64770000Y-111955580D03*
D25*
X67310000Y-101600000D03*
X67310000Y-100330000D03*
X68580000Y-101600000D03*
X68580000Y-100330000D03*
X69850000Y-101600000D03*
X69850000Y-100330000D03*
X71120000Y-101600000D03*
X71120000Y-100330000D03*
X72390000Y-101600000D03*
X72390000Y-100330000D03*
D26*
X75692000Y-100160000D03*
X75692000Y-104310000D03*
D27*
X67779000Y-120919000D03*
X66079000Y-120919000D03*
X66079000Y-119619000D03*
X67779000Y-119619000D03*
D16*
X61087000Y-122936000D03*
X63627000Y-122936000D03*
X66167000Y-122936000D03*
X68707000Y-122936000D03*
X71247000Y-122936000D03*
X73787000Y-122936000D03*
X76327000Y-122936000D03*
X78867000Y-122936000D03*
X81407000Y-122936000D03*
X83947000Y-122936000D03*
X61087000Y-125476000D03*
X63627000Y-125476000D03*
X66167000Y-125476000D03*
X68707000Y-125476000D03*
X71247000Y-125476000D03*
X73787000Y-125476000D03*
X76327000Y-125476000D03*
X78867000Y-125476000D03*
X81407000Y-125476000D03*
X83947000Y-125476000D03*
D10*
G36*
X82125800Y-108200200D02*
X82125800Y-107617800D01*
X82478200Y-107817800D01*
X82478200Y-108000200D01*
X82125800Y-108200200D01*
X82125800Y-108200200D01*
G37*
G36*
X82225800Y-108300200D02*
X82225800Y-107717800D01*
X82578200Y-107917800D01*
X82578200Y-108100200D01*
X82225800Y-108300200D01*
X82225800Y-108300200D01*
G37*
D28*
X82352000Y-108119000D03*
D29*
X82252000Y-108009000D03*
X83102000Y-108009000D03*
D28*
X83002000Y-108119000D03*
D10*
G36*
X83128200Y-107717800D02*
X83128200Y-108300200D01*
X82775800Y-108100200D01*
X82775800Y-107917800D01*
X83128200Y-107717800D01*
X83128200Y-107717800D01*
G37*
G36*
X83128200Y-106837800D02*
X83128200Y-107420200D01*
X82775800Y-107220200D01*
X82775800Y-107037800D01*
X83128200Y-106837800D01*
X83128200Y-106837800D01*
G37*
D28*
X83002000Y-107019000D03*
D29*
X83102000Y-107129000D03*
X82252000Y-107129000D03*
D28*
X82352000Y-107019000D03*
D10*
G36*
X82225800Y-107420200D02*
X82225800Y-106837800D01*
X82578200Y-107037800D01*
X82578200Y-107220200D01*
X82225800Y-107420200D01*
X82225800Y-107420200D01*
G37*
G36*
X82677000Y-108018013D02*
X82227987Y-107569000D01*
X82677000Y-107119987D01*
X83126013Y-107569000D01*
X82677000Y-108018013D01*
X82677000Y-108018013D01*
G37*
M02*
