G04 #@! TF.FileFunction,Soldermask,Bot*
%FSLAX46Y46*%
G04 Gerber Fmt 4.6, Leading zero omitted, Abs format (unit mm)*
G04 Created by KiCad (PCBNEW 0.201502122346+5414~21~ubuntu14.04.1-product) date Fri 13 Feb 2015 11:21:42 AM PST*
%MOMM*%
G01*
G04 APERTURE LIST*
%ADD10C,0.100000*%
%ADD11R,2.184400X2.184400*%
%ADD12O,2.184400X2.184400*%
%ADD13C,1.602400*%
%ADD14C,1.041400*%
G04 APERTURE END LIST*
D10*
D11*
X81407000Y-100965000D03*
D12*
X83947000Y-100965000D03*
D11*
X81407000Y-103505000D03*
D12*
X83947000Y-103505000D03*
D13*
X87630000Y-124460000D03*
X87630000Y-121920000D03*
X87630000Y-119380000D03*
X87630000Y-116840000D03*
X87630000Y-114300000D03*
X87630000Y-111760000D03*
X87630000Y-109220000D03*
X87630000Y-106680000D03*
X87630000Y-104140000D03*
X87630000Y-101600000D03*
D14*
X67310000Y-101600000D03*
X67310000Y-100330000D03*
X68580000Y-101600000D03*
X68580000Y-100330000D03*
X69850000Y-101600000D03*
X69850000Y-100330000D03*
X71120000Y-101600000D03*
X71120000Y-100330000D03*
X72390000Y-101600000D03*
X72390000Y-100330000D03*
D13*
X61087000Y-122936000D03*
X63627000Y-122936000D03*
X66167000Y-122936000D03*
X68707000Y-122936000D03*
X71247000Y-122936000D03*
X73787000Y-122936000D03*
X76327000Y-122936000D03*
X78867000Y-122936000D03*
X81407000Y-122936000D03*
X83947000Y-122936000D03*
X61087000Y-125476000D03*
X63627000Y-125476000D03*
X66167000Y-125476000D03*
X68707000Y-125476000D03*
X71247000Y-125476000D03*
X73787000Y-125476000D03*
X76327000Y-125476000D03*
X78867000Y-125476000D03*
X81407000Y-125476000D03*
X83947000Y-125476000D03*
M02*
