G04 #@! TF.FileFunction,Legend,Top*
%FSLAX46Y46*%
G04 Gerber Fmt 4.6, Leading zero omitted, Abs format (unit mm)*
G04 Created by KiCad (PCBNEW 0.201502111101+5414~21~ubuntu14.04.1-product) date Wed 11 Feb 2015 11:41:42 AM PST*
%MOMM*%
G01*
G04 APERTURE LIST*
%ADD10C,0.100000*%
%ADD11C,0.200000*%
%ADD12C,0.075000*%
%ADD13C,0.177800*%
%ADD14C,0.150000*%
%ADD15C,0.101600*%
%ADD16C,0.300000*%
%ADD17C,0.050000*%
%ADD18R,1.879600X2.184400*%
%ADD19O,1.879600X2.184400*%
%ADD20R,1.402400X2.252400*%
%ADD21R,0.949960X0.949960*%
%ADD22R,2.184400X2.184400*%
%ADD23O,2.184400X2.184400*%
%ADD24C,1.602400*%
%ADD25R,0.552400X1.252400*%
%ADD26R,0.751840X0.401320*%
%ADD27R,0.401320X0.751840*%
%ADD28R,5.302400X5.302400*%
%ADD29R,0.787400X1.295400*%
%ADD30R,0.551180X0.751840*%
%ADD31R,0.751840X0.551180*%
%ADD32R,1.295400X0.787400*%
%ADD33C,1.041400*%
%ADD34R,1.552400X1.102400*%
%ADD35R,1.352400X1.152400*%
%ADD36R,0.802400X1.452400*%
%ADD37R,0.452400X0.362400*%
%ADD38R,0.252400X0.582400*%
G04 APERTURE END LIST*
D10*
X92710000Y-123190000D02*
X92710000Y-127000000D01*
X91313001Y-123190000D02*
G75*
G02X92710001Y-123190000I698500J0D01*
G01*
X91313001Y-123190000D02*
G75*
G02X90169999Y-123190000I-571501J0D01*
G01*
D11*
X75057000Y-121158000D02*
X75057000Y-127127000D01*
D10*
X56388000Y-122428000D02*
X56388000Y-125984000D01*
D11*
X64770000Y-121158000D02*
X64770000Y-127127000D01*
D10*
X53276500Y-125857000D02*
X53276500Y-122555000D01*
D12*
X51888500Y-125586953D02*
X51864690Y-125634572D01*
X51864690Y-125706000D01*
X51888500Y-125777429D01*
X51936119Y-125825048D01*
X51983738Y-125848857D01*
X52078976Y-125872667D01*
X52150405Y-125872667D01*
X52245643Y-125848857D01*
X52293262Y-125825048D01*
X52340881Y-125777429D01*
X52364690Y-125706000D01*
X52364690Y-125658381D01*
X52340881Y-125586953D01*
X52317071Y-125563143D01*
X52150405Y-125563143D01*
X52150405Y-125658381D01*
X52364690Y-125348857D02*
X51864690Y-125348857D01*
X52364690Y-125063143D01*
X51864690Y-125063143D01*
X52364690Y-124825047D02*
X51864690Y-124825047D01*
X51864690Y-124706000D01*
X51888500Y-124634571D01*
X51936119Y-124586952D01*
X51983738Y-124563143D01*
X52078976Y-124539333D01*
X52150405Y-124539333D01*
X52245643Y-124563143D01*
X52293262Y-124586952D01*
X52340881Y-124634571D01*
X52364690Y-124706000D01*
X52364690Y-124825047D01*
X52531357Y-124206000D02*
X51817071Y-124206000D01*
X51888500Y-123586953D02*
X51864690Y-123634572D01*
X51864690Y-123706000D01*
X51888500Y-123777429D01*
X51936119Y-123825048D01*
X51983738Y-123848857D01*
X52078976Y-123872667D01*
X52150405Y-123872667D01*
X52245643Y-123848857D01*
X52293262Y-123825048D01*
X52340881Y-123777429D01*
X52364690Y-123706000D01*
X52364690Y-123658381D01*
X52340881Y-123586953D01*
X52317071Y-123563143D01*
X52150405Y-123563143D01*
X52150405Y-123658381D01*
X52364690Y-123348857D02*
X51864690Y-123348857D01*
X52364690Y-123063143D01*
X51864690Y-123063143D01*
X52364690Y-122825047D02*
X51864690Y-122825047D01*
X51864690Y-122706000D01*
X51888500Y-122634571D01*
X51936119Y-122586952D01*
X51983738Y-122563143D01*
X52078976Y-122539333D01*
X52150405Y-122539333D01*
X52245643Y-122563143D01*
X52293262Y-122586952D01*
X52340881Y-122634571D01*
X52364690Y-122706000D01*
X52364690Y-122825047D01*
X52639690Y-125753617D02*
X52639690Y-125444094D01*
X52830167Y-125610760D01*
X52830167Y-125539332D01*
X52853976Y-125491713D01*
X52877786Y-125467903D01*
X52925405Y-125444094D01*
X53044452Y-125444094D01*
X53092071Y-125467903D01*
X53115881Y-125491713D01*
X53139690Y-125539332D01*
X53139690Y-125682189D01*
X53115881Y-125729808D01*
X53092071Y-125753617D01*
X52639690Y-125301237D02*
X53139690Y-125134570D01*
X52639690Y-124967904D01*
X52639690Y-124848856D02*
X52639690Y-124539333D01*
X52830167Y-124705999D01*
X52830167Y-124634571D01*
X52853976Y-124586952D01*
X52877786Y-124563142D01*
X52925405Y-124539333D01*
X53044452Y-124539333D01*
X53092071Y-124563142D01*
X53115881Y-124586952D01*
X53139690Y-124634571D01*
X53139690Y-124777428D01*
X53115881Y-124825047D01*
X53092071Y-124848856D01*
X53306357Y-124206000D02*
X52592071Y-124206000D01*
X52639690Y-123896476D02*
X52639690Y-123586953D01*
X52830167Y-123753619D01*
X52830167Y-123682191D01*
X52853976Y-123634572D01*
X52877786Y-123610762D01*
X52925405Y-123586953D01*
X53044452Y-123586953D01*
X53092071Y-123610762D01*
X53115881Y-123634572D01*
X53139690Y-123682191D01*
X53139690Y-123825048D01*
X53115881Y-123872667D01*
X53092071Y-123896476D01*
X52639690Y-123444096D02*
X53139690Y-123277429D01*
X52639690Y-123110763D01*
X52639690Y-122991715D02*
X52639690Y-122682192D01*
X52830167Y-122848858D01*
X52830167Y-122777430D01*
X52853976Y-122729811D01*
X52877786Y-122706001D01*
X52925405Y-122682192D01*
X53044452Y-122682192D01*
X53092071Y-122706001D01*
X53115881Y-122729811D01*
X53139690Y-122777430D01*
X53139690Y-122920287D01*
X53115881Y-122967906D01*
X53092071Y-122991715D01*
X53414690Y-125896474D02*
X53414690Y-125848855D01*
X53438500Y-125801236D01*
X53462310Y-125777427D01*
X53509929Y-125753617D01*
X53605167Y-125729808D01*
X53724214Y-125729808D01*
X53819452Y-125753617D01*
X53867071Y-125777427D01*
X53890881Y-125801236D01*
X53914690Y-125848855D01*
X53914690Y-125896474D01*
X53890881Y-125944093D01*
X53867071Y-125967903D01*
X53819452Y-125991712D01*
X53724214Y-126015522D01*
X53605167Y-126015522D01*
X53509929Y-125991712D01*
X53462310Y-125967903D01*
X53438500Y-125944093D01*
X53414690Y-125896474D01*
X53867071Y-125515522D02*
X53890881Y-125491713D01*
X53914690Y-125515522D01*
X53890881Y-125539332D01*
X53867071Y-125515522D01*
X53914690Y-125515522D01*
X53462310Y-125301237D02*
X53438500Y-125277427D01*
X53414690Y-125229808D01*
X53414690Y-125110761D01*
X53438500Y-125063142D01*
X53462310Y-125039332D01*
X53509929Y-125015523D01*
X53557548Y-125015523D01*
X53628976Y-125039332D01*
X53914690Y-125325046D01*
X53914690Y-125015523D01*
X53914690Y-124539333D02*
X53914690Y-124825047D01*
X53914690Y-124682190D02*
X53414690Y-124682190D01*
X53486119Y-124729809D01*
X53533738Y-124777428D01*
X53557548Y-124825047D01*
X54081357Y-124206000D02*
X53367071Y-124206000D01*
X53414690Y-123753619D02*
X53414690Y-123706000D01*
X53438500Y-123658381D01*
X53462310Y-123634572D01*
X53509929Y-123610762D01*
X53605167Y-123586953D01*
X53724214Y-123586953D01*
X53819452Y-123610762D01*
X53867071Y-123634572D01*
X53890881Y-123658381D01*
X53914690Y-123706000D01*
X53914690Y-123753619D01*
X53890881Y-123801238D01*
X53867071Y-123825048D01*
X53819452Y-123848857D01*
X53724214Y-123872667D01*
X53605167Y-123872667D01*
X53509929Y-123848857D01*
X53462310Y-123825048D01*
X53438500Y-123801238D01*
X53414690Y-123753619D01*
X53867071Y-123372667D02*
X53890881Y-123348858D01*
X53914690Y-123372667D01*
X53890881Y-123396477D01*
X53867071Y-123372667D01*
X53914690Y-123372667D01*
X53914690Y-122872668D02*
X53914690Y-123158382D01*
X53914690Y-123015525D02*
X53414690Y-123015525D01*
X53486119Y-123063144D01*
X53533738Y-123110763D01*
X53557548Y-123158382D01*
X53414690Y-122706001D02*
X53414690Y-122396478D01*
X53605167Y-122563144D01*
X53605167Y-122491716D01*
X53628976Y-122444097D01*
X53652786Y-122420287D01*
X53700405Y-122396478D01*
X53819452Y-122396478D01*
X53867071Y-122420287D01*
X53890881Y-122444097D01*
X53914690Y-122491716D01*
X53914690Y-122634573D01*
X53890881Y-122682192D01*
X53867071Y-122706001D01*
X54189690Y-125896474D02*
X54189690Y-125848855D01*
X54213500Y-125801236D01*
X54237310Y-125777427D01*
X54284929Y-125753617D01*
X54380167Y-125729808D01*
X54499214Y-125729808D01*
X54594452Y-125753617D01*
X54642071Y-125777427D01*
X54665881Y-125801236D01*
X54689690Y-125848855D01*
X54689690Y-125896474D01*
X54665881Y-125944093D01*
X54642071Y-125967903D01*
X54594452Y-125991712D01*
X54499214Y-126015522D01*
X54380167Y-126015522D01*
X54284929Y-125991712D01*
X54237310Y-125967903D01*
X54213500Y-125944093D01*
X54189690Y-125896474D01*
X54642071Y-125515522D02*
X54665881Y-125491713D01*
X54689690Y-125515522D01*
X54665881Y-125539332D01*
X54642071Y-125515522D01*
X54689690Y-125515522D01*
X54237310Y-125301237D02*
X54213500Y-125277427D01*
X54189690Y-125229808D01*
X54189690Y-125110761D01*
X54213500Y-125063142D01*
X54237310Y-125039332D01*
X54284929Y-125015523D01*
X54332548Y-125015523D01*
X54403976Y-125039332D01*
X54689690Y-125325046D01*
X54689690Y-125015523D01*
X54237310Y-124825047D02*
X54213500Y-124801237D01*
X54189690Y-124753618D01*
X54189690Y-124634571D01*
X54213500Y-124586952D01*
X54237310Y-124563142D01*
X54284929Y-124539333D01*
X54332548Y-124539333D01*
X54403976Y-124563142D01*
X54689690Y-124848856D01*
X54689690Y-124539333D01*
X54856357Y-124206000D02*
X54142071Y-124206000D01*
X54189690Y-123753619D02*
X54189690Y-123706000D01*
X54213500Y-123658381D01*
X54237310Y-123634572D01*
X54284929Y-123610762D01*
X54380167Y-123586953D01*
X54499214Y-123586953D01*
X54594452Y-123610762D01*
X54642071Y-123634572D01*
X54665881Y-123658381D01*
X54689690Y-123706000D01*
X54689690Y-123753619D01*
X54665881Y-123801238D01*
X54642071Y-123825048D01*
X54594452Y-123848857D01*
X54499214Y-123872667D01*
X54380167Y-123872667D01*
X54284929Y-123848857D01*
X54237310Y-123825048D01*
X54213500Y-123801238D01*
X54189690Y-123753619D01*
X54642071Y-123372667D02*
X54665881Y-123348858D01*
X54689690Y-123372667D01*
X54665881Y-123396477D01*
X54642071Y-123372667D01*
X54689690Y-123372667D01*
X54689690Y-122872668D02*
X54689690Y-123158382D01*
X54689690Y-123015525D02*
X54189690Y-123015525D01*
X54261119Y-123063144D01*
X54308738Y-123110763D01*
X54332548Y-123158382D01*
X54356357Y-122444097D02*
X54689690Y-122444097D01*
X54165881Y-122563144D02*
X54523024Y-122682192D01*
X54523024Y-122372668D01*
X54964690Y-125896474D02*
X54964690Y-125848855D01*
X54988500Y-125801236D01*
X55012310Y-125777427D01*
X55059929Y-125753617D01*
X55155167Y-125729808D01*
X55274214Y-125729808D01*
X55369452Y-125753617D01*
X55417071Y-125777427D01*
X55440881Y-125801236D01*
X55464690Y-125848855D01*
X55464690Y-125896474D01*
X55440881Y-125944093D01*
X55417071Y-125967903D01*
X55369452Y-125991712D01*
X55274214Y-126015522D01*
X55155167Y-126015522D01*
X55059929Y-125991712D01*
X55012310Y-125967903D01*
X54988500Y-125944093D01*
X54964690Y-125896474D01*
X55417071Y-125515522D02*
X55440881Y-125491713D01*
X55464690Y-125515522D01*
X55440881Y-125539332D01*
X55417071Y-125515522D01*
X55464690Y-125515522D01*
X55012310Y-125301237D02*
X54988500Y-125277427D01*
X54964690Y-125229808D01*
X54964690Y-125110761D01*
X54988500Y-125063142D01*
X55012310Y-125039332D01*
X55059929Y-125015523D01*
X55107548Y-125015523D01*
X55178976Y-125039332D01*
X55464690Y-125325046D01*
X55464690Y-125015523D01*
X54964690Y-124848856D02*
X54964690Y-124539333D01*
X55155167Y-124705999D01*
X55155167Y-124634571D01*
X55178976Y-124586952D01*
X55202786Y-124563142D01*
X55250405Y-124539333D01*
X55369452Y-124539333D01*
X55417071Y-124563142D01*
X55440881Y-124586952D01*
X55464690Y-124634571D01*
X55464690Y-124777428D01*
X55440881Y-124825047D01*
X55417071Y-124848856D01*
X55631357Y-124206000D02*
X54917071Y-124206000D01*
X54964690Y-123753619D02*
X54964690Y-123706000D01*
X54988500Y-123658381D01*
X55012310Y-123634572D01*
X55059929Y-123610762D01*
X55155167Y-123586953D01*
X55274214Y-123586953D01*
X55369452Y-123610762D01*
X55417071Y-123634572D01*
X55440881Y-123658381D01*
X55464690Y-123706000D01*
X55464690Y-123753619D01*
X55440881Y-123801238D01*
X55417071Y-123825048D01*
X55369452Y-123848857D01*
X55274214Y-123872667D01*
X55155167Y-123872667D01*
X55059929Y-123848857D01*
X55012310Y-123825048D01*
X54988500Y-123801238D01*
X54964690Y-123753619D01*
X55417071Y-123372667D02*
X55440881Y-123348858D01*
X55464690Y-123372667D01*
X55440881Y-123396477D01*
X55417071Y-123372667D01*
X55464690Y-123372667D01*
X55464690Y-122872668D02*
X55464690Y-123158382D01*
X55464690Y-123015525D02*
X54964690Y-123015525D01*
X55036119Y-123063144D01*
X55083738Y-123110763D01*
X55107548Y-123158382D01*
X54964690Y-122420287D02*
X54964690Y-122658382D01*
X55202786Y-122682192D01*
X55178976Y-122658382D01*
X55155167Y-122610763D01*
X55155167Y-122491716D01*
X55178976Y-122444097D01*
X55202786Y-122420287D01*
X55250405Y-122396478D01*
X55369452Y-122396478D01*
X55417071Y-122420287D01*
X55440881Y-122444097D01*
X55464690Y-122491716D01*
X55464690Y-122610763D01*
X55440881Y-122658382D01*
X55417071Y-122682192D01*
X55739690Y-125896474D02*
X55739690Y-125848855D01*
X55763500Y-125801236D01*
X55787310Y-125777427D01*
X55834929Y-125753617D01*
X55930167Y-125729808D01*
X56049214Y-125729808D01*
X56144452Y-125753617D01*
X56192071Y-125777427D01*
X56215881Y-125801236D01*
X56239690Y-125848855D01*
X56239690Y-125896474D01*
X56215881Y-125944093D01*
X56192071Y-125967903D01*
X56144452Y-125991712D01*
X56049214Y-126015522D01*
X55930167Y-126015522D01*
X55834929Y-125991712D01*
X55787310Y-125967903D01*
X55763500Y-125944093D01*
X55739690Y-125896474D01*
X56192071Y-125515522D02*
X56215881Y-125491713D01*
X56239690Y-125515522D01*
X56215881Y-125539332D01*
X56192071Y-125515522D01*
X56239690Y-125515522D01*
X55787310Y-125301237D02*
X55763500Y-125277427D01*
X55739690Y-125229808D01*
X55739690Y-125110761D01*
X55763500Y-125063142D01*
X55787310Y-125039332D01*
X55834929Y-125015523D01*
X55882548Y-125015523D01*
X55953976Y-125039332D01*
X56239690Y-125325046D01*
X56239690Y-125015523D01*
X55906357Y-124586952D02*
X56239690Y-124586952D01*
X55715881Y-124705999D02*
X56073024Y-124825047D01*
X56073024Y-124515523D01*
X56406357Y-124206000D02*
X55692071Y-124206000D01*
X55739690Y-123753619D02*
X55739690Y-123706000D01*
X55763500Y-123658381D01*
X55787310Y-123634572D01*
X55834929Y-123610762D01*
X55930167Y-123586953D01*
X56049214Y-123586953D01*
X56144452Y-123610762D01*
X56192071Y-123634572D01*
X56215881Y-123658381D01*
X56239690Y-123706000D01*
X56239690Y-123753619D01*
X56215881Y-123801238D01*
X56192071Y-123825048D01*
X56144452Y-123848857D01*
X56049214Y-123872667D01*
X55930167Y-123872667D01*
X55834929Y-123848857D01*
X55787310Y-123825048D01*
X55763500Y-123801238D01*
X55739690Y-123753619D01*
X56192071Y-123372667D02*
X56215881Y-123348858D01*
X56239690Y-123372667D01*
X56215881Y-123396477D01*
X56192071Y-123372667D01*
X56239690Y-123372667D01*
X56239690Y-122872668D02*
X56239690Y-123158382D01*
X56239690Y-123015525D02*
X55739690Y-123015525D01*
X55811119Y-123063144D01*
X55858738Y-123110763D01*
X55882548Y-123158382D01*
X55739690Y-122444097D02*
X55739690Y-122539335D01*
X55763500Y-122586954D01*
X55787310Y-122610763D01*
X55858738Y-122658382D01*
X55953976Y-122682192D01*
X56144452Y-122682192D01*
X56192071Y-122658382D01*
X56215881Y-122634573D01*
X56239690Y-122586954D01*
X56239690Y-122491716D01*
X56215881Y-122444097D01*
X56192071Y-122420287D01*
X56144452Y-122396478D01*
X56025405Y-122396478D01*
X55977786Y-122420287D01*
X55953976Y-122444097D01*
X55930167Y-122491716D01*
X55930167Y-122586954D01*
X55953976Y-122634573D01*
X55977786Y-122658382D01*
X56025405Y-122682192D01*
X56514690Y-125896474D02*
X56514690Y-125848855D01*
X56538500Y-125801236D01*
X56562310Y-125777427D01*
X56609929Y-125753617D01*
X56705167Y-125729808D01*
X56824214Y-125729808D01*
X56919452Y-125753617D01*
X56967071Y-125777427D01*
X56990881Y-125801236D01*
X57014690Y-125848855D01*
X57014690Y-125896474D01*
X56990881Y-125944093D01*
X56967071Y-125967903D01*
X56919452Y-125991712D01*
X56824214Y-126015522D01*
X56705167Y-126015522D01*
X56609929Y-125991712D01*
X56562310Y-125967903D01*
X56538500Y-125944093D01*
X56514690Y-125896474D01*
X56967071Y-125515522D02*
X56990881Y-125491713D01*
X57014690Y-125515522D01*
X56990881Y-125539332D01*
X56967071Y-125515522D01*
X57014690Y-125515522D01*
X56562310Y-125301237D02*
X56538500Y-125277427D01*
X56514690Y-125229808D01*
X56514690Y-125110761D01*
X56538500Y-125063142D01*
X56562310Y-125039332D01*
X56609929Y-125015523D01*
X56657548Y-125015523D01*
X56728976Y-125039332D01*
X57014690Y-125325046D01*
X57014690Y-125015523D01*
X56514690Y-124563142D02*
X56514690Y-124801237D01*
X56752786Y-124825047D01*
X56728976Y-124801237D01*
X56705167Y-124753618D01*
X56705167Y-124634571D01*
X56728976Y-124586952D01*
X56752786Y-124563142D01*
X56800405Y-124539333D01*
X56919452Y-124539333D01*
X56967071Y-124563142D01*
X56990881Y-124586952D01*
X57014690Y-124634571D01*
X57014690Y-124753618D01*
X56990881Y-124801237D01*
X56967071Y-124825047D01*
X57181357Y-124206000D02*
X56467071Y-124206000D01*
X56514690Y-123753619D02*
X56514690Y-123706000D01*
X56538500Y-123658381D01*
X56562310Y-123634572D01*
X56609929Y-123610762D01*
X56705167Y-123586953D01*
X56824214Y-123586953D01*
X56919452Y-123610762D01*
X56967071Y-123634572D01*
X56990881Y-123658381D01*
X57014690Y-123706000D01*
X57014690Y-123753619D01*
X56990881Y-123801238D01*
X56967071Y-123825048D01*
X56919452Y-123848857D01*
X56824214Y-123872667D01*
X56705167Y-123872667D01*
X56609929Y-123848857D01*
X56562310Y-123825048D01*
X56538500Y-123801238D01*
X56514690Y-123753619D01*
X56967071Y-123372667D02*
X56990881Y-123348858D01*
X57014690Y-123372667D01*
X56990881Y-123396477D01*
X56967071Y-123372667D01*
X57014690Y-123372667D01*
X57014690Y-122872668D02*
X57014690Y-123158382D01*
X57014690Y-123015525D02*
X56514690Y-123015525D01*
X56586119Y-123063144D01*
X56633738Y-123110763D01*
X56657548Y-123158382D01*
X56514690Y-122706001D02*
X56514690Y-122372668D01*
X57014690Y-122586954D01*
X57289690Y-125896474D02*
X57289690Y-125848855D01*
X57313500Y-125801236D01*
X57337310Y-125777427D01*
X57384929Y-125753617D01*
X57480167Y-125729808D01*
X57599214Y-125729808D01*
X57694452Y-125753617D01*
X57742071Y-125777427D01*
X57765881Y-125801236D01*
X57789690Y-125848855D01*
X57789690Y-125896474D01*
X57765881Y-125944093D01*
X57742071Y-125967903D01*
X57694452Y-125991712D01*
X57599214Y-126015522D01*
X57480167Y-126015522D01*
X57384929Y-125991712D01*
X57337310Y-125967903D01*
X57313500Y-125944093D01*
X57289690Y-125896474D01*
X57742071Y-125515522D02*
X57765881Y-125491713D01*
X57789690Y-125515522D01*
X57765881Y-125539332D01*
X57742071Y-125515522D01*
X57789690Y-125515522D01*
X57337310Y-125301237D02*
X57313500Y-125277427D01*
X57289690Y-125229808D01*
X57289690Y-125110761D01*
X57313500Y-125063142D01*
X57337310Y-125039332D01*
X57384929Y-125015523D01*
X57432548Y-125015523D01*
X57503976Y-125039332D01*
X57789690Y-125325046D01*
X57789690Y-125015523D01*
X57503976Y-124729809D02*
X57480167Y-124777428D01*
X57456357Y-124801237D01*
X57408738Y-124825047D01*
X57384929Y-124825047D01*
X57337310Y-124801237D01*
X57313500Y-124777428D01*
X57289690Y-124729809D01*
X57289690Y-124634571D01*
X57313500Y-124586952D01*
X57337310Y-124563142D01*
X57384929Y-124539333D01*
X57408738Y-124539333D01*
X57456357Y-124563142D01*
X57480167Y-124586952D01*
X57503976Y-124634571D01*
X57503976Y-124729809D01*
X57527786Y-124777428D01*
X57551595Y-124801237D01*
X57599214Y-124825047D01*
X57694452Y-124825047D01*
X57742071Y-124801237D01*
X57765881Y-124777428D01*
X57789690Y-124729809D01*
X57789690Y-124634571D01*
X57765881Y-124586952D01*
X57742071Y-124563142D01*
X57694452Y-124539333D01*
X57599214Y-124539333D01*
X57551595Y-124563142D01*
X57527786Y-124586952D01*
X57503976Y-124634571D01*
X57956357Y-124206000D02*
X57242071Y-124206000D01*
X57289690Y-123753619D02*
X57289690Y-123706000D01*
X57313500Y-123658381D01*
X57337310Y-123634572D01*
X57384929Y-123610762D01*
X57480167Y-123586953D01*
X57599214Y-123586953D01*
X57694452Y-123610762D01*
X57742071Y-123634572D01*
X57765881Y-123658381D01*
X57789690Y-123706000D01*
X57789690Y-123753619D01*
X57765881Y-123801238D01*
X57742071Y-123825048D01*
X57694452Y-123848857D01*
X57599214Y-123872667D01*
X57480167Y-123872667D01*
X57384929Y-123848857D01*
X57337310Y-123825048D01*
X57313500Y-123801238D01*
X57289690Y-123753619D01*
X57742071Y-123372667D02*
X57765881Y-123348858D01*
X57789690Y-123372667D01*
X57765881Y-123396477D01*
X57742071Y-123372667D01*
X57789690Y-123372667D01*
X57789690Y-122872668D02*
X57789690Y-123158382D01*
X57789690Y-123015525D02*
X57289690Y-123015525D01*
X57361119Y-123063144D01*
X57408738Y-123110763D01*
X57432548Y-123158382D01*
X57503976Y-122586954D02*
X57480167Y-122634573D01*
X57456357Y-122658382D01*
X57408738Y-122682192D01*
X57384929Y-122682192D01*
X57337310Y-122658382D01*
X57313500Y-122634573D01*
X57289690Y-122586954D01*
X57289690Y-122491716D01*
X57313500Y-122444097D01*
X57337310Y-122420287D01*
X57384929Y-122396478D01*
X57408738Y-122396478D01*
X57456357Y-122420287D01*
X57480167Y-122444097D01*
X57503976Y-122491716D01*
X57503976Y-122586954D01*
X57527786Y-122634573D01*
X57551595Y-122658382D01*
X57599214Y-122682192D01*
X57694452Y-122682192D01*
X57742071Y-122658382D01*
X57765881Y-122634573D01*
X57789690Y-122586954D01*
X57789690Y-122491716D01*
X57765881Y-122444097D01*
X57742071Y-122420287D01*
X57694452Y-122396478D01*
X57599214Y-122396478D01*
X57551595Y-122420287D01*
X57527786Y-122444097D01*
X57503976Y-122491716D01*
X58064690Y-125896474D02*
X58064690Y-125848855D01*
X58088500Y-125801236D01*
X58112310Y-125777427D01*
X58159929Y-125753617D01*
X58255167Y-125729808D01*
X58374214Y-125729808D01*
X58469452Y-125753617D01*
X58517071Y-125777427D01*
X58540881Y-125801236D01*
X58564690Y-125848855D01*
X58564690Y-125896474D01*
X58540881Y-125944093D01*
X58517071Y-125967903D01*
X58469452Y-125991712D01*
X58374214Y-126015522D01*
X58255167Y-126015522D01*
X58159929Y-125991712D01*
X58112310Y-125967903D01*
X58088500Y-125944093D01*
X58064690Y-125896474D01*
X58517071Y-125515522D02*
X58540881Y-125491713D01*
X58564690Y-125515522D01*
X58540881Y-125539332D01*
X58517071Y-125515522D01*
X58564690Y-125515522D01*
X58112310Y-125301237D02*
X58088500Y-125277427D01*
X58064690Y-125229808D01*
X58064690Y-125110761D01*
X58088500Y-125063142D01*
X58112310Y-125039332D01*
X58159929Y-125015523D01*
X58207548Y-125015523D01*
X58278976Y-125039332D01*
X58564690Y-125325046D01*
X58564690Y-125015523D01*
X58564690Y-124777428D02*
X58564690Y-124682190D01*
X58540881Y-124634571D01*
X58517071Y-124610761D01*
X58445643Y-124563142D01*
X58350405Y-124539333D01*
X58159929Y-124539333D01*
X58112310Y-124563142D01*
X58088500Y-124586952D01*
X58064690Y-124634571D01*
X58064690Y-124729809D01*
X58088500Y-124777428D01*
X58112310Y-124801237D01*
X58159929Y-124825047D01*
X58278976Y-124825047D01*
X58326595Y-124801237D01*
X58350405Y-124777428D01*
X58374214Y-124729809D01*
X58374214Y-124634571D01*
X58350405Y-124586952D01*
X58326595Y-124563142D01*
X58278976Y-124539333D01*
X58731357Y-124206000D02*
X58017071Y-124206000D01*
X58064690Y-123753619D02*
X58064690Y-123706000D01*
X58088500Y-123658381D01*
X58112310Y-123634572D01*
X58159929Y-123610762D01*
X58255167Y-123586953D01*
X58374214Y-123586953D01*
X58469452Y-123610762D01*
X58517071Y-123634572D01*
X58540881Y-123658381D01*
X58564690Y-123706000D01*
X58564690Y-123753619D01*
X58540881Y-123801238D01*
X58517071Y-123825048D01*
X58469452Y-123848857D01*
X58374214Y-123872667D01*
X58255167Y-123872667D01*
X58159929Y-123848857D01*
X58112310Y-123825048D01*
X58088500Y-123801238D01*
X58064690Y-123753619D01*
X58517071Y-123372667D02*
X58540881Y-123348858D01*
X58564690Y-123372667D01*
X58540881Y-123396477D01*
X58517071Y-123372667D01*
X58564690Y-123372667D01*
X58564690Y-122872668D02*
X58564690Y-123158382D01*
X58564690Y-123015525D02*
X58064690Y-123015525D01*
X58136119Y-123063144D01*
X58183738Y-123110763D01*
X58207548Y-123158382D01*
X58564690Y-122634573D02*
X58564690Y-122539335D01*
X58540881Y-122491716D01*
X58517071Y-122467906D01*
X58445643Y-122420287D01*
X58350405Y-122396478D01*
X58159929Y-122396478D01*
X58112310Y-122420287D01*
X58088500Y-122444097D01*
X58064690Y-122491716D01*
X58064690Y-122586954D01*
X58088500Y-122634573D01*
X58112310Y-122658382D01*
X58159929Y-122682192D01*
X58278976Y-122682192D01*
X58326595Y-122658382D01*
X58350405Y-122634573D01*
X58374214Y-122586954D01*
X58374214Y-122491716D01*
X58350405Y-122444097D01*
X58326595Y-122420287D01*
X58278976Y-122396478D01*
X58839690Y-125896474D02*
X58839690Y-125848855D01*
X58863500Y-125801236D01*
X58887310Y-125777427D01*
X58934929Y-125753617D01*
X59030167Y-125729808D01*
X59149214Y-125729808D01*
X59244452Y-125753617D01*
X59292071Y-125777427D01*
X59315881Y-125801236D01*
X59339690Y-125848855D01*
X59339690Y-125896474D01*
X59315881Y-125944093D01*
X59292071Y-125967903D01*
X59244452Y-125991712D01*
X59149214Y-126015522D01*
X59030167Y-126015522D01*
X58934929Y-125991712D01*
X58887310Y-125967903D01*
X58863500Y-125944093D01*
X58839690Y-125896474D01*
X59292071Y-125515522D02*
X59315881Y-125491713D01*
X59339690Y-125515522D01*
X59315881Y-125539332D01*
X59292071Y-125515522D01*
X59339690Y-125515522D01*
X58839690Y-125325046D02*
X58839690Y-125015523D01*
X59030167Y-125182189D01*
X59030167Y-125110761D01*
X59053976Y-125063142D01*
X59077786Y-125039332D01*
X59125405Y-125015523D01*
X59244452Y-125015523D01*
X59292071Y-125039332D01*
X59315881Y-125063142D01*
X59339690Y-125110761D01*
X59339690Y-125253618D01*
X59315881Y-125301237D01*
X59292071Y-125325046D01*
X58839690Y-124705999D02*
X58839690Y-124658380D01*
X58863500Y-124610761D01*
X58887310Y-124586952D01*
X58934929Y-124563142D01*
X59030167Y-124539333D01*
X59149214Y-124539333D01*
X59244452Y-124563142D01*
X59292071Y-124586952D01*
X59315881Y-124610761D01*
X59339690Y-124658380D01*
X59339690Y-124705999D01*
X59315881Y-124753618D01*
X59292071Y-124777428D01*
X59244452Y-124801237D01*
X59149214Y-124825047D01*
X59030167Y-124825047D01*
X58934929Y-124801237D01*
X58887310Y-124777428D01*
X58863500Y-124753618D01*
X58839690Y-124705999D01*
X59506357Y-124206000D02*
X58792071Y-124206000D01*
X58839690Y-123753619D02*
X58839690Y-123706000D01*
X58863500Y-123658381D01*
X58887310Y-123634572D01*
X58934929Y-123610762D01*
X59030167Y-123586953D01*
X59149214Y-123586953D01*
X59244452Y-123610762D01*
X59292071Y-123634572D01*
X59315881Y-123658381D01*
X59339690Y-123706000D01*
X59339690Y-123753619D01*
X59315881Y-123801238D01*
X59292071Y-123825048D01*
X59244452Y-123848857D01*
X59149214Y-123872667D01*
X59030167Y-123872667D01*
X58934929Y-123848857D01*
X58887310Y-123825048D01*
X58863500Y-123801238D01*
X58839690Y-123753619D01*
X59292071Y-123372667D02*
X59315881Y-123348858D01*
X59339690Y-123372667D01*
X59315881Y-123396477D01*
X59292071Y-123372667D01*
X59339690Y-123372667D01*
X58887310Y-123158382D02*
X58863500Y-123134572D01*
X58839690Y-123086953D01*
X58839690Y-122967906D01*
X58863500Y-122920287D01*
X58887310Y-122896477D01*
X58934929Y-122872668D01*
X58982548Y-122872668D01*
X59053976Y-122896477D01*
X59339690Y-123182191D01*
X59339690Y-122872668D01*
X58839690Y-122563144D02*
X58839690Y-122515525D01*
X58863500Y-122467906D01*
X58887310Y-122444097D01*
X58934929Y-122420287D01*
X59030167Y-122396478D01*
X59149214Y-122396478D01*
X59244452Y-122420287D01*
X59292071Y-122444097D01*
X59315881Y-122467906D01*
X59339690Y-122515525D01*
X59339690Y-122563144D01*
X59315881Y-122610763D01*
X59292071Y-122634573D01*
X59244452Y-122658382D01*
X59149214Y-122682192D01*
X59030167Y-122682192D01*
X58934929Y-122658382D01*
X58887310Y-122634573D01*
X58863500Y-122610763D01*
X58839690Y-122563144D01*
X88620714Y-100925000D02*
X88582619Y-100898810D01*
X88525476Y-100898810D01*
X88468333Y-100925000D01*
X88430238Y-100977381D01*
X88411190Y-101029762D01*
X88392142Y-101134524D01*
X88392142Y-101213095D01*
X88411190Y-101317857D01*
X88430238Y-101370238D01*
X88468333Y-101422619D01*
X88525476Y-101448810D01*
X88563571Y-101448810D01*
X88620714Y-101422619D01*
X88639762Y-101396429D01*
X88639762Y-101213095D01*
X88563571Y-101213095D01*
X88811190Y-101448810D02*
X88811190Y-100898810D01*
X89039762Y-101448810D01*
X89039762Y-100898810D01*
X89230238Y-101448810D02*
X89230238Y-100898810D01*
X89325476Y-100898810D01*
X89382619Y-100925000D01*
X89420714Y-100977381D01*
X89439762Y-101029762D01*
X89458810Y-101134524D01*
X89458810Y-101213095D01*
X89439762Y-101317857D01*
X89420714Y-101370238D01*
X89382619Y-101422619D01*
X89325476Y-101448810D01*
X89230238Y-101448810D01*
X88487382Y-101743810D02*
X88735001Y-101743810D01*
X88601668Y-101953333D01*
X88658810Y-101953333D01*
X88696906Y-101979524D01*
X88715953Y-102005714D01*
X88735001Y-102058095D01*
X88735001Y-102189048D01*
X88715953Y-102241429D01*
X88696906Y-102267619D01*
X88658810Y-102293810D01*
X88544525Y-102293810D01*
X88506429Y-102267619D01*
X88487382Y-102241429D01*
X88849286Y-101743810D02*
X88982620Y-102293810D01*
X89115953Y-101743810D01*
X89211191Y-101743810D02*
X89458810Y-101743810D01*
X89325477Y-101953333D01*
X89382619Y-101953333D01*
X89420715Y-101979524D01*
X89439762Y-102005714D01*
X89458810Y-102058095D01*
X89458810Y-102189048D01*
X89439762Y-102241429D01*
X89420715Y-102267619D01*
X89382619Y-102293810D01*
X89268334Y-102293810D01*
X89230238Y-102267619D01*
X89211191Y-102241429D01*
X88144524Y-102929286D02*
X88449286Y-102929286D01*
X88639762Y-102929286D02*
X88944524Y-102929286D01*
X89135000Y-102929286D02*
X89439762Y-102929286D01*
X88620714Y-103460000D02*
X88582619Y-103433810D01*
X88525476Y-103433810D01*
X88468333Y-103460000D01*
X88430238Y-103512381D01*
X88411190Y-103564762D01*
X88392142Y-103669524D01*
X88392142Y-103748095D01*
X88411190Y-103852857D01*
X88430238Y-103905238D01*
X88468333Y-103957619D01*
X88525476Y-103983810D01*
X88563571Y-103983810D01*
X88620714Y-103957619D01*
X88639762Y-103931429D01*
X88639762Y-103748095D01*
X88563571Y-103748095D01*
X88811190Y-103983810D02*
X88811190Y-103433810D01*
X89039762Y-103983810D01*
X89039762Y-103433810D01*
X89230238Y-103983810D02*
X89230238Y-103433810D01*
X89325476Y-103433810D01*
X89382619Y-103460000D01*
X89420714Y-103512381D01*
X89439762Y-103564762D01*
X89458810Y-103669524D01*
X89458810Y-103748095D01*
X89439762Y-103852857D01*
X89420714Y-103905238D01*
X89382619Y-103957619D01*
X89325476Y-103983810D01*
X89230238Y-103983810D01*
X88487382Y-104278810D02*
X88735001Y-104278810D01*
X88601668Y-104488333D01*
X88658810Y-104488333D01*
X88696906Y-104514524D01*
X88715953Y-104540714D01*
X88735001Y-104593095D01*
X88735001Y-104724048D01*
X88715953Y-104776429D01*
X88696906Y-104802619D01*
X88658810Y-104828810D01*
X88544525Y-104828810D01*
X88506429Y-104802619D01*
X88487382Y-104776429D01*
X88849286Y-104278810D02*
X88982620Y-104828810D01*
X89115953Y-104278810D01*
X89211191Y-104278810D02*
X89458810Y-104278810D01*
X89325477Y-104488333D01*
X89382619Y-104488333D01*
X89420715Y-104514524D01*
X89439762Y-104540714D01*
X89458810Y-104593095D01*
X89458810Y-104724048D01*
X89439762Y-104776429D01*
X89420715Y-104802619D01*
X89382619Y-104828810D01*
X89268334Y-104828810D01*
X89230238Y-104802619D01*
X89211191Y-104776429D01*
X88430238Y-105647619D02*
X88487381Y-105673810D01*
X88582619Y-105673810D01*
X88620715Y-105647619D01*
X88639762Y-105621429D01*
X88658810Y-105569048D01*
X88658810Y-105516667D01*
X88639762Y-105464286D01*
X88620715Y-105438095D01*
X88582619Y-105411905D01*
X88506429Y-105385714D01*
X88468334Y-105359524D01*
X88449286Y-105333333D01*
X88430238Y-105280952D01*
X88430238Y-105228571D01*
X88449286Y-105176190D01*
X88468334Y-105150000D01*
X88506429Y-105123810D01*
X88601667Y-105123810D01*
X88658810Y-105150000D01*
X89058810Y-105621429D02*
X89039762Y-105647619D01*
X88982619Y-105673810D01*
X88944524Y-105673810D01*
X88887381Y-105647619D01*
X88849286Y-105595238D01*
X88830238Y-105542857D01*
X88811190Y-105438095D01*
X88811190Y-105359524D01*
X88830238Y-105254762D01*
X88849286Y-105202381D01*
X88887381Y-105150000D01*
X88944524Y-105123810D01*
X88982619Y-105123810D01*
X89039762Y-105150000D01*
X89058810Y-105176190D01*
X89230238Y-105673810D02*
X89230238Y-105123810D01*
X89458810Y-105673810D02*
X89287381Y-105359524D01*
X89458810Y-105123810D02*
X89230238Y-105438095D01*
X88182619Y-106518810D02*
X88182619Y-105968810D01*
X88315952Y-106361667D01*
X88449286Y-105968810D01*
X88449286Y-106518810D01*
X88639762Y-106518810D02*
X88639762Y-105968810D01*
X88811190Y-106492619D02*
X88868333Y-106518810D01*
X88963571Y-106518810D01*
X89001667Y-106492619D01*
X89020714Y-106466429D01*
X89039762Y-106414048D01*
X89039762Y-106361667D01*
X89020714Y-106309286D01*
X89001667Y-106283095D01*
X88963571Y-106256905D01*
X88887381Y-106230714D01*
X88849286Y-106204524D01*
X88830238Y-106178333D01*
X88811190Y-106125952D01*
X88811190Y-106073571D01*
X88830238Y-106021190D01*
X88849286Y-105995000D01*
X88887381Y-105968810D01*
X88982619Y-105968810D01*
X89039762Y-105995000D01*
X89287381Y-105968810D02*
X89363571Y-105968810D01*
X89401666Y-105995000D01*
X89439762Y-106047381D01*
X89458809Y-106152143D01*
X89458809Y-106335476D01*
X89439762Y-106440238D01*
X89401666Y-106492619D01*
X89363571Y-106518810D01*
X89287381Y-106518810D01*
X89249285Y-106492619D01*
X89211190Y-106440238D01*
X89192142Y-106335476D01*
X89192142Y-106152143D01*
X89211190Y-106047381D01*
X89249285Y-105995000D01*
X89287381Y-105968810D01*
X88182619Y-107363810D02*
X88182619Y-106813810D01*
X88315952Y-107206667D01*
X88449286Y-106813810D01*
X88449286Y-107363810D01*
X88715953Y-106813810D02*
X88792143Y-106813810D01*
X88830238Y-106840000D01*
X88868334Y-106892381D01*
X88887381Y-106997143D01*
X88887381Y-107180476D01*
X88868334Y-107285238D01*
X88830238Y-107337619D01*
X88792143Y-107363810D01*
X88715953Y-107363810D01*
X88677857Y-107337619D01*
X88639762Y-107285238D01*
X88620714Y-107180476D01*
X88620714Y-106997143D01*
X88639762Y-106892381D01*
X88677857Y-106840000D01*
X88715953Y-106813810D01*
X89039762Y-107337619D02*
X89096905Y-107363810D01*
X89192143Y-107363810D01*
X89230239Y-107337619D01*
X89249286Y-107311429D01*
X89268334Y-107259048D01*
X89268334Y-107206667D01*
X89249286Y-107154286D01*
X89230239Y-107128095D01*
X89192143Y-107101905D01*
X89115953Y-107075714D01*
X89077858Y-107049524D01*
X89058810Y-107023333D01*
X89039762Y-106970952D01*
X89039762Y-106918571D01*
X89058810Y-106866190D01*
X89077858Y-106840000D01*
X89115953Y-106813810D01*
X89211191Y-106813810D01*
X89268334Y-106840000D01*
X89439762Y-107363810D02*
X89439762Y-106813810D01*
X88144524Y-107999286D02*
X88449286Y-107999286D01*
X88639762Y-107999286D02*
X88944524Y-107999286D01*
X89135000Y-107999286D02*
X89439762Y-107999286D01*
X88620714Y-108530000D02*
X88582619Y-108503810D01*
X88525476Y-108503810D01*
X88468333Y-108530000D01*
X88430238Y-108582381D01*
X88411190Y-108634762D01*
X88392142Y-108739524D01*
X88392142Y-108818095D01*
X88411190Y-108922857D01*
X88430238Y-108975238D01*
X88468333Y-109027619D01*
X88525476Y-109053810D01*
X88563571Y-109053810D01*
X88620714Y-109027619D01*
X88639762Y-109001429D01*
X88639762Y-108818095D01*
X88563571Y-108818095D01*
X88811190Y-109053810D02*
X88811190Y-108503810D01*
X89039762Y-109053810D01*
X89039762Y-108503810D01*
X89230238Y-109053810D02*
X89230238Y-108503810D01*
X89325476Y-108503810D01*
X89382619Y-108530000D01*
X89420714Y-108582381D01*
X89439762Y-108634762D01*
X89458810Y-108739524D01*
X89458810Y-108818095D01*
X89439762Y-108922857D01*
X89420714Y-108975238D01*
X89382619Y-109027619D01*
X89325476Y-109053810D01*
X89230238Y-109053810D01*
X88487382Y-109348810D02*
X88735001Y-109348810D01*
X88601668Y-109558333D01*
X88658810Y-109558333D01*
X88696906Y-109584524D01*
X88715953Y-109610714D01*
X88735001Y-109663095D01*
X88735001Y-109794048D01*
X88715953Y-109846429D01*
X88696906Y-109872619D01*
X88658810Y-109898810D01*
X88544525Y-109898810D01*
X88506429Y-109872619D01*
X88487382Y-109846429D01*
X88849286Y-109348810D02*
X88982620Y-109898810D01*
X89115953Y-109348810D01*
X89211191Y-109348810D02*
X89458810Y-109348810D01*
X89325477Y-109558333D01*
X89382619Y-109558333D01*
X89420715Y-109584524D01*
X89439762Y-109610714D01*
X89458810Y-109663095D01*
X89458810Y-109794048D01*
X89439762Y-109846429D01*
X89420715Y-109872619D01*
X89382619Y-109898810D01*
X89268334Y-109898810D01*
X89230238Y-109872619D01*
X89211191Y-109846429D01*
X88506428Y-110717619D02*
X88563571Y-110743810D01*
X88658809Y-110743810D01*
X88696905Y-110717619D01*
X88715952Y-110691429D01*
X88735000Y-110639048D01*
X88735000Y-110586667D01*
X88715952Y-110534286D01*
X88696905Y-110508095D01*
X88658809Y-110481905D01*
X88582619Y-110455714D01*
X88544524Y-110429524D01*
X88525476Y-110403333D01*
X88506428Y-110350952D01*
X88506428Y-110298571D01*
X88525476Y-110246190D01*
X88544524Y-110220000D01*
X88582619Y-110193810D01*
X88677857Y-110193810D01*
X88735000Y-110220000D01*
X89135000Y-110691429D02*
X89115952Y-110717619D01*
X89058809Y-110743810D01*
X89020714Y-110743810D01*
X88963571Y-110717619D01*
X88925476Y-110665238D01*
X88906428Y-110612857D01*
X88887380Y-110508095D01*
X88887380Y-110429524D01*
X88906428Y-110324762D01*
X88925476Y-110272381D01*
X88963571Y-110220000D01*
X89020714Y-110193810D01*
X89058809Y-110193810D01*
X89115952Y-110220000D01*
X89135000Y-110246190D01*
X89496904Y-110743810D02*
X89306428Y-110743810D01*
X89306428Y-110193810D01*
X88487381Y-111562619D02*
X88544524Y-111588810D01*
X88639762Y-111588810D01*
X88677858Y-111562619D01*
X88696905Y-111536429D01*
X88715953Y-111484048D01*
X88715953Y-111431667D01*
X88696905Y-111379286D01*
X88677858Y-111353095D01*
X88639762Y-111326905D01*
X88563572Y-111300714D01*
X88525477Y-111274524D01*
X88506429Y-111248333D01*
X88487381Y-111195952D01*
X88487381Y-111143571D01*
X88506429Y-111091190D01*
X88525477Y-111065000D01*
X88563572Y-111038810D01*
X88658810Y-111038810D01*
X88715953Y-111065000D01*
X88887381Y-111588810D02*
X88887381Y-111038810D01*
X88982619Y-111038810D01*
X89039762Y-111065000D01*
X89077857Y-111117381D01*
X89096905Y-111169762D01*
X89115953Y-111274524D01*
X89115953Y-111353095D01*
X89096905Y-111457857D01*
X89077857Y-111510238D01*
X89039762Y-111562619D01*
X88982619Y-111588810D01*
X88887381Y-111588810D01*
X89268333Y-111431667D02*
X89458810Y-111431667D01*
X89230238Y-111588810D02*
X89363572Y-111038810D01*
X89496905Y-111588810D01*
X87896906Y-112433810D02*
X87896906Y-111883810D01*
X88049287Y-111883810D01*
X88087382Y-111910000D01*
X88106430Y-111936190D01*
X88125478Y-111988571D01*
X88125478Y-112067143D01*
X88106430Y-112119524D01*
X88087382Y-112145714D01*
X88049287Y-112171905D01*
X87896906Y-112171905D01*
X88373097Y-111883810D02*
X88411192Y-111883810D01*
X88449287Y-111910000D01*
X88468335Y-111936190D01*
X88487382Y-111988571D01*
X88506430Y-112093333D01*
X88506430Y-112224286D01*
X88487382Y-112329048D01*
X88468335Y-112381429D01*
X88449287Y-112407619D01*
X88411192Y-112433810D01*
X88373097Y-112433810D01*
X88335001Y-112407619D01*
X88315954Y-112381429D01*
X88296906Y-112329048D01*
X88277858Y-112224286D01*
X88277858Y-112093333D01*
X88296906Y-111988571D01*
X88315954Y-111936190D01*
X88335001Y-111910000D01*
X88373097Y-111883810D01*
X88677858Y-112381429D02*
X88696906Y-112407619D01*
X88677858Y-112433810D01*
X88658810Y-112407619D01*
X88677858Y-112381429D01*
X88677858Y-112433810D01*
X89077858Y-112433810D02*
X88849286Y-112433810D01*
X88963572Y-112433810D02*
X88963572Y-111883810D01*
X88925477Y-111962381D01*
X88887382Y-112014762D01*
X88849286Y-112040952D01*
X89420715Y-111883810D02*
X89344524Y-111883810D01*
X89306429Y-111910000D01*
X89287381Y-111936190D01*
X89249286Y-112014762D01*
X89230238Y-112119524D01*
X89230238Y-112329048D01*
X89249286Y-112381429D01*
X89268334Y-112407619D01*
X89306429Y-112433810D01*
X89382619Y-112433810D01*
X89420715Y-112407619D01*
X89439762Y-112381429D01*
X89458810Y-112329048D01*
X89458810Y-112198095D01*
X89439762Y-112145714D01*
X89420715Y-112119524D01*
X89382619Y-112093333D01*
X89306429Y-112093333D01*
X89268334Y-112119524D01*
X89249286Y-112145714D01*
X89230238Y-112198095D01*
X88144524Y-113069286D02*
X88449286Y-113069286D01*
X88639762Y-113069286D02*
X88944524Y-113069286D01*
X89135000Y-113069286D02*
X89439762Y-113069286D01*
X88620714Y-113600000D02*
X88582619Y-113573810D01*
X88525476Y-113573810D01*
X88468333Y-113600000D01*
X88430238Y-113652381D01*
X88411190Y-113704762D01*
X88392142Y-113809524D01*
X88392142Y-113888095D01*
X88411190Y-113992857D01*
X88430238Y-114045238D01*
X88468333Y-114097619D01*
X88525476Y-114123810D01*
X88563571Y-114123810D01*
X88620714Y-114097619D01*
X88639762Y-114071429D01*
X88639762Y-113888095D01*
X88563571Y-113888095D01*
X88811190Y-114123810D02*
X88811190Y-113573810D01*
X89039762Y-114123810D01*
X89039762Y-113573810D01*
X89230238Y-114123810D02*
X89230238Y-113573810D01*
X89325476Y-113573810D01*
X89382619Y-113600000D01*
X89420714Y-113652381D01*
X89439762Y-113704762D01*
X89458810Y-113809524D01*
X89458810Y-113888095D01*
X89439762Y-113992857D01*
X89420714Y-114045238D01*
X89382619Y-114097619D01*
X89325476Y-114123810D01*
X89230238Y-114123810D01*
X88487382Y-114418810D02*
X88735001Y-114418810D01*
X88601668Y-114628333D01*
X88658810Y-114628333D01*
X88696906Y-114654524D01*
X88715953Y-114680714D01*
X88735001Y-114733095D01*
X88735001Y-114864048D01*
X88715953Y-114916429D01*
X88696906Y-114942619D01*
X88658810Y-114968810D01*
X88544525Y-114968810D01*
X88506429Y-114942619D01*
X88487382Y-114916429D01*
X88849286Y-114418810D02*
X88982620Y-114968810D01*
X89115953Y-114418810D01*
X89211191Y-114418810D02*
X89458810Y-114418810D01*
X89325477Y-114628333D01*
X89382619Y-114628333D01*
X89420715Y-114654524D01*
X89439762Y-114680714D01*
X89458810Y-114733095D01*
X89458810Y-114864048D01*
X89439762Y-114916429D01*
X89420715Y-114942619D01*
X89382619Y-114968810D01*
X89268334Y-114968810D01*
X89230238Y-114942619D01*
X89211191Y-114916429D01*
X89058810Y-115290000D02*
X89020715Y-115263810D01*
X88963572Y-115263810D01*
X88906429Y-115290000D01*
X88868334Y-115342381D01*
X88849286Y-115394762D01*
X88830238Y-115499524D01*
X88830238Y-115578095D01*
X88849286Y-115682857D01*
X88868334Y-115735238D01*
X88906429Y-115787619D01*
X88963572Y-115813810D01*
X89001667Y-115813810D01*
X89058810Y-115787619D01*
X89077858Y-115761429D01*
X89077858Y-115578095D01*
X89001667Y-115578095D01*
X89458810Y-115813810D02*
X89230238Y-115813810D01*
X89344524Y-115813810D02*
X89344524Y-115263810D01*
X89306429Y-115342381D01*
X89268334Y-115394762D01*
X89230238Y-115420952D01*
X89058810Y-116135000D02*
X89020715Y-116108810D01*
X88963572Y-116108810D01*
X88906429Y-116135000D01*
X88868334Y-116187381D01*
X88849286Y-116239762D01*
X88830238Y-116344524D01*
X88830238Y-116423095D01*
X88849286Y-116527857D01*
X88868334Y-116580238D01*
X88906429Y-116632619D01*
X88963572Y-116658810D01*
X89001667Y-116658810D01*
X89058810Y-116632619D01*
X89077858Y-116606429D01*
X89077858Y-116423095D01*
X89001667Y-116423095D01*
X89230238Y-116161190D02*
X89249286Y-116135000D01*
X89287381Y-116108810D01*
X89382619Y-116108810D01*
X89420715Y-116135000D01*
X89439762Y-116161190D01*
X89458810Y-116213571D01*
X89458810Y-116265952D01*
X89439762Y-116344524D01*
X89211191Y-116658810D01*
X89458810Y-116658810D01*
X89058810Y-116980000D02*
X89020715Y-116953810D01*
X88963572Y-116953810D01*
X88906429Y-116980000D01*
X88868334Y-117032381D01*
X88849286Y-117084762D01*
X88830238Y-117189524D01*
X88830238Y-117268095D01*
X88849286Y-117372857D01*
X88868334Y-117425238D01*
X88906429Y-117477619D01*
X88963572Y-117503810D01*
X89001667Y-117503810D01*
X89058810Y-117477619D01*
X89077858Y-117451429D01*
X89077858Y-117268095D01*
X89001667Y-117268095D01*
X89211191Y-116953810D02*
X89458810Y-116953810D01*
X89325477Y-117163333D01*
X89382619Y-117163333D01*
X89420715Y-117189524D01*
X89439762Y-117215714D01*
X89458810Y-117268095D01*
X89458810Y-117399048D01*
X89439762Y-117451429D01*
X89420715Y-117477619D01*
X89382619Y-117503810D01*
X89268334Y-117503810D01*
X89230238Y-117477619D01*
X89211191Y-117451429D01*
X88144524Y-118139286D02*
X88449286Y-118139286D01*
X88639762Y-118139286D02*
X88944524Y-118139286D01*
X89135000Y-118139286D02*
X89439762Y-118139286D01*
X88620714Y-118670000D02*
X88582619Y-118643810D01*
X88525476Y-118643810D01*
X88468333Y-118670000D01*
X88430238Y-118722381D01*
X88411190Y-118774762D01*
X88392142Y-118879524D01*
X88392142Y-118958095D01*
X88411190Y-119062857D01*
X88430238Y-119115238D01*
X88468333Y-119167619D01*
X88525476Y-119193810D01*
X88563571Y-119193810D01*
X88620714Y-119167619D01*
X88639762Y-119141429D01*
X88639762Y-118958095D01*
X88563571Y-118958095D01*
X88811190Y-119193810D02*
X88811190Y-118643810D01*
X89039762Y-119193810D01*
X89039762Y-118643810D01*
X89230238Y-119193810D02*
X89230238Y-118643810D01*
X89325476Y-118643810D01*
X89382619Y-118670000D01*
X89420714Y-118722381D01*
X89439762Y-118774762D01*
X89458810Y-118879524D01*
X89458810Y-118958095D01*
X89439762Y-119062857D01*
X89420714Y-119115238D01*
X89382619Y-119167619D01*
X89325476Y-119193810D01*
X89230238Y-119193810D01*
X88487382Y-119488810D02*
X88735001Y-119488810D01*
X88601668Y-119698333D01*
X88658810Y-119698333D01*
X88696906Y-119724524D01*
X88715953Y-119750714D01*
X88735001Y-119803095D01*
X88735001Y-119934048D01*
X88715953Y-119986429D01*
X88696906Y-120012619D01*
X88658810Y-120038810D01*
X88544525Y-120038810D01*
X88506429Y-120012619D01*
X88487382Y-119986429D01*
X88849286Y-119488810D02*
X88982620Y-120038810D01*
X89115953Y-119488810D01*
X89211191Y-119488810D02*
X89458810Y-119488810D01*
X89325477Y-119698333D01*
X89382619Y-119698333D01*
X89420715Y-119724524D01*
X89439762Y-119750714D01*
X89458810Y-119803095D01*
X89458810Y-119934048D01*
X89439762Y-119986429D01*
X89420715Y-120012619D01*
X89382619Y-120038810D01*
X89268334Y-120038810D01*
X89230238Y-120012619D01*
X89211191Y-119986429D01*
X87896906Y-120883810D02*
X87896906Y-120333810D01*
X88049287Y-120333810D01*
X88087382Y-120360000D01*
X88106430Y-120386190D01*
X88125478Y-120438571D01*
X88125478Y-120517143D01*
X88106430Y-120569524D01*
X88087382Y-120595714D01*
X88049287Y-120621905D01*
X87896906Y-120621905D01*
X88373097Y-120333810D02*
X88411192Y-120333810D01*
X88449287Y-120360000D01*
X88468335Y-120386190D01*
X88487382Y-120438571D01*
X88506430Y-120543333D01*
X88506430Y-120674286D01*
X88487382Y-120779048D01*
X88468335Y-120831429D01*
X88449287Y-120857619D01*
X88411192Y-120883810D01*
X88373097Y-120883810D01*
X88335001Y-120857619D01*
X88315954Y-120831429D01*
X88296906Y-120779048D01*
X88277858Y-120674286D01*
X88277858Y-120543333D01*
X88296906Y-120438571D01*
X88315954Y-120386190D01*
X88335001Y-120360000D01*
X88373097Y-120333810D01*
X88677858Y-120831429D02*
X88696906Y-120857619D01*
X88677858Y-120883810D01*
X88658810Y-120857619D01*
X88677858Y-120831429D01*
X88677858Y-120883810D01*
X89077858Y-120883810D02*
X88849286Y-120883810D01*
X88963572Y-120883810D02*
X88963572Y-120333810D01*
X88925477Y-120412381D01*
X88887382Y-120464762D01*
X88849286Y-120490952D01*
X89211191Y-120333810D02*
X89458810Y-120333810D01*
X89325477Y-120543333D01*
X89382619Y-120543333D01*
X89420715Y-120569524D01*
X89439762Y-120595714D01*
X89458810Y-120648095D01*
X89458810Y-120779048D01*
X89439762Y-120831429D01*
X89420715Y-120857619D01*
X89382619Y-120883810D01*
X89268334Y-120883810D01*
X89230238Y-120857619D01*
X89211191Y-120831429D01*
X87896906Y-121728810D02*
X87896906Y-121178810D01*
X88049287Y-121178810D01*
X88087382Y-121205000D01*
X88106430Y-121231190D01*
X88125478Y-121283571D01*
X88125478Y-121362143D01*
X88106430Y-121414524D01*
X88087382Y-121440714D01*
X88049287Y-121466905D01*
X87896906Y-121466905D01*
X88373097Y-121178810D02*
X88411192Y-121178810D01*
X88449287Y-121205000D01*
X88468335Y-121231190D01*
X88487382Y-121283571D01*
X88506430Y-121388333D01*
X88506430Y-121519286D01*
X88487382Y-121624048D01*
X88468335Y-121676429D01*
X88449287Y-121702619D01*
X88411192Y-121728810D01*
X88373097Y-121728810D01*
X88335001Y-121702619D01*
X88315954Y-121676429D01*
X88296906Y-121624048D01*
X88277858Y-121519286D01*
X88277858Y-121388333D01*
X88296906Y-121283571D01*
X88315954Y-121231190D01*
X88335001Y-121205000D01*
X88373097Y-121178810D01*
X88677858Y-121676429D02*
X88696906Y-121702619D01*
X88677858Y-121728810D01*
X88658810Y-121702619D01*
X88677858Y-121676429D01*
X88677858Y-121728810D01*
X89077858Y-121728810D02*
X88849286Y-121728810D01*
X88963572Y-121728810D02*
X88963572Y-121178810D01*
X88925477Y-121257381D01*
X88887382Y-121309762D01*
X88849286Y-121335952D01*
X89420715Y-121362143D02*
X89420715Y-121728810D01*
X89325477Y-121152619D02*
X89230238Y-121545476D01*
X89477858Y-121545476D01*
X87896906Y-122573810D02*
X87896906Y-122023810D01*
X88049287Y-122023810D01*
X88087382Y-122050000D01*
X88106430Y-122076190D01*
X88125478Y-122128571D01*
X88125478Y-122207143D01*
X88106430Y-122259524D01*
X88087382Y-122285714D01*
X88049287Y-122311905D01*
X87896906Y-122311905D01*
X88373097Y-122023810D02*
X88411192Y-122023810D01*
X88449287Y-122050000D01*
X88468335Y-122076190D01*
X88487382Y-122128571D01*
X88506430Y-122233333D01*
X88506430Y-122364286D01*
X88487382Y-122469048D01*
X88468335Y-122521429D01*
X88449287Y-122547619D01*
X88411192Y-122573810D01*
X88373097Y-122573810D01*
X88335001Y-122547619D01*
X88315954Y-122521429D01*
X88296906Y-122469048D01*
X88277858Y-122364286D01*
X88277858Y-122233333D01*
X88296906Y-122128571D01*
X88315954Y-122076190D01*
X88335001Y-122050000D01*
X88373097Y-122023810D01*
X88677858Y-122521429D02*
X88696906Y-122547619D01*
X88677858Y-122573810D01*
X88658810Y-122547619D01*
X88677858Y-122521429D01*
X88677858Y-122573810D01*
X89077858Y-122573810D02*
X88849286Y-122573810D01*
X88963572Y-122573810D02*
X88963572Y-122023810D01*
X88925477Y-122102381D01*
X88887382Y-122154762D01*
X88849286Y-122180952D01*
X89439762Y-122023810D02*
X89249286Y-122023810D01*
X89230238Y-122285714D01*
X89249286Y-122259524D01*
X89287381Y-122233333D01*
X89382619Y-122233333D01*
X89420715Y-122259524D01*
X89439762Y-122285714D01*
X89458810Y-122338095D01*
X89458810Y-122469048D01*
X89439762Y-122521429D01*
X89420715Y-122547619D01*
X89382619Y-122573810D01*
X89287381Y-122573810D01*
X89249286Y-122547619D01*
X89230238Y-122521429D01*
X88144524Y-123209286D02*
X88449286Y-123209286D01*
X88639762Y-123209286D02*
X88944524Y-123209286D01*
X89135000Y-123209286D02*
X89439762Y-123209286D01*
X88487382Y-123713810D02*
X88735001Y-123713810D01*
X88601668Y-123923333D01*
X88658810Y-123923333D01*
X88696906Y-123949524D01*
X88715953Y-123975714D01*
X88735001Y-124028095D01*
X88735001Y-124159048D01*
X88715953Y-124211429D01*
X88696906Y-124237619D01*
X88658810Y-124263810D01*
X88544525Y-124263810D01*
X88506429Y-124237619D01*
X88487382Y-124211429D01*
X88849286Y-123713810D02*
X88982620Y-124263810D01*
X89115953Y-123713810D01*
X89211191Y-123713810D02*
X89458810Y-123713810D01*
X89325477Y-123923333D01*
X89382619Y-123923333D01*
X89420715Y-123949524D01*
X89439762Y-123975714D01*
X89458810Y-124028095D01*
X89458810Y-124159048D01*
X89439762Y-124211429D01*
X89420715Y-124237619D01*
X89382619Y-124263810D01*
X89268334Y-124263810D01*
X89230238Y-124237619D01*
X89211191Y-124211429D01*
X88620714Y-124585000D02*
X88582619Y-124558810D01*
X88525476Y-124558810D01*
X88468333Y-124585000D01*
X88430238Y-124637381D01*
X88411190Y-124689762D01*
X88392142Y-124794524D01*
X88392142Y-124873095D01*
X88411190Y-124977857D01*
X88430238Y-125030238D01*
X88468333Y-125082619D01*
X88525476Y-125108810D01*
X88563571Y-125108810D01*
X88620714Y-125082619D01*
X88639762Y-125056429D01*
X88639762Y-124873095D01*
X88563571Y-124873095D01*
X88811190Y-125108810D02*
X88811190Y-124558810D01*
X89039762Y-125108810D01*
X89039762Y-124558810D01*
X89230238Y-125108810D02*
X89230238Y-124558810D01*
X89325476Y-124558810D01*
X89382619Y-124585000D01*
X89420714Y-124637381D01*
X89439762Y-124689762D01*
X89458810Y-124794524D01*
X89458810Y-124873095D01*
X89439762Y-124977857D01*
X89420714Y-125030238D01*
X89382619Y-125082619D01*
X89325476Y-125108810D01*
X89230238Y-125108810D01*
D13*
X56466619Y-112261952D02*
X55982810Y-112600618D01*
X56466619Y-112842523D02*
X55450619Y-112842523D01*
X55450619Y-112455476D01*
X55499000Y-112358714D01*
X55547381Y-112310333D01*
X55644143Y-112261952D01*
X55789286Y-112261952D01*
X55886048Y-112310333D01*
X55934429Y-112358714D01*
X55982810Y-112455476D01*
X55982810Y-112842523D01*
X56418238Y-111439476D02*
X56466619Y-111536238D01*
X56466619Y-111729761D01*
X56418238Y-111826523D01*
X56321476Y-111874904D01*
X55934429Y-111874904D01*
X55837667Y-111826523D01*
X55789286Y-111729761D01*
X55789286Y-111536238D01*
X55837667Y-111439476D01*
X55934429Y-111391095D01*
X56031190Y-111391095D01*
X56127952Y-111874904D01*
X56466619Y-110520238D02*
X55934429Y-110520238D01*
X55837667Y-110568619D01*
X55789286Y-110665381D01*
X55789286Y-110858904D01*
X55837667Y-110955666D01*
X56418238Y-110520238D02*
X56466619Y-110617000D01*
X56466619Y-110858904D01*
X56418238Y-110955666D01*
X56321476Y-111004047D01*
X56224714Y-111004047D01*
X56127952Y-110955666D01*
X56079571Y-110858904D01*
X56079571Y-110617000D01*
X56031190Y-110520238D01*
X56418238Y-109601000D02*
X56466619Y-109697762D01*
X56466619Y-109891285D01*
X56418238Y-109988047D01*
X56369857Y-110036428D01*
X56273095Y-110084809D01*
X55982810Y-110084809D01*
X55886048Y-110036428D01*
X55837667Y-109988047D01*
X55789286Y-109891285D01*
X55789286Y-109697762D01*
X55837667Y-109601000D01*
X56466619Y-109165571D02*
X55450619Y-109165571D01*
X56466619Y-108730143D02*
X55934429Y-108730143D01*
X55837667Y-108778524D01*
X55789286Y-108875286D01*
X55789286Y-109020428D01*
X55837667Y-109117190D01*
X55886048Y-109165571D01*
X55789286Y-107569000D02*
X56466619Y-107327095D01*
X55789286Y-107085191D01*
X55450619Y-106504619D02*
X55450619Y-106407858D01*
X55499000Y-106311096D01*
X55547381Y-106262715D01*
X55644143Y-106214334D01*
X55837667Y-106165953D01*
X56079571Y-106165953D01*
X56273095Y-106214334D01*
X56369857Y-106262715D01*
X56418238Y-106311096D01*
X56466619Y-106407858D01*
X56466619Y-106504619D01*
X56418238Y-106601381D01*
X56369857Y-106649762D01*
X56273095Y-106698143D01*
X56079571Y-106746524D01*
X55837667Y-106746524D01*
X55644143Y-106698143D01*
X55547381Y-106649762D01*
X55499000Y-106601381D01*
X55450619Y-106504619D01*
X56369857Y-105730524D02*
X56418238Y-105682143D01*
X56466619Y-105730524D01*
X56418238Y-105778905D01*
X56369857Y-105730524D01*
X56466619Y-105730524D01*
X55450619Y-105053190D02*
X55450619Y-104956429D01*
X55499000Y-104859667D01*
X55547381Y-104811286D01*
X55644143Y-104762905D01*
X55837667Y-104714524D01*
X56079571Y-104714524D01*
X56273095Y-104762905D01*
X56369857Y-104811286D01*
X56418238Y-104859667D01*
X56466619Y-104956429D01*
X56466619Y-105053190D01*
X56418238Y-105149952D01*
X56369857Y-105198333D01*
X56273095Y-105246714D01*
X56079571Y-105295095D01*
X55837667Y-105295095D01*
X55644143Y-105246714D01*
X55547381Y-105198333D01*
X55499000Y-105149952D01*
X55450619Y-105053190D01*
X56369857Y-104279095D02*
X56418238Y-104230714D01*
X56466619Y-104279095D01*
X56418238Y-104327476D01*
X56369857Y-104279095D01*
X56466619Y-104279095D01*
X56466619Y-103263095D02*
X56466619Y-103843666D01*
X56466619Y-103553380D02*
X55450619Y-103553380D01*
X55595762Y-103650142D01*
X55692524Y-103746904D01*
X55740905Y-103843666D01*
D10*
X91567000Y-107823000D02*
G75*
G03X92710000Y-107823000I571500J0D01*
G01*
X91567000Y-107823000D02*
G75*
G03X90170000Y-107823000I-698500J0D01*
G01*
X91313001Y-102870000D02*
G75*
G02X92710001Y-102870000I698500J0D01*
G01*
X91313001Y-102870000D02*
G75*
G02X90169999Y-102870000I-571501J0D01*
G01*
X91313001Y-113030000D02*
G75*
G02X92710001Y-113030000I698500J0D01*
G01*
X91313001Y-113030000D02*
G75*
G02X90169999Y-113030000I-571501J0D01*
G01*
X91567000Y-118364000D02*
G75*
G03X90170000Y-118364000I-698500J0D01*
G01*
X91567000Y-118364000D02*
G75*
G03X92710000Y-118364000I571500J0D01*
G01*
X90170000Y-118364000D02*
X90170000Y-123190000D01*
X92710000Y-113030000D02*
X92710000Y-118364000D01*
X90170000Y-107823000D02*
X90170000Y-113030000D01*
X92710000Y-102870000D02*
X92710000Y-107823000D01*
X90170000Y-99060000D02*
X90170000Y-102870000D01*
D14*
X62357000Y-124206000D02*
X85217000Y-124206000D01*
X85217000Y-124206000D02*
X85217000Y-126746000D01*
X85217000Y-126746000D02*
X62357000Y-126746000D01*
X59817000Y-124206000D02*
X62357000Y-124206000D01*
X62357000Y-124206000D02*
X62357000Y-126746000D01*
X59817000Y-124206000D02*
X59817000Y-126746000D01*
X59817000Y-126746000D02*
X62357000Y-126746000D01*
X71178420Y-106611420D02*
X72077580Y-106611420D01*
X72077580Y-106611420D02*
X72077580Y-106212640D01*
X71178420Y-106212640D02*
X72077580Y-106212640D01*
X71178420Y-106611420D02*
X71178420Y-106212640D01*
X71178420Y-107909360D02*
X72077580Y-107909360D01*
X72077580Y-107909360D02*
X72077580Y-107510580D01*
X71178420Y-107510580D02*
X72077580Y-107510580D01*
X71178420Y-107909360D02*
X71178420Y-107510580D01*
X71178420Y-107061000D02*
X71328280Y-107061000D01*
X71328280Y-107061000D02*
X71328280Y-106761280D01*
X71178420Y-106761280D02*
X71328280Y-106761280D01*
X71178420Y-107061000D02*
X71178420Y-106761280D01*
X71927720Y-107061000D02*
X72077580Y-107061000D01*
X72077580Y-107061000D02*
X72077580Y-106761280D01*
X71927720Y-106761280D02*
X72077580Y-106761280D01*
X71927720Y-107061000D02*
X71927720Y-106761280D01*
X71478140Y-107061000D02*
X71777860Y-107061000D01*
X71777860Y-107061000D02*
X71777860Y-106761280D01*
X71478140Y-106761280D02*
X71777860Y-106761280D01*
X71478140Y-107061000D02*
X71478140Y-106761280D01*
X71229220Y-106611420D02*
X71229220Y-107510580D01*
X72026780Y-106611420D02*
X72026780Y-107510580D01*
X72321420Y-106611420D02*
X73220580Y-106611420D01*
X73220580Y-106611420D02*
X73220580Y-106212640D01*
X72321420Y-106212640D02*
X73220580Y-106212640D01*
X72321420Y-106611420D02*
X72321420Y-106212640D01*
X72321420Y-107909360D02*
X73220580Y-107909360D01*
X73220580Y-107909360D02*
X73220580Y-107510580D01*
X72321420Y-107510580D02*
X73220580Y-107510580D01*
X72321420Y-107909360D02*
X72321420Y-107510580D01*
X72321420Y-107061000D02*
X72471280Y-107061000D01*
X72471280Y-107061000D02*
X72471280Y-106761280D01*
X72321420Y-106761280D02*
X72471280Y-106761280D01*
X72321420Y-107061000D02*
X72321420Y-106761280D01*
X73070720Y-107061000D02*
X73220580Y-107061000D01*
X73220580Y-107061000D02*
X73220580Y-106761280D01*
X73070720Y-106761280D02*
X73220580Y-106761280D01*
X73070720Y-107061000D02*
X73070720Y-106761280D01*
X72621140Y-107061000D02*
X72920860Y-107061000D01*
X72920860Y-107061000D02*
X72920860Y-106761280D01*
X72621140Y-106761280D02*
X72920860Y-106761280D01*
X72621140Y-107061000D02*
X72621140Y-106761280D01*
X72372220Y-106611420D02*
X72372220Y-107510580D01*
X73169780Y-106611420D02*
X73169780Y-107510580D01*
X82677000Y-99695000D02*
X82677000Y-102235000D01*
X80137000Y-99695000D02*
X80137000Y-102235000D01*
X80137000Y-102235000D02*
X82677000Y-102235000D01*
X82677000Y-102235000D02*
X85217000Y-102235000D01*
X85217000Y-102235000D02*
X85217000Y-99695000D01*
X85217000Y-99695000D02*
X80137000Y-99695000D01*
X82677000Y-102235000D02*
X82677000Y-104775000D01*
X80137000Y-102235000D02*
X80137000Y-104775000D01*
X80137000Y-104775000D02*
X82677000Y-104775000D01*
X82677000Y-104775000D02*
X85217000Y-104775000D01*
X85217000Y-104775000D02*
X85217000Y-102235000D01*
X85217000Y-102235000D02*
X80137000Y-102235000D01*
X88545810Y-124460000D02*
G75*
G03X88545810Y-124460000I-915810J0D01*
G01*
X79984000Y-106960000D02*
X79759000Y-106960000D01*
X79984000Y-110210000D02*
X79759000Y-110210000D01*
X76734000Y-110210000D02*
X76959000Y-110210000D01*
X76734000Y-106960000D02*
X76959000Y-106960000D01*
X79984000Y-106960000D02*
X79984000Y-110210000D01*
X76734000Y-106960000D02*
X76734000Y-110210000D01*
X79759000Y-106960000D02*
X79759000Y-105885000D01*
X66750000Y-116530000D02*
X66350000Y-116530000D01*
X73350000Y-109930000D02*
X73350000Y-109530000D01*
X73350000Y-109530000D02*
X72950000Y-109530000D01*
X66350000Y-109930000D02*
X66350000Y-109530000D01*
X66350000Y-109530000D02*
X66750000Y-109530000D01*
X66350000Y-116530000D02*
X66350000Y-116130000D01*
X72850000Y-116530000D02*
X73350000Y-116030000D01*
X73750000Y-116630000D02*
G75*
G03X73750000Y-116630000I-300000J0D01*
G01*
X62357000Y-121666000D02*
X85217000Y-121666000D01*
X85217000Y-121666000D02*
X85217000Y-124206000D01*
X85217000Y-124206000D02*
X62357000Y-124206000D01*
X59817000Y-121666000D02*
X62357000Y-121666000D01*
X62357000Y-121666000D02*
X62357000Y-124206000D01*
X59817000Y-121666000D02*
X59817000Y-124206000D01*
X59817000Y-124206000D02*
X62357000Y-124206000D01*
X82677000Y-106680000D02*
X80391000Y-106680000D01*
X80391000Y-106680000D02*
X80391000Y-105410000D01*
X80391000Y-105410000D02*
X82677000Y-105410000D01*
X82677000Y-105410000D02*
X82677000Y-106680000D01*
D15*
X76174600Y-111633000D02*
X76174600Y-110871000D01*
X76174600Y-110871000D02*
X74701400Y-110871000D01*
X74701400Y-110871000D02*
X74701400Y-111607600D01*
X74701400Y-111607600D02*
X74701400Y-111633000D01*
X74701400Y-111633000D02*
X76174600Y-111633000D01*
X74295000Y-104673400D02*
X73533000Y-104673400D01*
X73533000Y-104673400D02*
X73533000Y-106146600D01*
X73533000Y-106146600D02*
X74269600Y-106146600D01*
X74269600Y-106146600D02*
X74295000Y-106146600D01*
X74295000Y-106146600D02*
X74295000Y-104673400D01*
X68580000Y-120878600D02*
X69342000Y-120878600D01*
X69342000Y-120878600D02*
X69342000Y-119405400D01*
X69342000Y-119405400D02*
X68605400Y-119405400D01*
X68605400Y-119405400D02*
X68580000Y-119405400D01*
X68580000Y-119405400D02*
X68580000Y-120878600D01*
X74142600Y-119380000D02*
X74142600Y-118618000D01*
X74142600Y-118618000D02*
X72669400Y-118618000D01*
X72669400Y-118618000D02*
X72669400Y-119354600D01*
X72669400Y-119354600D02*
X72669400Y-119380000D01*
X72669400Y-119380000D02*
X74142600Y-119380000D01*
D14*
X81915000Y-108585000D02*
X84201000Y-108585000D01*
X84201000Y-108585000D02*
X84201000Y-109855000D01*
X84201000Y-109855000D02*
X81915000Y-109855000D01*
X81915000Y-109855000D02*
X81915000Y-108585000D01*
D15*
X75285600Y-110363000D02*
X75285600Y-109601000D01*
X75285600Y-109601000D02*
X73812400Y-109601000D01*
X73812400Y-109601000D02*
X73812400Y-110337600D01*
X73812400Y-110337600D02*
X73812400Y-110363000D01*
X73812400Y-110363000D02*
X75285600Y-110363000D01*
X65278000Y-119532400D02*
X64516000Y-119532400D01*
X64516000Y-119532400D02*
X64516000Y-121005600D01*
X64516000Y-121005600D02*
X65252600Y-121005600D01*
X65252600Y-121005600D02*
X65278000Y-121005600D01*
X65278000Y-121005600D02*
X65278000Y-119532400D01*
X70891400Y-118618000D02*
X70891400Y-119380000D01*
X70891400Y-119380000D02*
X72364600Y-119380000D01*
X72364600Y-119380000D02*
X72364600Y-118643400D01*
X72364600Y-118643400D02*
X72364600Y-118618000D01*
X72364600Y-118618000D02*
X70891400Y-118618000D01*
D14*
X74422000Y-116586000D02*
X76708000Y-116586000D01*
X76708000Y-116586000D02*
X76708000Y-117856000D01*
X76708000Y-117856000D02*
X74422000Y-117856000D01*
X74422000Y-117856000D02*
X74422000Y-116586000D01*
D15*
X64131142Y-110141032D02*
X63369142Y-110141032D01*
X63369142Y-110141032D02*
X63369142Y-111614232D01*
X63369142Y-111614232D02*
X64105742Y-111614232D01*
X64105742Y-111614232D02*
X64131142Y-111614232D01*
X64131142Y-111614232D02*
X64131142Y-110141032D01*
X67818000Y-118846600D02*
X68580000Y-118846600D01*
X68580000Y-118846600D02*
X68580000Y-117373400D01*
X68580000Y-117373400D02*
X67843400Y-117373400D01*
X67843400Y-117373400D02*
X67818000Y-117373400D01*
X67818000Y-117373400D02*
X67818000Y-118846600D01*
X65151000Y-114452400D02*
X64389000Y-114452400D01*
X64389000Y-114452400D02*
X64389000Y-115925600D01*
X64389000Y-115925600D02*
X65125600Y-115925600D01*
X65125600Y-115925600D02*
X65151000Y-115925600D01*
X65151000Y-115925600D02*
X65151000Y-114452400D01*
X62763400Y-115570000D02*
X62763400Y-116332000D01*
X62763400Y-116332000D02*
X64236600Y-116332000D01*
X64236600Y-116332000D02*
X64236600Y-115595400D01*
X64236600Y-115595400D02*
X64236600Y-115570000D01*
X64236600Y-115570000D02*
X62763400Y-115570000D01*
X65455800Y-117805200D02*
X66217800Y-117805200D01*
X66217800Y-117805200D02*
X66217800Y-116332000D01*
X66217800Y-116332000D02*
X65481200Y-116332000D01*
X65481200Y-116332000D02*
X65455800Y-116332000D01*
X65455800Y-116332000D02*
X65455800Y-117805200D01*
D14*
X78359000Y-116078000D02*
X78359000Y-118364000D01*
X78359000Y-118364000D02*
X77089000Y-118364000D01*
X77089000Y-118364000D02*
X77089000Y-116078000D01*
X77089000Y-116078000D02*
X78359000Y-116078000D01*
D15*
X64389000Y-119227601D02*
X65151000Y-119227601D01*
X65151000Y-119227601D02*
X65151000Y-117754401D01*
X65151000Y-117754401D02*
X64414400Y-117754401D01*
X64414400Y-117754401D02*
X64389000Y-117754401D01*
X64389000Y-117754401D02*
X64389000Y-119227601D01*
X63369142Y-113265232D02*
X64131142Y-113265232D01*
X64131142Y-113265232D02*
X64131142Y-111792032D01*
X64131142Y-111792032D02*
X63394542Y-111792032D01*
X63394542Y-111792032D02*
X63369142Y-111792032D01*
X63369142Y-111792032D02*
X63369142Y-113265232D01*
X64389000Y-114274600D02*
X65151000Y-114274600D01*
X65151000Y-114274600D02*
X65151000Y-112801400D01*
X65151000Y-112801400D02*
X64414400Y-112801400D01*
X64414400Y-112801400D02*
X64389000Y-112801400D01*
X64389000Y-112801400D02*
X64389000Y-114274600D01*
D14*
X76708000Y-116332000D02*
X74422000Y-116332000D01*
X74422000Y-116332000D02*
X74422000Y-115062000D01*
X74422000Y-115062000D02*
X76708000Y-115062000D01*
X76708000Y-115062000D02*
X76708000Y-116332000D01*
D15*
X76987400Y-115062000D02*
X76987400Y-115824000D01*
X76987400Y-115824000D02*
X78460600Y-115824000D01*
X78460600Y-115824000D02*
X78460600Y-115087400D01*
X78460600Y-115087400D02*
X78460600Y-115062000D01*
X78460600Y-115062000D02*
X76987400Y-115062000D01*
X65151000Y-116103400D02*
X64389000Y-116103400D01*
X64389000Y-116103400D02*
X64389000Y-117576600D01*
X64389000Y-117576600D02*
X65125600Y-117576600D01*
X65125600Y-117576600D02*
X65151000Y-117576600D01*
X65151000Y-117576600D02*
X65151000Y-116103400D01*
X84937600Y-106172000D02*
X84937600Y-105410000D01*
X84937600Y-105410000D02*
X83464400Y-105410000D01*
X83464400Y-105410000D02*
X83464400Y-106146600D01*
X83464400Y-106146600D02*
X83464400Y-106172000D01*
X83464400Y-106172000D02*
X84937600Y-106172000D01*
X83464400Y-107442000D02*
X83464400Y-108204000D01*
X83464400Y-108204000D02*
X84937600Y-108204000D01*
X84937600Y-108204000D02*
X84937600Y-107467400D01*
X84937600Y-107467400D02*
X84937600Y-107442000D01*
X84937600Y-107442000D02*
X83464400Y-107442000D01*
X72009000Y-104292400D02*
X71247000Y-104292400D01*
X71247000Y-104292400D02*
X71247000Y-105765600D01*
X71247000Y-105765600D02*
X71983600Y-105765600D01*
X71983600Y-105765600D02*
X72009000Y-105765600D01*
X72009000Y-105765600D02*
X72009000Y-104292400D01*
X78740000Y-100355400D02*
X77978000Y-100355400D01*
X77978000Y-100355400D02*
X77978000Y-101828600D01*
X77978000Y-101828600D02*
X78714600Y-101828600D01*
X78714600Y-101828600D02*
X78740000Y-101828600D01*
X78740000Y-101828600D02*
X78740000Y-100355400D01*
X84937600Y-107188000D02*
X84937600Y-106426000D01*
X84937600Y-106426000D02*
X83464400Y-106426000D01*
X83464400Y-106426000D02*
X83464400Y-107162600D01*
X83464400Y-107162600D02*
X83464400Y-107188000D01*
X83464400Y-107188000D02*
X84937600Y-107188000D01*
X73152000Y-104292400D02*
X72390000Y-104292400D01*
X72390000Y-104292400D02*
X72390000Y-105765600D01*
X72390000Y-105765600D02*
X73126600Y-105765600D01*
X73126600Y-105765600D02*
X73152000Y-105765600D01*
X73152000Y-105765600D02*
X73152000Y-104292400D01*
X71475600Y-103505000D02*
X71475600Y-102743000D01*
X71475600Y-102743000D02*
X70002400Y-102743000D01*
X70002400Y-102743000D02*
X70002400Y-103479600D01*
X70002400Y-103479600D02*
X70002400Y-103505000D01*
X70002400Y-103505000D02*
X71475600Y-103505000D01*
X67818000Y-104368600D02*
X68580000Y-104368600D01*
X68580000Y-104368600D02*
X68580000Y-102895400D01*
X68580000Y-102895400D02*
X67843400Y-102895400D01*
X67843400Y-102895400D02*
X67818000Y-102895400D01*
X67818000Y-102895400D02*
X67818000Y-104368600D01*
X66065400Y-103632000D02*
X66065400Y-104394000D01*
X66065400Y-104394000D02*
X67538600Y-104394000D01*
X67538600Y-104394000D02*
X67538600Y-103657400D01*
X67538600Y-103657400D02*
X67538600Y-103632000D01*
X67538600Y-103632000D02*
X66065400Y-103632000D01*
X78359000Y-111785400D02*
X77597000Y-111785400D01*
X77597000Y-111785400D02*
X77597000Y-113258600D01*
X77597000Y-113258600D02*
X78333600Y-113258600D01*
X78333600Y-113258600D02*
X78359000Y-113258600D01*
X78359000Y-113258600D02*
X78359000Y-111785400D01*
X75565000Y-109194600D02*
X76327000Y-109194600D01*
X76327000Y-109194600D02*
X76327000Y-107721400D01*
X76327000Y-107721400D02*
X75590400Y-107721400D01*
X75590400Y-107721400D02*
X75565000Y-107721400D01*
X75565000Y-107721400D02*
X75565000Y-109194600D01*
X84963000Y-116611400D02*
X84201000Y-116611400D01*
X84201000Y-116611400D02*
X84201000Y-118084600D01*
X84201000Y-118084600D02*
X84937600Y-118084600D01*
X84937600Y-118084600D02*
X84963000Y-118084600D01*
X84963000Y-118084600D02*
X84963000Y-116611400D01*
X84201000Y-119735600D02*
X84963000Y-119735600D01*
X84963000Y-119735600D02*
X84963000Y-118262400D01*
X84963000Y-118262400D02*
X84226400Y-118262400D01*
X84226400Y-118262400D02*
X84201000Y-118262400D01*
X84201000Y-118262400D02*
X84201000Y-119735600D01*
X65151000Y-110769400D02*
X64389000Y-110769400D01*
X64389000Y-110769400D02*
X64389000Y-112242600D01*
X64389000Y-112242600D02*
X65125600Y-112242600D01*
X65125600Y-112242600D02*
X65151000Y-112242600D01*
X65151000Y-112242600D02*
X65151000Y-110769400D01*
D16*
X68100775Y-101600000D02*
G75*
G03X68100775Y-101600000I-790775J0D01*
G01*
D10*
X74242000Y-100035000D02*
X74692000Y-100035000D01*
X74692000Y-104435000D02*
X74242000Y-104435000D01*
X77142000Y-104435000D02*
X76692000Y-104435000D01*
X76692000Y-100035000D02*
X77142000Y-100035000D01*
X77142000Y-100035000D02*
X77142000Y-104435000D01*
X74242000Y-100035000D02*
X74242000Y-104435000D01*
X68179000Y-120319000D02*
X68179000Y-120219000D01*
X65679000Y-120319000D02*
X65679000Y-120219000D01*
X67029000Y-119269000D02*
X66829000Y-119269000D01*
X66829000Y-121269000D02*
X67029000Y-121269000D01*
D14*
X71120000Y-121285000D02*
X73914000Y-121285000D01*
X71120000Y-119507000D02*
X73914000Y-119507000D01*
D17*
X82077000Y-108169000D02*
X82077000Y-108069000D01*
X82077000Y-108169000D02*
X82177000Y-108169000D01*
X83177000Y-108069000D02*
X82177000Y-108069000D01*
X82177000Y-108069000D02*
X82177000Y-107069000D01*
X82177000Y-107069000D02*
X83177000Y-107069000D01*
X83177000Y-107069000D02*
X83177000Y-108069000D01*
D12*
X85999667Y-125600667D02*
X85999667Y-126100667D01*
X85966333Y-126200667D01*
X85899667Y-126267333D01*
X85799667Y-126300667D01*
X85733000Y-126300667D01*
X86633000Y-125600667D02*
X86499666Y-125600667D01*
X86433000Y-125634000D01*
X86399666Y-125667333D01*
X86333000Y-125767333D01*
X86299666Y-125900667D01*
X86299666Y-126167333D01*
X86333000Y-126234000D01*
X86366333Y-126267333D01*
X86433000Y-126300667D01*
X86566333Y-126300667D01*
X86633000Y-126267333D01*
X86666333Y-126234000D01*
X86699666Y-126167333D01*
X86699666Y-126000667D01*
X86666333Y-125934000D01*
X86633000Y-125900667D01*
X86566333Y-125867333D01*
X86433000Y-125867333D01*
X86366333Y-125900667D01*
X86333000Y-125934000D01*
X86299666Y-126000667D01*
X55444333Y-117718667D02*
X55777667Y-117718667D01*
X55377667Y-117918667D02*
X55611000Y-117218667D01*
X55844333Y-117918667D01*
X56077667Y-117552000D02*
X56311000Y-117552000D01*
X56411000Y-117918667D02*
X56077667Y-117918667D01*
X56077667Y-117218667D01*
X56411000Y-117218667D01*
X57077666Y-117918667D02*
X56677666Y-117918667D01*
X56877666Y-117918667D02*
X56877666Y-117218667D01*
X56811000Y-117318667D01*
X56744333Y-117385333D01*
X56677666Y-117418667D01*
X70928667Y-107069666D02*
X70228667Y-107069666D01*
X70228667Y-106903000D01*
X70262000Y-106803000D01*
X70328667Y-106736333D01*
X70395333Y-106703000D01*
X70528667Y-106669666D01*
X70628667Y-106669666D01*
X70762000Y-106703000D01*
X70828667Y-106736333D01*
X70895333Y-106803000D01*
X70928667Y-106903000D01*
X70928667Y-107069666D01*
X70928667Y-106003000D02*
X70928667Y-106403000D01*
X70928667Y-106203000D02*
X70228667Y-106203000D01*
X70328667Y-106269666D01*
X70395333Y-106336333D01*
X70428667Y-106403000D01*
X74230667Y-107577666D02*
X73530667Y-107577666D01*
X73530667Y-107411000D01*
X73564000Y-107311000D01*
X73630667Y-107244333D01*
X73697333Y-107211000D01*
X73830667Y-107177666D01*
X73930667Y-107177666D01*
X74064000Y-107211000D01*
X74130667Y-107244333D01*
X74197333Y-107311000D01*
X74230667Y-107411000D01*
X74230667Y-107577666D01*
X73597333Y-106911000D02*
X73564000Y-106877666D01*
X73530667Y-106811000D01*
X73530667Y-106644333D01*
X73564000Y-106577666D01*
X73597333Y-106544333D01*
X73664000Y-106511000D01*
X73730667Y-106511000D01*
X73830667Y-106544333D01*
X74230667Y-106944333D01*
X74230667Y-106511000D01*
X79268667Y-100581667D02*
X79268667Y-101081667D01*
X79235333Y-101181667D01*
X79168667Y-101248333D01*
X79068667Y-101281667D01*
X79002000Y-101281667D01*
X79968666Y-101281667D02*
X79568666Y-101281667D01*
X79768666Y-101281667D02*
X79768666Y-100581667D01*
X79702000Y-100681667D01*
X79635333Y-100748333D01*
X79568666Y-100781667D01*
X79268667Y-103121667D02*
X79268667Y-103621667D01*
X79235333Y-103721667D01*
X79168667Y-103788333D01*
X79068667Y-103821667D01*
X79002000Y-103821667D01*
X79568666Y-103188333D02*
X79602000Y-103155000D01*
X79668666Y-103121667D01*
X79835333Y-103121667D01*
X79902000Y-103155000D01*
X79935333Y-103188333D01*
X79968666Y-103255000D01*
X79968666Y-103321667D01*
X79935333Y-103421667D01*
X79535333Y-103821667D01*
X79968666Y-103821667D01*
X87373667Y-100309333D02*
X87873667Y-100309333D01*
X87973667Y-100342667D01*
X88040333Y-100409333D01*
X88073667Y-100509333D01*
X88073667Y-100576000D01*
X87607000Y-99676000D02*
X88073667Y-99676000D01*
X87340333Y-99842667D02*
X87840333Y-100009334D01*
X87840333Y-99576000D01*
D10*
X85479000Y-101717857D02*
X85431381Y-101770238D01*
X85431381Y-101848810D01*
X85479000Y-101927381D01*
X85574238Y-101979762D01*
X85669476Y-102005953D01*
X85859952Y-102032143D01*
X86002810Y-102032143D01*
X86193286Y-102005953D01*
X86288524Y-101979762D01*
X86383762Y-101927381D01*
X86431381Y-101848810D01*
X86431381Y-101796429D01*
X86383762Y-101717857D01*
X86336143Y-101691667D01*
X86002810Y-101691667D01*
X86002810Y-101796429D01*
X85431381Y-101508334D02*
X85431381Y-101167857D01*
X85812333Y-101351191D01*
X85812333Y-101272619D01*
X85859952Y-101220238D01*
X85907571Y-101194048D01*
X86002810Y-101167857D01*
X86240905Y-101167857D01*
X86336143Y-101194048D01*
X86383762Y-101220238D01*
X86431381Y-101272619D01*
X86431381Y-101429762D01*
X86383762Y-101482143D01*
X86336143Y-101508334D01*
X85479000Y-105082857D02*
X85431381Y-105135238D01*
X85431381Y-105213810D01*
X85479000Y-105292381D01*
X85574238Y-105344762D01*
X85669476Y-105370953D01*
X85859952Y-105397143D01*
X86002810Y-105397143D01*
X86193286Y-105370953D01*
X86288524Y-105344762D01*
X86383762Y-105292381D01*
X86431381Y-105213810D01*
X86431381Y-105161429D01*
X86383762Y-105082857D01*
X86336143Y-105056667D01*
X86002810Y-105056667D01*
X86002810Y-105161429D01*
X85526619Y-104847143D02*
X85479000Y-104820953D01*
X85431381Y-104768572D01*
X85431381Y-104637619D01*
X85479000Y-104585238D01*
X85526619Y-104559048D01*
X85621857Y-104532857D01*
X85717095Y-104532857D01*
X85859952Y-104559048D01*
X86431381Y-104873334D01*
X86431381Y-104532857D01*
X85383762Y-103904285D02*
X86669476Y-104375714D01*
X86431381Y-103406667D02*
X85955190Y-103590000D01*
X86431381Y-103720953D02*
X85431381Y-103720953D01*
X85431381Y-103511429D01*
X85479000Y-103459048D01*
X85526619Y-103432857D01*
X85621857Y-103406667D01*
X85764714Y-103406667D01*
X85859952Y-103432857D01*
X85907571Y-103459048D01*
X85955190Y-103511429D01*
X85955190Y-103720953D01*
X85431381Y-103223334D02*
X86431381Y-102856667D01*
X85431381Y-102856667D02*
X86431381Y-103223334D01*
X85479000Y-107557381D02*
X85431381Y-107609762D01*
X85431381Y-107688334D01*
X85479000Y-107766905D01*
X85574238Y-107819286D01*
X85669476Y-107845477D01*
X85859952Y-107871667D01*
X86002810Y-107871667D01*
X86193286Y-107845477D01*
X86288524Y-107819286D01*
X86383762Y-107766905D01*
X86431381Y-107688334D01*
X86431381Y-107635953D01*
X86383762Y-107557381D01*
X86336143Y-107531191D01*
X86002810Y-107531191D01*
X86002810Y-107635953D01*
X86431381Y-107007381D02*
X86431381Y-107321667D01*
X86431381Y-107164524D02*
X85431381Y-107164524D01*
X85574238Y-107216905D01*
X85669476Y-107269286D01*
X85717095Y-107321667D01*
X85383762Y-106378809D02*
X86669476Y-106850238D01*
X85431381Y-106274048D02*
X85431381Y-105959762D01*
X86431381Y-106116905D02*
X85431381Y-106116905D01*
X85431381Y-105828810D02*
X86431381Y-105462143D01*
X85431381Y-105462143D02*
X86431381Y-105828810D01*
X86431381Y-110084286D02*
X85431381Y-110084286D01*
X86145667Y-109900952D01*
X85431381Y-109717619D01*
X86431381Y-109717619D01*
X85431381Y-109350953D02*
X85431381Y-109246191D01*
X85479000Y-109193810D01*
X85574238Y-109141429D01*
X85764714Y-109115238D01*
X86098048Y-109115238D01*
X86288524Y-109141429D01*
X86383762Y-109193810D01*
X86431381Y-109246191D01*
X86431381Y-109350953D01*
X86383762Y-109403334D01*
X86288524Y-109455715D01*
X86098048Y-109481905D01*
X85764714Y-109481905D01*
X85574238Y-109455715D01*
X85479000Y-109403334D01*
X85431381Y-109350953D01*
X86383762Y-108905715D02*
X86431381Y-108827144D01*
X86431381Y-108696191D01*
X86383762Y-108643810D01*
X86336143Y-108617620D01*
X86240905Y-108591429D01*
X86145667Y-108591429D01*
X86050429Y-108617620D01*
X86002810Y-108643810D01*
X85955190Y-108696191D01*
X85907571Y-108800953D01*
X85859952Y-108853334D01*
X85812333Y-108879525D01*
X85717095Y-108905715D01*
X85621857Y-108905715D01*
X85526619Y-108879525D01*
X85479000Y-108853334D01*
X85431381Y-108800953D01*
X85431381Y-108670001D01*
X85479000Y-108591429D01*
X86431381Y-108355715D02*
X85431381Y-108355715D01*
X86431381Y-112624286D02*
X85431381Y-112624286D01*
X86145667Y-112440952D01*
X85431381Y-112257619D01*
X86431381Y-112257619D01*
X86431381Y-111995715D02*
X85431381Y-111995715D01*
X86383762Y-111760000D02*
X86431381Y-111681429D01*
X86431381Y-111550476D01*
X86383762Y-111498095D01*
X86336143Y-111471905D01*
X86240905Y-111445714D01*
X86145667Y-111445714D01*
X86050429Y-111471905D01*
X86002810Y-111498095D01*
X85955190Y-111550476D01*
X85907571Y-111655238D01*
X85859952Y-111707619D01*
X85812333Y-111733810D01*
X85717095Y-111760000D01*
X85621857Y-111760000D01*
X85526619Y-111733810D01*
X85479000Y-111707619D01*
X85431381Y-111655238D01*
X85431381Y-111524286D01*
X85479000Y-111445714D01*
X85431381Y-111105238D02*
X85431381Y-111000476D01*
X85479000Y-110948095D01*
X85574238Y-110895714D01*
X85764714Y-110869523D01*
X86098048Y-110869523D01*
X86288524Y-110895714D01*
X86383762Y-110948095D01*
X86431381Y-111000476D01*
X86431381Y-111105238D01*
X86383762Y-111157619D01*
X86288524Y-111210000D01*
X86098048Y-111236190D01*
X85764714Y-111236190D01*
X85574238Y-111210000D01*
X85479000Y-111157619D01*
X85431381Y-111105238D01*
X86383762Y-115007143D02*
X86431381Y-114928572D01*
X86431381Y-114797619D01*
X86383762Y-114745238D01*
X86336143Y-114719048D01*
X86240905Y-114692857D01*
X86145667Y-114692857D01*
X86050429Y-114719048D01*
X86002810Y-114745238D01*
X85955190Y-114797619D01*
X85907571Y-114902381D01*
X85859952Y-114954762D01*
X85812333Y-114980953D01*
X85717095Y-115007143D01*
X85621857Y-115007143D01*
X85526619Y-114980953D01*
X85479000Y-114954762D01*
X85431381Y-114902381D01*
X85431381Y-114771429D01*
X85479000Y-114692857D01*
X86336143Y-114142857D02*
X86383762Y-114169047D01*
X86431381Y-114247619D01*
X86431381Y-114300000D01*
X86383762Y-114378571D01*
X86288524Y-114430952D01*
X86193286Y-114457143D01*
X86002810Y-114483333D01*
X85859952Y-114483333D01*
X85669476Y-114457143D01*
X85574238Y-114430952D01*
X85479000Y-114378571D01*
X85431381Y-114300000D01*
X85431381Y-114247619D01*
X85479000Y-114169047D01*
X85526619Y-114142857D01*
X86431381Y-113907143D02*
X85431381Y-113907143D01*
X86431381Y-113592857D02*
X85859952Y-113828571D01*
X85431381Y-113592857D02*
X86002810Y-113907143D01*
X86383762Y-117507857D02*
X86431381Y-117429286D01*
X86431381Y-117298333D01*
X86383762Y-117245952D01*
X86336143Y-117219762D01*
X86240905Y-117193571D01*
X86145667Y-117193571D01*
X86050429Y-117219762D01*
X86002810Y-117245952D01*
X85955190Y-117298333D01*
X85907571Y-117403095D01*
X85859952Y-117455476D01*
X85812333Y-117481667D01*
X85717095Y-117507857D01*
X85621857Y-117507857D01*
X85526619Y-117481667D01*
X85479000Y-117455476D01*
X85431381Y-117403095D01*
X85431381Y-117272143D01*
X85479000Y-117193571D01*
X86431381Y-116957857D02*
X85431381Y-116957857D01*
X85431381Y-116826904D01*
X85479000Y-116748333D01*
X85574238Y-116695952D01*
X85669476Y-116669761D01*
X85859952Y-116643571D01*
X86002810Y-116643571D01*
X86193286Y-116669761D01*
X86288524Y-116695952D01*
X86383762Y-116748333D01*
X86431381Y-116826904D01*
X86431381Y-116957857D01*
X86145667Y-116434047D02*
X86145667Y-116172142D01*
X86431381Y-116486428D02*
X85431381Y-116303095D01*
X86431381Y-116119761D01*
X86383762Y-120034762D02*
X86431381Y-119956191D01*
X86431381Y-119825238D01*
X86383762Y-119772857D01*
X86336143Y-119746667D01*
X86240905Y-119720476D01*
X86145667Y-119720476D01*
X86050429Y-119746667D01*
X86002810Y-119772857D01*
X85955190Y-119825238D01*
X85907571Y-119930000D01*
X85859952Y-119982381D01*
X85812333Y-120008572D01*
X85717095Y-120034762D01*
X85621857Y-120034762D01*
X85526619Y-120008572D01*
X85479000Y-119982381D01*
X85431381Y-119930000D01*
X85431381Y-119799048D01*
X85479000Y-119720476D01*
X86336143Y-119170476D02*
X86383762Y-119196666D01*
X86431381Y-119275238D01*
X86431381Y-119327619D01*
X86383762Y-119406190D01*
X86288524Y-119458571D01*
X86193286Y-119484762D01*
X86002810Y-119510952D01*
X85859952Y-119510952D01*
X85669476Y-119484762D01*
X85574238Y-119458571D01*
X85479000Y-119406190D01*
X85431381Y-119327619D01*
X85431381Y-119275238D01*
X85479000Y-119196666D01*
X85526619Y-119170476D01*
X86431381Y-118672857D02*
X86431381Y-118934762D01*
X85431381Y-118934762D01*
X85431381Y-122600953D02*
X85431381Y-122260476D01*
X85812333Y-122443810D01*
X85812333Y-122365238D01*
X85859952Y-122312857D01*
X85907571Y-122286667D01*
X86002810Y-122260476D01*
X86240905Y-122260476D01*
X86336143Y-122286667D01*
X86383762Y-122312857D01*
X86431381Y-122365238D01*
X86431381Y-122522381D01*
X86383762Y-122574762D01*
X86336143Y-122600953D01*
X85431381Y-122103333D02*
X86431381Y-121920000D01*
X85431381Y-121736666D01*
X85431381Y-121605714D02*
X85431381Y-121265237D01*
X85812333Y-121448571D01*
X85812333Y-121369999D01*
X85859952Y-121317618D01*
X85907571Y-121291428D01*
X86002810Y-121265237D01*
X86240905Y-121265237D01*
X86336143Y-121291428D01*
X86383762Y-121317618D01*
X86431381Y-121369999D01*
X86431381Y-121527142D01*
X86383762Y-121579523D01*
X86336143Y-121605714D01*
X85479000Y-124879047D02*
X85431381Y-124931428D01*
X85431381Y-125010000D01*
X85479000Y-125088571D01*
X85574238Y-125140952D01*
X85669476Y-125167143D01*
X85859952Y-125193333D01*
X86002810Y-125193333D01*
X86193286Y-125167143D01*
X86288524Y-125140952D01*
X86383762Y-125088571D01*
X86431381Y-125010000D01*
X86431381Y-124957619D01*
X86383762Y-124879047D01*
X86336143Y-124852857D01*
X86002810Y-124852857D01*
X86002810Y-124957619D01*
X86431381Y-124617143D02*
X85431381Y-124617143D01*
X86431381Y-124302857D01*
X85431381Y-124302857D01*
X86431381Y-124040953D02*
X85431381Y-124040953D01*
X85431381Y-123910000D01*
X85479000Y-123831429D01*
X85574238Y-123779048D01*
X85669476Y-123752857D01*
X85859952Y-123726667D01*
X86002810Y-123726667D01*
X86193286Y-123752857D01*
X86288524Y-123779048D01*
X86383762Y-123831429D01*
X86431381Y-123910000D01*
X86431381Y-124040953D01*
D12*
X80746667Y-110741667D02*
X80746667Y-111308333D01*
X80780000Y-111375000D01*
X80813333Y-111408333D01*
X80880000Y-111441667D01*
X81013333Y-111441667D01*
X81080000Y-111408333D01*
X81113333Y-111375000D01*
X81146667Y-111308333D01*
X81146667Y-110741667D01*
X81846666Y-111441667D02*
X81446666Y-111441667D01*
X81646666Y-111441667D02*
X81646666Y-110741667D01*
X81580000Y-110841667D01*
X81513333Y-110908333D01*
X81446666Y-110941667D01*
X69326827Y-111356347D02*
X69326827Y-111923013D01*
X69360160Y-111989680D01*
X69393493Y-112023013D01*
X69460160Y-112056347D01*
X69593493Y-112056347D01*
X69660160Y-112023013D01*
X69693493Y-111989680D01*
X69726827Y-111923013D01*
X69726827Y-111356347D01*
X69993493Y-111356347D02*
X70426826Y-111356347D01*
X70193493Y-111623013D01*
X70293493Y-111623013D01*
X70360160Y-111656347D01*
X70393493Y-111689680D01*
X70426826Y-111756347D01*
X70426826Y-111923013D01*
X70393493Y-111989680D01*
X70360160Y-112023013D01*
X70293493Y-112056347D01*
X70093493Y-112056347D01*
X70026826Y-112023013D01*
X69993493Y-111989680D01*
X60853667Y-120393667D02*
X60853667Y-120893667D01*
X60820333Y-120993667D01*
X60753667Y-121060333D01*
X60653667Y-121093667D01*
X60587000Y-121093667D01*
X61520333Y-120393667D02*
X61187000Y-120393667D01*
X61153666Y-120727000D01*
X61187000Y-120693667D01*
X61253666Y-120660333D01*
X61420333Y-120660333D01*
X61487000Y-120693667D01*
X61520333Y-120727000D01*
X61553666Y-120793667D01*
X61553666Y-120960333D01*
X61520333Y-121027000D01*
X61487000Y-121060333D01*
X61420333Y-121093667D01*
X61253666Y-121093667D01*
X61187000Y-121060333D01*
X61153666Y-121027000D01*
X79512334Y-105533000D02*
X79479000Y-105566333D01*
X79379000Y-105599667D01*
X79312334Y-105599667D01*
X79212334Y-105566333D01*
X79145667Y-105499667D01*
X79112334Y-105433000D01*
X79079000Y-105299667D01*
X79079000Y-105199667D01*
X79112334Y-105066333D01*
X79145667Y-104999667D01*
X79212334Y-104933000D01*
X79312334Y-104899667D01*
X79379000Y-104899667D01*
X79479000Y-104933000D01*
X79512334Y-104966333D01*
X80179000Y-105599667D02*
X79779000Y-105599667D01*
X79979000Y-105599667D02*
X79979000Y-104899667D01*
X79912334Y-104999667D01*
X79845667Y-105066333D01*
X79779000Y-105099667D01*
X75702334Y-110740000D02*
X75669000Y-110773333D01*
X75569000Y-110806667D01*
X75502334Y-110806667D01*
X75402334Y-110773333D01*
X75335667Y-110706667D01*
X75302334Y-110640000D01*
X75269000Y-110506667D01*
X75269000Y-110406667D01*
X75302334Y-110273333D01*
X75335667Y-110206667D01*
X75402334Y-110140000D01*
X75502334Y-110106667D01*
X75569000Y-110106667D01*
X75669000Y-110140000D01*
X75702334Y-110173333D01*
X75969000Y-110173333D02*
X76002334Y-110140000D01*
X76069000Y-110106667D01*
X76235667Y-110106667D01*
X76302334Y-110140000D01*
X76335667Y-110173333D01*
X76369000Y-110240000D01*
X76369000Y-110306667D01*
X76335667Y-110406667D01*
X75935667Y-110806667D01*
X76369000Y-110806667D01*
X74164000Y-104256666D02*
X74197333Y-104290000D01*
X74230667Y-104390000D01*
X74230667Y-104456666D01*
X74197333Y-104556666D01*
X74130667Y-104623333D01*
X74064000Y-104656666D01*
X73930667Y-104690000D01*
X73830667Y-104690000D01*
X73697333Y-104656666D01*
X73630667Y-104623333D01*
X73564000Y-104556666D01*
X73530667Y-104456666D01*
X73530667Y-104390000D01*
X73564000Y-104290000D01*
X73597333Y-104256666D01*
X73530667Y-104023333D02*
X73530667Y-103590000D01*
X73797333Y-103823333D01*
X73797333Y-103723333D01*
X73830667Y-103656666D01*
X73864000Y-103623333D01*
X73930667Y-103590000D01*
X74097333Y-103590000D01*
X74164000Y-103623333D01*
X74197333Y-103656666D01*
X74230667Y-103723333D01*
X74230667Y-103923333D01*
X74197333Y-103990000D01*
X74164000Y-104023333D01*
X69973000Y-119496666D02*
X70006333Y-119530000D01*
X70039667Y-119630000D01*
X70039667Y-119696666D01*
X70006333Y-119796666D01*
X69939667Y-119863333D01*
X69873000Y-119896666D01*
X69739667Y-119930000D01*
X69639667Y-119930000D01*
X69506333Y-119896666D01*
X69439667Y-119863333D01*
X69373000Y-119796666D01*
X69339667Y-119696666D01*
X69339667Y-119630000D01*
X69373000Y-119530000D01*
X69406333Y-119496666D01*
X69573000Y-118896666D02*
X70039667Y-118896666D01*
X69306333Y-119063333D02*
X69806333Y-119230000D01*
X69806333Y-118796666D01*
X73289334Y-118487000D02*
X73256000Y-118520333D01*
X73156000Y-118553667D01*
X73089334Y-118553667D01*
X72989334Y-118520333D01*
X72922667Y-118453667D01*
X72889334Y-118387000D01*
X72856000Y-118253667D01*
X72856000Y-118153667D01*
X72889334Y-118020333D01*
X72922667Y-117953667D01*
X72989334Y-117887000D01*
X73089334Y-117853667D01*
X73156000Y-117853667D01*
X73256000Y-117887000D01*
X73289334Y-117920333D01*
X73922667Y-117853667D02*
X73589334Y-117853667D01*
X73556000Y-118187000D01*
X73589334Y-118153667D01*
X73656000Y-118120333D01*
X73822667Y-118120333D01*
X73889334Y-118153667D01*
X73922667Y-118187000D01*
X73956000Y-118253667D01*
X73956000Y-118420333D01*
X73922667Y-118487000D01*
X73889334Y-118520333D01*
X73822667Y-118553667D01*
X73656000Y-118553667D01*
X73589334Y-118520333D01*
X73556000Y-118487000D01*
X83195334Y-110740000D02*
X83162000Y-110773333D01*
X83062000Y-110806667D01*
X82995334Y-110806667D01*
X82895334Y-110773333D01*
X82828667Y-110706667D01*
X82795334Y-110640000D01*
X82762000Y-110506667D01*
X82762000Y-110406667D01*
X82795334Y-110273333D01*
X82828667Y-110206667D01*
X82895334Y-110140000D01*
X82995334Y-110106667D01*
X83062000Y-110106667D01*
X83162000Y-110140000D01*
X83195334Y-110173333D01*
X83795334Y-110106667D02*
X83662000Y-110106667D01*
X83595334Y-110140000D01*
X83562000Y-110173333D01*
X83495334Y-110273333D01*
X83462000Y-110406667D01*
X83462000Y-110673333D01*
X83495334Y-110740000D01*
X83528667Y-110773333D01*
X83595334Y-110806667D01*
X83728667Y-110806667D01*
X83795334Y-110773333D01*
X83828667Y-110740000D01*
X83862000Y-110673333D01*
X83862000Y-110506667D01*
X83828667Y-110440000D01*
X83795334Y-110406667D01*
X83728667Y-110373333D01*
X83595334Y-110373333D01*
X83528667Y-110406667D01*
X83495334Y-110440000D01*
X83462000Y-110506667D01*
X74813334Y-109470000D02*
X74780000Y-109503333D01*
X74680000Y-109536667D01*
X74613334Y-109536667D01*
X74513334Y-109503333D01*
X74446667Y-109436667D01*
X74413334Y-109370000D01*
X74380000Y-109236667D01*
X74380000Y-109136667D01*
X74413334Y-109003333D01*
X74446667Y-108936667D01*
X74513334Y-108870000D01*
X74613334Y-108836667D01*
X74680000Y-108836667D01*
X74780000Y-108870000D01*
X74813334Y-108903333D01*
X75046667Y-108836667D02*
X75513334Y-108836667D01*
X75213334Y-109536667D01*
X64385000Y-120639666D02*
X64418333Y-120673000D01*
X64451667Y-120773000D01*
X64451667Y-120839666D01*
X64418333Y-120939666D01*
X64351667Y-121006333D01*
X64285000Y-121039666D01*
X64151667Y-121073000D01*
X64051667Y-121073000D01*
X63918333Y-121039666D01*
X63851667Y-121006333D01*
X63785000Y-120939666D01*
X63751667Y-120839666D01*
X63751667Y-120773000D01*
X63785000Y-120673000D01*
X63818333Y-120639666D01*
X64051667Y-120239666D02*
X64018333Y-120306333D01*
X63985000Y-120339666D01*
X63918333Y-120373000D01*
X63885000Y-120373000D01*
X63818333Y-120339666D01*
X63785000Y-120306333D01*
X63751667Y-120239666D01*
X63751667Y-120106333D01*
X63785000Y-120039666D01*
X63818333Y-120006333D01*
X63885000Y-119973000D01*
X63918333Y-119973000D01*
X63985000Y-120006333D01*
X64018333Y-120039666D01*
X64051667Y-120106333D01*
X64051667Y-120239666D01*
X64085000Y-120306333D01*
X64118333Y-120339666D01*
X64185000Y-120373000D01*
X64318333Y-120373000D01*
X64385000Y-120339666D01*
X64418333Y-120306333D01*
X64451667Y-120239666D01*
X64451667Y-120106333D01*
X64418333Y-120039666D01*
X64385000Y-120006333D01*
X64318333Y-119973000D01*
X64185000Y-119973000D01*
X64118333Y-120006333D01*
X64085000Y-120039666D01*
X64051667Y-120106333D01*
X72146334Y-118487000D02*
X72113000Y-118520333D01*
X72013000Y-118553667D01*
X71946334Y-118553667D01*
X71846334Y-118520333D01*
X71779667Y-118453667D01*
X71746334Y-118387000D01*
X71713000Y-118253667D01*
X71713000Y-118153667D01*
X71746334Y-118020333D01*
X71779667Y-117953667D01*
X71846334Y-117887000D01*
X71946334Y-117853667D01*
X72013000Y-117853667D01*
X72113000Y-117887000D01*
X72146334Y-117920333D01*
X72479667Y-118553667D02*
X72613000Y-118553667D01*
X72679667Y-118520333D01*
X72713000Y-118487000D01*
X72779667Y-118387000D01*
X72813000Y-118253667D01*
X72813000Y-117987000D01*
X72779667Y-117920333D01*
X72746334Y-117887000D01*
X72679667Y-117853667D01*
X72546334Y-117853667D01*
X72479667Y-117887000D01*
X72446334Y-117920333D01*
X72413000Y-117987000D01*
X72413000Y-118153667D01*
X72446334Y-118220333D01*
X72479667Y-118253667D01*
X72546334Y-118287000D01*
X72679667Y-118287000D01*
X72746334Y-118253667D01*
X72779667Y-118220333D01*
X72813000Y-118153667D01*
X75115000Y-114677000D02*
X75081666Y-114710333D01*
X74981666Y-114743667D01*
X74915000Y-114743667D01*
X74815000Y-114710333D01*
X74748333Y-114643667D01*
X74715000Y-114577000D01*
X74681666Y-114443667D01*
X74681666Y-114343667D01*
X74715000Y-114210333D01*
X74748333Y-114143667D01*
X74815000Y-114077000D01*
X74915000Y-114043667D01*
X74981666Y-114043667D01*
X75081666Y-114077000D01*
X75115000Y-114110333D01*
X75781666Y-114743667D02*
X75381666Y-114743667D01*
X75581666Y-114743667D02*
X75581666Y-114043667D01*
X75515000Y-114143667D01*
X75448333Y-114210333D01*
X75381666Y-114243667D01*
X76215000Y-114043667D02*
X76281667Y-114043667D01*
X76348333Y-114077000D01*
X76381667Y-114110333D01*
X76415000Y-114177000D01*
X76448333Y-114310333D01*
X76448333Y-114477000D01*
X76415000Y-114610333D01*
X76381667Y-114677000D01*
X76348333Y-114710333D01*
X76281667Y-114743667D01*
X76215000Y-114743667D01*
X76148333Y-114710333D01*
X76115000Y-114677000D01*
X76081667Y-114610333D01*
X76048333Y-114477000D01*
X76048333Y-114310333D01*
X76081667Y-114177000D01*
X76115000Y-114110333D01*
X76148333Y-114077000D01*
X76215000Y-114043667D01*
X62607000Y-111194000D02*
X62640333Y-111227334D01*
X62673667Y-111327334D01*
X62673667Y-111394000D01*
X62640333Y-111494000D01*
X62573667Y-111560667D01*
X62507000Y-111594000D01*
X62373667Y-111627334D01*
X62273667Y-111627334D01*
X62140333Y-111594000D01*
X62073667Y-111560667D01*
X62007000Y-111494000D01*
X61973667Y-111394000D01*
X61973667Y-111327334D01*
X62007000Y-111227334D01*
X62040333Y-111194000D01*
X62673667Y-110527334D02*
X62673667Y-110927334D01*
X62673667Y-110727334D02*
X61973667Y-110727334D01*
X62073667Y-110794000D01*
X62140333Y-110860667D01*
X62173667Y-110927334D01*
X62040333Y-110260667D02*
X62007000Y-110227333D01*
X61973667Y-110160667D01*
X61973667Y-109994000D01*
X62007000Y-109927333D01*
X62040333Y-109894000D01*
X62107000Y-109860667D01*
X62173667Y-109860667D01*
X62273667Y-109894000D01*
X62673667Y-110294000D01*
X62673667Y-109860667D01*
X67687000Y-118052000D02*
X67720333Y-118085334D01*
X67753667Y-118185334D01*
X67753667Y-118252000D01*
X67720333Y-118352000D01*
X67653667Y-118418667D01*
X67587000Y-118452000D01*
X67453667Y-118485334D01*
X67353667Y-118485334D01*
X67220333Y-118452000D01*
X67153667Y-118418667D01*
X67087000Y-118352000D01*
X67053667Y-118252000D01*
X67053667Y-118185334D01*
X67087000Y-118085334D01*
X67120333Y-118052000D01*
X67753667Y-117385334D02*
X67753667Y-117785334D01*
X67753667Y-117585334D02*
X67053667Y-117585334D01*
X67153667Y-117652000D01*
X67220333Y-117718667D01*
X67253667Y-117785334D01*
X67053667Y-117152000D02*
X67053667Y-116718667D01*
X67320333Y-116952000D01*
X67320333Y-116852000D01*
X67353667Y-116785333D01*
X67387000Y-116752000D01*
X67453667Y-116718667D01*
X67620333Y-116718667D01*
X67687000Y-116752000D01*
X67720333Y-116785333D01*
X67753667Y-116852000D01*
X67753667Y-117052000D01*
X67720333Y-117118667D01*
X67687000Y-117152000D01*
X64258000Y-115258000D02*
X64291333Y-115291334D01*
X64324667Y-115391334D01*
X64324667Y-115458000D01*
X64291333Y-115558000D01*
X64224667Y-115624667D01*
X64158000Y-115658000D01*
X64024667Y-115691334D01*
X63924667Y-115691334D01*
X63791333Y-115658000D01*
X63724667Y-115624667D01*
X63658000Y-115558000D01*
X63624667Y-115458000D01*
X63624667Y-115391334D01*
X63658000Y-115291334D01*
X63691333Y-115258000D01*
X64324667Y-114591334D02*
X64324667Y-114991334D01*
X64324667Y-114791334D02*
X63624667Y-114791334D01*
X63724667Y-114858000D01*
X63791333Y-114924667D01*
X63824667Y-114991334D01*
X63858000Y-113991333D02*
X64324667Y-113991333D01*
X63591333Y-114158000D02*
X64091333Y-114324667D01*
X64091333Y-113891333D01*
X61526000Y-116201000D02*
X61492666Y-116234333D01*
X61392666Y-116267667D01*
X61326000Y-116267667D01*
X61226000Y-116234333D01*
X61159333Y-116167667D01*
X61126000Y-116101000D01*
X61092666Y-115967667D01*
X61092666Y-115867667D01*
X61126000Y-115734333D01*
X61159333Y-115667667D01*
X61226000Y-115601000D01*
X61326000Y-115567667D01*
X61392666Y-115567667D01*
X61492666Y-115601000D01*
X61526000Y-115634333D01*
X62192666Y-116267667D02*
X61792666Y-116267667D01*
X61992666Y-116267667D02*
X61992666Y-115567667D01*
X61926000Y-115667667D01*
X61859333Y-115734333D01*
X61792666Y-115767667D01*
X62826000Y-115567667D02*
X62492667Y-115567667D01*
X62459333Y-115901000D01*
X62492667Y-115867667D01*
X62559333Y-115834333D01*
X62726000Y-115834333D01*
X62792667Y-115867667D01*
X62826000Y-115901000D01*
X62859333Y-115967667D01*
X62859333Y-116134333D01*
X62826000Y-116201000D01*
X62792667Y-116234333D01*
X62726000Y-116267667D01*
X62559333Y-116267667D01*
X62492667Y-116234333D01*
X62459333Y-116201000D01*
X66671000Y-118687000D02*
X66704333Y-118720334D01*
X66737667Y-118820334D01*
X66737667Y-118887000D01*
X66704333Y-118987000D01*
X66637667Y-119053667D01*
X66571000Y-119087000D01*
X66437667Y-119120334D01*
X66337667Y-119120334D01*
X66204333Y-119087000D01*
X66137667Y-119053667D01*
X66071000Y-118987000D01*
X66037667Y-118887000D01*
X66037667Y-118820334D01*
X66071000Y-118720334D01*
X66104333Y-118687000D01*
X66737667Y-118020334D02*
X66737667Y-118420334D01*
X66737667Y-118220334D02*
X66037667Y-118220334D01*
X66137667Y-118287000D01*
X66204333Y-118353667D01*
X66237667Y-118420334D01*
X66037667Y-117420333D02*
X66037667Y-117553667D01*
X66071000Y-117620333D01*
X66104333Y-117653667D01*
X66204333Y-117720333D01*
X66337667Y-117753667D01*
X66604333Y-117753667D01*
X66671000Y-117720333D01*
X66704333Y-117687000D01*
X66737667Y-117620333D01*
X66737667Y-117487000D01*
X66704333Y-117420333D01*
X66671000Y-117387000D01*
X66604333Y-117353667D01*
X66437667Y-117353667D01*
X66371000Y-117387000D01*
X66337667Y-117420333D01*
X66304333Y-117487000D01*
X66304333Y-117620333D01*
X66337667Y-117687000D01*
X66371000Y-117720333D01*
X66437667Y-117753667D01*
X79244000Y-118306000D02*
X79277333Y-118339334D01*
X79310667Y-118439334D01*
X79310667Y-118506000D01*
X79277333Y-118606000D01*
X79210667Y-118672667D01*
X79144000Y-118706000D01*
X79010667Y-118739334D01*
X78910667Y-118739334D01*
X78777333Y-118706000D01*
X78710667Y-118672667D01*
X78644000Y-118606000D01*
X78610667Y-118506000D01*
X78610667Y-118439334D01*
X78644000Y-118339334D01*
X78677333Y-118306000D01*
X79310667Y-117639334D02*
X79310667Y-118039334D01*
X79310667Y-117839334D02*
X78610667Y-117839334D01*
X78710667Y-117906000D01*
X78777333Y-117972667D01*
X78810667Y-118039334D01*
X78610667Y-117406000D02*
X78610667Y-116939333D01*
X79310667Y-117239333D01*
X62607000Y-119068000D02*
X62640333Y-119101334D01*
X62673667Y-119201334D01*
X62673667Y-119268000D01*
X62640333Y-119368000D01*
X62573667Y-119434667D01*
X62507000Y-119468000D01*
X62373667Y-119501334D01*
X62273667Y-119501334D01*
X62140333Y-119468000D01*
X62073667Y-119434667D01*
X62007000Y-119368000D01*
X61973667Y-119268000D01*
X61973667Y-119201334D01*
X62007000Y-119101334D01*
X62040333Y-119068000D01*
X62673667Y-118401334D02*
X62673667Y-118801334D01*
X62673667Y-118601334D02*
X61973667Y-118601334D01*
X62073667Y-118668000D01*
X62140333Y-118734667D01*
X62173667Y-118801334D01*
X62273667Y-118001333D02*
X62240333Y-118068000D01*
X62207000Y-118101333D01*
X62140333Y-118134667D01*
X62107000Y-118134667D01*
X62040333Y-118101333D01*
X62007000Y-118068000D01*
X61973667Y-118001333D01*
X61973667Y-117868000D01*
X62007000Y-117801333D01*
X62040333Y-117768000D01*
X62107000Y-117734667D01*
X62140333Y-117734667D01*
X62207000Y-117768000D01*
X62240333Y-117801333D01*
X62273667Y-117868000D01*
X62273667Y-118001333D01*
X62307000Y-118068000D01*
X62340333Y-118101333D01*
X62407000Y-118134667D01*
X62540333Y-118134667D01*
X62607000Y-118101333D01*
X62640333Y-118068000D01*
X62673667Y-118001333D01*
X62673667Y-117868000D01*
X62640333Y-117801333D01*
X62607000Y-117768000D01*
X62540333Y-117734667D01*
X62407000Y-117734667D01*
X62340333Y-117768000D01*
X62307000Y-117801333D01*
X62273667Y-117868000D01*
X62673667Y-112511667D02*
X62673667Y-112845000D01*
X61973667Y-112845000D01*
X62673667Y-111911667D02*
X62673667Y-112311667D01*
X62673667Y-112111667D02*
X61973667Y-112111667D01*
X62073667Y-112178333D01*
X62140333Y-112245000D01*
X62173667Y-112311667D01*
X65848667Y-113654667D02*
X65848667Y-113988000D01*
X65148667Y-113988000D01*
X65215333Y-113454667D02*
X65182000Y-113421333D01*
X65148667Y-113354667D01*
X65148667Y-113188000D01*
X65182000Y-113121333D01*
X65215333Y-113088000D01*
X65282000Y-113054667D01*
X65348667Y-113054667D01*
X65448667Y-113088000D01*
X65848667Y-113488000D01*
X65848667Y-113054667D01*
X74940333Y-118807667D02*
X74607000Y-118807667D01*
X74607000Y-118107667D01*
X75107000Y-118107667D02*
X75540333Y-118107667D01*
X75307000Y-118374333D01*
X75407000Y-118374333D01*
X75473667Y-118407667D01*
X75507000Y-118441000D01*
X75540333Y-118507667D01*
X75540333Y-118674333D01*
X75507000Y-118741000D01*
X75473667Y-118774333D01*
X75407000Y-118807667D01*
X75207000Y-118807667D01*
X75140333Y-118774333D01*
X75107000Y-118741000D01*
X77607333Y-114997667D02*
X77274000Y-114997667D01*
X77274000Y-114297667D01*
X78140667Y-114531000D02*
X78140667Y-114997667D01*
X77974000Y-114264333D02*
X77807333Y-114764333D01*
X78240667Y-114764333D01*
X62673667Y-116956667D02*
X62673667Y-117290000D01*
X61973667Y-117290000D01*
X61973667Y-116390000D02*
X61973667Y-116723333D01*
X62307000Y-116756667D01*
X62273667Y-116723333D01*
X62240333Y-116656667D01*
X62240333Y-116490000D01*
X62273667Y-116423333D01*
X62307000Y-116390000D01*
X62373667Y-116356667D01*
X62540333Y-116356667D01*
X62607000Y-116390000D01*
X62640333Y-116423333D01*
X62673667Y-116490000D01*
X62673667Y-116656667D01*
X62640333Y-116723333D01*
X62607000Y-116756667D01*
X84592334Y-109536667D02*
X84359000Y-109203333D01*
X84192334Y-109536667D02*
X84192334Y-108836667D01*
X84459000Y-108836667D01*
X84525667Y-108870000D01*
X84559000Y-108903333D01*
X84592334Y-108970000D01*
X84592334Y-109070000D01*
X84559000Y-109136667D01*
X84525667Y-109170000D01*
X84459000Y-109203333D01*
X84192334Y-109203333D01*
X85259000Y-109536667D02*
X84859000Y-109536667D01*
X85059000Y-109536667D02*
X85059000Y-108836667D01*
X84992334Y-108936667D01*
X84925667Y-109003333D01*
X84859000Y-109036667D01*
X84592334Y-110806667D02*
X84359000Y-110473333D01*
X84192334Y-110806667D02*
X84192334Y-110106667D01*
X84459000Y-110106667D01*
X84525667Y-110140000D01*
X84559000Y-110173333D01*
X84592334Y-110240000D01*
X84592334Y-110340000D01*
X84559000Y-110406667D01*
X84525667Y-110440000D01*
X84459000Y-110473333D01*
X84192334Y-110473333D01*
X84859000Y-110173333D02*
X84892334Y-110140000D01*
X84959000Y-110106667D01*
X85125667Y-110106667D01*
X85192334Y-110140000D01*
X85225667Y-110173333D01*
X85259000Y-110240000D01*
X85259000Y-110306667D01*
X85225667Y-110406667D01*
X84825667Y-110806667D01*
X85259000Y-110806667D01*
X71182667Y-105145666D02*
X70849333Y-105379000D01*
X71182667Y-105545666D02*
X70482667Y-105545666D01*
X70482667Y-105279000D01*
X70516000Y-105212333D01*
X70549333Y-105179000D01*
X70616000Y-105145666D01*
X70716000Y-105145666D01*
X70782667Y-105179000D01*
X70816000Y-105212333D01*
X70849333Y-105279000D01*
X70849333Y-105545666D01*
X70482667Y-104912333D02*
X70482667Y-104479000D01*
X70749333Y-104712333D01*
X70749333Y-104612333D01*
X70782667Y-104545666D01*
X70816000Y-104512333D01*
X70882667Y-104479000D01*
X71049333Y-104479000D01*
X71116000Y-104512333D01*
X71149333Y-104545666D01*
X71182667Y-104612333D01*
X71182667Y-104812333D01*
X71149333Y-104879000D01*
X71116000Y-104912333D01*
X77913667Y-101208666D02*
X77580333Y-101442000D01*
X77913667Y-101608666D02*
X77213667Y-101608666D01*
X77213667Y-101342000D01*
X77247000Y-101275333D01*
X77280333Y-101242000D01*
X77347000Y-101208666D01*
X77447000Y-101208666D01*
X77513667Y-101242000D01*
X77547000Y-101275333D01*
X77580333Y-101342000D01*
X77580333Y-101608666D01*
X77447000Y-100608666D02*
X77913667Y-100608666D01*
X77180333Y-100775333D02*
X77680333Y-100942000D01*
X77680333Y-100508666D01*
X84592334Y-110171667D02*
X84359000Y-109838333D01*
X84192334Y-110171667D02*
X84192334Y-109471667D01*
X84459000Y-109471667D01*
X84525667Y-109505000D01*
X84559000Y-109538333D01*
X84592334Y-109605000D01*
X84592334Y-109705000D01*
X84559000Y-109771667D01*
X84525667Y-109805000D01*
X84459000Y-109838333D01*
X84192334Y-109838333D01*
X85225667Y-109471667D02*
X84892334Y-109471667D01*
X84859000Y-109805000D01*
X84892334Y-109771667D01*
X84959000Y-109738333D01*
X85125667Y-109738333D01*
X85192334Y-109771667D01*
X85225667Y-109805000D01*
X85259000Y-109871667D01*
X85259000Y-110038333D01*
X85225667Y-110105000D01*
X85192334Y-110138333D01*
X85125667Y-110171667D01*
X84959000Y-110171667D01*
X84892334Y-110138333D01*
X84859000Y-110105000D01*
X73468667Y-103113666D02*
X73135333Y-103347000D01*
X73468667Y-103513666D02*
X72768667Y-103513666D01*
X72768667Y-103247000D01*
X72802000Y-103180333D01*
X72835333Y-103147000D01*
X72902000Y-103113666D01*
X73002000Y-103113666D01*
X73068667Y-103147000D01*
X73102000Y-103180333D01*
X73135333Y-103247000D01*
X73135333Y-103513666D01*
X72768667Y-102513666D02*
X72768667Y-102647000D01*
X72802000Y-102713666D01*
X72835333Y-102747000D01*
X72935333Y-102813666D01*
X73068667Y-102847000D01*
X73335333Y-102847000D01*
X73402000Y-102813666D01*
X73435333Y-102780333D01*
X73468667Y-102713666D01*
X73468667Y-102580333D01*
X73435333Y-102513666D01*
X73402000Y-102480333D01*
X73335333Y-102447000D01*
X73168667Y-102447000D01*
X73102000Y-102480333D01*
X73068667Y-102513666D01*
X73035333Y-102580333D01*
X73035333Y-102713666D01*
X73068667Y-102780333D01*
X73102000Y-102813666D01*
X73168667Y-102847000D01*
X71892334Y-103440667D02*
X71659000Y-103107333D01*
X71492334Y-103440667D02*
X71492334Y-102740667D01*
X71759000Y-102740667D01*
X71825667Y-102774000D01*
X71859000Y-102807333D01*
X71892334Y-102874000D01*
X71892334Y-102974000D01*
X71859000Y-103040667D01*
X71825667Y-103074000D01*
X71759000Y-103107333D01*
X71492334Y-103107333D01*
X72125667Y-102740667D02*
X72592334Y-102740667D01*
X72292334Y-103440667D01*
X69404667Y-104256666D02*
X69071333Y-104490000D01*
X69404667Y-104656666D02*
X68704667Y-104656666D01*
X68704667Y-104390000D01*
X68738000Y-104323333D01*
X68771333Y-104290000D01*
X68838000Y-104256666D01*
X68938000Y-104256666D01*
X69004667Y-104290000D01*
X69038000Y-104323333D01*
X69071333Y-104390000D01*
X69071333Y-104656666D01*
X69004667Y-103856666D02*
X68971333Y-103923333D01*
X68938000Y-103956666D01*
X68871333Y-103990000D01*
X68838000Y-103990000D01*
X68771333Y-103956666D01*
X68738000Y-103923333D01*
X68704667Y-103856666D01*
X68704667Y-103723333D01*
X68738000Y-103656666D01*
X68771333Y-103623333D01*
X68838000Y-103590000D01*
X68871333Y-103590000D01*
X68938000Y-103623333D01*
X68971333Y-103656666D01*
X69004667Y-103723333D01*
X69004667Y-103856666D01*
X69038000Y-103923333D01*
X69071333Y-103956666D01*
X69138000Y-103990000D01*
X69271333Y-103990000D01*
X69338000Y-103956666D01*
X69371333Y-103923333D01*
X69404667Y-103856666D01*
X69404667Y-103723333D01*
X69371333Y-103656666D01*
X69338000Y-103623333D01*
X69271333Y-103590000D01*
X69138000Y-103590000D01*
X69071333Y-103623333D01*
X69038000Y-103656666D01*
X69004667Y-103723333D01*
X66431334Y-103440667D02*
X66198000Y-103107333D01*
X66031334Y-103440667D02*
X66031334Y-102740667D01*
X66298000Y-102740667D01*
X66364667Y-102774000D01*
X66398000Y-102807333D01*
X66431334Y-102874000D01*
X66431334Y-102974000D01*
X66398000Y-103040667D01*
X66364667Y-103074000D01*
X66298000Y-103107333D01*
X66031334Y-103107333D01*
X66764667Y-103440667D02*
X66898000Y-103440667D01*
X66964667Y-103407333D01*
X66998000Y-103374000D01*
X67064667Y-103274000D01*
X67098000Y-103140667D01*
X67098000Y-102874000D01*
X67064667Y-102807333D01*
X67031334Y-102774000D01*
X66964667Y-102740667D01*
X66831334Y-102740667D01*
X66764667Y-102774000D01*
X66731334Y-102807333D01*
X66698000Y-102874000D01*
X66698000Y-103040667D01*
X66731334Y-103107333D01*
X66764667Y-103140667D01*
X66831334Y-103174000D01*
X66964667Y-103174000D01*
X67031334Y-103140667D01*
X67064667Y-103107333D01*
X67098000Y-103040667D01*
X77532667Y-112972000D02*
X77199333Y-113205334D01*
X77532667Y-113372000D02*
X76832667Y-113372000D01*
X76832667Y-113105334D01*
X76866000Y-113038667D01*
X76899333Y-113005334D01*
X76966000Y-112972000D01*
X77066000Y-112972000D01*
X77132667Y-113005334D01*
X77166000Y-113038667D01*
X77199333Y-113105334D01*
X77199333Y-113372000D01*
X77532667Y-112305334D02*
X77532667Y-112705334D01*
X77532667Y-112505334D02*
X76832667Y-112505334D01*
X76932667Y-112572000D01*
X76999333Y-112638667D01*
X77032667Y-112705334D01*
X76832667Y-111872000D02*
X76832667Y-111805333D01*
X76866000Y-111738667D01*
X76899333Y-111705333D01*
X76966000Y-111672000D01*
X77099333Y-111638667D01*
X77266000Y-111638667D01*
X77399333Y-111672000D01*
X77466000Y-111705333D01*
X77499333Y-111738667D01*
X77532667Y-111805333D01*
X77532667Y-111872000D01*
X77499333Y-111938667D01*
X77466000Y-111972000D01*
X77399333Y-112005333D01*
X77266000Y-112038667D01*
X77099333Y-112038667D01*
X76966000Y-112005333D01*
X76899333Y-111972000D01*
X76866000Y-111938667D01*
X76832667Y-111872000D01*
X75500667Y-108400000D02*
X75167333Y-108633334D01*
X75500667Y-108800000D02*
X74800667Y-108800000D01*
X74800667Y-108533334D01*
X74834000Y-108466667D01*
X74867333Y-108433334D01*
X74934000Y-108400000D01*
X75034000Y-108400000D01*
X75100667Y-108433334D01*
X75134000Y-108466667D01*
X75167333Y-108533334D01*
X75167333Y-108800000D01*
X75500667Y-107733334D02*
X75500667Y-108133334D01*
X75500667Y-107933334D02*
X74800667Y-107933334D01*
X74900667Y-108000000D01*
X74967333Y-108066667D01*
X75000667Y-108133334D01*
X75500667Y-107066667D02*
X75500667Y-107466667D01*
X75500667Y-107266667D02*
X74800667Y-107266667D01*
X74900667Y-107333333D01*
X74967333Y-107400000D01*
X75000667Y-107466667D01*
X84898667Y-116274000D02*
X84565333Y-116507334D01*
X84898667Y-116674000D02*
X84198667Y-116674000D01*
X84198667Y-116407334D01*
X84232000Y-116340667D01*
X84265333Y-116307334D01*
X84332000Y-116274000D01*
X84432000Y-116274000D01*
X84498667Y-116307334D01*
X84532000Y-116340667D01*
X84565333Y-116407334D01*
X84565333Y-116674000D01*
X84898667Y-115607334D02*
X84898667Y-116007334D01*
X84898667Y-115807334D02*
X84198667Y-115807334D01*
X84298667Y-115874000D01*
X84365333Y-115940667D01*
X84398667Y-116007334D01*
X84265333Y-115340667D02*
X84232000Y-115307333D01*
X84198667Y-115240667D01*
X84198667Y-115074000D01*
X84232000Y-115007333D01*
X84265333Y-114974000D01*
X84332000Y-114940667D01*
X84398667Y-114940667D01*
X84498667Y-114974000D01*
X84898667Y-115374000D01*
X84898667Y-114940667D01*
X84898667Y-120973000D02*
X84565333Y-121206334D01*
X84898667Y-121373000D02*
X84198667Y-121373000D01*
X84198667Y-121106334D01*
X84232000Y-121039667D01*
X84265333Y-121006334D01*
X84332000Y-120973000D01*
X84432000Y-120973000D01*
X84498667Y-121006334D01*
X84532000Y-121039667D01*
X84565333Y-121106334D01*
X84565333Y-121373000D01*
X84898667Y-120306334D02*
X84898667Y-120706334D01*
X84898667Y-120506334D02*
X84198667Y-120506334D01*
X84298667Y-120573000D01*
X84365333Y-120639667D01*
X84398667Y-120706334D01*
X84198667Y-120073000D02*
X84198667Y-119639667D01*
X84465333Y-119873000D01*
X84465333Y-119773000D01*
X84498667Y-119706333D01*
X84532000Y-119673000D01*
X84598667Y-119639667D01*
X84765333Y-119639667D01*
X84832000Y-119673000D01*
X84865333Y-119706333D01*
X84898667Y-119773000D01*
X84898667Y-119973000D01*
X84865333Y-120039667D01*
X84832000Y-120073000D01*
X65401000Y-110432000D02*
X65434333Y-110465334D01*
X65467667Y-110565334D01*
X65467667Y-110632000D01*
X65434333Y-110732000D01*
X65367667Y-110798667D01*
X65301000Y-110832000D01*
X65167667Y-110865334D01*
X65067667Y-110865334D01*
X64934333Y-110832000D01*
X64867667Y-110798667D01*
X64801000Y-110732000D01*
X64767667Y-110632000D01*
X64767667Y-110565334D01*
X64801000Y-110465334D01*
X64834333Y-110432000D01*
X65467667Y-109765334D02*
X65467667Y-110165334D01*
X65467667Y-109965334D02*
X64767667Y-109965334D01*
X64867667Y-110032000D01*
X64934333Y-110098667D01*
X64967667Y-110165334D01*
X65467667Y-109098667D02*
X65467667Y-109498667D01*
X65467667Y-109298667D02*
X64767667Y-109298667D01*
X64867667Y-109365333D01*
X64934333Y-109432000D01*
X64967667Y-109498667D01*
X65298667Y-100708667D02*
X65298667Y-101208667D01*
X65265333Y-101308667D01*
X65198667Y-101375333D01*
X65098667Y-101408667D01*
X65032000Y-101408667D01*
X65565333Y-100708667D02*
X65998666Y-100708667D01*
X65765333Y-100975333D01*
X65865333Y-100975333D01*
X65932000Y-101008667D01*
X65965333Y-101042000D01*
X65998666Y-101108667D01*
X65998666Y-101275333D01*
X65965333Y-101342000D01*
X65932000Y-101375333D01*
X65865333Y-101408667D01*
X65665333Y-101408667D01*
X65598666Y-101375333D01*
X65565333Y-101342000D01*
X74758666Y-105693333D02*
X74858666Y-105726667D01*
X75025333Y-105726667D01*
X75092000Y-105693333D01*
X75125333Y-105660000D01*
X75158666Y-105593333D01*
X75158666Y-105526667D01*
X75125333Y-105460000D01*
X75092000Y-105426667D01*
X75025333Y-105393333D01*
X74892000Y-105360000D01*
X74825333Y-105326667D01*
X74792000Y-105293333D01*
X74758666Y-105226667D01*
X74758666Y-105160000D01*
X74792000Y-105093333D01*
X74825333Y-105060000D01*
X74892000Y-105026667D01*
X75058666Y-105026667D01*
X75158666Y-105060000D01*
X75392000Y-105026667D02*
X75558667Y-105726667D01*
X75692000Y-105226667D01*
X75825333Y-105726667D01*
X75992000Y-105026667D01*
X76625333Y-105726667D02*
X76225333Y-105726667D01*
X76425333Y-105726667D02*
X76425333Y-105026667D01*
X76358667Y-105126667D01*
X76292000Y-105193333D01*
X76225333Y-105226667D01*
X69283333Y-118234667D02*
X69750000Y-118934667D01*
X69750000Y-118234667D02*
X69283333Y-118934667D01*
X70383333Y-118934667D02*
X69983333Y-118934667D01*
X70183333Y-118934667D02*
X70183333Y-118234667D01*
X70116667Y-118334667D01*
X70050000Y-118401333D01*
X69983333Y-118434667D01*
X74109333Y-119377667D02*
X74576000Y-120077667D01*
X74576000Y-119377667D02*
X74109333Y-120077667D01*
X74809333Y-119444333D02*
X74842667Y-119411000D01*
X74909333Y-119377667D01*
X75076000Y-119377667D01*
X75142667Y-119411000D01*
X75176000Y-119444333D01*
X75209333Y-119511000D01*
X75209333Y-119577667D01*
X75176000Y-119677667D01*
X74776000Y-120077667D01*
X75209333Y-120077667D01*
X81243667Y-108102333D02*
X81810333Y-108102333D01*
X81877000Y-108069000D01*
X81910333Y-108035667D01*
X81943667Y-107969000D01*
X81943667Y-107835667D01*
X81910333Y-107769000D01*
X81877000Y-107735667D01*
X81810333Y-107702333D01*
X81243667Y-107702333D01*
X81310333Y-107402334D02*
X81277000Y-107369000D01*
X81243667Y-107302334D01*
X81243667Y-107135667D01*
X81277000Y-107069000D01*
X81310333Y-107035667D01*
X81377000Y-107002334D01*
X81443667Y-107002334D01*
X81543667Y-107035667D01*
X81943667Y-107435667D01*
X81943667Y-107002334D01*
%LPC*%
D18*
X61087000Y-125476000D03*
D19*
X63627000Y-125476000D03*
X66167000Y-125476000D03*
X68707000Y-125476000D03*
X71247000Y-125476000D03*
X73787000Y-125476000D03*
X76327000Y-125476000D03*
X78867000Y-125476000D03*
X81407000Y-125476000D03*
X83947000Y-125476000D03*
D20*
X59636000Y-117602000D03*
X52886000Y-117602000D03*
D21*
X71628000Y-107810300D03*
X71628000Y-106311700D03*
X72771000Y-107810300D03*
X72771000Y-106311700D03*
D22*
X81407000Y-100965000D03*
D23*
X83947000Y-100965000D03*
D22*
X81407000Y-103505000D03*
D23*
X83947000Y-103505000D03*
D24*
X87630000Y-124460000D03*
X87630000Y-121920000D03*
X87630000Y-119380000D03*
X87630000Y-116840000D03*
X87630000Y-114300000D03*
X87630000Y-111760000D03*
X87630000Y-109220000D03*
X87630000Y-106680000D03*
X87630000Y-104140000D03*
X87630000Y-101600000D03*
D25*
X79334000Y-106435000D03*
X78684000Y-106435000D03*
X78034000Y-106435000D03*
X77384000Y-106435000D03*
X77384000Y-110735000D03*
X78034000Y-110735000D03*
X78684000Y-110735000D03*
X79334000Y-110735000D03*
D26*
X73248520Y-115778280D03*
X73248520Y-115277900D03*
X73248520Y-114777520D03*
X73248520Y-114277140D03*
X73248520Y-113779300D03*
X73248520Y-113278920D03*
X73248520Y-112778540D03*
X73248520Y-112278160D03*
X73248520Y-111777780D03*
X73248520Y-111277400D03*
X73248520Y-110777020D03*
X73248520Y-110279180D03*
X66451480Y-114282220D03*
X66451480Y-114780060D03*
X66451480Y-115280440D03*
X66451480Y-115780820D03*
D27*
X70599300Y-109628940D03*
X70100000Y-109630000D03*
X69601080Y-109628940D03*
X69100700Y-109628940D03*
X68600320Y-109628940D03*
X68099940Y-109628940D03*
X67599560Y-109628940D03*
X67099180Y-109628940D03*
X72598280Y-109628940D03*
X72097900Y-109628940D03*
X71597520Y-109628940D03*
X71099680Y-109628940D03*
D26*
X66451480Y-110281720D03*
X66448940Y-110782100D03*
X66448940Y-111279940D03*
X66448940Y-111780320D03*
X66448940Y-112280700D03*
X66448940Y-112781080D03*
X66448940Y-113281460D03*
X66448940Y-113781840D03*
D27*
X67099180Y-116428520D03*
X67599560Y-116428520D03*
X68099940Y-116428520D03*
X68597780Y-116428520D03*
X69098160Y-116428520D03*
X69598540Y-116428520D03*
X70098920Y-116428520D03*
X70599300Y-116428520D03*
X71099680Y-116428520D03*
X71600060Y-116428520D03*
X72097900Y-116428520D03*
X72598280Y-116428520D03*
D28*
X69850000Y-113030000D03*
D18*
X61087000Y-122936000D03*
D19*
X63627000Y-122936000D03*
X66167000Y-122936000D03*
X68707000Y-122936000D03*
X71247000Y-122936000D03*
X73787000Y-122936000D03*
X76327000Y-122936000D03*
X78867000Y-122936000D03*
X81407000Y-122936000D03*
X83947000Y-122936000D03*
D29*
X82296000Y-106045000D03*
X80772000Y-106045000D03*
D30*
X75887580Y-111252000D03*
X74988420Y-111252000D03*
D31*
X73914000Y-104960420D03*
X73914000Y-105859580D03*
X68961000Y-120591580D03*
X68961000Y-119692420D03*
D30*
X73855580Y-118999000D03*
X72956420Y-118999000D03*
D29*
X82296000Y-109220000D03*
X83820000Y-109220000D03*
D30*
X74998580Y-109982000D03*
X74099420Y-109982000D03*
D31*
X64897000Y-119819420D03*
X64897000Y-120718580D03*
D30*
X71178420Y-118999000D03*
X72077580Y-118999000D03*
D29*
X74803000Y-117221000D03*
X76327000Y-117221000D03*
D31*
X63750142Y-110428052D03*
X63750142Y-111327212D03*
X68199000Y-118559580D03*
X68199000Y-117660420D03*
X64770000Y-114739420D03*
X64770000Y-115638580D03*
D30*
X63050420Y-115951000D03*
X63949580Y-115951000D03*
D31*
X65836800Y-117518180D03*
X65836800Y-116619020D03*
D32*
X77724000Y-116459000D03*
X77724000Y-117983000D03*
D31*
X64770000Y-118940581D03*
X64770000Y-118041421D03*
X63750142Y-112978212D03*
X63750142Y-112079052D03*
X64770000Y-113987580D03*
X64770000Y-113088420D03*
D29*
X76327000Y-115697000D03*
X74803000Y-115697000D03*
D30*
X77274420Y-115443000D03*
X78173580Y-115443000D03*
D31*
X64770000Y-116390420D03*
X64770000Y-117289580D03*
D30*
X84650580Y-105791000D03*
X83751420Y-105791000D03*
X83751420Y-107823000D03*
X84650580Y-107823000D03*
D31*
X71628000Y-104579420D03*
X71628000Y-105478580D03*
X78359000Y-100642420D03*
X78359000Y-101541580D03*
D30*
X84650580Y-106807000D03*
X83751420Y-106807000D03*
D31*
X72771000Y-104579420D03*
X72771000Y-105478580D03*
D30*
X71188580Y-103124000D03*
X70289420Y-103124000D03*
D31*
X68199000Y-104081580D03*
X68199000Y-103182420D03*
D30*
X66352420Y-104013000D03*
X67251580Y-104013000D03*
D31*
X77978000Y-112072420D03*
X77978000Y-112971580D03*
X75946000Y-108907580D03*
X75946000Y-108008420D03*
X84582000Y-116898420D03*
X84582000Y-117797580D03*
X84582000Y-119448580D03*
X84582000Y-118549420D03*
X64770000Y-111056420D03*
X64770000Y-111955580D03*
D33*
X67310000Y-101600000D03*
X67310000Y-100330000D03*
X68580000Y-101600000D03*
X68580000Y-100330000D03*
X69850000Y-101600000D03*
X69850000Y-100330000D03*
X71120000Y-101600000D03*
X71120000Y-100330000D03*
X72390000Y-101600000D03*
X72390000Y-100330000D03*
D34*
X75692000Y-100160000D03*
X75692000Y-104310000D03*
D35*
X67779000Y-120919000D03*
X66079000Y-120919000D03*
X66079000Y-119619000D03*
X67779000Y-119619000D03*
D36*
X73692000Y-120396000D03*
X71342000Y-120396000D03*
D10*
G36*
X82125800Y-108200200D02*
X82125800Y-107617800D01*
X82478200Y-107817800D01*
X82478200Y-108000200D01*
X82125800Y-108200200D01*
X82125800Y-108200200D01*
G37*
G36*
X82225800Y-108300200D02*
X82225800Y-107717800D01*
X82578200Y-107917800D01*
X82578200Y-108100200D01*
X82225800Y-108300200D01*
X82225800Y-108300200D01*
G37*
D37*
X82352000Y-108119000D03*
D38*
X82252000Y-108009000D03*
X83102000Y-108009000D03*
D37*
X83002000Y-108119000D03*
D10*
G36*
X83128200Y-107717800D02*
X83128200Y-108300200D01*
X82775800Y-108100200D01*
X82775800Y-107917800D01*
X83128200Y-107717800D01*
X83128200Y-107717800D01*
G37*
G36*
X83128200Y-106837800D02*
X83128200Y-107420200D01*
X82775800Y-107220200D01*
X82775800Y-107037800D01*
X83128200Y-106837800D01*
X83128200Y-106837800D01*
G37*
D37*
X83002000Y-107019000D03*
D38*
X83102000Y-107129000D03*
X82252000Y-107129000D03*
D37*
X82352000Y-107019000D03*
D10*
G36*
X82225800Y-107420200D02*
X82225800Y-106837800D01*
X82578200Y-107037800D01*
X82578200Y-107220200D01*
X82225800Y-107420200D01*
X82225800Y-107420200D01*
G37*
G36*
X82677000Y-108086885D02*
X82159115Y-107569000D01*
X82677000Y-107051115D01*
X83194885Y-107569000D01*
X82677000Y-108086885D01*
X82677000Y-108086885D01*
G37*
M02*
