G04 #@! TF.FileFunction,Copper,L2,Bot,Signal*
%FSLAX46Y46*%
G04 Gerber Fmt 4.6, Leading zero omitted, Abs format (unit mm)*
G04 Created by KiCad (PCBNEW 0.201502111101+5414~21~ubuntu14.04.1-product) date Wed 11 Feb 2015 11:41:42 AM PST*
%MOMM*%
G01*
G04 APERTURE LIST*
%ADD10C,0.100000*%
%ADD11O,1.270000X0.635000*%
%ADD12C,1.145540*%
%ADD13R,1.727200X2.032000*%
%ADD14O,1.727200X2.032000*%
%ADD15R,2.032000X2.032000*%
%ADD16O,2.032000X2.032000*%
%ADD17C,1.450000*%
%ADD18C,0.889000*%
%ADD19C,1.399540*%
%ADD20C,0.635000*%
%ADD21C,0.584200*%
%ADD22C,0.203200*%
%ADD23C,0.304800*%
G04 APERTURE END LIST*
D10*
D11*
X92710000Y-124841000D03*
X92710000Y-123952000D03*
D12*
X90741500Y-123190000D03*
D11*
X90170000Y-118872000D03*
X90170000Y-119761000D03*
X90170000Y-120650000D03*
X90170000Y-121539000D03*
X90170000Y-122428000D03*
D13*
X61087000Y-125476000D03*
D14*
X63627000Y-125476000D03*
X66167000Y-125476000D03*
X68707000Y-125476000D03*
X71247000Y-125476000D03*
X73787000Y-125476000D03*
X76327000Y-125476000D03*
X78867000Y-125476000D03*
X81407000Y-125476000D03*
X83947000Y-125476000D03*
D15*
X81407000Y-100965000D03*
D16*
X83947000Y-100965000D03*
D15*
X81407000Y-103505000D03*
D16*
X83947000Y-103505000D03*
D17*
X87630000Y-124460000D03*
X87630000Y-121920000D03*
X87630000Y-119380000D03*
X87630000Y-116840000D03*
X87630000Y-114300000D03*
X87630000Y-111760000D03*
X87630000Y-109220000D03*
X87630000Y-106680000D03*
X87630000Y-104140000D03*
X87630000Y-101600000D03*
D11*
X90170000Y-101219000D03*
X90170000Y-102108000D03*
D13*
X61087000Y-122936000D03*
D14*
X63627000Y-122936000D03*
X66167000Y-122936000D03*
X68707000Y-122936000D03*
X71247000Y-122936000D03*
X73787000Y-122936000D03*
X76327000Y-122936000D03*
X78867000Y-122936000D03*
X81407000Y-122936000D03*
X83947000Y-122936000D03*
D11*
X92710000Y-103632000D03*
X92710000Y-104521000D03*
X92710000Y-105410000D03*
X92710000Y-106299000D03*
X92710000Y-107188000D03*
X92710000Y-113792000D03*
X92710000Y-114681000D03*
X92710000Y-115570000D03*
X92710000Y-116459000D03*
X92710000Y-117348000D03*
X90170000Y-108712000D03*
X90170000Y-109601000D03*
X90170000Y-110490000D03*
X90170000Y-111379000D03*
X90170000Y-112268000D03*
D18*
X67310000Y-101600000D03*
X67310000Y-100330000D03*
X68580000Y-101600000D03*
X68580000Y-100330000D03*
X69850000Y-101600000D03*
X69850000Y-100330000D03*
X71120000Y-101600000D03*
X71120000Y-100330000D03*
X72390000Y-101600000D03*
X72390000Y-100330000D03*
D12*
X90741500Y-102870000D03*
D19*
X90868500Y-107823000D03*
D12*
X90741500Y-113030000D03*
D19*
X90868500Y-118364000D03*
D20*
X78740000Y-119888021D03*
X77749400Y-118694200D03*
X63555623Y-109659046D03*
X64476022Y-110694168D03*
X66682680Y-117307202D03*
D21*
X75565000Y-115570000D03*
D20*
X74599800Y-119202200D03*
X68935600Y-121107200D03*
X70573569Y-119098688D03*
X69011800Y-118948200D03*
X65744526Y-118545356D03*
X73253600Y-109397800D03*
X77419200Y-105130600D03*
X80086200Y-106197400D03*
X65620862Y-114554000D03*
X76584122Y-111248623D03*
X75692000Y-109728000D03*
X71628000Y-103886000D03*
X72771000Y-103886000D03*
X71628000Y-114808000D03*
X68072000Y-114808000D03*
X71755000Y-111125000D03*
X68072000Y-111125000D03*
X69850000Y-113030000D03*
D21*
X82677000Y-107569000D03*
D20*
X66675000Y-104902000D03*
X64135000Y-119761000D03*
X64008000Y-118872000D03*
X63119000Y-115062000D03*
X80772000Y-105029000D03*
X63119000Y-118364000D03*
X63119000Y-120015000D03*
X62103000Y-121158000D03*
X63119000Y-116840000D03*
X64008000Y-116840000D03*
X63119000Y-109728000D03*
X63119000Y-108585000D03*
X63119000Y-107188000D03*
X63119000Y-105791000D03*
X63119000Y-104394000D03*
X63119000Y-102870000D03*
X63119000Y-101473000D03*
X63119000Y-99949000D03*
X64389000Y-99949000D03*
X65786000Y-99949000D03*
X63119000Y-113919000D03*
X63754000Y-121158000D03*
X75692000Y-117094000D03*
X69215000Y-103378000D03*
X76835000Y-120218201D03*
X88900000Y-104521000D03*
X89166710Y-110109000D03*
X87757000Y-110490000D03*
X89535000Y-117729000D03*
X89027000Y-122047000D03*
X84836000Y-108585000D03*
X67691000Y-113411000D03*
X89925055Y-114741399D03*
X91440000Y-115443000D03*
X86487000Y-110998000D03*
X78867000Y-115697000D03*
X63099057Y-110855546D03*
X63079783Y-112533430D03*
X91645159Y-105077841D03*
X90726927Y-105740170D03*
X80777496Y-107022907D03*
X66421000Y-108623110D03*
X82299818Y-110235301D03*
X75692000Y-102362000D03*
X74041000Y-109093000D03*
X72898000Y-120396000D03*
X88646000Y-118364000D03*
X83185000Y-118491000D03*
X89916000Y-105664000D03*
X74549000Y-120396000D03*
X81534000Y-108331000D03*
X66530208Y-116560600D03*
X77724000Y-117195600D03*
X78689302Y-116509698D03*
X79019400Y-104419400D03*
X74074020Y-111259611D03*
X74295000Y-107835710D03*
X84709000Y-105156000D03*
X70561200Y-108610400D03*
X80378280Y-112522000D03*
X79140155Y-112528435D03*
X81153000Y-119380000D03*
X70434200Y-107518179D03*
X81419720Y-116586000D03*
X75946000Y-107315000D03*
X89206570Y-106594614D03*
X80124250Y-111112299D03*
X76835000Y-112776000D03*
X84585642Y-114186972D03*
X84201000Y-114858800D03*
X83540600Y-115316000D03*
X83778830Y-117260578D03*
X86108401Y-120357880D03*
X85471000Y-110109000D03*
X79819460Y-109597977D03*
X85344000Y-123444000D03*
X69596000Y-107188000D03*
X85344000Y-120904000D03*
X85585280Y-112534710D03*
X81534000Y-112649000D03*
X69100720Y-106553000D03*
X82550000Y-121031000D03*
X68580000Y-105918000D03*
X83185000Y-121577120D03*
X85191600Y-113207800D03*
X68072000Y-105283000D03*
X65811461Y-109936900D03*
X65784207Y-109149452D03*
X64922400Y-109143800D03*
X65542871Y-111806114D03*
X69136460Y-118111584D03*
X69924739Y-120468206D03*
X70322134Y-119818023D03*
X70613374Y-118337716D03*
X71368835Y-118115165D03*
X75238044Y-119983758D03*
X76022200Y-118618000D03*
X79870280Y-114935000D03*
D22*
X90170000Y-118872000D02*
X89535000Y-118872000D01*
X89306390Y-119100610D02*
X89306390Y-121767610D01*
X89306390Y-121767610D02*
X89027000Y-122047000D01*
X77749400Y-118694200D02*
X78740000Y-119684800D01*
X78740000Y-119684800D02*
X78740000Y-119888021D01*
X77300388Y-118694200D02*
X77749400Y-118694200D01*
X75692000Y-117094000D02*
X77292200Y-118694200D01*
X77292200Y-118694200D02*
X77300388Y-118694200D01*
X71755000Y-111125000D02*
X67500501Y-106870501D01*
X67500501Y-106870501D02*
X63436499Y-106870501D01*
X63187954Y-109659046D02*
X63555623Y-109659046D01*
X63119000Y-109728000D02*
X63187954Y-109659046D01*
X63436499Y-106870501D02*
X63119000Y-107188000D01*
X65747899Y-116209063D02*
X65747899Y-116579127D01*
X75692000Y-117094000D02*
X75172853Y-116574853D01*
X68072000Y-114808000D02*
X67148962Y-114808000D01*
X67415029Y-116574853D02*
X67000179Y-116989703D01*
X66475974Y-117307202D02*
X66682680Y-117307202D01*
X75172853Y-116574853D02*
X67415029Y-116574853D01*
X67148962Y-114808000D02*
X65747899Y-116209063D01*
X67000179Y-116989703D02*
X66682680Y-117307202D01*
X65747899Y-116579127D02*
X66475974Y-117307202D01*
X75504423Y-119507010D02*
X75199614Y-119202200D01*
X75048812Y-119202200D02*
X74599800Y-119202200D01*
X76835000Y-120218201D02*
X76123809Y-119507010D01*
X75199614Y-119202200D02*
X75048812Y-119202200D01*
X76123809Y-119507010D02*
X75504423Y-119507010D01*
X69011800Y-121031000D02*
X68935600Y-121107200D01*
X69011800Y-118948200D02*
X69011800Y-121031000D01*
X69011800Y-118948200D02*
X70423081Y-118948200D01*
X70256070Y-118781189D02*
X70573569Y-119098688D01*
X69682561Y-117849455D02*
X69682561Y-118207680D01*
X67894458Y-118545356D02*
X68874331Y-117565483D01*
X68874331Y-117565483D02*
X69398589Y-117565483D01*
X70423081Y-118948200D02*
X70573569Y-119098688D01*
X69682561Y-118207680D02*
X70256070Y-118781189D01*
X69398589Y-117565483D02*
X69682561Y-117849455D01*
X65744526Y-118545356D02*
X67894458Y-118545356D01*
X67462400Y-106045000D02*
X69481699Y-108064299D01*
X72936101Y-109080301D02*
X73253600Y-109397800D01*
X67779899Y-104609901D02*
X67462400Y-104927400D01*
X76949301Y-104609901D02*
X67779899Y-104609901D01*
X77127101Y-104787701D02*
X76949301Y-104609901D01*
X67462400Y-104927400D02*
X67462400Y-106045000D01*
X71920099Y-108064299D02*
X72936101Y-109080301D01*
X69481699Y-108064299D02*
X71920099Y-108064299D01*
X73253600Y-107975400D02*
X73253600Y-108984709D01*
X74612500Y-107251500D02*
X73977500Y-107251500D01*
X73253600Y-108984709D02*
X73253600Y-109397800D01*
X75692000Y-109728000D02*
X75692000Y-108331000D01*
X75692000Y-108331000D02*
X74612500Y-107251500D01*
X73977500Y-107251500D02*
X73253600Y-107975400D01*
X77127101Y-104787701D02*
X77127101Y-104838501D01*
X77127101Y-104838501D02*
X77419200Y-105130600D01*
X77114400Y-104775000D02*
X77127101Y-104787701D01*
X77089000Y-104775000D02*
X77114400Y-104775000D01*
X63119000Y-118364000D02*
X63119000Y-120015000D01*
X63119000Y-116840000D02*
X64008000Y-116840000D01*
X63119000Y-108585000D02*
X63119000Y-107188000D01*
X63119000Y-105791000D02*
X63119000Y-104394000D01*
X63119000Y-102870000D02*
X63119000Y-101473000D01*
X63119000Y-99949000D02*
X64389000Y-99949000D01*
X65786000Y-104013000D02*
X66675000Y-104902000D01*
X65786000Y-99949000D02*
X65786000Y-104013000D01*
X63119000Y-120523000D02*
X63754000Y-121158000D01*
X63119000Y-120015000D02*
X63119000Y-120523000D01*
X88011000Y-124841000D02*
X87630000Y-124460000D01*
X92710000Y-124841000D02*
X88011000Y-124841000D01*
X63119000Y-118364000D02*
X63119000Y-116840000D01*
X71628000Y-103886000D02*
X72771000Y-103886000D01*
X69850000Y-101600000D02*
X69342000Y-101092000D01*
X69088000Y-101092000D02*
X68580000Y-101600000D01*
X69342000Y-101092000D02*
X69088000Y-101092000D01*
X69723000Y-103886000D02*
X71628000Y-103886000D01*
X69215000Y-103378000D02*
X69723000Y-103886000D01*
X68199000Y-103378000D02*
X69215000Y-103378000D01*
X66675000Y-104902000D02*
X68199000Y-103378000D01*
X82677000Y-107315000D02*
X82677000Y-107569000D01*
X80187800Y-103505000D02*
X79933800Y-103759000D01*
X81407000Y-103505000D02*
X80187800Y-103505000D01*
X79933800Y-104190800D02*
X80137000Y-104394000D01*
X79933800Y-103759000D02*
X79933800Y-104190800D01*
X80137000Y-104394000D02*
X80137000Y-104775000D01*
X80479901Y-104736901D02*
X80772000Y-105029000D01*
X80175099Y-104736901D02*
X80479901Y-104736901D01*
X80137000Y-104775000D02*
X80175099Y-104736901D01*
X87805069Y-105093601D02*
X88327399Y-105093601D01*
X85128099Y-107770571D02*
X87805069Y-105093601D01*
X88327399Y-105093601D02*
X88900000Y-104521000D01*
X85128099Y-108292901D02*
X85128099Y-107770571D01*
X84836000Y-108585000D02*
X85128099Y-108292901D01*
X68072000Y-114808000D02*
X67691000Y-114427000D01*
X67691000Y-114427000D02*
X67691000Y-113860012D01*
X67691000Y-113860012D02*
X67691000Y-113411000D01*
X91440000Y-115824000D02*
X91440000Y-115443000D01*
X89535000Y-117729000D02*
X91440000Y-115824000D01*
X87630000Y-124460000D02*
X86676399Y-123506399D01*
X86676399Y-123506399D02*
X86676399Y-111600490D01*
X86676399Y-111600490D02*
X86487000Y-111411091D01*
X86487000Y-111411091D02*
X86487000Y-110998000D01*
X63119000Y-109728000D02*
X63119000Y-110835603D01*
X63119000Y-110835603D02*
X63099057Y-110855546D01*
X63119000Y-113919000D02*
X63119000Y-112572647D01*
X63119000Y-112572647D02*
X63079783Y-112533430D01*
X90614500Y-104521000D02*
X88900000Y-104521000D01*
X91503500Y-103632000D02*
X90614500Y-104521000D01*
X92710000Y-103632000D02*
X91503500Y-103632000D01*
X90242554Y-114423900D02*
X89925055Y-114741399D01*
X90744600Y-114423900D02*
X90242554Y-114423900D01*
X91376500Y-113792000D02*
X90744600Y-114423900D01*
X92710000Y-113792000D02*
X91376500Y-113792000D01*
X90726927Y-106189182D02*
X90726927Y-105740170D01*
X90726927Y-106504073D02*
X90726927Y-106189182D01*
X89789000Y-107442000D02*
X90726927Y-106504073D01*
X89789000Y-108585000D02*
X89789000Y-107442000D01*
X90043000Y-108585000D02*
X89789000Y-108585000D01*
X90170000Y-108712000D02*
X90043000Y-108585000D01*
X81323589Y-107569000D02*
X81094995Y-107340406D01*
X82677000Y-107569000D02*
X81323589Y-107569000D01*
X81094995Y-107340406D02*
X80777496Y-107022907D01*
X68072000Y-110274110D02*
X66421000Y-108623110D01*
X68072000Y-111125000D02*
X68072000Y-110274110D01*
X89535000Y-118872000D02*
X89306390Y-119100610D01*
X67310000Y-101600000D02*
X68072000Y-102362000D01*
X68072000Y-102362000D02*
X75692000Y-102362000D01*
D23*
X87630000Y-121920000D02*
X88646000Y-120904000D01*
X88646000Y-120904000D02*
X88646000Y-118364000D01*
D22*
X88646000Y-117914988D02*
X88646000Y-118364000D01*
X91144986Y-114681000D02*
X88646000Y-117179986D01*
X88646000Y-117179986D02*
X88646000Y-117914988D01*
X92710000Y-114681000D02*
X91144986Y-114681000D01*
X72898000Y-120396000D02*
X74549000Y-120396000D01*
X90170000Y-124460000D02*
X87630000Y-121920000D01*
X91694000Y-124460000D02*
X90170000Y-124460000D01*
X92202000Y-123952000D02*
X91694000Y-124460000D01*
X92710000Y-123952000D02*
X92202000Y-123952000D01*
X89916000Y-106784514D02*
X89916000Y-106113012D01*
X89154000Y-108902500D02*
X89154000Y-107546514D01*
X89154000Y-107546514D02*
X89916000Y-106784514D01*
X90170000Y-109601000D02*
X89852500Y-109601000D01*
X89916000Y-106113012D02*
X89916000Y-105664000D01*
X89852500Y-109601000D02*
X89154000Y-108902500D01*
X80772000Y-107569000D02*
X81534000Y-108331000D01*
X80518000Y-107569000D02*
X80772000Y-107569000D01*
X78105000Y-105156000D02*
X80518000Y-107569000D01*
X78105000Y-104775000D02*
X78105000Y-105156000D01*
X75692000Y-102362000D02*
X78105000Y-104775000D01*
D23*
X82617317Y-110552800D02*
X82299818Y-110235301D01*
X82931000Y-110866483D02*
X82617317Y-110552800D01*
X82931000Y-117475000D02*
X82931000Y-110866483D01*
X83185000Y-117729000D02*
X82931000Y-117475000D01*
X83185000Y-118491000D02*
X83185000Y-117729000D01*
X66898507Y-116192301D02*
X66847707Y-116243101D01*
X77724000Y-117195600D02*
X76720701Y-116192301D01*
X76720701Y-116192301D02*
X66898507Y-116192301D01*
X66847707Y-116243101D02*
X66530208Y-116560600D01*
X78003400Y-117195600D02*
X77724000Y-117195600D01*
X78689302Y-116509698D02*
X78003400Y-117195600D01*
D22*
X79311499Y-104711499D02*
X79019400Y-104419400D01*
X80264000Y-105664000D02*
X79311499Y-104711499D01*
X84201000Y-105664000D02*
X80264000Y-105664000D01*
X84709000Y-105156000D02*
X84201000Y-105664000D01*
X74676000Y-108216710D02*
X74295000Y-107835710D01*
X74676000Y-110657631D02*
X74676000Y-108216710D01*
X74074020Y-111259611D02*
X74676000Y-110657631D01*
X74091800Y-112141000D02*
X70853299Y-108902499D01*
X70853299Y-108902499D02*
X70561200Y-108610400D01*
X78752720Y-112141000D02*
X74091800Y-112141000D01*
X79140155Y-112528435D02*
X78752720Y-112141000D01*
X81153000Y-118491000D02*
X81153000Y-119380000D01*
X80772000Y-118110000D02*
X81153000Y-118491000D01*
X80772000Y-113792000D02*
X80772000Y-118110000D01*
X80378280Y-113398280D02*
X80772000Y-113792000D01*
X80378280Y-112522000D02*
X80378280Y-113398280D01*
X75552290Y-106921290D02*
X71031089Y-106921290D01*
X71031089Y-106921290D02*
X70751699Y-107200680D01*
X75946000Y-107315000D02*
X75552290Y-106921290D01*
X70751699Y-107200680D02*
X70434200Y-107518179D01*
X88976210Y-115493790D02*
X87630000Y-116840000D01*
X88976210Y-111734590D02*
X88976210Y-115493790D01*
X89331800Y-111379000D02*
X88976210Y-111734590D01*
X90170000Y-111379000D02*
X89331800Y-111379000D01*
X76263499Y-107632499D02*
X75946000Y-107315000D01*
X78994000Y-110363000D02*
X76263499Y-107632499D01*
X80238599Y-110363000D02*
X78994000Y-110363000D01*
X80975210Y-113065034D02*
X80975210Y-111099611D01*
X80975210Y-111099611D02*
X80238599Y-110363000D01*
X81419720Y-113509544D02*
X80975210Y-113065034D01*
X81419720Y-116586000D02*
X81419720Y-113509544D01*
X89065080Y-106736104D02*
X89206570Y-106594614D01*
X87630000Y-114300000D02*
X88583601Y-113346399D01*
X89065080Y-107149920D02*
X89065080Y-106736104D01*
X88583601Y-107631399D02*
X89065080Y-107149920D01*
X88583601Y-113346399D02*
X88583601Y-107631399D01*
X89662000Y-105029000D02*
X90823987Y-105029000D01*
X87376000Y-107823000D02*
X87898330Y-107823000D01*
X87630000Y-111252000D02*
X86676399Y-110298399D01*
X88646000Y-107075330D02*
X88646000Y-106045000D01*
X86676399Y-110298399D02*
X86676399Y-108522601D01*
X87898330Y-107823000D02*
X88646000Y-107075330D01*
X88646000Y-106045000D02*
X89662000Y-105029000D01*
X91871800Y-105778300D02*
X92392500Y-106299000D01*
X90823987Y-105029000D02*
X91573287Y-105778300D01*
X91573287Y-105778300D02*
X91871800Y-105778300D01*
X87630000Y-111760000D02*
X87630000Y-111252000D01*
X86676399Y-108522601D02*
X87376000Y-107823000D01*
X92392500Y-106299000D02*
X92710000Y-106299000D01*
X76835000Y-112776000D02*
X77152499Y-113093499D01*
X77152499Y-113093499D02*
X79387701Y-113093499D01*
X79387701Y-113093499D02*
X79743299Y-112737901D01*
X79743299Y-112737901D02*
X79743299Y-111493250D01*
X79743299Y-111493250D02*
X79832151Y-111404398D01*
X79832151Y-111404398D02*
X80124250Y-111112299D01*
X84585642Y-113737960D02*
X84585642Y-114186972D01*
X84585642Y-109724358D02*
X84585642Y-113737960D01*
X87630000Y-106680000D02*
X84585642Y-109724358D01*
X83908901Y-107861099D02*
X83908901Y-114566701D01*
X83908901Y-114566701D02*
X84201000Y-114858800D01*
X87630000Y-104140000D02*
X83908901Y-107861099D01*
X87630000Y-101600000D02*
X86676399Y-102553601D01*
X86676399Y-102553601D02*
X86676399Y-104458601D01*
X86676399Y-104458601D02*
X83400901Y-107734099D01*
X83540600Y-115290600D02*
X83540600Y-115316000D01*
X83400901Y-107734099D02*
X83400901Y-115150901D01*
X83400901Y-115150901D02*
X83540600Y-115290600D01*
X83778830Y-115554230D02*
X83540600Y-115316000D01*
X83778830Y-117260578D02*
X83778830Y-115554230D01*
X86108401Y-120806892D02*
X86108401Y-120357880D01*
X86182210Y-112217210D02*
X86182210Y-120284071D01*
X85471000Y-110109000D02*
X85471000Y-111506000D01*
X86182210Y-120284071D02*
X86108401Y-120357880D01*
X85471000Y-111506000D02*
X86182210Y-112217210D01*
X86108401Y-122679599D02*
X86108401Y-120806892D01*
X85344000Y-123444000D02*
X86108401Y-122679599D01*
X69596000Y-107188000D02*
X70192920Y-106591080D01*
X76363551Y-106591080D02*
X79370448Y-109597977D01*
X70192920Y-106591080D02*
X76363551Y-106591080D01*
X79370448Y-109597977D02*
X79819460Y-109597977D01*
X85852000Y-119634000D02*
X85852000Y-112801430D01*
X85344000Y-120142000D02*
X85852000Y-119634000D01*
X85344000Y-120904000D02*
X85344000Y-120142000D01*
X85852000Y-112801430D02*
X85585280Y-112534710D01*
X79990448Y-108991420D02*
X79296008Y-108991420D01*
X80365580Y-110022995D02*
X80365580Y-109366552D01*
X81534000Y-111191414D02*
X80365580Y-110022995D01*
X80365580Y-109366552D02*
X79990448Y-108991420D01*
X81534000Y-112649000D02*
X81534000Y-111191414D01*
X69100720Y-106540280D02*
X69100720Y-106553000D01*
X69380130Y-106260870D02*
X69100720Y-106540280D01*
X79296008Y-108991420D02*
X76565457Y-106260870D01*
X76565457Y-106260870D02*
X69380130Y-106260870D01*
X82232501Y-120713501D02*
X82550000Y-121031000D01*
X80695790Y-109886218D02*
X82086128Y-111276555D01*
X82086128Y-111276555D02*
X82086128Y-120567128D01*
X82086128Y-120567128D02*
X82232501Y-120713501D01*
X80127224Y-108661210D02*
X80695790Y-109229776D01*
X68580000Y-105918000D02*
X76689575Y-105918000D01*
X76689575Y-105918000D02*
X79432785Y-108661210D01*
X79432785Y-108661210D02*
X80127224Y-108661210D01*
X80695790Y-109229776D02*
X80695790Y-109886218D01*
X83502499Y-121259621D02*
X83185000Y-121577120D01*
X85191600Y-119570520D02*
X83502499Y-121259621D01*
X85191600Y-113207800D02*
X85191600Y-119570520D01*
X82499210Y-118821210D02*
X84201000Y-120523000D01*
X83185000Y-121539000D02*
X83185000Y-121577120D01*
X81026000Y-109093000D02*
X81026000Y-109749441D01*
X76521562Y-105283000D02*
X79569562Y-108331000D01*
X79569562Y-108331000D02*
X80264000Y-108331000D01*
X82499210Y-111222651D02*
X82499210Y-118821210D01*
X80264000Y-108331000D02*
X81026000Y-109093000D01*
X81026000Y-109749441D02*
X82499210Y-111222651D01*
X84201000Y-120523000D02*
X83185000Y-121539000D01*
X68072000Y-105283000D02*
X76521562Y-105283000D01*
X76327000Y-122936000D02*
X76327000Y-122783600D01*
X76327000Y-122783600D02*
X74879190Y-121335790D01*
X72085210Y-120853210D02*
X72085210Y-118035150D01*
X66235720Y-110361159D02*
X66128960Y-110254399D01*
X74879190Y-121335790D02*
X72567790Y-121335790D01*
X72567790Y-121335790D02*
X72085210Y-120853210D01*
X71285333Y-117235273D02*
X68029826Y-117235273D01*
X72085210Y-118035150D02*
X71285333Y-117235273D01*
X68029826Y-117235273D02*
X67081586Y-118183513D01*
X67081586Y-118183513D02*
X66283774Y-118183513D01*
X66283774Y-118183513D02*
X65087479Y-116987218D01*
X65087479Y-116987218D02*
X65087479Y-115928534D01*
X66235720Y-114780293D02*
X66235720Y-110361159D01*
X65087479Y-115928534D02*
X66235720Y-114780293D01*
X66128960Y-110254399D02*
X65811461Y-109936900D01*
X78867000Y-122936000D02*
X78867000Y-121412000D01*
X78867000Y-121412000D02*
X76631800Y-119176800D01*
X76631800Y-119176800D02*
X75641200Y-119176800D01*
X75641200Y-119176800D02*
X73369463Y-116905063D01*
X73369463Y-116905063D02*
X67893049Y-116905063D01*
X65417689Y-116065311D02*
X66586099Y-114896901D01*
X67893049Y-116905063D02*
X66944809Y-117853303D01*
X66944809Y-117853303D02*
X66420551Y-117853303D01*
X66420551Y-117853303D02*
X65417689Y-116850441D01*
X65417689Y-116850441D02*
X65417689Y-116065311D01*
X66586099Y-109502332D02*
X66233219Y-109149452D01*
X66586099Y-114896901D02*
X66586099Y-109502332D01*
X66233219Y-109149452D02*
X65784207Y-109149452D01*
X78867000Y-122936000D02*
X78867000Y-122555000D01*
X81407000Y-122936000D02*
X81407000Y-122783600D01*
X81407000Y-122783600D02*
X79730580Y-121107180D01*
X66802000Y-108077000D02*
X65989200Y-108077000D01*
X79730580Y-121107180D02*
X79730580Y-115671580D01*
X79730580Y-115671580D02*
X77978000Y-113919000D01*
X77978000Y-113919000D02*
X72644000Y-113919000D01*
X72644000Y-113919000D02*
X66802000Y-108077000D01*
X65989200Y-108077000D02*
X65239899Y-108826301D01*
X65239899Y-108826301D02*
X64922400Y-109143800D01*
X83947000Y-122936000D02*
X83571005Y-122936000D01*
X65542871Y-110572501D02*
X65542871Y-111357102D01*
X83571005Y-122936000D02*
X80441790Y-119806785D01*
X72780776Y-113588790D02*
X66938777Y-107746790D01*
X80441790Y-119806785D02*
X80441790Y-114604790D01*
X79425790Y-113588790D02*
X72780776Y-113588790D01*
X66938777Y-107746790D02*
X65511180Y-107746790D01*
X64376299Y-109405929D02*
X65542871Y-110572501D01*
X80441790Y-114604790D02*
X79425790Y-113588790D01*
X65511180Y-107746790D02*
X64376299Y-108881671D01*
X64376299Y-108881671D02*
X64376299Y-109405929D01*
X65542871Y-111357102D02*
X65542871Y-111806114D01*
X66167000Y-125476000D02*
X66167000Y-125323600D01*
X66167000Y-125323600D02*
X67437000Y-124053600D01*
X67437000Y-124053600D02*
X67437000Y-119625362D01*
X67437000Y-119625362D02*
X68950778Y-118111584D01*
X68950778Y-118111584D02*
X69136460Y-118111584D01*
X68707000Y-125476000D02*
X68707000Y-125323600D01*
X68707000Y-125323600D02*
X69814557Y-124216043D01*
X69814557Y-124216043D02*
X69814557Y-121938681D01*
X69814557Y-121938681D02*
X70269101Y-121484137D01*
X70269101Y-121484137D02*
X70269101Y-120812568D01*
X70269101Y-120812568D02*
X70242238Y-120785705D01*
X70242238Y-120785705D02*
X69924739Y-120468206D01*
X71247000Y-125476000D02*
X71247000Y-125323600D01*
X71247000Y-125323600D02*
X70154790Y-124231390D01*
X70154790Y-124231390D02*
X70154790Y-122065435D01*
X70154790Y-122065435D02*
X70639633Y-121580592D01*
X70639633Y-121580592D02*
X70639633Y-120135522D01*
X70639633Y-120135522D02*
X70322134Y-119818023D01*
X73787000Y-125476000D02*
X73787000Y-125323600D01*
X72339210Y-123875810D02*
X72339210Y-122331192D01*
X73787000Y-125323600D02*
X72339210Y-123875810D01*
X72339210Y-122331192D02*
X71247000Y-121238982D01*
X70930873Y-118655215D02*
X70613374Y-118337716D01*
X71247000Y-121238982D02*
X71247000Y-118971342D01*
X71247000Y-118971342D02*
X70930873Y-118655215D01*
X76327000Y-125476000D02*
X76327000Y-125323600D01*
X72263000Y-121666000D02*
X71755000Y-121158000D01*
X71686334Y-118432664D02*
X71368835Y-118115165D01*
X76327000Y-125323600D02*
X75057000Y-124053600D01*
X75057000Y-124053600D02*
X75057000Y-122301000D01*
X75057000Y-122301000D02*
X74422000Y-121666000D01*
X74422000Y-121666000D02*
X72263000Y-121666000D01*
X71755000Y-121158000D02*
X71755000Y-118501330D01*
X71755000Y-118501330D02*
X71686334Y-118432664D01*
X78867000Y-125476000D02*
X78867000Y-125323600D01*
X78867000Y-125323600D02*
X77597000Y-124053600D01*
X77597000Y-124053600D02*
X77597000Y-122342714D01*
X77597000Y-122342714D02*
X75555543Y-120301257D01*
X75555543Y-120301257D02*
X75238044Y-119983758D01*
X81407000Y-125476000D02*
X81407000Y-125323600D01*
X80137000Y-124053600D02*
X80137000Y-122215013D01*
X81407000Y-125323600D02*
X80137000Y-124053600D01*
X76435291Y-118618000D02*
X76022200Y-118618000D01*
X80137000Y-122215013D02*
X76539987Y-118618000D01*
X76539987Y-118618000D02*
X76435291Y-118618000D01*
X83947000Y-125476000D02*
X83947000Y-125323600D01*
X83947000Y-125323600D02*
X82677000Y-124053600D01*
X82677000Y-124053600D02*
X82677000Y-122508982D01*
X80060790Y-119892772D02*
X80060790Y-115125510D01*
X82677000Y-122508982D02*
X80060790Y-119892772D01*
X80060790Y-115125510D02*
X79870280Y-114935000D01*
G36*
X70894129Y-100965032D02*
X70739217Y-101029041D01*
X70549706Y-101218222D01*
X70490198Y-101361532D01*
X70487073Y-101344799D01*
X70480934Y-101329976D01*
X70389381Y-101276145D01*
X70065526Y-101600000D01*
X70079668Y-101614142D01*
X69864142Y-101829668D01*
X69850000Y-101815526D01*
X69835857Y-101829668D01*
X69634474Y-101628285D01*
X69620331Y-101614142D01*
X69634474Y-101600000D01*
X69310619Y-101276145D01*
X69219066Y-101329976D01*
X69216320Y-101342982D01*
X69210934Y-101329976D01*
X69119381Y-101276145D01*
X68795526Y-101600000D01*
X68809668Y-101614142D01*
X68594142Y-101829668D01*
X68580000Y-101815526D01*
X68565857Y-101829668D01*
X68350331Y-101614142D01*
X68364474Y-101600000D01*
X68040619Y-101276145D01*
X67949066Y-101329976D01*
X67941511Y-101365764D01*
X67880959Y-101219217D01*
X67691778Y-101029706D01*
X67535870Y-100964967D01*
X67690783Y-100900959D01*
X67880294Y-100711778D01*
X67945032Y-100555870D01*
X68009041Y-100710783D01*
X68198222Y-100900294D01*
X68341532Y-100959801D01*
X68324799Y-100962927D01*
X68309976Y-100969066D01*
X68256145Y-101060619D01*
X68580000Y-101384474D01*
X68903855Y-101060619D01*
X68850024Y-100969066D01*
X68814235Y-100961511D01*
X68960783Y-100900959D01*
X69150294Y-100711778D01*
X69215032Y-100555870D01*
X69279041Y-100710783D01*
X69468222Y-100900294D01*
X69611532Y-100959801D01*
X69594799Y-100962927D01*
X69579976Y-100969066D01*
X69526145Y-101060619D01*
X69850000Y-101384474D01*
X70173855Y-101060619D01*
X70120024Y-100969066D01*
X70084235Y-100961511D01*
X70230783Y-100900959D01*
X70420294Y-100711778D01*
X70485032Y-100555870D01*
X70549041Y-100710783D01*
X70738222Y-100900294D01*
X70894129Y-100965032D01*
X70894129Y-100965032D01*
G37*
X70894129Y-100965032D02*
X70739217Y-101029041D01*
X70549706Y-101218222D01*
X70490198Y-101361532D01*
X70487073Y-101344799D01*
X70480934Y-101329976D01*
X70389381Y-101276145D01*
X70065526Y-101600000D01*
X70079668Y-101614142D01*
X69864142Y-101829668D01*
X69850000Y-101815526D01*
X69835857Y-101829668D01*
X69634474Y-101628285D01*
X69620331Y-101614142D01*
X69634474Y-101600000D01*
X69310619Y-101276145D01*
X69219066Y-101329976D01*
X69216320Y-101342982D01*
X69210934Y-101329976D01*
X69119381Y-101276145D01*
X68795526Y-101600000D01*
X68809668Y-101614142D01*
X68594142Y-101829668D01*
X68580000Y-101815526D01*
X68565857Y-101829668D01*
X68350331Y-101614142D01*
X68364474Y-101600000D01*
X68040619Y-101276145D01*
X67949066Y-101329976D01*
X67941511Y-101365764D01*
X67880959Y-101219217D01*
X67691778Y-101029706D01*
X67535870Y-100964967D01*
X67690783Y-100900959D01*
X67880294Y-100711778D01*
X67945032Y-100555870D01*
X68009041Y-100710783D01*
X68198222Y-100900294D01*
X68341532Y-100959801D01*
X68324799Y-100962927D01*
X68309976Y-100969066D01*
X68256145Y-101060619D01*
X68580000Y-101384474D01*
X68903855Y-101060619D01*
X68850024Y-100969066D01*
X68814235Y-100961511D01*
X68960783Y-100900959D01*
X69150294Y-100711778D01*
X69215032Y-100555870D01*
X69279041Y-100710783D01*
X69468222Y-100900294D01*
X69611532Y-100959801D01*
X69594799Y-100962927D01*
X69579976Y-100969066D01*
X69526145Y-101060619D01*
X69850000Y-101384474D01*
X70173855Y-101060619D01*
X70120024Y-100969066D01*
X70084235Y-100961511D01*
X70230783Y-100900959D01*
X70420294Y-100711778D01*
X70485032Y-100555870D01*
X70549041Y-100710783D01*
X70738222Y-100900294D01*
X70894129Y-100965032D01*
G36*
X71183817Y-117600731D02*
X71059898Y-117651934D01*
X70906144Y-117805420D01*
X70883988Y-117858776D01*
X70722477Y-117791711D01*
X70505225Y-117791521D01*
X70304437Y-117874485D01*
X70150683Y-118027971D01*
X70067369Y-118228613D01*
X70067179Y-118445865D01*
X70150143Y-118646653D01*
X70303629Y-118800407D01*
X70504271Y-118883721D01*
X70692570Y-118883885D01*
X70697383Y-118888698D01*
X70697386Y-118888702D01*
X70916800Y-119108116D01*
X70916800Y-119967407D01*
X70873120Y-119902035D01*
X70873116Y-119902032D01*
X70868165Y-119897081D01*
X70868329Y-119709874D01*
X70785365Y-119509086D01*
X70631879Y-119355332D01*
X70431237Y-119272018D01*
X70213985Y-119271828D01*
X70013197Y-119354792D01*
X69859443Y-119508278D01*
X69776129Y-119708920D01*
X69775939Y-119926172D01*
X69780398Y-119936965D01*
X69615802Y-120004975D01*
X69462048Y-120158461D01*
X69378734Y-120359103D01*
X69378544Y-120576355D01*
X69461508Y-120777143D01*
X69614994Y-120930897D01*
X69815636Y-121014211D01*
X69938901Y-121014318D01*
X69938901Y-121347363D01*
X69581070Y-121705194D01*
X69509492Y-121812319D01*
X69484357Y-121938681D01*
X69484357Y-121994480D01*
X69479302Y-121986915D01*
X69124967Y-121750156D01*
X68707000Y-121667017D01*
X68289033Y-121750156D01*
X67934698Y-121986915D01*
X67767200Y-122237593D01*
X67767200Y-119762135D01*
X68917403Y-118611932D01*
X69027357Y-118657589D01*
X69244609Y-118657779D01*
X69445397Y-118574815D01*
X69599151Y-118421329D01*
X69682465Y-118220687D01*
X69682655Y-118003435D01*
X69599691Y-117802647D01*
X69446205Y-117648893D01*
X69245563Y-117565579D01*
X69124359Y-117565473D01*
X71148559Y-117565473D01*
X71183817Y-117600731D01*
X71183817Y-117600731D01*
G37*
X71183817Y-117600731D02*
X71059898Y-117651934D01*
X70906144Y-117805420D01*
X70883988Y-117858776D01*
X70722477Y-117791711D01*
X70505225Y-117791521D01*
X70304437Y-117874485D01*
X70150683Y-118027971D01*
X70067369Y-118228613D01*
X70067179Y-118445865D01*
X70150143Y-118646653D01*
X70303629Y-118800407D01*
X70504271Y-118883721D01*
X70692570Y-118883885D01*
X70697383Y-118888698D01*
X70697386Y-118888702D01*
X70916800Y-119108116D01*
X70916800Y-119967407D01*
X70873120Y-119902035D01*
X70873116Y-119902032D01*
X70868165Y-119897081D01*
X70868329Y-119709874D01*
X70785365Y-119509086D01*
X70631879Y-119355332D01*
X70431237Y-119272018D01*
X70213985Y-119271828D01*
X70013197Y-119354792D01*
X69859443Y-119508278D01*
X69776129Y-119708920D01*
X69775939Y-119926172D01*
X69780398Y-119936965D01*
X69615802Y-120004975D01*
X69462048Y-120158461D01*
X69378734Y-120359103D01*
X69378544Y-120576355D01*
X69461508Y-120777143D01*
X69614994Y-120930897D01*
X69815636Y-121014211D01*
X69938901Y-121014318D01*
X69938901Y-121347363D01*
X69581070Y-121705194D01*
X69509492Y-121812319D01*
X69484357Y-121938681D01*
X69484357Y-121994480D01*
X69479302Y-121986915D01*
X69124967Y-121750156D01*
X68707000Y-121667017D01*
X68289033Y-121750156D01*
X67934698Y-121986915D01*
X67767200Y-122237593D01*
X67767200Y-119762135D01*
X68917403Y-118611932D01*
X69027357Y-118657589D01*
X69244609Y-118657779D01*
X69445397Y-118574815D01*
X69599151Y-118421329D01*
X69682465Y-118220687D01*
X69682655Y-118003435D01*
X69599691Y-117802647D01*
X69446205Y-117648893D01*
X69245563Y-117565579D01*
X69124359Y-117565473D01*
X71148559Y-117565473D01*
X71183817Y-117600731D01*
G36*
X78536800Y-121732698D02*
X78449033Y-121750156D01*
X78094698Y-121986915D01*
X77911086Y-122261708D01*
X77902065Y-122216352D01*
X77830487Y-122109227D01*
X75789030Y-120067770D01*
X75789026Y-120067767D01*
X75784075Y-120062816D01*
X75784239Y-119875609D01*
X75701275Y-119674821D01*
X75547789Y-119521067D01*
X75347147Y-119437753D01*
X75129895Y-119437563D01*
X74929107Y-119520527D01*
X74775353Y-119674013D01*
X74695782Y-119865640D01*
X74658103Y-119849995D01*
X74440851Y-119849805D01*
X74240063Y-119932769D01*
X74106799Y-120065800D01*
X73340005Y-120065800D01*
X73207745Y-119933309D01*
X73007103Y-119849995D01*
X72789851Y-119849805D01*
X72589063Y-119932769D01*
X72435309Y-120086255D01*
X72415410Y-120134177D01*
X72415410Y-118035155D01*
X72415410Y-118035150D01*
X72415411Y-118035150D01*
X72390275Y-117908788D01*
X72318697Y-117801663D01*
X71752297Y-117235263D01*
X73232689Y-117235263D01*
X75407710Y-119410283D01*
X75407713Y-119410287D01*
X75514838Y-119481865D01*
X75641200Y-119507000D01*
X76495026Y-119507000D01*
X78536800Y-121548774D01*
X78536800Y-121732698D01*
X78536800Y-121732698D01*
G37*
X78536800Y-121732698D02*
X78449033Y-121750156D01*
X78094698Y-121986915D01*
X77911086Y-122261708D01*
X77902065Y-122216352D01*
X77830487Y-122109227D01*
X75789030Y-120067770D01*
X75789026Y-120067767D01*
X75784075Y-120062816D01*
X75784239Y-119875609D01*
X75701275Y-119674821D01*
X75547789Y-119521067D01*
X75347147Y-119437753D01*
X75129895Y-119437563D01*
X74929107Y-119520527D01*
X74775353Y-119674013D01*
X74695782Y-119865640D01*
X74658103Y-119849995D01*
X74440851Y-119849805D01*
X74240063Y-119932769D01*
X74106799Y-120065800D01*
X73340005Y-120065800D01*
X73207745Y-119933309D01*
X73007103Y-119849995D01*
X72789851Y-119849805D01*
X72589063Y-119932769D01*
X72435309Y-120086255D01*
X72415410Y-120134177D01*
X72415410Y-118035155D01*
X72415410Y-118035150D01*
X72415411Y-118035150D01*
X72390275Y-117908788D01*
X72318697Y-117801663D01*
X71752297Y-117235263D01*
X73232689Y-117235263D01*
X75407710Y-119410283D01*
X75407713Y-119410287D01*
X75514838Y-119481865D01*
X75641200Y-119507000D01*
X76495026Y-119507000D01*
X78536800Y-121548774D01*
X78536800Y-121732698D01*
G36*
X79400380Y-121011419D02*
X79235497Y-120846536D01*
X79235497Y-116401549D01*
X79152533Y-116200761D01*
X78999047Y-116047007D01*
X78798405Y-115963693D01*
X78581153Y-115963503D01*
X78380365Y-116046467D01*
X78226611Y-116199953D01*
X78143297Y-116400595D01*
X78143195Y-116516988D01*
X77958513Y-116701670D01*
X77833103Y-116649595D01*
X77716709Y-116649493D01*
X76990109Y-115922893D01*
X76866504Y-115840303D01*
X76720701Y-115811301D01*
X66898507Y-115811301D01*
X66752704Y-115840303D01*
X66629099Y-115922893D01*
X66578299Y-115973693D01*
X66578296Y-115973696D01*
X66537486Y-116014505D01*
X66422059Y-116014405D01*
X66221271Y-116097369D01*
X66067517Y-116250855D01*
X65984203Y-116451497D01*
X65984013Y-116668749D01*
X66066977Y-116869537D01*
X66220463Y-117023291D01*
X66421105Y-117106605D01*
X66638357Y-117106795D01*
X66839145Y-117023831D01*
X66992899Y-116870345D01*
X67076213Y-116669703D01*
X67076297Y-116573301D01*
X76562885Y-116573301D01*
X77177905Y-117188321D01*
X77177805Y-117303749D01*
X77260769Y-117504537D01*
X77414255Y-117658291D01*
X77614897Y-117741605D01*
X77832149Y-117741795D01*
X78032937Y-117658831D01*
X78143160Y-117548800D01*
X78143160Y-117548799D01*
X78149202Y-117547598D01*
X78149203Y-117547598D01*
X78272808Y-117465008D01*
X78682023Y-117055792D01*
X78797451Y-117055893D01*
X78998239Y-116972929D01*
X79151993Y-116819443D01*
X79235307Y-116618801D01*
X79235497Y-116401549D01*
X79235497Y-120846536D01*
X76773474Y-118384513D01*
X76666349Y-118312935D01*
X76539987Y-118287800D01*
X76464205Y-118287800D01*
X76331945Y-118155309D01*
X76131303Y-118071995D01*
X75914051Y-118071805D01*
X75713263Y-118154769D01*
X75559509Y-118308255D01*
X75476195Y-118508897D01*
X75476163Y-118544790D01*
X73602950Y-116671576D01*
X73495825Y-116599998D01*
X73369463Y-116574863D01*
X67893054Y-116574863D01*
X67893049Y-116574862D01*
X67766687Y-116599998D01*
X67659562Y-116671576D01*
X66808035Y-117523103D01*
X66557324Y-117523103D01*
X65747889Y-116713667D01*
X65747889Y-116202084D01*
X66819582Y-115130390D01*
X66819585Y-115130388D01*
X66819586Y-115130388D01*
X66891164Y-115023263D01*
X66916299Y-114896901D01*
X66916299Y-109502337D01*
X66916299Y-109502332D01*
X66916300Y-109502332D01*
X66891164Y-109375970D01*
X66819586Y-109268846D01*
X66819586Y-109268845D01*
X66819582Y-109268842D01*
X66466706Y-108915965D01*
X66359581Y-108844387D01*
X66233219Y-108819252D01*
X66226212Y-108819252D01*
X66093952Y-108686761D01*
X65919041Y-108614131D01*
X66125973Y-108407200D01*
X66665226Y-108407200D01*
X72410510Y-114152483D01*
X72410513Y-114152487D01*
X72410514Y-114152487D01*
X72517638Y-114224065D01*
X72644000Y-114249201D01*
X72644000Y-114249200D01*
X72644005Y-114249200D01*
X77841226Y-114249200D01*
X79400380Y-115808353D01*
X79400380Y-121011419D01*
X79400380Y-121011419D01*
G37*
X79400380Y-121011419D02*
X79235497Y-120846536D01*
X79235497Y-116401549D01*
X79152533Y-116200761D01*
X78999047Y-116047007D01*
X78798405Y-115963693D01*
X78581153Y-115963503D01*
X78380365Y-116046467D01*
X78226611Y-116199953D01*
X78143297Y-116400595D01*
X78143195Y-116516988D01*
X77958513Y-116701670D01*
X77833103Y-116649595D01*
X77716709Y-116649493D01*
X76990109Y-115922893D01*
X76866504Y-115840303D01*
X76720701Y-115811301D01*
X66898507Y-115811301D01*
X66752704Y-115840303D01*
X66629099Y-115922893D01*
X66578299Y-115973693D01*
X66578296Y-115973696D01*
X66537486Y-116014505D01*
X66422059Y-116014405D01*
X66221271Y-116097369D01*
X66067517Y-116250855D01*
X65984203Y-116451497D01*
X65984013Y-116668749D01*
X66066977Y-116869537D01*
X66220463Y-117023291D01*
X66421105Y-117106605D01*
X66638357Y-117106795D01*
X66839145Y-117023831D01*
X66992899Y-116870345D01*
X67076213Y-116669703D01*
X67076297Y-116573301D01*
X76562885Y-116573301D01*
X77177905Y-117188321D01*
X77177805Y-117303749D01*
X77260769Y-117504537D01*
X77414255Y-117658291D01*
X77614897Y-117741605D01*
X77832149Y-117741795D01*
X78032937Y-117658831D01*
X78143160Y-117548800D01*
X78143160Y-117548799D01*
X78149202Y-117547598D01*
X78149203Y-117547598D01*
X78272808Y-117465008D01*
X78682023Y-117055792D01*
X78797451Y-117055893D01*
X78998239Y-116972929D01*
X79151993Y-116819443D01*
X79235307Y-116618801D01*
X79235497Y-116401549D01*
X79235497Y-120846536D01*
X76773474Y-118384513D01*
X76666349Y-118312935D01*
X76539987Y-118287800D01*
X76464205Y-118287800D01*
X76331945Y-118155309D01*
X76131303Y-118071995D01*
X75914051Y-118071805D01*
X75713263Y-118154769D01*
X75559509Y-118308255D01*
X75476195Y-118508897D01*
X75476163Y-118544790D01*
X73602950Y-116671576D01*
X73495825Y-116599998D01*
X73369463Y-116574863D01*
X67893054Y-116574863D01*
X67893049Y-116574862D01*
X67766687Y-116599998D01*
X67659562Y-116671576D01*
X66808035Y-117523103D01*
X66557324Y-117523103D01*
X65747889Y-116713667D01*
X65747889Y-116202084D01*
X66819582Y-115130390D01*
X66819585Y-115130388D01*
X66819586Y-115130388D01*
X66891164Y-115023263D01*
X66916299Y-114896901D01*
X66916299Y-109502337D01*
X66916299Y-109502332D01*
X66916300Y-109502332D01*
X66891164Y-109375970D01*
X66819586Y-109268846D01*
X66819586Y-109268845D01*
X66819582Y-109268842D01*
X66466706Y-108915965D01*
X66359581Y-108844387D01*
X66233219Y-108819252D01*
X66226212Y-108819252D01*
X66093952Y-108686761D01*
X65919041Y-108614131D01*
X66125973Y-108407200D01*
X66665226Y-108407200D01*
X72410510Y-114152483D01*
X72410513Y-114152487D01*
X72410514Y-114152487D01*
X72517638Y-114224065D01*
X72644000Y-114249201D01*
X72644000Y-114249200D01*
X72644005Y-114249200D01*
X77841226Y-114249200D01*
X79400380Y-115808353D01*
X79400380Y-121011419D01*
G36*
X79771103Y-110693200D02*
X79661559Y-110802554D01*
X79578245Y-111003196D01*
X79578080Y-111191495D01*
X79509812Y-111259763D01*
X79438234Y-111366888D01*
X79413099Y-111493250D01*
X79413099Y-112050462D01*
X79249258Y-111982430D01*
X79060959Y-111982265D01*
X78986207Y-111907513D01*
X78879082Y-111835935D01*
X78752720Y-111810800D01*
X74228574Y-111810800D01*
X74211472Y-111793698D01*
X74382957Y-111722842D01*
X74536711Y-111569356D01*
X74620025Y-111368714D01*
X74620189Y-111180414D01*
X74909483Y-110891120D01*
X74909486Y-110891118D01*
X74909487Y-110891118D01*
X74981065Y-110783993D01*
X75006200Y-110657631D01*
X75006200Y-108216710D01*
X74981065Y-108090348D01*
X74909487Y-107983223D01*
X74909483Y-107983220D01*
X74841031Y-107914768D01*
X74841195Y-107727561D01*
X74758231Y-107526773D01*
X74604745Y-107373019D01*
X74404103Y-107289705D01*
X74186851Y-107289515D01*
X73986063Y-107372479D01*
X73832309Y-107525965D01*
X73748995Y-107726607D01*
X73748805Y-107943859D01*
X73831769Y-108144647D01*
X73985255Y-108298401D01*
X74185897Y-108381715D01*
X74345800Y-108381854D01*
X74345800Y-108628255D01*
X74150103Y-108546995D01*
X73932851Y-108546805D01*
X73732063Y-108629769D01*
X73578309Y-108783255D01*
X73494995Y-108983897D01*
X73494805Y-109201149D01*
X73577769Y-109401937D01*
X73731255Y-109555691D01*
X73931897Y-109639005D01*
X74149149Y-109639195D01*
X74345800Y-109557940D01*
X74345800Y-110520857D01*
X74153077Y-110713579D01*
X73965871Y-110713416D01*
X73765083Y-110796380D01*
X73611329Y-110949866D01*
X73539829Y-111122055D01*
X71107231Y-108689457D01*
X71107395Y-108502251D01*
X71024431Y-108301463D01*
X70870945Y-108147709D01*
X70670303Y-108064395D01*
X70542568Y-108064283D01*
X70743137Y-107981410D01*
X70896891Y-107827924D01*
X70980205Y-107627282D01*
X70980369Y-107438982D01*
X70985182Y-107434169D01*
X70985185Y-107434167D01*
X70985186Y-107434167D01*
X71167863Y-107251490D01*
X75399955Y-107251490D01*
X75399805Y-107423149D01*
X75482769Y-107623937D01*
X75636255Y-107777691D01*
X75836897Y-107861005D01*
X76025196Y-107861169D01*
X76030009Y-107865982D01*
X76030012Y-107865986D01*
X78760510Y-110596483D01*
X78760513Y-110596487D01*
X78760514Y-110596487D01*
X78867638Y-110668065D01*
X78994000Y-110693201D01*
X78994000Y-110693200D01*
X78994005Y-110693200D01*
X79771103Y-110693200D01*
X79771103Y-110693200D01*
G37*
X79771103Y-110693200D02*
X79661559Y-110802554D01*
X79578245Y-111003196D01*
X79578080Y-111191495D01*
X79509812Y-111259763D01*
X79438234Y-111366888D01*
X79413099Y-111493250D01*
X79413099Y-112050462D01*
X79249258Y-111982430D01*
X79060959Y-111982265D01*
X78986207Y-111907513D01*
X78879082Y-111835935D01*
X78752720Y-111810800D01*
X74228574Y-111810800D01*
X74211472Y-111793698D01*
X74382957Y-111722842D01*
X74536711Y-111569356D01*
X74620025Y-111368714D01*
X74620189Y-111180414D01*
X74909483Y-110891120D01*
X74909486Y-110891118D01*
X74909487Y-110891118D01*
X74981065Y-110783993D01*
X75006200Y-110657631D01*
X75006200Y-108216710D01*
X74981065Y-108090348D01*
X74909487Y-107983223D01*
X74909483Y-107983220D01*
X74841031Y-107914768D01*
X74841195Y-107727561D01*
X74758231Y-107526773D01*
X74604745Y-107373019D01*
X74404103Y-107289705D01*
X74186851Y-107289515D01*
X73986063Y-107372479D01*
X73832309Y-107525965D01*
X73748995Y-107726607D01*
X73748805Y-107943859D01*
X73831769Y-108144647D01*
X73985255Y-108298401D01*
X74185897Y-108381715D01*
X74345800Y-108381854D01*
X74345800Y-108628255D01*
X74150103Y-108546995D01*
X73932851Y-108546805D01*
X73732063Y-108629769D01*
X73578309Y-108783255D01*
X73494995Y-108983897D01*
X73494805Y-109201149D01*
X73577769Y-109401937D01*
X73731255Y-109555691D01*
X73931897Y-109639005D01*
X74149149Y-109639195D01*
X74345800Y-109557940D01*
X74345800Y-110520857D01*
X74153077Y-110713579D01*
X73965871Y-110713416D01*
X73765083Y-110796380D01*
X73611329Y-110949866D01*
X73539829Y-111122055D01*
X71107231Y-108689457D01*
X71107395Y-108502251D01*
X71024431Y-108301463D01*
X70870945Y-108147709D01*
X70670303Y-108064395D01*
X70542568Y-108064283D01*
X70743137Y-107981410D01*
X70896891Y-107827924D01*
X70980205Y-107627282D01*
X70980369Y-107438982D01*
X70985182Y-107434169D01*
X70985185Y-107434167D01*
X70985186Y-107434167D01*
X71167863Y-107251490D01*
X75399955Y-107251490D01*
X75399805Y-107423149D01*
X75482769Y-107623937D01*
X75636255Y-107777691D01*
X75836897Y-107861005D01*
X76025196Y-107861169D01*
X76030009Y-107865982D01*
X76030012Y-107865986D01*
X78760510Y-110596483D01*
X78760513Y-110596487D01*
X78760514Y-110596487D01*
X78867638Y-110668065D01*
X78994000Y-110693201D01*
X78994000Y-110693200D01*
X78994005Y-110693200D01*
X79771103Y-110693200D01*
G36*
X88253401Y-111034718D02*
X88170876Y-110952049D01*
X87820515Y-110806566D01*
X87651391Y-110806418D01*
X87006599Y-110161625D01*
X87006599Y-109945281D01*
X87089124Y-110027951D01*
X87439485Y-110173434D01*
X87818851Y-110173765D01*
X88169465Y-110028894D01*
X88253401Y-109945104D01*
X88253401Y-111034718D01*
X88253401Y-111034718D01*
G37*
X88253401Y-111034718D02*
X88170876Y-110952049D01*
X87820515Y-110806566D01*
X87651391Y-110806418D01*
X87006599Y-110161625D01*
X87006599Y-109945281D01*
X87089124Y-110027951D01*
X87439485Y-110173434D01*
X87818851Y-110173765D01*
X88169465Y-110028894D01*
X88253401Y-109945104D01*
X88253401Y-111034718D01*
G36*
X89536755Y-110934500D02*
X89449430Y-110992849D01*
X89412044Y-111048800D01*
X89331800Y-111048800D01*
X89205438Y-111073935D01*
X89098313Y-111145513D01*
X88913801Y-111330025D01*
X88913801Y-109125941D01*
X88920513Y-109135987D01*
X89305415Y-109520889D01*
X89289481Y-109601000D01*
X89331050Y-109809983D01*
X89449430Y-109987151D01*
X89536755Y-110045500D01*
X89449430Y-110103849D01*
X89331050Y-110281017D01*
X89289481Y-110490000D01*
X89331050Y-110698983D01*
X89449430Y-110876151D01*
X89536755Y-110934500D01*
X89536755Y-110934500D01*
G37*
X89536755Y-110934500D02*
X89449430Y-110992849D01*
X89412044Y-111048800D01*
X89331800Y-111048800D01*
X89205438Y-111073935D01*
X89098313Y-111145513D01*
X88913801Y-111330025D01*
X88913801Y-109125941D01*
X88920513Y-109135987D01*
X89305415Y-109520889D01*
X89289481Y-109601000D01*
X89331050Y-109809983D01*
X89449430Y-109987151D01*
X89536755Y-110045500D01*
X89449430Y-110103849D01*
X89331050Y-110281017D01*
X89289481Y-110490000D01*
X89331050Y-110698983D01*
X89449430Y-110876151D01*
X89536755Y-110934500D01*
G36*
X92431400Y-103784400D02*
X91927907Y-103784400D01*
X91898393Y-103864559D01*
X91898585Y-103910388D01*
X92042717Y-104078210D01*
X92060629Y-104087274D01*
X91989430Y-104134849D01*
X91871050Y-104312017D01*
X91829481Y-104521000D01*
X91871050Y-104729983D01*
X91989430Y-104907151D01*
X92076755Y-104965500D01*
X91989430Y-105023849D01*
X91871050Y-105201017D01*
X91829481Y-105410000D01*
X91837059Y-105448100D01*
X91710061Y-105448100D01*
X91057474Y-104795513D01*
X90950349Y-104723935D01*
X90823987Y-104698800D01*
X89662000Y-104698800D01*
X89535638Y-104723935D01*
X89428513Y-104795513D01*
X88412513Y-105811513D01*
X88340935Y-105918638D01*
X88320406Y-106021840D01*
X88170876Y-105872049D01*
X87820515Y-105726566D01*
X87441149Y-105726235D01*
X87090535Y-105871106D01*
X86822049Y-106139124D01*
X86676566Y-106489485D01*
X86676235Y-106868851D01*
X86763347Y-107079679D01*
X84352155Y-109490871D01*
X84280577Y-109597996D01*
X84255442Y-109724358D01*
X84255442Y-113737960D01*
X84255442Y-113744966D01*
X84239101Y-113761279D01*
X84239101Y-107997872D01*
X87230371Y-105006602D01*
X87439485Y-105093434D01*
X87818851Y-105093765D01*
X88169465Y-104948894D01*
X88437951Y-104680876D01*
X88583434Y-104330515D01*
X88583765Y-103951149D01*
X88438894Y-103600535D01*
X88170876Y-103332049D01*
X87820515Y-103186566D01*
X87441149Y-103186235D01*
X87090535Y-103331106D01*
X87006599Y-103414895D01*
X87006599Y-102690374D01*
X87230371Y-102466602D01*
X87439485Y-102553434D01*
X87818851Y-102553765D01*
X88169465Y-102408894D01*
X88437951Y-102140876D01*
X88583434Y-101790515D01*
X88583765Y-101411149D01*
X88438894Y-101060535D01*
X88170876Y-100792049D01*
X87820515Y-100646566D01*
X87441149Y-100646235D01*
X87090535Y-100791106D01*
X86822049Y-101059124D01*
X86676566Y-101409485D01*
X86676235Y-101788851D01*
X86763347Y-101999678D01*
X86442912Y-102320114D01*
X86371334Y-102427239D01*
X86346199Y-102553601D01*
X86346199Y-104321827D01*
X85255195Y-105412831D01*
X85255195Y-105047851D01*
X85215983Y-104952950D01*
X85215983Y-103505000D01*
X85215983Y-100965000D01*
X85121243Y-100488712D01*
X84851448Y-100084935D01*
X84447671Y-99815140D01*
X83971383Y-99720400D01*
X83922617Y-99720400D01*
X83446329Y-99815140D01*
X83042552Y-100084935D01*
X82772757Y-100488712D01*
X82678017Y-100965000D01*
X82772757Y-101441288D01*
X83042552Y-101845065D01*
X83446329Y-102114860D01*
X83922617Y-102209600D01*
X83971383Y-102209600D01*
X84447671Y-102114860D01*
X84851448Y-101845065D01*
X85121243Y-101441288D01*
X85215983Y-100965000D01*
X85215983Y-103505000D01*
X85121243Y-103028712D01*
X84851448Y-102624935D01*
X84447671Y-102355140D01*
X83971383Y-102260400D01*
X83922617Y-102260400D01*
X83446329Y-102355140D01*
X83042552Y-102624935D01*
X82772757Y-103028712D01*
X82678017Y-103505000D01*
X82772757Y-103981288D01*
X83042552Y-104385065D01*
X83446329Y-104654860D01*
X83922617Y-104749600D01*
X83971383Y-104749600D01*
X84447671Y-104654860D01*
X84851448Y-104385065D01*
X85121243Y-103981288D01*
X85215983Y-103505000D01*
X85215983Y-104952950D01*
X85172231Y-104847063D01*
X85018745Y-104693309D01*
X84818103Y-104609995D01*
X84600851Y-104609805D01*
X84400063Y-104692769D01*
X84246309Y-104846255D01*
X84162995Y-105046897D01*
X84162830Y-105235196D01*
X84064226Y-105333800D01*
X82651600Y-105333800D01*
X82651600Y-104566472D01*
X82651600Y-104475529D01*
X82651600Y-103714550D01*
X82651600Y-103295450D01*
X82651600Y-102534471D01*
X82651600Y-102443528D01*
X82651600Y-102026472D01*
X82651600Y-101935529D01*
X82651600Y-101174550D01*
X82651600Y-100755450D01*
X82651600Y-99994471D01*
X82651600Y-99903528D01*
X82616797Y-99819508D01*
X82552491Y-99755202D01*
X82468471Y-99720400D01*
X81616550Y-99720400D01*
X81559400Y-99777550D01*
X81559400Y-100812600D01*
X82594450Y-100812600D01*
X82651600Y-100755450D01*
X82651600Y-101174550D01*
X82594450Y-101117400D01*
X81559400Y-101117400D01*
X81559400Y-102152450D01*
X81616550Y-102209600D01*
X82468471Y-102209600D01*
X82552491Y-102174798D01*
X82616797Y-102110492D01*
X82651600Y-102026472D01*
X82651600Y-102443528D01*
X82616797Y-102359508D01*
X82552491Y-102295202D01*
X82468471Y-102260400D01*
X81616550Y-102260400D01*
X81559400Y-102317550D01*
X81559400Y-103352600D01*
X82594450Y-103352600D01*
X82651600Y-103295450D01*
X82651600Y-103714550D01*
X82594450Y-103657400D01*
X81559400Y-103657400D01*
X81559400Y-104692450D01*
X81616550Y-104749600D01*
X82468471Y-104749600D01*
X82552491Y-104714798D01*
X82616797Y-104650492D01*
X82651600Y-104566472D01*
X82651600Y-105333800D01*
X81254600Y-105333800D01*
X81254600Y-104692450D01*
X81254600Y-103657400D01*
X81254600Y-103352600D01*
X81254600Y-102317550D01*
X81254600Y-102152450D01*
X81254600Y-101117400D01*
X81254600Y-100812600D01*
X81254600Y-99777550D01*
X81197450Y-99720400D01*
X80345529Y-99720400D01*
X80261509Y-99755202D01*
X80197203Y-99819508D01*
X80162400Y-99903528D01*
X80162400Y-99994471D01*
X80162400Y-100755450D01*
X80219550Y-100812600D01*
X81254600Y-100812600D01*
X81254600Y-101117400D01*
X80219550Y-101117400D01*
X80162400Y-101174550D01*
X80162400Y-101935529D01*
X80162400Y-102026472D01*
X80197203Y-102110492D01*
X80261509Y-102174798D01*
X80345529Y-102209600D01*
X81197450Y-102209600D01*
X81254600Y-102152450D01*
X81254600Y-102317550D01*
X81197450Y-102260400D01*
X80345529Y-102260400D01*
X80261509Y-102295202D01*
X80197203Y-102359508D01*
X80162400Y-102443528D01*
X80162400Y-102534471D01*
X80162400Y-103295450D01*
X80219550Y-103352600D01*
X81254600Y-103352600D01*
X81254600Y-103657400D01*
X80219550Y-103657400D01*
X80162400Y-103714550D01*
X80162400Y-104475529D01*
X80162400Y-104566472D01*
X80197203Y-104650492D01*
X80261509Y-104714798D01*
X80345529Y-104749600D01*
X81197450Y-104749600D01*
X81254600Y-104692450D01*
X81254600Y-105333800D01*
X80400773Y-105333800D01*
X79565431Y-104498457D01*
X79565595Y-104311251D01*
X79482631Y-104110463D01*
X79329145Y-103956709D01*
X79128503Y-103873395D01*
X78911251Y-103873205D01*
X78710463Y-103956169D01*
X78556709Y-104109655D01*
X78473395Y-104310297D01*
X78473205Y-104527549D01*
X78556169Y-104728337D01*
X78709655Y-104882091D01*
X78910297Y-104965405D01*
X79098595Y-104965569D01*
X80030513Y-105897487D01*
X80137638Y-105969065D01*
X80264000Y-105994201D01*
X80264000Y-105994200D01*
X80264005Y-105994200D01*
X84201000Y-105994200D01*
X84327362Y-105969065D01*
X84434487Y-105897487D01*
X84629942Y-105702031D01*
X84817149Y-105702195D01*
X85017937Y-105619231D01*
X85171691Y-105465745D01*
X85255005Y-105265103D01*
X85255195Y-105047851D01*
X85255195Y-105412831D01*
X83167414Y-107500612D01*
X83095836Y-107607737D01*
X83070701Y-107734099D01*
X83070701Y-110467368D01*
X82886725Y-110283392D01*
X82886721Y-110283389D01*
X82845912Y-110242579D01*
X82846013Y-110127152D01*
X82763049Y-109926364D01*
X82609563Y-109772610D01*
X82408921Y-109689296D01*
X82191669Y-109689106D01*
X81990881Y-109772070D01*
X81837127Y-109925556D01*
X81787823Y-110044291D01*
X81356200Y-109612667D01*
X81356200Y-109093005D01*
X81356200Y-109093000D01*
X81356201Y-109093000D01*
X81331065Y-108966638D01*
X81259487Y-108859514D01*
X81259487Y-108859513D01*
X81259483Y-108859510D01*
X80497487Y-108097513D01*
X80390362Y-108025935D01*
X80264000Y-108000800D01*
X79706336Y-108000800D01*
X76755049Y-105049513D01*
X76647924Y-104977935D01*
X76521562Y-104952800D01*
X68514005Y-104952800D01*
X68381745Y-104820309D01*
X68181103Y-104736995D01*
X67963851Y-104736805D01*
X67763063Y-104819769D01*
X67609309Y-104973255D01*
X67525995Y-105173897D01*
X67525805Y-105391149D01*
X67608769Y-105591937D01*
X67762255Y-105745691D01*
X67962897Y-105829005D01*
X68033977Y-105829067D01*
X68033805Y-106026149D01*
X68116769Y-106226937D01*
X68270255Y-106380691D01*
X68470897Y-106464005D01*
X68554697Y-106464078D01*
X68554525Y-106661149D01*
X68637489Y-106861937D01*
X68790975Y-107015691D01*
X68991617Y-107099005D01*
X69049977Y-107099056D01*
X69049805Y-107296149D01*
X69132769Y-107496937D01*
X69286255Y-107650691D01*
X69486897Y-107734005D01*
X69704149Y-107734195D01*
X69899263Y-107653575D01*
X69970969Y-107827116D01*
X70124455Y-107980870D01*
X70325097Y-108064184D01*
X70452831Y-108064295D01*
X70252263Y-108147169D01*
X70098509Y-108300655D01*
X70015195Y-108501297D01*
X70015005Y-108718549D01*
X70097969Y-108919337D01*
X70251455Y-109073091D01*
X70452097Y-109156405D01*
X70640395Y-109156569D01*
X73858313Y-112374487D01*
X73965438Y-112446065D01*
X74091800Y-112471200D01*
X76370255Y-112471200D01*
X76288995Y-112666897D01*
X76288805Y-112884149D01*
X76371769Y-113084937D01*
X76525255Y-113238691D01*
X76573177Y-113258590D01*
X72917550Y-113258590D01*
X67172264Y-107513303D01*
X67065139Y-107441725D01*
X66938777Y-107416590D01*
X65511180Y-107416590D01*
X65384818Y-107441725D01*
X65277693Y-107513303D01*
X64142812Y-108648184D01*
X64071234Y-108755309D01*
X64046099Y-108881671D01*
X64046099Y-109405929D01*
X64071234Y-109532291D01*
X64142812Y-109639416D01*
X65212671Y-110709275D01*
X65212671Y-111357102D01*
X65212671Y-111364108D01*
X65080180Y-111496369D01*
X64996866Y-111697011D01*
X64996676Y-111914263D01*
X65079640Y-112115051D01*
X65233126Y-112268805D01*
X65433768Y-112352119D01*
X65651020Y-112352309D01*
X65851808Y-112269345D01*
X65905520Y-112215726D01*
X65905520Y-114643519D01*
X64853992Y-115695047D01*
X64782414Y-115802172D01*
X64757279Y-115928534D01*
X64757279Y-116987218D01*
X64782414Y-117113580D01*
X64853992Y-117220705D01*
X66050284Y-118416996D01*
X66050287Y-118417000D01*
X66050288Y-118417000D01*
X66157412Y-118488578D01*
X66283774Y-118513714D01*
X66283774Y-118513713D01*
X66283779Y-118513713D01*
X67081586Y-118513713D01*
X67207948Y-118488578D01*
X67315073Y-118417000D01*
X68166599Y-117565473D01*
X69028107Y-117565473D01*
X68827523Y-117648353D01*
X68673769Y-117801839D01*
X68590455Y-118002481D01*
X68590452Y-118004936D01*
X67203513Y-119391875D01*
X67131935Y-119499000D01*
X67106800Y-119625362D01*
X67106800Y-122237593D01*
X66939302Y-121986915D01*
X66584967Y-121750156D01*
X66167000Y-121667017D01*
X65749033Y-121750156D01*
X65394698Y-121986915D01*
X65157939Y-122341250D01*
X65074800Y-122759217D01*
X65074800Y-123112783D01*
X65157939Y-123530750D01*
X65394698Y-123885085D01*
X65749033Y-124121844D01*
X66167000Y-124204983D01*
X66584967Y-124121844D01*
X66939302Y-123885085D01*
X67106800Y-123634406D01*
X67106800Y-123916826D01*
X66673988Y-124349637D01*
X66584967Y-124290156D01*
X66167000Y-124207017D01*
X65749033Y-124290156D01*
X65394698Y-124526915D01*
X65157939Y-124881250D01*
X65074800Y-125299217D01*
X65074800Y-125652783D01*
X65157939Y-126070750D01*
X65371522Y-126390400D01*
X64422477Y-126390400D01*
X64636061Y-126070750D01*
X64719200Y-125652783D01*
X64719200Y-125299217D01*
X64719200Y-123112783D01*
X64719200Y-122759217D01*
X64636061Y-122341250D01*
X64399302Y-121986915D01*
X64044967Y-121750156D01*
X63627000Y-121667017D01*
X63209033Y-121750156D01*
X62854698Y-121986915D01*
X62617939Y-122341250D01*
X62534800Y-122759217D01*
X62534800Y-123112783D01*
X62617939Y-123530750D01*
X62854698Y-123885085D01*
X63209033Y-124121844D01*
X63627000Y-124204983D01*
X64044967Y-124121844D01*
X64399302Y-123885085D01*
X64636061Y-123530750D01*
X64719200Y-123112783D01*
X64719200Y-125299217D01*
X64636061Y-124881250D01*
X64399302Y-124526915D01*
X64044967Y-124290156D01*
X63627000Y-124207017D01*
X63209033Y-124290156D01*
X62854698Y-124526915D01*
X62617939Y-124881250D01*
X62534800Y-125299217D01*
X62534800Y-125652783D01*
X62617939Y-126070750D01*
X62831522Y-126390400D01*
X62179200Y-126390400D01*
X62179200Y-125685550D01*
X62179200Y-125266450D01*
X62179200Y-124505471D01*
X62179200Y-124414528D01*
X62179200Y-123997472D01*
X62179200Y-123906529D01*
X62179200Y-123145550D01*
X62179200Y-122726450D01*
X62179200Y-121965471D01*
X62179200Y-121874528D01*
X62144397Y-121790508D01*
X62080091Y-121726202D01*
X61996071Y-121691400D01*
X61296550Y-121691400D01*
X61239400Y-121748550D01*
X61239400Y-122783600D01*
X62122050Y-122783600D01*
X62179200Y-122726450D01*
X62179200Y-123145550D01*
X62122050Y-123088400D01*
X61239400Y-123088400D01*
X61239400Y-124123450D01*
X61296550Y-124180600D01*
X61996071Y-124180600D01*
X62080091Y-124145798D01*
X62144397Y-124081492D01*
X62179200Y-123997472D01*
X62179200Y-124414528D01*
X62144397Y-124330508D01*
X62080091Y-124266202D01*
X61996071Y-124231400D01*
X61296550Y-124231400D01*
X61239400Y-124288550D01*
X61239400Y-125323600D01*
X62122050Y-125323600D01*
X62179200Y-125266450D01*
X62179200Y-125685550D01*
X62122050Y-125628400D01*
X61239400Y-125628400D01*
X61239400Y-125648400D01*
X61061600Y-125648400D01*
X61061600Y-121708084D01*
X62839600Y-119930084D01*
X62839600Y-99669600D01*
X67145679Y-99669600D01*
X66929217Y-99759041D01*
X66739706Y-99948222D01*
X66637017Y-100195525D01*
X66636783Y-100463301D01*
X66739041Y-100710783D01*
X66928222Y-100900294D01*
X67084129Y-100965032D01*
X66929217Y-101029041D01*
X66739706Y-101218222D01*
X66637017Y-101465525D01*
X66636783Y-101733301D01*
X66739041Y-101980783D01*
X66928222Y-102170294D01*
X67175525Y-102272983D01*
X67443301Y-102273217D01*
X67494916Y-102251889D01*
X67838510Y-102595483D01*
X67838513Y-102595487D01*
X67838514Y-102595487D01*
X67945638Y-102667065D01*
X68072000Y-102692201D01*
X68072000Y-102692200D01*
X68072005Y-102692200D01*
X75249994Y-102692200D01*
X75382255Y-102824691D01*
X75582897Y-102908005D01*
X75771195Y-102908169D01*
X77774800Y-104911773D01*
X77774800Y-105156000D01*
X77799935Y-105282362D01*
X77871513Y-105389487D01*
X80284510Y-107802483D01*
X80284513Y-107802487D01*
X80391638Y-107874065D01*
X80518000Y-107899200D01*
X80635226Y-107899200D01*
X80987968Y-108251942D01*
X80987805Y-108439149D01*
X81070769Y-108639937D01*
X81224255Y-108793691D01*
X81424897Y-108877005D01*
X81642149Y-108877195D01*
X81842937Y-108794231D01*
X81996691Y-108640745D01*
X82080005Y-108440103D01*
X82080195Y-108222851D01*
X81997231Y-108022063D01*
X81843745Y-107868309D01*
X81643103Y-107784995D01*
X81454803Y-107784830D01*
X81005487Y-107335513D01*
X80898362Y-107263935D01*
X80772000Y-107238800D01*
X80654773Y-107238800D01*
X78435200Y-105019226D01*
X78435200Y-104775000D01*
X78410065Y-104648638D01*
X78338487Y-104541513D01*
X78338483Y-104541510D01*
X76238031Y-102441057D01*
X76238195Y-102253851D01*
X76155231Y-102053063D01*
X76001745Y-101899309D01*
X75801103Y-101815995D01*
X75583851Y-101815805D01*
X75383063Y-101898769D01*
X75249799Y-102031800D01*
X72910184Y-102031800D01*
X72960294Y-101981778D01*
X73062983Y-101734475D01*
X73063217Y-101466699D01*
X72960959Y-101219217D01*
X72771778Y-101029706D01*
X72615870Y-100964967D01*
X72770783Y-100900959D01*
X72960294Y-100711778D01*
X73062983Y-100464475D01*
X73063217Y-100196699D01*
X72960959Y-99949217D01*
X72771778Y-99759706D01*
X72554778Y-99669600D01*
X89891400Y-99669600D01*
X89891400Y-100672900D01*
X89700100Y-100672900D01*
X89502717Y-100772790D01*
X89358585Y-100940612D01*
X89358393Y-100986441D01*
X89387907Y-101066600D01*
X89891400Y-101066600D01*
X89891400Y-101371400D01*
X89387907Y-101371400D01*
X89358393Y-101451559D01*
X89358585Y-101497388D01*
X89502717Y-101665210D01*
X89520629Y-101674274D01*
X89449430Y-101721849D01*
X89331050Y-101899017D01*
X89289481Y-102108000D01*
X89331050Y-102316983D01*
X89449430Y-102494151D01*
X89626598Y-102612531D01*
X89835581Y-102654100D01*
X89891400Y-102654100D01*
X89891400Y-102870000D01*
X89896752Y-102896906D01*
X89896752Y-102924352D01*
X89940255Y-103143057D01*
X89981855Y-103243487D01*
X89981857Y-103243489D01*
X90105740Y-103428894D01*
X90182606Y-103505760D01*
X90182609Y-103505761D01*
X90368013Y-103629645D01*
X90368014Y-103629645D01*
X90468443Y-103671245D01*
X90468444Y-103671245D01*
X90687148Y-103714748D01*
X90795852Y-103714748D01*
X90795853Y-103714748D01*
X90795853Y-103714747D01*
X91014556Y-103671245D01*
X91014557Y-103671245D01*
X91114986Y-103629645D01*
X91114987Y-103629645D01*
X91114989Y-103629642D01*
X91300393Y-103505760D01*
X91300394Y-103505760D01*
X91377259Y-103428894D01*
X91377260Y-103428894D01*
X91377261Y-103428890D01*
X91501145Y-103243487D01*
X91501145Y-103243486D01*
X91542745Y-103143057D01*
X91542745Y-103143056D01*
X91586248Y-102924352D01*
X91628606Y-102711399D01*
X91718447Y-102576944D01*
X91852900Y-102487105D01*
X92011501Y-102455558D01*
X92170101Y-102487105D01*
X92304556Y-102576946D01*
X92394395Y-102711399D01*
X92431400Y-102897435D01*
X92431400Y-103085900D01*
X92240100Y-103085900D01*
X92042717Y-103185790D01*
X91898585Y-103353612D01*
X91898393Y-103399441D01*
X91927907Y-103479600D01*
X92431400Y-103479600D01*
X92431400Y-103784400D01*
X92431400Y-103784400D01*
G37*
X92431400Y-103784400D02*
X91927907Y-103784400D01*
X91898393Y-103864559D01*
X91898585Y-103910388D01*
X92042717Y-104078210D01*
X92060629Y-104087274D01*
X91989430Y-104134849D01*
X91871050Y-104312017D01*
X91829481Y-104521000D01*
X91871050Y-104729983D01*
X91989430Y-104907151D01*
X92076755Y-104965500D01*
X91989430Y-105023849D01*
X91871050Y-105201017D01*
X91829481Y-105410000D01*
X91837059Y-105448100D01*
X91710061Y-105448100D01*
X91057474Y-104795513D01*
X90950349Y-104723935D01*
X90823987Y-104698800D01*
X89662000Y-104698800D01*
X89535638Y-104723935D01*
X89428513Y-104795513D01*
X88412513Y-105811513D01*
X88340935Y-105918638D01*
X88320406Y-106021840D01*
X88170876Y-105872049D01*
X87820515Y-105726566D01*
X87441149Y-105726235D01*
X87090535Y-105871106D01*
X86822049Y-106139124D01*
X86676566Y-106489485D01*
X86676235Y-106868851D01*
X86763347Y-107079679D01*
X84352155Y-109490871D01*
X84280577Y-109597996D01*
X84255442Y-109724358D01*
X84255442Y-113737960D01*
X84255442Y-113744966D01*
X84239101Y-113761279D01*
X84239101Y-107997872D01*
X87230371Y-105006602D01*
X87439485Y-105093434D01*
X87818851Y-105093765D01*
X88169465Y-104948894D01*
X88437951Y-104680876D01*
X88583434Y-104330515D01*
X88583765Y-103951149D01*
X88438894Y-103600535D01*
X88170876Y-103332049D01*
X87820515Y-103186566D01*
X87441149Y-103186235D01*
X87090535Y-103331106D01*
X87006599Y-103414895D01*
X87006599Y-102690374D01*
X87230371Y-102466602D01*
X87439485Y-102553434D01*
X87818851Y-102553765D01*
X88169465Y-102408894D01*
X88437951Y-102140876D01*
X88583434Y-101790515D01*
X88583765Y-101411149D01*
X88438894Y-101060535D01*
X88170876Y-100792049D01*
X87820515Y-100646566D01*
X87441149Y-100646235D01*
X87090535Y-100791106D01*
X86822049Y-101059124D01*
X86676566Y-101409485D01*
X86676235Y-101788851D01*
X86763347Y-101999678D01*
X86442912Y-102320114D01*
X86371334Y-102427239D01*
X86346199Y-102553601D01*
X86346199Y-104321827D01*
X85255195Y-105412831D01*
X85255195Y-105047851D01*
X85215983Y-104952950D01*
X85215983Y-103505000D01*
X85215983Y-100965000D01*
X85121243Y-100488712D01*
X84851448Y-100084935D01*
X84447671Y-99815140D01*
X83971383Y-99720400D01*
X83922617Y-99720400D01*
X83446329Y-99815140D01*
X83042552Y-100084935D01*
X82772757Y-100488712D01*
X82678017Y-100965000D01*
X82772757Y-101441288D01*
X83042552Y-101845065D01*
X83446329Y-102114860D01*
X83922617Y-102209600D01*
X83971383Y-102209600D01*
X84447671Y-102114860D01*
X84851448Y-101845065D01*
X85121243Y-101441288D01*
X85215983Y-100965000D01*
X85215983Y-103505000D01*
X85121243Y-103028712D01*
X84851448Y-102624935D01*
X84447671Y-102355140D01*
X83971383Y-102260400D01*
X83922617Y-102260400D01*
X83446329Y-102355140D01*
X83042552Y-102624935D01*
X82772757Y-103028712D01*
X82678017Y-103505000D01*
X82772757Y-103981288D01*
X83042552Y-104385065D01*
X83446329Y-104654860D01*
X83922617Y-104749600D01*
X83971383Y-104749600D01*
X84447671Y-104654860D01*
X84851448Y-104385065D01*
X85121243Y-103981288D01*
X85215983Y-103505000D01*
X85215983Y-104952950D01*
X85172231Y-104847063D01*
X85018745Y-104693309D01*
X84818103Y-104609995D01*
X84600851Y-104609805D01*
X84400063Y-104692769D01*
X84246309Y-104846255D01*
X84162995Y-105046897D01*
X84162830Y-105235196D01*
X84064226Y-105333800D01*
X82651600Y-105333800D01*
X82651600Y-104566472D01*
X82651600Y-104475529D01*
X82651600Y-103714550D01*
X82651600Y-103295450D01*
X82651600Y-102534471D01*
X82651600Y-102443528D01*
X82651600Y-102026472D01*
X82651600Y-101935529D01*
X82651600Y-101174550D01*
X82651600Y-100755450D01*
X82651600Y-99994471D01*
X82651600Y-99903528D01*
X82616797Y-99819508D01*
X82552491Y-99755202D01*
X82468471Y-99720400D01*
X81616550Y-99720400D01*
X81559400Y-99777550D01*
X81559400Y-100812600D01*
X82594450Y-100812600D01*
X82651600Y-100755450D01*
X82651600Y-101174550D01*
X82594450Y-101117400D01*
X81559400Y-101117400D01*
X81559400Y-102152450D01*
X81616550Y-102209600D01*
X82468471Y-102209600D01*
X82552491Y-102174798D01*
X82616797Y-102110492D01*
X82651600Y-102026472D01*
X82651600Y-102443528D01*
X82616797Y-102359508D01*
X82552491Y-102295202D01*
X82468471Y-102260400D01*
X81616550Y-102260400D01*
X81559400Y-102317550D01*
X81559400Y-103352600D01*
X82594450Y-103352600D01*
X82651600Y-103295450D01*
X82651600Y-103714550D01*
X82594450Y-103657400D01*
X81559400Y-103657400D01*
X81559400Y-104692450D01*
X81616550Y-104749600D01*
X82468471Y-104749600D01*
X82552491Y-104714798D01*
X82616797Y-104650492D01*
X82651600Y-104566472D01*
X82651600Y-105333800D01*
X81254600Y-105333800D01*
X81254600Y-104692450D01*
X81254600Y-103657400D01*
X81254600Y-103352600D01*
X81254600Y-102317550D01*
X81254600Y-102152450D01*
X81254600Y-101117400D01*
X81254600Y-100812600D01*
X81254600Y-99777550D01*
X81197450Y-99720400D01*
X80345529Y-99720400D01*
X80261509Y-99755202D01*
X80197203Y-99819508D01*
X80162400Y-99903528D01*
X80162400Y-99994471D01*
X80162400Y-100755450D01*
X80219550Y-100812600D01*
X81254600Y-100812600D01*
X81254600Y-101117400D01*
X80219550Y-101117400D01*
X80162400Y-101174550D01*
X80162400Y-101935529D01*
X80162400Y-102026472D01*
X80197203Y-102110492D01*
X80261509Y-102174798D01*
X80345529Y-102209600D01*
X81197450Y-102209600D01*
X81254600Y-102152450D01*
X81254600Y-102317550D01*
X81197450Y-102260400D01*
X80345529Y-102260400D01*
X80261509Y-102295202D01*
X80197203Y-102359508D01*
X80162400Y-102443528D01*
X80162400Y-102534471D01*
X80162400Y-103295450D01*
X80219550Y-103352600D01*
X81254600Y-103352600D01*
X81254600Y-103657400D01*
X80219550Y-103657400D01*
X80162400Y-103714550D01*
X80162400Y-104475529D01*
X80162400Y-104566472D01*
X80197203Y-104650492D01*
X80261509Y-104714798D01*
X80345529Y-104749600D01*
X81197450Y-104749600D01*
X81254600Y-104692450D01*
X81254600Y-105333800D01*
X80400773Y-105333800D01*
X79565431Y-104498457D01*
X79565595Y-104311251D01*
X79482631Y-104110463D01*
X79329145Y-103956709D01*
X79128503Y-103873395D01*
X78911251Y-103873205D01*
X78710463Y-103956169D01*
X78556709Y-104109655D01*
X78473395Y-104310297D01*
X78473205Y-104527549D01*
X78556169Y-104728337D01*
X78709655Y-104882091D01*
X78910297Y-104965405D01*
X79098595Y-104965569D01*
X80030513Y-105897487D01*
X80137638Y-105969065D01*
X80264000Y-105994201D01*
X80264000Y-105994200D01*
X80264005Y-105994200D01*
X84201000Y-105994200D01*
X84327362Y-105969065D01*
X84434487Y-105897487D01*
X84629942Y-105702031D01*
X84817149Y-105702195D01*
X85017937Y-105619231D01*
X85171691Y-105465745D01*
X85255005Y-105265103D01*
X85255195Y-105047851D01*
X85255195Y-105412831D01*
X83167414Y-107500612D01*
X83095836Y-107607737D01*
X83070701Y-107734099D01*
X83070701Y-110467368D01*
X82886725Y-110283392D01*
X82886721Y-110283389D01*
X82845912Y-110242579D01*
X82846013Y-110127152D01*
X82763049Y-109926364D01*
X82609563Y-109772610D01*
X82408921Y-109689296D01*
X82191669Y-109689106D01*
X81990881Y-109772070D01*
X81837127Y-109925556D01*
X81787823Y-110044291D01*
X81356200Y-109612667D01*
X81356200Y-109093005D01*
X81356200Y-109093000D01*
X81356201Y-109093000D01*
X81331065Y-108966638D01*
X81259487Y-108859514D01*
X81259487Y-108859513D01*
X81259483Y-108859510D01*
X80497487Y-108097513D01*
X80390362Y-108025935D01*
X80264000Y-108000800D01*
X79706336Y-108000800D01*
X76755049Y-105049513D01*
X76647924Y-104977935D01*
X76521562Y-104952800D01*
X68514005Y-104952800D01*
X68381745Y-104820309D01*
X68181103Y-104736995D01*
X67963851Y-104736805D01*
X67763063Y-104819769D01*
X67609309Y-104973255D01*
X67525995Y-105173897D01*
X67525805Y-105391149D01*
X67608769Y-105591937D01*
X67762255Y-105745691D01*
X67962897Y-105829005D01*
X68033977Y-105829067D01*
X68033805Y-106026149D01*
X68116769Y-106226937D01*
X68270255Y-106380691D01*
X68470897Y-106464005D01*
X68554697Y-106464078D01*
X68554525Y-106661149D01*
X68637489Y-106861937D01*
X68790975Y-107015691D01*
X68991617Y-107099005D01*
X69049977Y-107099056D01*
X69049805Y-107296149D01*
X69132769Y-107496937D01*
X69286255Y-107650691D01*
X69486897Y-107734005D01*
X69704149Y-107734195D01*
X69899263Y-107653575D01*
X69970969Y-107827116D01*
X70124455Y-107980870D01*
X70325097Y-108064184D01*
X70452831Y-108064295D01*
X70252263Y-108147169D01*
X70098509Y-108300655D01*
X70015195Y-108501297D01*
X70015005Y-108718549D01*
X70097969Y-108919337D01*
X70251455Y-109073091D01*
X70452097Y-109156405D01*
X70640395Y-109156569D01*
X73858313Y-112374487D01*
X73965438Y-112446065D01*
X74091800Y-112471200D01*
X76370255Y-112471200D01*
X76288995Y-112666897D01*
X76288805Y-112884149D01*
X76371769Y-113084937D01*
X76525255Y-113238691D01*
X76573177Y-113258590D01*
X72917550Y-113258590D01*
X67172264Y-107513303D01*
X67065139Y-107441725D01*
X66938777Y-107416590D01*
X65511180Y-107416590D01*
X65384818Y-107441725D01*
X65277693Y-107513303D01*
X64142812Y-108648184D01*
X64071234Y-108755309D01*
X64046099Y-108881671D01*
X64046099Y-109405929D01*
X64071234Y-109532291D01*
X64142812Y-109639416D01*
X65212671Y-110709275D01*
X65212671Y-111357102D01*
X65212671Y-111364108D01*
X65080180Y-111496369D01*
X64996866Y-111697011D01*
X64996676Y-111914263D01*
X65079640Y-112115051D01*
X65233126Y-112268805D01*
X65433768Y-112352119D01*
X65651020Y-112352309D01*
X65851808Y-112269345D01*
X65905520Y-112215726D01*
X65905520Y-114643519D01*
X64853992Y-115695047D01*
X64782414Y-115802172D01*
X64757279Y-115928534D01*
X64757279Y-116987218D01*
X64782414Y-117113580D01*
X64853992Y-117220705D01*
X66050284Y-118416996D01*
X66050287Y-118417000D01*
X66050288Y-118417000D01*
X66157412Y-118488578D01*
X66283774Y-118513714D01*
X66283774Y-118513713D01*
X66283779Y-118513713D01*
X67081586Y-118513713D01*
X67207948Y-118488578D01*
X67315073Y-118417000D01*
X68166599Y-117565473D01*
X69028107Y-117565473D01*
X68827523Y-117648353D01*
X68673769Y-117801839D01*
X68590455Y-118002481D01*
X68590452Y-118004936D01*
X67203513Y-119391875D01*
X67131935Y-119499000D01*
X67106800Y-119625362D01*
X67106800Y-122237593D01*
X66939302Y-121986915D01*
X66584967Y-121750156D01*
X66167000Y-121667017D01*
X65749033Y-121750156D01*
X65394698Y-121986915D01*
X65157939Y-122341250D01*
X65074800Y-122759217D01*
X65074800Y-123112783D01*
X65157939Y-123530750D01*
X65394698Y-123885085D01*
X65749033Y-124121844D01*
X66167000Y-124204983D01*
X66584967Y-124121844D01*
X66939302Y-123885085D01*
X67106800Y-123634406D01*
X67106800Y-123916826D01*
X66673988Y-124349637D01*
X66584967Y-124290156D01*
X66167000Y-124207017D01*
X65749033Y-124290156D01*
X65394698Y-124526915D01*
X65157939Y-124881250D01*
X65074800Y-125299217D01*
X65074800Y-125652783D01*
X65157939Y-126070750D01*
X65371522Y-126390400D01*
X64422477Y-126390400D01*
X64636061Y-126070750D01*
X64719200Y-125652783D01*
X64719200Y-125299217D01*
X64719200Y-123112783D01*
X64719200Y-122759217D01*
X64636061Y-122341250D01*
X64399302Y-121986915D01*
X64044967Y-121750156D01*
X63627000Y-121667017D01*
X63209033Y-121750156D01*
X62854698Y-121986915D01*
X62617939Y-122341250D01*
X62534800Y-122759217D01*
X62534800Y-123112783D01*
X62617939Y-123530750D01*
X62854698Y-123885085D01*
X63209033Y-124121844D01*
X63627000Y-124204983D01*
X64044967Y-124121844D01*
X64399302Y-123885085D01*
X64636061Y-123530750D01*
X64719200Y-123112783D01*
X64719200Y-125299217D01*
X64636061Y-124881250D01*
X64399302Y-124526915D01*
X64044967Y-124290156D01*
X63627000Y-124207017D01*
X63209033Y-124290156D01*
X62854698Y-124526915D01*
X62617939Y-124881250D01*
X62534800Y-125299217D01*
X62534800Y-125652783D01*
X62617939Y-126070750D01*
X62831522Y-126390400D01*
X62179200Y-126390400D01*
X62179200Y-125685550D01*
X62179200Y-125266450D01*
X62179200Y-124505471D01*
X62179200Y-124414528D01*
X62179200Y-123997472D01*
X62179200Y-123906529D01*
X62179200Y-123145550D01*
X62179200Y-122726450D01*
X62179200Y-121965471D01*
X62179200Y-121874528D01*
X62144397Y-121790508D01*
X62080091Y-121726202D01*
X61996071Y-121691400D01*
X61296550Y-121691400D01*
X61239400Y-121748550D01*
X61239400Y-122783600D01*
X62122050Y-122783600D01*
X62179200Y-122726450D01*
X62179200Y-123145550D01*
X62122050Y-123088400D01*
X61239400Y-123088400D01*
X61239400Y-124123450D01*
X61296550Y-124180600D01*
X61996071Y-124180600D01*
X62080091Y-124145798D01*
X62144397Y-124081492D01*
X62179200Y-123997472D01*
X62179200Y-124414528D01*
X62144397Y-124330508D01*
X62080091Y-124266202D01*
X61996071Y-124231400D01*
X61296550Y-124231400D01*
X61239400Y-124288550D01*
X61239400Y-125323600D01*
X62122050Y-125323600D01*
X62179200Y-125266450D01*
X62179200Y-125685550D01*
X62122050Y-125628400D01*
X61239400Y-125628400D01*
X61239400Y-125648400D01*
X61061600Y-125648400D01*
X61061600Y-121708084D01*
X62839600Y-119930084D01*
X62839600Y-99669600D01*
X67145679Y-99669600D01*
X66929217Y-99759041D01*
X66739706Y-99948222D01*
X66637017Y-100195525D01*
X66636783Y-100463301D01*
X66739041Y-100710783D01*
X66928222Y-100900294D01*
X67084129Y-100965032D01*
X66929217Y-101029041D01*
X66739706Y-101218222D01*
X66637017Y-101465525D01*
X66636783Y-101733301D01*
X66739041Y-101980783D01*
X66928222Y-102170294D01*
X67175525Y-102272983D01*
X67443301Y-102273217D01*
X67494916Y-102251889D01*
X67838510Y-102595483D01*
X67838513Y-102595487D01*
X67838514Y-102595487D01*
X67945638Y-102667065D01*
X68072000Y-102692201D01*
X68072000Y-102692200D01*
X68072005Y-102692200D01*
X75249994Y-102692200D01*
X75382255Y-102824691D01*
X75582897Y-102908005D01*
X75771195Y-102908169D01*
X77774800Y-104911773D01*
X77774800Y-105156000D01*
X77799935Y-105282362D01*
X77871513Y-105389487D01*
X80284510Y-107802483D01*
X80284513Y-107802487D01*
X80391638Y-107874065D01*
X80518000Y-107899200D01*
X80635226Y-107899200D01*
X80987968Y-108251942D01*
X80987805Y-108439149D01*
X81070769Y-108639937D01*
X81224255Y-108793691D01*
X81424897Y-108877005D01*
X81642149Y-108877195D01*
X81842937Y-108794231D01*
X81996691Y-108640745D01*
X82080005Y-108440103D01*
X82080195Y-108222851D01*
X81997231Y-108022063D01*
X81843745Y-107868309D01*
X81643103Y-107784995D01*
X81454803Y-107784830D01*
X81005487Y-107335513D01*
X80898362Y-107263935D01*
X80772000Y-107238800D01*
X80654773Y-107238800D01*
X78435200Y-105019226D01*
X78435200Y-104775000D01*
X78410065Y-104648638D01*
X78338487Y-104541513D01*
X78338483Y-104541510D01*
X76238031Y-102441057D01*
X76238195Y-102253851D01*
X76155231Y-102053063D01*
X76001745Y-101899309D01*
X75801103Y-101815995D01*
X75583851Y-101815805D01*
X75383063Y-101898769D01*
X75249799Y-102031800D01*
X72910184Y-102031800D01*
X72960294Y-101981778D01*
X73062983Y-101734475D01*
X73063217Y-101466699D01*
X72960959Y-101219217D01*
X72771778Y-101029706D01*
X72615870Y-100964967D01*
X72770783Y-100900959D01*
X72960294Y-100711778D01*
X73062983Y-100464475D01*
X73063217Y-100196699D01*
X72960959Y-99949217D01*
X72771778Y-99759706D01*
X72554778Y-99669600D01*
X89891400Y-99669600D01*
X89891400Y-100672900D01*
X89700100Y-100672900D01*
X89502717Y-100772790D01*
X89358585Y-100940612D01*
X89358393Y-100986441D01*
X89387907Y-101066600D01*
X89891400Y-101066600D01*
X89891400Y-101371400D01*
X89387907Y-101371400D01*
X89358393Y-101451559D01*
X89358585Y-101497388D01*
X89502717Y-101665210D01*
X89520629Y-101674274D01*
X89449430Y-101721849D01*
X89331050Y-101899017D01*
X89289481Y-102108000D01*
X89331050Y-102316983D01*
X89449430Y-102494151D01*
X89626598Y-102612531D01*
X89835581Y-102654100D01*
X89891400Y-102654100D01*
X89891400Y-102870000D01*
X89896752Y-102896906D01*
X89896752Y-102924352D01*
X89940255Y-103143057D01*
X89981855Y-103243487D01*
X89981857Y-103243489D01*
X90105740Y-103428894D01*
X90182606Y-103505760D01*
X90182609Y-103505761D01*
X90368013Y-103629645D01*
X90368014Y-103629645D01*
X90468443Y-103671245D01*
X90468444Y-103671245D01*
X90687148Y-103714748D01*
X90795852Y-103714748D01*
X90795853Y-103714748D01*
X90795853Y-103714747D01*
X91014556Y-103671245D01*
X91014557Y-103671245D01*
X91114986Y-103629645D01*
X91114987Y-103629645D01*
X91114989Y-103629642D01*
X91300393Y-103505760D01*
X91300394Y-103505760D01*
X91377259Y-103428894D01*
X91377260Y-103428894D01*
X91377261Y-103428890D01*
X91501145Y-103243487D01*
X91501145Y-103243486D01*
X91542745Y-103143057D01*
X91542745Y-103143056D01*
X91586248Y-102924352D01*
X91628606Y-102711399D01*
X91718447Y-102576944D01*
X91852900Y-102487105D01*
X92011501Y-102455558D01*
X92170101Y-102487105D01*
X92304556Y-102576946D01*
X92394395Y-102711399D01*
X92431400Y-102897435D01*
X92431400Y-103085900D01*
X92240100Y-103085900D01*
X92042717Y-103185790D01*
X91898585Y-103353612D01*
X91898393Y-103399441D01*
X91927907Y-103479600D01*
X92431400Y-103479600D01*
X92431400Y-103784400D01*
G36*
X92431400Y-107795558D02*
X92404061Y-107933000D01*
X92341752Y-108026252D01*
X92248500Y-108088561D01*
X92138500Y-108110441D01*
X92028499Y-108088561D01*
X91935247Y-108026252D01*
X91872938Y-107933000D01*
X91840247Y-107768648D01*
X91787077Y-107501344D01*
X91745478Y-107400914D01*
X91594063Y-107174307D01*
X91594062Y-107174304D01*
X91555628Y-107135871D01*
X91517196Y-107097439D01*
X91517196Y-107097438D01*
X91517192Y-107097436D01*
X91290589Y-106946025D01*
X91290586Y-106946022D01*
X91190156Y-106904423D01*
X90922853Y-106851253D01*
X90922852Y-106851253D01*
X90814148Y-106851253D01*
X90814147Y-106851253D01*
X90814146Y-106851253D01*
X90546844Y-106904423D01*
X90446414Y-106946022D01*
X90219807Y-107097436D01*
X90219804Y-107097438D01*
X90181371Y-107135871D01*
X90142938Y-107174304D01*
X90142936Y-107174307D01*
X89991525Y-107400910D01*
X89991522Y-107400914D01*
X89949923Y-107501344D01*
X89896753Y-107768648D01*
X89896753Y-107796088D01*
X89891400Y-107823000D01*
X89891400Y-108165900D01*
X89700100Y-108165900D01*
X89502717Y-108265790D01*
X89484200Y-108287350D01*
X89484200Y-107683287D01*
X90149483Y-107018003D01*
X90149487Y-107018001D01*
X90149487Y-107018000D01*
X90221065Y-106910876D01*
X90246200Y-106784514D01*
X90246201Y-106784514D01*
X90246200Y-106784508D01*
X90246200Y-106113012D01*
X90246200Y-106106005D01*
X90378691Y-105973745D01*
X90462005Y-105773103D01*
X90462195Y-105555851D01*
X90380940Y-105359200D01*
X90687213Y-105359200D01*
X91339800Y-106011787D01*
X91446925Y-106083365D01*
X91573287Y-106108500D01*
X91735026Y-106108500D01*
X91845415Y-106218889D01*
X91829481Y-106299000D01*
X91871050Y-106507983D01*
X91989430Y-106685151D01*
X92076755Y-106743500D01*
X91989430Y-106801849D01*
X91871050Y-106979017D01*
X91829481Y-107188000D01*
X91871050Y-107396983D01*
X91989430Y-107574151D01*
X92166598Y-107692531D01*
X92375581Y-107734100D01*
X92431400Y-107734100D01*
X92431400Y-107795558D01*
X92431400Y-107795558D01*
G37*
X92431400Y-107795558D02*
X92404061Y-107933000D01*
X92341752Y-108026252D01*
X92248500Y-108088561D01*
X92138500Y-108110441D01*
X92028499Y-108088561D01*
X91935247Y-108026252D01*
X91872938Y-107933000D01*
X91840247Y-107768648D01*
X91787077Y-107501344D01*
X91745478Y-107400914D01*
X91594063Y-107174307D01*
X91594062Y-107174304D01*
X91555628Y-107135871D01*
X91517196Y-107097439D01*
X91517196Y-107097438D01*
X91517192Y-107097436D01*
X91290589Y-106946025D01*
X91290586Y-106946022D01*
X91190156Y-106904423D01*
X90922853Y-106851253D01*
X90922852Y-106851253D01*
X90814148Y-106851253D01*
X90814147Y-106851253D01*
X90814146Y-106851253D01*
X90546844Y-106904423D01*
X90446414Y-106946022D01*
X90219807Y-107097436D01*
X90219804Y-107097438D01*
X90181371Y-107135871D01*
X90142938Y-107174304D01*
X90142936Y-107174307D01*
X89991525Y-107400910D01*
X89991522Y-107400914D01*
X89949923Y-107501344D01*
X89896753Y-107768648D01*
X89896753Y-107796088D01*
X89891400Y-107823000D01*
X89891400Y-108165900D01*
X89700100Y-108165900D01*
X89502717Y-108265790D01*
X89484200Y-108287350D01*
X89484200Y-107683287D01*
X90149483Y-107018003D01*
X90149487Y-107018001D01*
X90149487Y-107018000D01*
X90221065Y-106910876D01*
X90246200Y-106784514D01*
X90246201Y-106784514D01*
X90246200Y-106784508D01*
X90246200Y-106113012D01*
X90246200Y-106106005D01*
X90378691Y-105973745D01*
X90462005Y-105773103D01*
X90462195Y-105555851D01*
X90380940Y-105359200D01*
X90687213Y-105359200D01*
X91339800Y-106011787D01*
X91446925Y-106083365D01*
X91573287Y-106108500D01*
X91735026Y-106108500D01*
X91845415Y-106218889D01*
X91829481Y-106299000D01*
X91871050Y-106507983D01*
X91989430Y-106685151D01*
X92076755Y-106743500D01*
X91989430Y-106801849D01*
X91871050Y-106979017D01*
X91829481Y-107188000D01*
X91871050Y-107396983D01*
X91989430Y-107574151D01*
X92166598Y-107692531D01*
X92375581Y-107734100D01*
X92431400Y-107734100D01*
X92431400Y-107795558D01*
G36*
X92431400Y-113944400D02*
X91927907Y-113944400D01*
X91898393Y-114024559D01*
X91898585Y-114070388D01*
X92042717Y-114238210D01*
X92060629Y-114247274D01*
X91989430Y-114294849D01*
X91952044Y-114350800D01*
X91144991Y-114350800D01*
X91144986Y-114350799D01*
X91018624Y-114375935D01*
X90911499Y-114447513D01*
X88583656Y-116775355D01*
X88583765Y-116651149D01*
X88496652Y-116440321D01*
X89209693Y-115727279D01*
X89209696Y-115727277D01*
X89209697Y-115727277D01*
X89281275Y-115620152D01*
X89306410Y-115493790D01*
X89306410Y-112353108D01*
X89331050Y-112476983D01*
X89449430Y-112654151D01*
X89626598Y-112772531D01*
X89835581Y-112814100D01*
X89891400Y-112814100D01*
X89891400Y-113030000D01*
X89896752Y-113056906D01*
X89896752Y-113084352D01*
X89940255Y-113303057D01*
X89981855Y-113403487D01*
X89981857Y-113403489D01*
X90105740Y-113588894D01*
X90182606Y-113665760D01*
X90182609Y-113665761D01*
X90368013Y-113789645D01*
X90368014Y-113789645D01*
X90468443Y-113831245D01*
X90468444Y-113831245D01*
X90687148Y-113874748D01*
X90795852Y-113874748D01*
X90795853Y-113874748D01*
X90795853Y-113874747D01*
X91014556Y-113831245D01*
X91014557Y-113831245D01*
X91114986Y-113789645D01*
X91114987Y-113789645D01*
X91114989Y-113789642D01*
X91300393Y-113665760D01*
X91300394Y-113665760D01*
X91377259Y-113588894D01*
X91377260Y-113588894D01*
X91377261Y-113588890D01*
X91501145Y-113403487D01*
X91501145Y-113403486D01*
X91542745Y-113303057D01*
X91542745Y-113303056D01*
X91586248Y-113084352D01*
X91628606Y-112871399D01*
X91718447Y-112736944D01*
X91852900Y-112647105D01*
X92011501Y-112615558D01*
X92170101Y-112647105D01*
X92304556Y-112736946D01*
X92394395Y-112871399D01*
X92431400Y-113057435D01*
X92431400Y-113245900D01*
X92240100Y-113245900D01*
X92042717Y-113345790D01*
X91898585Y-113513612D01*
X91898393Y-113559441D01*
X91927907Y-113639600D01*
X92431400Y-113639600D01*
X92431400Y-113944400D01*
X92431400Y-113944400D01*
G37*
X92431400Y-113944400D02*
X91927907Y-113944400D01*
X91898393Y-114024559D01*
X91898585Y-114070388D01*
X92042717Y-114238210D01*
X92060629Y-114247274D01*
X91989430Y-114294849D01*
X91952044Y-114350800D01*
X91144991Y-114350800D01*
X91144986Y-114350799D01*
X91018624Y-114375935D01*
X90911499Y-114447513D01*
X88583656Y-116775355D01*
X88583765Y-116651149D01*
X88496652Y-116440321D01*
X89209693Y-115727279D01*
X89209696Y-115727277D01*
X89209697Y-115727277D01*
X89281275Y-115620152D01*
X89306410Y-115493790D01*
X89306410Y-112353108D01*
X89331050Y-112476983D01*
X89449430Y-112654151D01*
X89626598Y-112772531D01*
X89835581Y-112814100D01*
X89891400Y-112814100D01*
X89891400Y-113030000D01*
X89896752Y-113056906D01*
X89896752Y-113084352D01*
X89940255Y-113303057D01*
X89981855Y-113403487D01*
X89981857Y-113403489D01*
X90105740Y-113588894D01*
X90182606Y-113665760D01*
X90182609Y-113665761D01*
X90368013Y-113789645D01*
X90368014Y-113789645D01*
X90468443Y-113831245D01*
X90468444Y-113831245D01*
X90687148Y-113874748D01*
X90795852Y-113874748D01*
X90795853Y-113874748D01*
X90795853Y-113874747D01*
X91014556Y-113831245D01*
X91014557Y-113831245D01*
X91114986Y-113789645D01*
X91114987Y-113789645D01*
X91114989Y-113789642D01*
X91300393Y-113665760D01*
X91300394Y-113665760D01*
X91377259Y-113588894D01*
X91377260Y-113588894D01*
X91377261Y-113588890D01*
X91501145Y-113403487D01*
X91501145Y-113403486D01*
X91542745Y-113303057D01*
X91542745Y-113303056D01*
X91586248Y-113084352D01*
X91628606Y-112871399D01*
X91718447Y-112736944D01*
X91852900Y-112647105D01*
X92011501Y-112615558D01*
X92170101Y-112647105D01*
X92304556Y-112736946D01*
X92394395Y-112871399D01*
X92431400Y-113057435D01*
X92431400Y-113245900D01*
X92240100Y-113245900D01*
X92042717Y-113345790D01*
X91898585Y-113513612D01*
X91898393Y-113559441D01*
X91927907Y-113639600D01*
X92431400Y-113639600D01*
X92431400Y-113944400D01*
G36*
X92431400Y-123405900D02*
X92375581Y-123405900D01*
X92166598Y-123447469D01*
X91989430Y-123565849D01*
X91871050Y-123743017D01*
X91852934Y-123834092D01*
X91557226Y-124129800D01*
X90306773Y-124129800D01*
X88496602Y-122319628D01*
X88583434Y-122110515D01*
X88583765Y-121731149D01*
X88517657Y-121571158D01*
X88915408Y-121173408D01*
X88997998Y-121049803D01*
X88997998Y-121049802D01*
X89027000Y-120904000D01*
X89027000Y-118755293D01*
X89108691Y-118673745D01*
X89192005Y-118473103D01*
X89192195Y-118255851D01*
X89109231Y-118055063D01*
X88976200Y-117921799D01*
X88976200Y-117914988D01*
X88976200Y-117316760D01*
X91281760Y-115011200D01*
X91952044Y-115011200D01*
X91989430Y-115067151D01*
X92076755Y-115125500D01*
X91989430Y-115183849D01*
X91871050Y-115361017D01*
X91829481Y-115570000D01*
X91871050Y-115778983D01*
X91989430Y-115956151D01*
X92076755Y-116014500D01*
X91989430Y-116072849D01*
X91871050Y-116250017D01*
X91829481Y-116459000D01*
X91871050Y-116667983D01*
X91989430Y-116845151D01*
X92076755Y-116903500D01*
X91989430Y-116961849D01*
X91871050Y-117139017D01*
X91829481Y-117348000D01*
X91871050Y-117556983D01*
X91989430Y-117734151D01*
X92166598Y-117852531D01*
X92375581Y-117894100D01*
X92431400Y-117894100D01*
X92431400Y-118336558D01*
X92404061Y-118474000D01*
X92341752Y-118567252D01*
X92248500Y-118629561D01*
X92138500Y-118651441D01*
X92028499Y-118629561D01*
X91935247Y-118567252D01*
X91872938Y-118474000D01*
X91840247Y-118309648D01*
X91787077Y-118042344D01*
X91745478Y-117941914D01*
X91594063Y-117715307D01*
X91594062Y-117715304D01*
X91555628Y-117676871D01*
X91517196Y-117638439D01*
X91517196Y-117638438D01*
X91517192Y-117638436D01*
X91290589Y-117487025D01*
X91290586Y-117487022D01*
X91190156Y-117445423D01*
X90922853Y-117392253D01*
X90922852Y-117392253D01*
X90814148Y-117392253D01*
X90814147Y-117392253D01*
X90814146Y-117392253D01*
X90546844Y-117445423D01*
X90446414Y-117487022D01*
X90219807Y-117638436D01*
X90219804Y-117638438D01*
X90181371Y-117676871D01*
X90142938Y-117715304D01*
X90142936Y-117715307D01*
X89991525Y-117941910D01*
X89991522Y-117941914D01*
X89949923Y-118042344D01*
X89896753Y-118309648D01*
X89896753Y-118325900D01*
X89700100Y-118325900D01*
X89502717Y-118425790D01*
X89358585Y-118593612D01*
X89358393Y-118639441D01*
X89387907Y-118719600D01*
X89891400Y-118719600D01*
X89891400Y-119024400D01*
X89387907Y-119024400D01*
X89358393Y-119104559D01*
X89358585Y-119150388D01*
X89502717Y-119318210D01*
X89520629Y-119327274D01*
X89449430Y-119374849D01*
X89331050Y-119552017D01*
X89289481Y-119761000D01*
X89331050Y-119969983D01*
X89449430Y-120147151D01*
X89536755Y-120205500D01*
X89449430Y-120263849D01*
X89331050Y-120441017D01*
X89289481Y-120650000D01*
X89331050Y-120858983D01*
X89449430Y-121036151D01*
X89536755Y-121094500D01*
X89449430Y-121152849D01*
X89331050Y-121330017D01*
X89289481Y-121539000D01*
X89331050Y-121747983D01*
X89449430Y-121925151D01*
X89536755Y-121983500D01*
X89449430Y-122041849D01*
X89331050Y-122219017D01*
X89289481Y-122428000D01*
X89331050Y-122636983D01*
X89449430Y-122814151D01*
X89626598Y-122932531D01*
X89835581Y-122974100D01*
X89891400Y-122974100D01*
X89891400Y-123190000D01*
X89896752Y-123216906D01*
X89896752Y-123244352D01*
X89940255Y-123463057D01*
X89981855Y-123563487D01*
X89981857Y-123563489D01*
X90105740Y-123748894D01*
X90182606Y-123825760D01*
X90182609Y-123825761D01*
X90368013Y-123949645D01*
X90368014Y-123949645D01*
X90468443Y-123991245D01*
X90468444Y-123991245D01*
X90687148Y-124034748D01*
X90795852Y-124034748D01*
X90795853Y-124034748D01*
X90795853Y-124034747D01*
X91014556Y-123991245D01*
X91014557Y-123991245D01*
X91114986Y-123949645D01*
X91114987Y-123949645D01*
X91114989Y-123949642D01*
X91300393Y-123825760D01*
X91300394Y-123825760D01*
X91377259Y-123748894D01*
X91377260Y-123748894D01*
X91377261Y-123748890D01*
X91501145Y-123563487D01*
X91501145Y-123563486D01*
X91542745Y-123463057D01*
X91542745Y-123463056D01*
X91586248Y-123244352D01*
X91628606Y-123031399D01*
X91718447Y-122896944D01*
X91852900Y-122807105D01*
X92011501Y-122775558D01*
X92170101Y-122807105D01*
X92304556Y-122896946D01*
X92394395Y-123031399D01*
X92431400Y-123217435D01*
X92431400Y-123405900D01*
X92431400Y-123405900D01*
G37*
X92431400Y-123405900D02*
X92375581Y-123405900D01*
X92166598Y-123447469D01*
X91989430Y-123565849D01*
X91871050Y-123743017D01*
X91852934Y-123834092D01*
X91557226Y-124129800D01*
X90306773Y-124129800D01*
X88496602Y-122319628D01*
X88583434Y-122110515D01*
X88583765Y-121731149D01*
X88517657Y-121571158D01*
X88915408Y-121173408D01*
X88997998Y-121049803D01*
X88997998Y-121049802D01*
X89027000Y-120904000D01*
X89027000Y-118755293D01*
X89108691Y-118673745D01*
X89192005Y-118473103D01*
X89192195Y-118255851D01*
X89109231Y-118055063D01*
X88976200Y-117921799D01*
X88976200Y-117914988D01*
X88976200Y-117316760D01*
X91281760Y-115011200D01*
X91952044Y-115011200D01*
X91989430Y-115067151D01*
X92076755Y-115125500D01*
X91989430Y-115183849D01*
X91871050Y-115361017D01*
X91829481Y-115570000D01*
X91871050Y-115778983D01*
X91989430Y-115956151D01*
X92076755Y-116014500D01*
X91989430Y-116072849D01*
X91871050Y-116250017D01*
X91829481Y-116459000D01*
X91871050Y-116667983D01*
X91989430Y-116845151D01*
X92076755Y-116903500D01*
X91989430Y-116961849D01*
X91871050Y-117139017D01*
X91829481Y-117348000D01*
X91871050Y-117556983D01*
X91989430Y-117734151D01*
X92166598Y-117852531D01*
X92375581Y-117894100D01*
X92431400Y-117894100D01*
X92431400Y-118336558D01*
X92404061Y-118474000D01*
X92341752Y-118567252D01*
X92248500Y-118629561D01*
X92138500Y-118651441D01*
X92028499Y-118629561D01*
X91935247Y-118567252D01*
X91872938Y-118474000D01*
X91840247Y-118309648D01*
X91787077Y-118042344D01*
X91745478Y-117941914D01*
X91594063Y-117715307D01*
X91594062Y-117715304D01*
X91555628Y-117676871D01*
X91517196Y-117638439D01*
X91517196Y-117638438D01*
X91517192Y-117638436D01*
X91290589Y-117487025D01*
X91290586Y-117487022D01*
X91190156Y-117445423D01*
X90922853Y-117392253D01*
X90922852Y-117392253D01*
X90814148Y-117392253D01*
X90814147Y-117392253D01*
X90814146Y-117392253D01*
X90546844Y-117445423D01*
X90446414Y-117487022D01*
X90219807Y-117638436D01*
X90219804Y-117638438D01*
X90181371Y-117676871D01*
X90142938Y-117715304D01*
X90142936Y-117715307D01*
X89991525Y-117941910D01*
X89991522Y-117941914D01*
X89949923Y-118042344D01*
X89896753Y-118309648D01*
X89896753Y-118325900D01*
X89700100Y-118325900D01*
X89502717Y-118425790D01*
X89358585Y-118593612D01*
X89358393Y-118639441D01*
X89387907Y-118719600D01*
X89891400Y-118719600D01*
X89891400Y-119024400D01*
X89387907Y-119024400D01*
X89358393Y-119104559D01*
X89358585Y-119150388D01*
X89502717Y-119318210D01*
X89520629Y-119327274D01*
X89449430Y-119374849D01*
X89331050Y-119552017D01*
X89289481Y-119761000D01*
X89331050Y-119969983D01*
X89449430Y-120147151D01*
X89536755Y-120205500D01*
X89449430Y-120263849D01*
X89331050Y-120441017D01*
X89289481Y-120650000D01*
X89331050Y-120858983D01*
X89449430Y-121036151D01*
X89536755Y-121094500D01*
X89449430Y-121152849D01*
X89331050Y-121330017D01*
X89289481Y-121539000D01*
X89331050Y-121747983D01*
X89449430Y-121925151D01*
X89536755Y-121983500D01*
X89449430Y-122041849D01*
X89331050Y-122219017D01*
X89289481Y-122428000D01*
X89331050Y-122636983D01*
X89449430Y-122814151D01*
X89626598Y-122932531D01*
X89835581Y-122974100D01*
X89891400Y-122974100D01*
X89891400Y-123190000D01*
X89896752Y-123216906D01*
X89896752Y-123244352D01*
X89940255Y-123463057D01*
X89981855Y-123563487D01*
X89981857Y-123563489D01*
X90105740Y-123748894D01*
X90182606Y-123825760D01*
X90182609Y-123825761D01*
X90368013Y-123949645D01*
X90368014Y-123949645D01*
X90468443Y-123991245D01*
X90468444Y-123991245D01*
X90687148Y-124034748D01*
X90795852Y-124034748D01*
X90795853Y-124034748D01*
X90795853Y-124034747D01*
X91014556Y-123991245D01*
X91014557Y-123991245D01*
X91114986Y-123949645D01*
X91114987Y-123949645D01*
X91114989Y-123949642D01*
X91300393Y-123825760D01*
X91300394Y-123825760D01*
X91377259Y-123748894D01*
X91377260Y-123748894D01*
X91377261Y-123748890D01*
X91501145Y-123563487D01*
X91501145Y-123563486D01*
X91542745Y-123463057D01*
X91542745Y-123463056D01*
X91586248Y-123244352D01*
X91628606Y-123031399D01*
X91718447Y-122896944D01*
X91852900Y-122807105D01*
X92011501Y-122775558D01*
X92170101Y-122807105D01*
X92304556Y-122896946D01*
X92394395Y-123031399D01*
X92431400Y-123217435D01*
X92431400Y-123405900D01*
G36*
X92431400Y-126390400D02*
X88599309Y-126390400D01*
X88599309Y-124535980D01*
X88554601Y-124159258D01*
X88496448Y-124018865D01*
X88375823Y-123929703D01*
X88160297Y-124145229D01*
X88160297Y-123714177D01*
X88071135Y-123593552D01*
X87705980Y-123490691D01*
X87329258Y-123535399D01*
X87188865Y-123593552D01*
X87099703Y-123714177D01*
X87630000Y-124244474D01*
X88160297Y-123714177D01*
X88160297Y-124145229D01*
X87845526Y-124460000D01*
X88375823Y-124990297D01*
X88496448Y-124901135D01*
X88599309Y-124535980D01*
X88599309Y-126390400D01*
X88160297Y-126390400D01*
X88160297Y-125205823D01*
X87630000Y-124675526D01*
X87414474Y-124891052D01*
X87414474Y-124460000D01*
X86884177Y-123929703D01*
X86763552Y-124018865D01*
X86660691Y-124384020D01*
X86705399Y-124760742D01*
X86763552Y-124901135D01*
X86884177Y-124990297D01*
X87414474Y-124460000D01*
X87414474Y-124891052D01*
X87099703Y-125205823D01*
X87188865Y-125326448D01*
X87554020Y-125429309D01*
X87930742Y-125384601D01*
X88071135Y-125326448D01*
X88160297Y-125205823D01*
X88160297Y-126390400D01*
X84742477Y-126390400D01*
X84956061Y-126070750D01*
X85039200Y-125652783D01*
X85039200Y-125299217D01*
X84956061Y-124881250D01*
X84719302Y-124526915D01*
X84364967Y-124290156D01*
X83947000Y-124207017D01*
X83529033Y-124290156D01*
X83440011Y-124349637D01*
X83007200Y-123916826D01*
X83007200Y-123634406D01*
X83174698Y-123885085D01*
X83529033Y-124121844D01*
X83947000Y-124204983D01*
X84364967Y-124121844D01*
X84719302Y-123885085D01*
X84852811Y-123685274D01*
X84880769Y-123752937D01*
X85034255Y-123906691D01*
X85234897Y-123990005D01*
X85452149Y-123990195D01*
X85652937Y-123907231D01*
X85806691Y-123753745D01*
X85890005Y-123553103D01*
X85890169Y-123364803D01*
X86341884Y-122913088D01*
X86341887Y-122913086D01*
X86341888Y-122913086D01*
X86413466Y-122805961D01*
X86438601Y-122679599D01*
X86438601Y-120806892D01*
X86438601Y-120799885D01*
X86571092Y-120667625D01*
X86654406Y-120466983D01*
X86654596Y-120249731D01*
X86571632Y-120048943D01*
X86512410Y-119989617D01*
X86512410Y-112217215D01*
X86512410Y-112217210D01*
X86512411Y-112217210D01*
X86487275Y-112090848D01*
X86415697Y-111983723D01*
X85801200Y-111369226D01*
X85801200Y-110551005D01*
X85933691Y-110418745D01*
X86017005Y-110218103D01*
X86017195Y-110000851D01*
X85934231Y-109800063D01*
X85780745Y-109646309D01*
X85580103Y-109562995D01*
X85362851Y-109562805D01*
X85162063Y-109645769D01*
X85008309Y-109799255D01*
X84924995Y-109999897D01*
X84924805Y-110217149D01*
X85007769Y-110417937D01*
X85140800Y-110551200D01*
X85140800Y-111506000D01*
X85165935Y-111632362D01*
X85237513Y-111739487D01*
X85486549Y-111988523D01*
X85477131Y-111988515D01*
X85276343Y-112071479D01*
X85122589Y-112224965D01*
X85039275Y-112425607D01*
X85039085Y-112642859D01*
X85052171Y-112674529D01*
X84915842Y-112730859D01*
X84915842Y-109861131D01*
X86368999Y-108407973D01*
X86346199Y-108522601D01*
X86346199Y-110298399D01*
X86371334Y-110424761D01*
X86442912Y-110531886D01*
X86976234Y-111065207D01*
X86822049Y-111219124D01*
X86676566Y-111569485D01*
X86676235Y-111948851D01*
X86821106Y-112299465D01*
X87089124Y-112567951D01*
X87439485Y-112713434D01*
X87818851Y-112713765D01*
X88169465Y-112568894D01*
X88253401Y-112485104D01*
X88253401Y-113209625D01*
X88029628Y-113433397D01*
X87820515Y-113346566D01*
X87441149Y-113346235D01*
X87090535Y-113491106D01*
X86822049Y-113759124D01*
X86676566Y-114109485D01*
X86676235Y-114488851D01*
X86821106Y-114839465D01*
X87089124Y-115107951D01*
X87439485Y-115253434D01*
X87818851Y-115253765D01*
X88169465Y-115108894D01*
X88437951Y-114840876D01*
X88583434Y-114490515D01*
X88583765Y-114111149D01*
X88496652Y-113900320D01*
X88646010Y-113750963D01*
X88646010Y-115357016D01*
X88029628Y-115973397D01*
X87820515Y-115886566D01*
X87441149Y-115886235D01*
X87090535Y-116031106D01*
X86822049Y-116299124D01*
X86676566Y-116649485D01*
X86676235Y-117028851D01*
X86821106Y-117379465D01*
X87089124Y-117647951D01*
X87439485Y-117793434D01*
X87818851Y-117793765D01*
X88169465Y-117648894D01*
X88315800Y-117502814D01*
X88315800Y-117914988D01*
X88315800Y-117921994D01*
X88183309Y-118054255D01*
X88099995Y-118254897D01*
X88099805Y-118472149D01*
X88134912Y-118557115D01*
X87820515Y-118426566D01*
X87441149Y-118426235D01*
X87090535Y-118571106D01*
X86822049Y-118839124D01*
X86676566Y-119189485D01*
X86676235Y-119568851D01*
X86821106Y-119919465D01*
X87089124Y-120187951D01*
X87439485Y-120333434D01*
X87818851Y-120333765D01*
X88169465Y-120188894D01*
X88265000Y-120093525D01*
X88265000Y-120746184D01*
X87978865Y-121032318D01*
X87820515Y-120966566D01*
X87441149Y-120966235D01*
X87090535Y-121111106D01*
X86822049Y-121379124D01*
X86676566Y-121729485D01*
X86676235Y-122108851D01*
X86821106Y-122459465D01*
X87089124Y-122727951D01*
X87439485Y-122873434D01*
X87818851Y-122873765D01*
X88029678Y-122786652D01*
X89936510Y-124693483D01*
X89936513Y-124693487D01*
X90043638Y-124765065D01*
X90170000Y-124790200D01*
X91694000Y-124790200D01*
X91820362Y-124765065D01*
X91927487Y-124693487D01*
X91932373Y-124688600D01*
X92431400Y-124688600D01*
X92431400Y-124993400D01*
X91927907Y-124993400D01*
X91898393Y-125073559D01*
X91898585Y-125119388D01*
X92042717Y-125287210D01*
X92240100Y-125387100D01*
X92431400Y-125387100D01*
X92431400Y-126390400D01*
X92431400Y-126390400D01*
G37*
X92431400Y-126390400D02*
X88599309Y-126390400D01*
X88599309Y-124535980D01*
X88554601Y-124159258D01*
X88496448Y-124018865D01*
X88375823Y-123929703D01*
X88160297Y-124145229D01*
X88160297Y-123714177D01*
X88071135Y-123593552D01*
X87705980Y-123490691D01*
X87329258Y-123535399D01*
X87188865Y-123593552D01*
X87099703Y-123714177D01*
X87630000Y-124244474D01*
X88160297Y-123714177D01*
X88160297Y-124145229D01*
X87845526Y-124460000D01*
X88375823Y-124990297D01*
X88496448Y-124901135D01*
X88599309Y-124535980D01*
X88599309Y-126390400D01*
X88160297Y-126390400D01*
X88160297Y-125205823D01*
X87630000Y-124675526D01*
X87414474Y-124891052D01*
X87414474Y-124460000D01*
X86884177Y-123929703D01*
X86763552Y-124018865D01*
X86660691Y-124384020D01*
X86705399Y-124760742D01*
X86763552Y-124901135D01*
X86884177Y-124990297D01*
X87414474Y-124460000D01*
X87414474Y-124891052D01*
X87099703Y-125205823D01*
X87188865Y-125326448D01*
X87554020Y-125429309D01*
X87930742Y-125384601D01*
X88071135Y-125326448D01*
X88160297Y-125205823D01*
X88160297Y-126390400D01*
X84742477Y-126390400D01*
X84956061Y-126070750D01*
X85039200Y-125652783D01*
X85039200Y-125299217D01*
X84956061Y-124881250D01*
X84719302Y-124526915D01*
X84364967Y-124290156D01*
X83947000Y-124207017D01*
X83529033Y-124290156D01*
X83440011Y-124349637D01*
X83007200Y-123916826D01*
X83007200Y-123634406D01*
X83174698Y-123885085D01*
X83529033Y-124121844D01*
X83947000Y-124204983D01*
X84364967Y-124121844D01*
X84719302Y-123885085D01*
X84852811Y-123685274D01*
X84880769Y-123752937D01*
X85034255Y-123906691D01*
X85234897Y-123990005D01*
X85452149Y-123990195D01*
X85652937Y-123907231D01*
X85806691Y-123753745D01*
X85890005Y-123553103D01*
X85890169Y-123364803D01*
X86341884Y-122913088D01*
X86341887Y-122913086D01*
X86341888Y-122913086D01*
X86413466Y-122805961D01*
X86438601Y-122679599D01*
X86438601Y-120806892D01*
X86438601Y-120799885D01*
X86571092Y-120667625D01*
X86654406Y-120466983D01*
X86654596Y-120249731D01*
X86571632Y-120048943D01*
X86512410Y-119989617D01*
X86512410Y-112217215D01*
X86512410Y-112217210D01*
X86512411Y-112217210D01*
X86487275Y-112090848D01*
X86415697Y-111983723D01*
X85801200Y-111369226D01*
X85801200Y-110551005D01*
X85933691Y-110418745D01*
X86017005Y-110218103D01*
X86017195Y-110000851D01*
X85934231Y-109800063D01*
X85780745Y-109646309D01*
X85580103Y-109562995D01*
X85362851Y-109562805D01*
X85162063Y-109645769D01*
X85008309Y-109799255D01*
X84924995Y-109999897D01*
X84924805Y-110217149D01*
X85007769Y-110417937D01*
X85140800Y-110551200D01*
X85140800Y-111506000D01*
X85165935Y-111632362D01*
X85237513Y-111739487D01*
X85486549Y-111988523D01*
X85477131Y-111988515D01*
X85276343Y-112071479D01*
X85122589Y-112224965D01*
X85039275Y-112425607D01*
X85039085Y-112642859D01*
X85052171Y-112674529D01*
X84915842Y-112730859D01*
X84915842Y-109861131D01*
X86368999Y-108407973D01*
X86346199Y-108522601D01*
X86346199Y-110298399D01*
X86371334Y-110424761D01*
X86442912Y-110531886D01*
X86976234Y-111065207D01*
X86822049Y-111219124D01*
X86676566Y-111569485D01*
X86676235Y-111948851D01*
X86821106Y-112299465D01*
X87089124Y-112567951D01*
X87439485Y-112713434D01*
X87818851Y-112713765D01*
X88169465Y-112568894D01*
X88253401Y-112485104D01*
X88253401Y-113209625D01*
X88029628Y-113433397D01*
X87820515Y-113346566D01*
X87441149Y-113346235D01*
X87090535Y-113491106D01*
X86822049Y-113759124D01*
X86676566Y-114109485D01*
X86676235Y-114488851D01*
X86821106Y-114839465D01*
X87089124Y-115107951D01*
X87439485Y-115253434D01*
X87818851Y-115253765D01*
X88169465Y-115108894D01*
X88437951Y-114840876D01*
X88583434Y-114490515D01*
X88583765Y-114111149D01*
X88496652Y-113900320D01*
X88646010Y-113750963D01*
X88646010Y-115357016D01*
X88029628Y-115973397D01*
X87820515Y-115886566D01*
X87441149Y-115886235D01*
X87090535Y-116031106D01*
X86822049Y-116299124D01*
X86676566Y-116649485D01*
X86676235Y-117028851D01*
X86821106Y-117379465D01*
X87089124Y-117647951D01*
X87439485Y-117793434D01*
X87818851Y-117793765D01*
X88169465Y-117648894D01*
X88315800Y-117502814D01*
X88315800Y-117914988D01*
X88315800Y-117921994D01*
X88183309Y-118054255D01*
X88099995Y-118254897D01*
X88099805Y-118472149D01*
X88134912Y-118557115D01*
X87820515Y-118426566D01*
X87441149Y-118426235D01*
X87090535Y-118571106D01*
X86822049Y-118839124D01*
X86676566Y-119189485D01*
X86676235Y-119568851D01*
X86821106Y-119919465D01*
X87089124Y-120187951D01*
X87439485Y-120333434D01*
X87818851Y-120333765D01*
X88169465Y-120188894D01*
X88265000Y-120093525D01*
X88265000Y-120746184D01*
X87978865Y-121032318D01*
X87820515Y-120966566D01*
X87441149Y-120966235D01*
X87090535Y-121111106D01*
X86822049Y-121379124D01*
X86676566Y-121729485D01*
X86676235Y-122108851D01*
X86821106Y-122459465D01*
X87089124Y-122727951D01*
X87439485Y-122873434D01*
X87818851Y-122873765D01*
X88029678Y-122786652D01*
X89936510Y-124693483D01*
X89936513Y-124693487D01*
X90043638Y-124765065D01*
X90170000Y-124790200D01*
X91694000Y-124790200D01*
X91820362Y-124765065D01*
X91927487Y-124693487D01*
X91932373Y-124688600D01*
X92431400Y-124688600D01*
X92431400Y-124993400D01*
X91927907Y-124993400D01*
X91898393Y-125073559D01*
X91898585Y-125119388D01*
X92042717Y-125287210D01*
X92240100Y-125387100D01*
X92431400Y-125387100D01*
X92431400Y-126390400D01*
M02*
