M48
;DRILL file {kicad 0.201502101101+5412~21~ubuntu14.04.1-product} date Tue 10 Feb 2015 05:48:20 PM PST
;FORMAT={-:-/ absolute / inch / decimal}
FMAT,2
INCH,TZ
T1C0.015
T2C0.020
T3C0.033
T4C0.040
%
G90
G05
M72
T1
X2.445Y-4.77
X2.4835Y-4.4304
X2.4842Y-4.3644
X2.485Y-3.935
X2.485Y-3.995
X2.485Y-4.05
X2.485Y-4.11
X2.485Y-4.165
X2.485Y-4.22
X2.485Y-4.275
X2.485Y-4.32
X2.485Y-4.485
X2.485Y-4.53
X2.485Y-4.6
X2.485Y-4.66
X2.485Y-4.725
X2.5022Y-4.3173
X2.51Y-4.77
X2.52Y-4.6
X2.52Y-4.68
X2.525Y-4.715
X2.535Y-3.935
X2.5384Y-4.358
X2.556Y-4.297
X2.5804Y-4.4018
X2.5835Y-4.51
X2.5884Y-4.6671
X2.5899Y-4.2972
X2.59Y-3.935
X2.591Y-4.3282
X2.615Y-4.2765
X2.6193Y-4.589
X2.625Y-4.13
X2.6253Y-4.6184
X2.665Y-4.465
X2.68Y-4.145
X2.68Y-4.375
X2.68Y-4.52
X2.7Y-4.17
X2.714Y-4.768
X2.717Y-4.683
X2.7205Y-4.195
X2.7219Y-4.6501
X2.725Y-4.07
X2.74Y-4.22
X2.75Y-4.45
X2.7529Y-4.7428
X2.7686Y-4.7172
X2.773Y-4.233
X2.778Y-4.276
X2.7785Y-4.6889
X2.7801Y-4.659
X2.8098Y-4.6502
X2.82Y-4.09
X2.82Y-4.52
X2.825Y-4.375
X2.865Y-4.09
X2.87Y-4.74
X2.884Y-4.307
X2.915Y-4.295
X2.9163Y-4.3803
X2.925Y-4.2455
X2.935Y-4.74
X2.937Y-4.693
X2.9621Y-4.7238
X2.975Y-4.55
X2.98Y-4.03
X2.98Y-4.32
X2.98Y-4.61
X2.99Y-4.225
X2.993Y-4.67
X3.0151Y-4.3799
X3.025Y-4.44
X3.025Y-4.733
X3.048Y-4.139
X3.06Y-4.614
X3.061Y-4.673
X3.098Y-4.587
X3.1Y-4.72
X3.105Y-4.555
X3.111Y-4.111
X3.1158Y-4.4303
X3.1425Y-4.3149
X3.1445Y-4.525
X3.153Y-4.181
X3.1545Y-4.3745
X3.1645Y-4.43
X3.18Y-4.135
X3.1802Y-4.2135
X3.195Y-4.7
X3.2055Y-4.59
X3.21Y-4.265
X3.21Y-4.435
X3.2402Y-4.34
X3.25Y-4.765
X3.255Y-4.235
X3.275Y-4.665
X3.275Y-4.7865
X3.289Y-4.54
X3.2984Y-4.6166
X3.315Y-4.522
X3.3301Y-4.4956
X3.335Y-4.14
X3.34Y-4.275
X3.354Y-4.457
X3.36Y-4.76
X3.36Y-4.86
X3.365Y-4.335
X3.3695Y-4.4305
X3.3901Y-4.7385
X3.405Y-4.37
X3.455Y-4.35
X3.49Y-4.66
X3.5Y-4.115
X3.505Y-4.805
X3.5105Y-4.335
X3.5121Y-4.1966
X3.525Y-4.635
X3.54Y-4.16
X3.5404Y-4.5174
X3.55Y-3.985
X3.55Y-4.02
X3.55Y-4.28
X3.55Y-4.315
X3.55Y-4.35
X3.55Y-4.385
X3.55Y-4.42
X3.55Y-4.68
X3.55Y-4.715
X3.55Y-4.75
X3.55Y-4.785
X3.55Y-4.82
X3.5719Y-4.163
X3.6Y-4.545
X3.6081Y-4.1369
X3.65Y-4.08
X3.65Y-4.115
X3.65Y-4.15
X3.65Y-4.185
X3.65Y-4.22
X3.65Y-4.48
X3.65Y-4.515
X3.65Y-4.55
X3.65Y-4.585
X3.65Y-4.62
X3.65Y-4.88
X3.65Y-4.915
T2
X2.65Y-3.95
X2.65Y-4.
X2.7Y-3.95
X2.7Y-4.
X2.75Y-3.95
X2.75Y-4.
X2.8Y-3.95
X2.8Y-4.
X2.85Y-3.95
X2.85Y-4.
T3
X3.45Y-4.
X3.45Y-4.1
X3.45Y-4.2
X3.45Y-4.3
X3.45Y-4.4
X3.45Y-4.5
X3.45Y-4.6
X3.45Y-4.7
X3.45Y-4.8
X3.45Y-4.9
T4
X2.405Y-4.84
X2.405Y-4.94
X2.505Y-4.84
X2.505Y-4.94
X2.605Y-4.84
X2.605Y-4.94
X2.705Y-4.84
X2.705Y-4.94
X2.805Y-4.84
X2.805Y-4.94
X2.905Y-4.84
X2.905Y-4.94
X3.005Y-4.84
X3.005Y-4.94
X3.105Y-4.84
X3.105Y-4.94
X3.205Y-3.975
X3.205Y-4.075
X3.205Y-4.84
X3.205Y-4.94
X3.305Y-3.975
X3.305Y-4.075
X3.305Y-4.84
X3.305Y-4.94
T0
M30
