G04 #@! TF.FileFunction,Copper,L1,Top,Signal*
%FSLAX46Y46*%
G04 Gerber Fmt 4.6, Leading zero omitted, Abs format (unit mm)*
G04 Created by KiCad (PCBNEW 0.201502161433+5424~21~ubuntu14.04.1-product) date Mon 16 Feb 2015 01:07:27 PM PST*
%MOMM*%
G01*
G04 APERTURE LIST*
%ADD10C,0.100000*%
%ADD11C,1.399540*%
%ADD12R,0.650000X1.300000*%
%ADD13R,1.250000X2.100000*%
%ADD14R,0.797560X0.797560*%
%ADD15R,2.032000X2.032000*%
%ADD16O,2.032000X2.032000*%
%ADD17C,1.450000*%
%ADD18R,0.400000X1.100000*%
%ADD19R,0.599440X0.248920*%
%ADD20R,0.248920X0.599440*%
%ADD21R,5.150000X5.150000*%
%ADD22R,0.635000X1.143000*%
%ADD23R,0.398780X0.599440*%
%ADD24R,0.599440X0.398780*%
%ADD25R,1.143000X0.635000*%
%ADD26C,0.889000*%
%ADD27R,1.400000X0.950000*%
%ADD28R,1.200000X1.000000*%
%ADD29C,1.145540*%
%ADD30R,0.300000X0.210000*%
%ADD31R,0.100000X0.430000*%
%ADD32O,1.270000X0.635000*%
%ADD33C,0.609600*%
%ADD34C,0.635000*%
%ADD35C,0.177800*%
%ADD36C,0.304800*%
%ADD37C,0.609600*%
%ADD38C,0.203200*%
G04 APERTURE END LIST*
D10*
D11*
X90868500Y-118364000D03*
D12*
X73692000Y-120396000D03*
X71342000Y-120396000D03*
D13*
X59636000Y-117602000D03*
X52886000Y-117602000D03*
D14*
X71628000Y-107810300D03*
X71628000Y-106311700D03*
X72771000Y-107810300D03*
X72771000Y-106311700D03*
D15*
X81407000Y-100965000D03*
D16*
X83947000Y-100965000D03*
D15*
X81407000Y-103505000D03*
D16*
X83947000Y-103505000D03*
D17*
X87630000Y-124460000D03*
X87630000Y-121920000D03*
X87630000Y-119380000D03*
X87630000Y-116840000D03*
X87630000Y-114300000D03*
X87630000Y-111760000D03*
X87630000Y-109220000D03*
X87630000Y-106680000D03*
X87630000Y-104140000D03*
X87630000Y-101600000D03*
D18*
X79334000Y-106435000D03*
X78684000Y-106435000D03*
X78034000Y-106435000D03*
X77384000Y-106435000D03*
X77384000Y-110735000D03*
X78034000Y-110735000D03*
X78684000Y-110735000D03*
X79334000Y-110735000D03*
D19*
X73248520Y-115778280D03*
X73248520Y-115277900D03*
X73248520Y-114777520D03*
X73248520Y-114277140D03*
X73248520Y-113779300D03*
X73248520Y-113278920D03*
X73248520Y-112778540D03*
X73248520Y-112278160D03*
X73248520Y-111777780D03*
X73248520Y-111277400D03*
X73248520Y-110777020D03*
X73248520Y-110279180D03*
X66451480Y-114282220D03*
X66451480Y-114780060D03*
X66451480Y-115280440D03*
X66451480Y-115780820D03*
D20*
X70599300Y-109628940D03*
X70100000Y-109630000D03*
X69601080Y-109628940D03*
X69100700Y-109628940D03*
X68600320Y-109628940D03*
X68099940Y-109628940D03*
X67599560Y-109628940D03*
X67099180Y-109628940D03*
X72598280Y-109628940D03*
X72097900Y-109628940D03*
X71597520Y-109628940D03*
X71099680Y-109628940D03*
D19*
X66451480Y-110281720D03*
X66448940Y-110782100D03*
X66448940Y-111279940D03*
X66448940Y-111780320D03*
X66448940Y-112280700D03*
X66448940Y-112781080D03*
X66448940Y-113281460D03*
X66448940Y-113781840D03*
D20*
X67099180Y-116428520D03*
X67599560Y-116428520D03*
X68099940Y-116428520D03*
X68597780Y-116428520D03*
X69098160Y-116428520D03*
X69598540Y-116428520D03*
X70098920Y-116428520D03*
X70599300Y-116428520D03*
X71099680Y-116428520D03*
X71600060Y-116428520D03*
X72097900Y-116428520D03*
X72598280Y-116428520D03*
D21*
X69850000Y-113030000D03*
D22*
X82296000Y-106045000D03*
X80772000Y-106045000D03*
D23*
X75887580Y-111252000D03*
X74988420Y-111252000D03*
D24*
X73914000Y-104960420D03*
X73914000Y-105859580D03*
X68961000Y-120591580D03*
X68961000Y-119692420D03*
D23*
X73855580Y-118999000D03*
X72956420Y-118999000D03*
D22*
X82296000Y-109220000D03*
X83820000Y-109220000D03*
D23*
X74998580Y-109982000D03*
X74099420Y-109982000D03*
X63939420Y-120650000D03*
X64838580Y-120650000D03*
X71178420Y-118999000D03*
X72077580Y-118999000D03*
D22*
X74803000Y-117221000D03*
X76327000Y-117221000D03*
D24*
X63750142Y-110428052D03*
X63750142Y-111327212D03*
X68199000Y-118559580D03*
X68199000Y-117660420D03*
X64770000Y-114739420D03*
X64770000Y-115638580D03*
D23*
X63050420Y-115951000D03*
X63949580Y-115951000D03*
D24*
X65836800Y-117518180D03*
X65836800Y-116619020D03*
D25*
X77724000Y-116459000D03*
X77724000Y-117983000D03*
D24*
X64516000Y-118940580D03*
X64516000Y-118041420D03*
X63750142Y-112978212D03*
X63750142Y-112079052D03*
X64770000Y-113987580D03*
X64770000Y-113088420D03*
D22*
X76327000Y-115697000D03*
X74803000Y-115697000D03*
D23*
X77274420Y-115443000D03*
X78173580Y-115443000D03*
D24*
X64770000Y-116390420D03*
X64770000Y-117289580D03*
D23*
X84650580Y-105791000D03*
X83751420Y-105791000D03*
X83751420Y-107823000D03*
X84650580Y-107823000D03*
D24*
X71628000Y-104579420D03*
X71628000Y-105478580D03*
X78359000Y-100642420D03*
X78359000Y-101541580D03*
D23*
X84650580Y-106807000D03*
X83751420Y-106807000D03*
D24*
X72771000Y-104579420D03*
X72771000Y-105478580D03*
D23*
X71188580Y-103124000D03*
X70289420Y-103124000D03*
D24*
X68199000Y-104081580D03*
X68199000Y-103182420D03*
D23*
X66352420Y-104013000D03*
X67251580Y-104013000D03*
D24*
X78105000Y-111818420D03*
X78105000Y-112717580D03*
X75946000Y-108907580D03*
X75946000Y-108008420D03*
X83820000Y-116898420D03*
X83820000Y-117797580D03*
X84582000Y-119448580D03*
X84582000Y-118549420D03*
X64770000Y-111056420D03*
X64770000Y-111955580D03*
D26*
X67310000Y-101600000D03*
X67310000Y-100330000D03*
X68580000Y-101600000D03*
X68580000Y-100330000D03*
X69850000Y-101600000D03*
X69850000Y-100330000D03*
X71120000Y-101600000D03*
X71120000Y-100330000D03*
X72390000Y-101600000D03*
X72390000Y-100330000D03*
D27*
X75692000Y-100160000D03*
X75692000Y-104310000D03*
D28*
X67779000Y-120919000D03*
X66079000Y-120919000D03*
X66079000Y-119619000D03*
X67779000Y-119619000D03*
D29*
X90741500Y-102870000D03*
D11*
X90868500Y-107823000D03*
D29*
X90741500Y-113030000D03*
X90741500Y-123190000D03*
D17*
X61087000Y-122936000D03*
X63627000Y-122936000D03*
X66167000Y-122936000D03*
X68707000Y-122936000D03*
X71247000Y-122936000D03*
X73787000Y-122936000D03*
X76327000Y-122936000D03*
X78867000Y-122936000D03*
X81407000Y-122936000D03*
X83947000Y-122936000D03*
X61087000Y-125476000D03*
X63627000Y-125476000D03*
X66167000Y-125476000D03*
X68707000Y-125476000D03*
X71247000Y-125476000D03*
X73787000Y-125476000D03*
X76327000Y-125476000D03*
X78867000Y-125476000D03*
X81407000Y-125476000D03*
X83947000Y-125476000D03*
D10*
G36*
X82202000Y-108124000D02*
X82202000Y-107694000D01*
X82402000Y-107894000D01*
X82402000Y-107924000D01*
X82202000Y-108124000D01*
X82202000Y-108124000D01*
G37*
G36*
X82302000Y-108224000D02*
X82302000Y-107794000D01*
X82502000Y-107994000D01*
X82502000Y-108024000D01*
X82302000Y-108224000D01*
X82302000Y-108224000D01*
G37*
D30*
X82352000Y-108119000D03*
D31*
X82252000Y-108009000D03*
X83102000Y-108009000D03*
D30*
X83002000Y-108119000D03*
D10*
G36*
X83052000Y-107794000D02*
X83052000Y-108224000D01*
X82852000Y-108024000D01*
X82852000Y-107994000D01*
X83052000Y-107794000D01*
X83052000Y-107794000D01*
G37*
G36*
X83052000Y-106914000D02*
X83052000Y-107344000D01*
X82852000Y-107144000D01*
X82852000Y-107114000D01*
X83052000Y-106914000D01*
X83052000Y-106914000D01*
G37*
D30*
X83002000Y-107019000D03*
D31*
X83102000Y-107129000D03*
X82252000Y-107129000D03*
D30*
X82352000Y-107019000D03*
D10*
G36*
X82302000Y-107344000D02*
X82302000Y-106914000D01*
X82502000Y-107114000D01*
X82502000Y-107144000D01*
X82302000Y-107344000D01*
X82302000Y-107344000D01*
G37*
G36*
X82677000Y-107910250D02*
X82335750Y-107569000D01*
X82677000Y-107227750D01*
X83018250Y-107569000D01*
X82677000Y-107910250D01*
X82677000Y-107910250D01*
G37*
D32*
X92710000Y-124841000D03*
X92710000Y-123952000D03*
X90170000Y-101219000D03*
X90170000Y-102108000D03*
X90170000Y-108712000D03*
X90170000Y-109601000D03*
X90170000Y-110490000D03*
X90170000Y-111379000D03*
X90170000Y-112268000D03*
X92710000Y-113792000D03*
X92710000Y-114681000D03*
X92710000Y-115570000D03*
X92710000Y-116459000D03*
X92710000Y-117348000D03*
X92710000Y-103632000D03*
X92710000Y-104521000D03*
X92710000Y-105410000D03*
X92710000Y-106299000D03*
X92710000Y-107188000D03*
X90170000Y-118872000D03*
X90170000Y-119761000D03*
X90170000Y-120650000D03*
X90170000Y-121539000D03*
X90170000Y-122428000D03*
D33*
X89027000Y-110109000D03*
X66332357Y-108542919D03*
X62992000Y-110871000D03*
X62992000Y-112522000D03*
X63119000Y-118491000D03*
X64003942Y-116733332D03*
X63119000Y-116713000D03*
X83312000Y-110363000D03*
X84875157Y-108604675D03*
X78801018Y-119976290D03*
X80772000Y-107061000D03*
X80016612Y-106172000D03*
X69088000Y-121081770D03*
X65592188Y-114550708D03*
X63068200Y-109753400D03*
X91663119Y-105059881D03*
X90714217Y-105727480D03*
X78867000Y-115697000D03*
X86487000Y-110998000D03*
X91440000Y-115443000D03*
X89925055Y-114741399D03*
X67691000Y-113411000D03*
X89535000Y-117729000D03*
X87757000Y-110490000D03*
X88900000Y-104521000D03*
X76835000Y-120218201D03*
X69215000Y-103378000D03*
X75692000Y-117094000D03*
X63119000Y-113919000D03*
X65786000Y-99949000D03*
X64389000Y-99949000D03*
X63119000Y-99949000D03*
X63119000Y-101473000D03*
X63119000Y-102870000D03*
X63119000Y-104394000D03*
X63119000Y-105791000D03*
X63119000Y-107188000D03*
X63119000Y-108585000D03*
X62103000Y-121158000D03*
X63119000Y-120015000D03*
X80772000Y-105029000D03*
X63119000Y-115062000D03*
X63754000Y-118872000D03*
X66675000Y-104902000D03*
X69850000Y-113030000D03*
X68072000Y-111125000D03*
X71755000Y-111125000D03*
X68072000Y-114808000D03*
X71628000Y-114808000D03*
X72771000Y-103886000D03*
X71628000Y-103886000D03*
X75692000Y-109728000D03*
X76584122Y-111248623D03*
X77419200Y-105130600D03*
X73253600Y-109397800D03*
X74599800Y-119202200D03*
X77749400Y-118694200D03*
X63754000Y-109753400D03*
X70586630Y-119126000D03*
X68961000Y-119010418D03*
X66557157Y-117084843D03*
X65519040Y-118203708D03*
X66802000Y-118618000D03*
X89025409Y-122050183D03*
X82207464Y-110478678D03*
X74543475Y-120399185D03*
X81534000Y-108204000D03*
X89916000Y-105664000D03*
X83185000Y-118491000D03*
X74041000Y-109093000D03*
X75692000Y-102362000D03*
X72884398Y-120399185D03*
X88646000Y-118364000D03*
X78689302Y-116509698D03*
X66478132Y-116301406D03*
X77724000Y-117094000D03*
X74295000Y-111252000D03*
X74396600Y-107848400D03*
X84709000Y-105156000D03*
X79019400Y-104419400D03*
X70685618Y-108660708D03*
X80389116Y-112539804D03*
X81773955Y-119976290D03*
X79242568Y-112761149D03*
X70746608Y-107517687D03*
D34*
X75946000Y-107327720D03*
D33*
X81419720Y-116586000D03*
X89231989Y-106594625D03*
X75438000Y-112140953D03*
X78994000Y-112014000D03*
X80014684Y-111328091D03*
X76708000Y-112776000D03*
X84874129Y-114243231D03*
X84455000Y-115062000D03*
X83693020Y-115443000D03*
X84836000Y-117602000D03*
X77978000Y-109601000D03*
X76454000Y-110109000D03*
X69980330Y-107336482D03*
X80010000Y-109601000D03*
X85344000Y-123444000D03*
X85471000Y-110109000D03*
X86106000Y-120142000D03*
X85657983Y-112442951D03*
X81534000Y-112699848D03*
X69772654Y-106238047D03*
X85344000Y-120904000D03*
X82804000Y-120954800D03*
X68673911Y-106179493D03*
X85234372Y-113106706D03*
X83467215Y-121379257D03*
X68249800Y-105486200D03*
X65946391Y-109942480D03*
X65759137Y-109082767D03*
X64873454Y-109147175D03*
X65665421Y-111745768D03*
X68964843Y-118223016D03*
X69786480Y-120556387D03*
X70298346Y-119890969D03*
X70785817Y-118206503D03*
X71562219Y-118075285D03*
X75225655Y-120005932D03*
X76179788Y-118630721D03*
X79898295Y-114970997D03*
D35*
X89255600Y-118262400D02*
X89230201Y-118237001D01*
X89230201Y-118237001D02*
X89230201Y-118033799D01*
X89230201Y-118033799D02*
X89535000Y-117729000D01*
X89255600Y-118770400D02*
X89255600Y-118262400D01*
X90170000Y-118872000D02*
X89357200Y-118872000D01*
X89357200Y-118872000D02*
X89255600Y-118770400D01*
X89458800Y-118618000D02*
X89458800Y-117805200D01*
X89458800Y-117805200D02*
X89535000Y-117729000D01*
D36*
X82677000Y-107569000D02*
X82931000Y-107823000D01*
X82931000Y-107823000D02*
X83751420Y-107823000D01*
D35*
X83002000Y-108119000D02*
X83002000Y-107810800D01*
X83624420Y-107696000D02*
X83751420Y-107823000D01*
X82677000Y-107569000D02*
X82865518Y-107569000D01*
X90170000Y-108712000D02*
X89281000Y-108712000D01*
X89281000Y-108712000D02*
X89027000Y-108966000D01*
X89027000Y-108966000D02*
X89027000Y-109677948D01*
X89027000Y-109677948D02*
X89027000Y-110109000D01*
X88722201Y-110413799D02*
X89027000Y-110109000D01*
X88646000Y-110490000D02*
X88722201Y-110413799D01*
X87757000Y-110490000D02*
X88646000Y-110490000D01*
X89662000Y-117856000D02*
X89535000Y-117729000D01*
X62992000Y-112522000D02*
X62992000Y-110871000D01*
X63568581Y-118940581D02*
X63119000Y-118491000D01*
X64770000Y-118940581D02*
X63568581Y-118940581D01*
X63050420Y-115951000D02*
X63050420Y-116644420D01*
X63050420Y-116644420D02*
X63119000Y-116713000D01*
X83820000Y-109220000D02*
X83693000Y-109220000D01*
X83693000Y-109220000D02*
X83693000Y-109982000D01*
X83693000Y-109982000D02*
X83312000Y-110363000D01*
X83820000Y-109220000D02*
X84315300Y-109220000D01*
X84875157Y-108660143D02*
X84875157Y-108604675D01*
X84315300Y-109220000D02*
X84875157Y-108660143D01*
X78559107Y-120218201D02*
X78801018Y-119976290D01*
X76835000Y-120218201D02*
X78559107Y-120218201D01*
X80772000Y-106045000D02*
X80772000Y-107061000D01*
X80143612Y-106045000D02*
X80016612Y-106172000D01*
X80772000Y-106045000D02*
X80143612Y-106045000D01*
X80016612Y-105740948D02*
X80016612Y-106172000D01*
X78858362Y-105029000D02*
X79304664Y-105029000D01*
X79304664Y-105029000D02*
X80016612Y-105740948D01*
X68925230Y-120919000D02*
X69088000Y-121081770D01*
X67779000Y-120919000D02*
X68925230Y-120919000D01*
X69074000Y-121081770D02*
X69088000Y-121081770D01*
X68961000Y-120591580D02*
X68961000Y-120968770D01*
X68961000Y-120968770D02*
X69074000Y-121081770D01*
X65860676Y-114282220D02*
X65592188Y-114550708D01*
X66451480Y-114282220D02*
X65860676Y-114282220D01*
X65821540Y-114780060D02*
X65592188Y-114550708D01*
X66451480Y-114780060D02*
X65821540Y-114780060D01*
X63119000Y-109702600D02*
X63068200Y-109753400D01*
X63119000Y-108585000D02*
X63119000Y-109702600D01*
X64770000Y-111056420D02*
X64592200Y-110878620D01*
X64592200Y-110878620D02*
X64592200Y-110490000D01*
X64592200Y-110490000D02*
X64530252Y-110428052D01*
X64530252Y-110428052D02*
X63750142Y-110428052D01*
X90995520Y-105727480D02*
X90714217Y-105727480D01*
X91663119Y-105059881D02*
X90995520Y-105727480D01*
X77724000Y-117983000D02*
X77089000Y-117983000D01*
X77089000Y-117983000D02*
X76962000Y-117856000D01*
X76962000Y-117856000D02*
X76962000Y-117221000D01*
X76962000Y-117221000D02*
X76327000Y-117221000D01*
X79560420Y-100642420D02*
X79883000Y-100965000D01*
X79883000Y-100965000D02*
X81407000Y-100965000D01*
X78359000Y-100642420D02*
X79560420Y-100642420D01*
X79502000Y-116979700D02*
X79502000Y-116332000D01*
X79502000Y-116332000D02*
X78867000Y-115697000D01*
X78498700Y-117983000D02*
X79502000Y-116979700D01*
X77724000Y-117983000D02*
X78498700Y-117983000D01*
X86995000Y-110490000D02*
X86487000Y-110998000D01*
X87757000Y-110490000D02*
X86995000Y-110490000D01*
X89925055Y-114741399D02*
X90626656Y-115443000D01*
X90626656Y-115443000D02*
X91440000Y-115443000D01*
X68072000Y-111125000D02*
X67945000Y-111125000D01*
X65878580Y-119819420D02*
X66079000Y-119619000D01*
X69850000Y-101600000D02*
X69469000Y-101981000D01*
X69469000Y-101981000D02*
X69469000Y-103124000D01*
X69469000Y-103124000D02*
X69215000Y-103378000D01*
X88900000Y-104521000D02*
X88900000Y-104107909D01*
X88900000Y-104107909D02*
X88696790Y-103904699D01*
X88696790Y-103904699D02*
X88696790Y-101854010D01*
X88696790Y-101854010D02*
X89331800Y-101219000D01*
X89331800Y-101219000D02*
X90170000Y-101219000D01*
X78858362Y-105029000D02*
X78871063Y-105041701D01*
X78871063Y-105041701D02*
X80346208Y-105041701D01*
X80346208Y-105041701D02*
X80358909Y-105029000D01*
X80358909Y-105029000D02*
X80772000Y-105029000D01*
D36*
X75692000Y-117208300D02*
X75692000Y-117094000D01*
X75704700Y-117221000D02*
X75692000Y-117208300D01*
X76327000Y-117221000D02*
X75704700Y-117221000D01*
D35*
X62712600Y-121158000D02*
X62377743Y-121492857D01*
X62377743Y-121492857D02*
X61087000Y-122783600D01*
X62103000Y-121158000D02*
X62395099Y-121450099D01*
X62395099Y-121450099D02*
X62395099Y-121475501D01*
X62395099Y-121475501D02*
X62377743Y-121492857D01*
X61087000Y-122783600D02*
X61087000Y-122936000D01*
X63119000Y-115062000D02*
X63119000Y-113919000D01*
X64389000Y-99949000D02*
X65786000Y-99949000D01*
X63119000Y-101473000D02*
X63119000Y-99949000D01*
X63119000Y-104394000D02*
X63119000Y-102870000D01*
X63119000Y-107188000D02*
X63119000Y-105791000D01*
X63119000Y-120015000D02*
X63119000Y-120142000D01*
X63119000Y-120142000D02*
X62103000Y-121158000D01*
X72598280Y-109628940D02*
X72598280Y-110154720D01*
X72598280Y-110154720D02*
X69850000Y-112903000D01*
X69850000Y-112903000D02*
X69850000Y-113030000D01*
X80772000Y-106045000D02*
X80772000Y-105029000D01*
X63050420Y-115951000D02*
X63050420Y-115130580D01*
X63050420Y-115130580D02*
X63119000Y-115062000D01*
X66451480Y-114780060D02*
X68099940Y-114780060D01*
X68099940Y-114780060D02*
X69850000Y-113030000D01*
X66352420Y-104013000D02*
X66352420Y-104579420D01*
X66352420Y-104579420D02*
X66675000Y-104902000D01*
D36*
X83751420Y-107823000D02*
X83751420Y-109151420D01*
X83751420Y-109151420D02*
X83820000Y-109220000D01*
X83002000Y-108119000D02*
X83002000Y-108528800D01*
X83002000Y-108528800D02*
X83312200Y-108839000D01*
X83693000Y-109093000D02*
X83820000Y-109220000D01*
X83312200Y-108839000D02*
X83693000Y-108839000D01*
X83693000Y-108839000D02*
X83693000Y-109093000D01*
X82677000Y-107651447D02*
X82677000Y-107569000D01*
X83002000Y-107894000D02*
X82677000Y-107569000D01*
X83002000Y-108119000D02*
X83002000Y-107894000D01*
D35*
X69596000Y-113284000D02*
X69850000Y-113030000D01*
X68707000Y-113284000D02*
X69596000Y-113284000D01*
X68199000Y-113792000D02*
X68707000Y-113284000D01*
X68199000Y-114282220D02*
X68199000Y-113792000D01*
X66451480Y-114282220D02*
X68199000Y-114282220D01*
X69850000Y-113030000D02*
X71755000Y-111125000D01*
X71755000Y-111125000D02*
X68072000Y-111125000D01*
X68072000Y-114808000D02*
X71628000Y-114808000D01*
X69850000Y-113030000D02*
X71628000Y-114808000D01*
X71628000Y-114394909D02*
X71628000Y-114808000D01*
X71882000Y-113030000D02*
X71628000Y-113284000D01*
X71628000Y-113284000D02*
X71628000Y-114394909D01*
X72771000Y-104579420D02*
X72771000Y-103886000D01*
X71628000Y-104579420D02*
X71628000Y-103886000D01*
X75438000Y-109982000D02*
X75692000Y-109728000D01*
X74998580Y-109982000D02*
X75438000Y-109982000D01*
X75887580Y-111252000D02*
X76580745Y-111252000D01*
X81407000Y-100965000D02*
X81407000Y-103505000D01*
D36*
X61087000Y-122936000D02*
X61087000Y-125476000D01*
D35*
X73787000Y-103886000D02*
X72771000Y-103886000D01*
X73914000Y-104013000D02*
X73787000Y-103886000D01*
X73914000Y-104960420D02*
X73914000Y-104013000D01*
X65836800Y-117732931D02*
X65786000Y-117783731D01*
X65836800Y-117518180D02*
X65836800Y-117732931D01*
X77384000Y-105165800D02*
X77419200Y-105130600D01*
X78858362Y-105029000D02*
X78756762Y-105130600D01*
X77384000Y-106435000D02*
X77384000Y-105165800D01*
X78756762Y-105130600D02*
X77419200Y-105130600D01*
X72598280Y-109628940D02*
X73022460Y-109628940D01*
X73022460Y-109628940D02*
X73253600Y-109397800D01*
X73855580Y-118999000D02*
X74396600Y-118999000D01*
X74396600Y-118999000D02*
X74599800Y-119202200D01*
D36*
X77749400Y-118643400D02*
X77749400Y-118694200D01*
X77724000Y-117983000D02*
X77724000Y-118618000D01*
X77724000Y-118618000D02*
X77749400Y-118643400D01*
D35*
X63750142Y-109757258D02*
X63754000Y-109753400D01*
X63750142Y-110428052D02*
X63750142Y-109757258D01*
X70713630Y-118999000D02*
X70586630Y-119126000D01*
X68750168Y-119010418D02*
X68961000Y-119010418D01*
X68199000Y-118559580D02*
X68299330Y-118559580D01*
X71178420Y-118999000D02*
X70713630Y-118999000D01*
X68299330Y-118559580D02*
X68750168Y-119010418D01*
X65858269Y-117783731D02*
X66557157Y-117084843D01*
X65786000Y-117783731D02*
X65858269Y-117783731D01*
X65786000Y-117783731D02*
X65823839Y-117821570D01*
X65823839Y-117898909D02*
X65519040Y-118203708D01*
X65823839Y-117821570D02*
X65823839Y-117898909D01*
X66548000Y-118618000D02*
X66802000Y-118618000D01*
X66079000Y-119087000D02*
X66548000Y-118618000D01*
X66079000Y-119619000D02*
X66079000Y-119087000D01*
X87630000Y-124460000D02*
X89025409Y-123064591D01*
X89025409Y-123064591D02*
X89025409Y-122481235D01*
X89025409Y-122481235D02*
X89025409Y-122050183D01*
X65878580Y-120718580D02*
X66079000Y-120919000D01*
X66079000Y-120919000D02*
X66279000Y-120919000D01*
X65810000Y-120650000D02*
X66079000Y-120919000D01*
X64838580Y-120650000D02*
X65810000Y-120650000D01*
X67099180Y-116781044D02*
X67099180Y-116428520D01*
X67228781Y-117302219D02*
X67228781Y-116910645D01*
X65678701Y-118852299D02*
X67228781Y-117302219D01*
X65265639Y-118852299D02*
X65678701Y-118852299D01*
X65151000Y-119860060D02*
X65151000Y-118966938D01*
X64838580Y-120650000D02*
X64838580Y-120172480D01*
X67228781Y-116910645D02*
X67099180Y-116781044D01*
X65151000Y-118966938D02*
X65265639Y-118852299D01*
X64838580Y-120172480D02*
X65151000Y-119860060D01*
X68961000Y-119692420D02*
X67852420Y-119692420D01*
X67852420Y-119692420D02*
X67779000Y-119619000D01*
X67599560Y-116428520D02*
X67599560Y-119439560D01*
X67599560Y-119439560D02*
X67779000Y-119619000D01*
X92710000Y-104521000D02*
X92392500Y-104521000D01*
X92392500Y-104521000D02*
X91897200Y-104025700D01*
X91897200Y-104025700D02*
X89916000Y-104025700D01*
X89916000Y-104025700D02*
X89916000Y-104521000D01*
X89916000Y-104521000D02*
X89916000Y-104013000D01*
X89154000Y-103251000D02*
X89154000Y-102362000D01*
X89916000Y-104013000D02*
X89154000Y-103251000D01*
X89154000Y-102362000D02*
X89408000Y-102108000D01*
X89408000Y-102108000D02*
X90170000Y-102108000D01*
X82930999Y-110997999D02*
X82296000Y-110363000D01*
X88621701Y-106371253D02*
X88621701Y-107156017D01*
X88106017Y-107671701D02*
X87024391Y-107671701D01*
X83698093Y-110997999D02*
X82930999Y-110997999D01*
X89328954Y-105664000D02*
X88621701Y-106371253D01*
X88621701Y-107156017D02*
X88106017Y-107671701D01*
X87024391Y-107671701D02*
X83698093Y-110997999D01*
X89916000Y-105664000D02*
X89328954Y-105664000D01*
D36*
X82296000Y-110363000D02*
X82207464Y-110451536D01*
X82207464Y-110451536D02*
X82207464Y-110478678D01*
X82296000Y-109220000D02*
X82296000Y-110363000D01*
D35*
X76672639Y-119404770D02*
X75499976Y-120577433D01*
X76672639Y-119404770D02*
X82271230Y-119404770D01*
X76771499Y-119305910D02*
X76672639Y-119404770D01*
X82271230Y-119404770D02*
X83185000Y-118491000D01*
X75499976Y-120577433D02*
X74721723Y-120577433D01*
X76487023Y-118059201D02*
X76771499Y-118343677D01*
X74721723Y-120577433D02*
X74543475Y-120399185D01*
X74803000Y-117348000D02*
X75514201Y-118059201D01*
X75514201Y-118059201D02*
X76487023Y-118059201D01*
X76771499Y-118343677D02*
X76771499Y-119305910D01*
D36*
X76263500Y-106680000D02*
X75628500Y-106680000D01*
X78549500Y-108966000D02*
X76263500Y-106680000D01*
X74447401Y-108788201D02*
X74345799Y-108788201D01*
X75082401Y-108153201D02*
X74447401Y-108788201D01*
X75082401Y-107226099D02*
X75082401Y-108153201D01*
X74345799Y-108788201D02*
X74041000Y-109093000D01*
X75628500Y-106680000D02*
X75082401Y-107226099D01*
X79334000Y-108966000D02*
X78549500Y-108966000D01*
D35*
X79222559Y-110623559D02*
X79222559Y-109067559D01*
X79324200Y-110725200D02*
X79222559Y-110623559D01*
X79222559Y-109067559D02*
X79121000Y-108966000D01*
D36*
X80899000Y-108839000D02*
X81312156Y-108425844D01*
X82169000Y-109093000D02*
X82169000Y-108839000D01*
X81312156Y-108425844D02*
X81534000Y-108204000D01*
X81324792Y-108425844D02*
X81312156Y-108425844D01*
X82296000Y-109220000D02*
X82169000Y-109093000D01*
X82169000Y-108839000D02*
X81737948Y-108839000D01*
X81737948Y-108839000D02*
X81324792Y-108425844D01*
X79334000Y-108966000D02*
X79511635Y-108966000D01*
X79511635Y-108966000D02*
X79638635Y-108839000D01*
X79638635Y-108839000D02*
X80899000Y-108839000D01*
X79334000Y-110735000D02*
X79324200Y-110725200D01*
X79121000Y-108966000D02*
X79334000Y-108966000D01*
X74803000Y-117221000D02*
X74803000Y-117348000D01*
D35*
X74099420Y-109982000D02*
X74099420Y-109151420D01*
X74099420Y-109151420D02*
X74041000Y-109093000D01*
X73248520Y-110279180D02*
X73616820Y-110279180D01*
X73616820Y-110279180D02*
X73787000Y-110109000D01*
X73972420Y-110109000D02*
X74099420Y-109982000D01*
X73787000Y-110109000D02*
X73972420Y-110109000D01*
D36*
X82352000Y-108119000D02*
X82352000Y-109164000D01*
X82352000Y-109164000D02*
X82296000Y-109220000D01*
D35*
X68199000Y-102489000D02*
X67310000Y-101600000D01*
X68199000Y-103182420D02*
X68199000Y-102489000D01*
D36*
X63627000Y-122936000D02*
X63627000Y-125476000D01*
D35*
X84523580Y-118491000D02*
X84582000Y-118549420D01*
X75692000Y-100160000D02*
X75692000Y-102362000D01*
X74676000Y-117094000D02*
X74803000Y-117221000D01*
X74676000Y-116840000D02*
X74676000Y-117094000D01*
X74295000Y-116840000D02*
X74676000Y-116840000D01*
X74015600Y-116560600D02*
X74295000Y-116840000D01*
X74015600Y-116052600D02*
X74015600Y-116560600D01*
X73741280Y-115778280D02*
X74015600Y-116052600D01*
X73248520Y-115778280D02*
X73741280Y-115778280D01*
X89916000Y-104521000D02*
X89916000Y-105664000D01*
X72881213Y-120396000D02*
X72884398Y-120399185D01*
X71944608Y-121335780D02*
X72771000Y-120509388D01*
X72771000Y-120509388D02*
X72771000Y-120396000D01*
X70647294Y-121335780D02*
X71944608Y-121335780D01*
X70291684Y-121691390D02*
X70647294Y-121335780D01*
X72771000Y-120396000D02*
X72881213Y-120396000D01*
X64871610Y-121691390D02*
X70291684Y-121691390D01*
X63627000Y-122936000D02*
X64871610Y-121691390D01*
D36*
X88175747Y-118324799D02*
X88214948Y-118364000D01*
X85186520Y-118549420D02*
X85411141Y-118324799D01*
X84582000Y-118549420D02*
X85186520Y-118549420D01*
X88214948Y-118364000D02*
X88646000Y-118364000D01*
X89611948Y-119761000D02*
X88646000Y-118795052D01*
X88646000Y-118999000D02*
X88646000Y-118364000D01*
X88646000Y-118795052D02*
X88646000Y-118364000D01*
X90170000Y-119761000D02*
X89611948Y-119761000D01*
X85411141Y-118324799D02*
X88175747Y-118324799D01*
X85371940Y-118364000D02*
X85411141Y-118324799D01*
D35*
X83850080Y-118204850D02*
X83850080Y-118491000D01*
X83820000Y-118174770D02*
X83850080Y-118204850D01*
X83820000Y-117797580D02*
X83820000Y-118174770D01*
D36*
X83850080Y-118491000D02*
X83185000Y-118491000D01*
X84523580Y-118491000D02*
X83850080Y-118491000D01*
D35*
X68099940Y-117561360D02*
X68199000Y-117660420D01*
X68099940Y-116428520D02*
X68099940Y-117561360D01*
X66451480Y-115280440D02*
X65948560Y-115280440D01*
X65948560Y-115280440D02*
X65786000Y-115443000D01*
X65786000Y-115443000D02*
X65786000Y-115983375D01*
X66451480Y-115780820D02*
X66443860Y-115773200D01*
X66443860Y-115773200D02*
X65786000Y-115773200D01*
X65786000Y-115773200D02*
X65786000Y-115983375D01*
D36*
X77774698Y-116509698D02*
X77724000Y-116459000D01*
X78689302Y-116509698D02*
X77774698Y-116509698D01*
X78173580Y-116009420D02*
X77724000Y-116459000D01*
X78173580Y-115443000D02*
X78173580Y-116009420D01*
D35*
X65836800Y-116451232D02*
X65786000Y-116400432D01*
X65836800Y-116619020D02*
X65836800Y-116451232D01*
X65786000Y-115983375D02*
X65786000Y-116400432D01*
X65885026Y-116301406D02*
X66478132Y-116301406D01*
X65786000Y-116400432D02*
X65885026Y-116301406D01*
D36*
X77724000Y-116459000D02*
X77724000Y-117094000D01*
D35*
X65081139Y-112266719D02*
X64770000Y-111955580D01*
X65584050Y-112420390D02*
X65430379Y-112266719D01*
X65430379Y-112266719D02*
X65081139Y-112266719D01*
X65945229Y-112280700D02*
X65805539Y-112420390D01*
X66448940Y-112280700D02*
X65945229Y-112280700D01*
X65805539Y-112420390D02*
X65584050Y-112420390D01*
X71099680Y-116766924D02*
X72454770Y-118122014D01*
X72454770Y-118122014D02*
X72454770Y-118521480D01*
X72454770Y-118521480D02*
X72077580Y-118898670D01*
X72077580Y-118898670D02*
X72077580Y-118999000D01*
X71099680Y-116428520D02*
X71099680Y-116766924D01*
X71342000Y-120396000D02*
X71374000Y-120364000D01*
X71374000Y-120364000D02*
X71374000Y-119888000D01*
X71374000Y-119888000D02*
X71755000Y-119888000D01*
X71755000Y-119888000D02*
X72077580Y-119565420D01*
X72077580Y-119565420D02*
X72077580Y-118999000D01*
X71600060Y-116764396D02*
X72956420Y-118120756D01*
X71600060Y-116428520D02*
X71600060Y-116764396D01*
X72956420Y-118120756D02*
X72956420Y-118999000D01*
X73692000Y-120396000D02*
X73533000Y-120237000D01*
X73533000Y-119888000D02*
X73279000Y-119888000D01*
X73533000Y-120237000D02*
X73533000Y-119888000D01*
X73279000Y-119888000D02*
X72898000Y-119507000D01*
X72898000Y-119507000D02*
X72898000Y-119057420D01*
X72898000Y-119057420D02*
X72956420Y-118999000D01*
D36*
X82352000Y-107019000D02*
X82352000Y-106101000D01*
X82352000Y-106101000D02*
X82296000Y-106045000D01*
X83751420Y-105791000D02*
X82550000Y-105791000D01*
X82550000Y-105791000D02*
X82296000Y-106045000D01*
X83751420Y-105791000D02*
X83751420Y-103700580D01*
X83751420Y-103700580D02*
X83947000Y-103505000D01*
X83947000Y-100965000D02*
X83947000Y-103505000D01*
D35*
X74269600Y-111277400D02*
X74295000Y-111252000D01*
X74988420Y-111252000D02*
X74295000Y-111252000D01*
X73248520Y-111277400D02*
X74269600Y-111277400D01*
X79019400Y-104419400D02*
X77181962Y-104419400D01*
X74396600Y-107204762D02*
X74396600Y-107848400D01*
X77181962Y-104419400D02*
X74396600Y-107204762D01*
X84650580Y-105791000D02*
X84650580Y-105214420D01*
X84650580Y-105214420D02*
X84709000Y-105156000D01*
D36*
X84650580Y-105791000D02*
X84650580Y-107823000D01*
X84650580Y-105791000D02*
X84650580Y-106807000D01*
D35*
X72097900Y-109628940D02*
X72097900Y-109126020D01*
X73660000Y-108204000D02*
X73660000Y-107315000D01*
X72097900Y-109126020D02*
X72638920Y-108585000D01*
X72638920Y-108585000D02*
X73279000Y-108585000D01*
X73279000Y-108585000D02*
X73660000Y-108204000D01*
X73660000Y-107315000D02*
X74554303Y-106420697D01*
X75467000Y-104310000D02*
X75692000Y-104310000D01*
X75184000Y-104593000D02*
X75467000Y-104310000D01*
X75184000Y-105791000D02*
X75184000Y-104593000D01*
X73914000Y-105859580D02*
X74014330Y-105859580D01*
X74554303Y-106420697D02*
X75184000Y-105791000D01*
X74554303Y-106399553D02*
X74554303Y-106420697D01*
X74014330Y-105859580D02*
X74554303Y-106399553D01*
X75917000Y-104310000D02*
X75692000Y-104310000D01*
X78232000Y-101995000D02*
X75917000Y-104310000D01*
X78232000Y-101668580D02*
X78232000Y-101995000D01*
X78359000Y-101541580D02*
X78232000Y-101668580D01*
X71628000Y-108386880D02*
X71628000Y-107810300D01*
X71099680Y-109628940D02*
X71099680Y-109113320D01*
X71099680Y-109113320D02*
X71247000Y-108966000D01*
X71247000Y-108966000D02*
X71247000Y-108767880D01*
X71247000Y-108767880D02*
X71628000Y-108386880D01*
X71691511Y-109024411D02*
X71691511Y-109534949D01*
X71691511Y-109534949D02*
X71597520Y-109628940D01*
X72771000Y-107944922D02*
X71691511Y-109024411D01*
X72771000Y-107810300D02*
X72771000Y-107944922D01*
X68580000Y-100330000D02*
X67818000Y-99568000D01*
X67818000Y-99568000D02*
X66976397Y-99568000D01*
X66976397Y-99568000D02*
X65786000Y-100758397D01*
X65786000Y-100758397D02*
X65786000Y-104902000D01*
X65786000Y-104902000D02*
X67099180Y-106215180D01*
X67099180Y-106215180D02*
X67099180Y-109628940D01*
X71188580Y-103124000D02*
X72136000Y-103124000D01*
X72136000Y-103124000D02*
X73152000Y-102108000D01*
X73152000Y-102108000D02*
X73152000Y-101092000D01*
X73152000Y-101092000D02*
X72390000Y-100330000D01*
X70599300Y-108747026D02*
X70685618Y-108660708D01*
X70599300Y-109628940D02*
X70599300Y-108747026D01*
X90170000Y-110490000D02*
X89852500Y-110490000D01*
X80800590Y-112128330D02*
X80389116Y-112539804D01*
X89852500Y-110490000D02*
X88900000Y-111442500D01*
X84848126Y-111871450D02*
X84299140Y-112420436D01*
X82049698Y-112128330D02*
X80800590Y-112128330D01*
X82341804Y-112420436D02*
X82049698Y-112128330D01*
X84299140Y-112420436D02*
X82341804Y-112420436D01*
X86836854Y-112776000D02*
X85932304Y-111871450D01*
X88900000Y-112014000D02*
X88138000Y-112776000D01*
X88900000Y-111442500D02*
X88900000Y-112014000D01*
X85932304Y-111871450D02*
X84848126Y-111871450D01*
X88138000Y-112776000D02*
X86836854Y-112776000D01*
X80167771Y-112761149D02*
X80389116Y-112539804D01*
X79242568Y-112761149D02*
X80167771Y-112761149D01*
X83576770Y-119976290D02*
X81773955Y-119976290D01*
X84104480Y-119448580D02*
X83576770Y-119976290D01*
X84582000Y-119448580D02*
X84104480Y-119448580D01*
X79242568Y-112761149D02*
X78148569Y-112761149D01*
X78148569Y-112761149D02*
X78105000Y-112717580D01*
X87561420Y-119448580D02*
X87630000Y-119380000D01*
X84582000Y-119448580D02*
X87561420Y-119448580D01*
X70100000Y-108164295D02*
X70746608Y-107517687D01*
X70100000Y-109630000D02*
X70100000Y-108164295D01*
X75946000Y-108008420D02*
X75946000Y-107327720D01*
X87571580Y-116898420D02*
X87630000Y-116840000D01*
X84582000Y-116898420D02*
X87571580Y-116898420D01*
X84582000Y-116898420D02*
X84481670Y-116898420D01*
X81732140Y-116898420D02*
X83820000Y-116898420D01*
X81419720Y-116586000D02*
X81732140Y-116898420D01*
X84297520Y-116898420D02*
X84582000Y-116898420D01*
X83820000Y-116898420D02*
X84297520Y-116898420D01*
X76936630Y-113385630D02*
X76989610Y-113332650D01*
X85776720Y-114300000D02*
X87630000Y-114300000D01*
X85148450Y-113671730D02*
X85776720Y-114300000D01*
X84769204Y-113671730D02*
X85148450Y-113671730D01*
X84430124Y-113332650D02*
X84769204Y-113671730D01*
X75905354Y-113385630D02*
X76936630Y-113385630D01*
X73248520Y-112778540D02*
X73550760Y-112778540D01*
X73840301Y-113068081D02*
X75587806Y-113068082D01*
X76989610Y-113332650D02*
X84430124Y-113332650D01*
X75587806Y-113068082D02*
X75905354Y-113385630D01*
X73550760Y-112778540D02*
X73840301Y-113068081D01*
X92710000Y-105410000D02*
X92392500Y-105410000D01*
X89958685Y-106298981D02*
X89663041Y-106594625D01*
X91503519Y-106298981D02*
X89958685Y-106298981D01*
X89663041Y-106594625D02*
X89231989Y-106594625D01*
X92392500Y-105410000D02*
X91503519Y-106298981D01*
X80171190Y-111979810D02*
X80378280Y-111772720D01*
X87630000Y-111760000D02*
X86323762Y-111760000D01*
X86323762Y-111760000D02*
X86079602Y-111515840D01*
X82489102Y-112064826D02*
X82196996Y-111772720D01*
X86079602Y-111515840D02*
X84700828Y-111515840D01*
X84700828Y-111515840D02*
X84151842Y-112064826D01*
X84151842Y-112064826D02*
X82489102Y-112064826D01*
X82196996Y-111772720D02*
X80378280Y-111772720D01*
X79425052Y-112014000D02*
X78994000Y-112014000D01*
X79459242Y-111979810D02*
X79425052Y-112014000D01*
X80171190Y-111979810D02*
X79459242Y-111979810D01*
X73248520Y-111777780D02*
X73804780Y-111777780D01*
X73804780Y-111777780D02*
X74168000Y-112141000D01*
X74168000Y-112141000D02*
X75006948Y-112141000D01*
X75006995Y-112140953D02*
X75438000Y-112140953D01*
X75006948Y-112141000D02*
X75006995Y-112140953D01*
X80319483Y-111023292D02*
X80014684Y-111328091D01*
X81353562Y-111023292D02*
X80319483Y-111023292D01*
X87630000Y-109220000D02*
X86905001Y-109944999D01*
X82344294Y-111417110D02*
X81747380Y-111417110D01*
X82636400Y-111709216D02*
X82344294Y-111417110D01*
X84553528Y-111160232D02*
X84004544Y-111709216D01*
X86905001Y-109944999D02*
X86524001Y-109944999D01*
X86524001Y-109944999D02*
X85308768Y-111160232D01*
X81747380Y-111417110D02*
X81353562Y-111023292D01*
X84004544Y-111709216D02*
X82636400Y-111709216D01*
X85308768Y-111160232D02*
X84553528Y-111160232D01*
X76276948Y-112776000D02*
X76708000Y-112776000D01*
X76213420Y-112712472D02*
X76276948Y-112776000D01*
X73995264Y-112712472D02*
X76213420Y-112712472D01*
X73560952Y-112278160D02*
X73995264Y-112712472D01*
X73248520Y-112278160D02*
X73560952Y-112278160D01*
X90170000Y-106680000D02*
X87630000Y-109220000D01*
X91694000Y-106680000D02*
X90170000Y-106680000D01*
X92202000Y-107188000D02*
X91694000Y-106680000D01*
X92710000Y-107188000D02*
X92202000Y-107188000D01*
X75440507Y-113423691D02*
X75783423Y-113766607D01*
X84443077Y-114243231D02*
X84874129Y-114243231D01*
X73693002Y-113423690D02*
X75440507Y-113423691D01*
X73548232Y-113278920D02*
X73693002Y-113423690D01*
X73248520Y-113278920D02*
X73548232Y-113278920D01*
X83888106Y-113688260D02*
X84443077Y-114243231D01*
X77109301Y-113766607D02*
X77187648Y-113688260D01*
X77187648Y-113688260D02*
X83888106Y-113688260D01*
X75783423Y-113766607D02*
X77109301Y-113766607D01*
X85946898Y-115316000D02*
X84874129Y-114243231D01*
X90456364Y-116110364D02*
X89662000Y-115316000D01*
X91852136Y-116110364D02*
X90456364Y-116110364D01*
X92392500Y-115570000D02*
X91852136Y-116110364D01*
X89662000Y-115316000D02*
X85946898Y-115316000D01*
X92710000Y-115570000D02*
X92392500Y-115570000D01*
X75636125Y-114122217D02*
X77256599Y-114122217D01*
X73248520Y-113779300D02*
X75293208Y-113779300D01*
X83436870Y-114043870D02*
X84455000Y-115062000D01*
X75293208Y-113779300D02*
X75636125Y-114122217D01*
X77256599Y-114122217D02*
X77334946Y-114043870D01*
X77334946Y-114043870D02*
X83436870Y-114043870D01*
X85217000Y-115824000D02*
X84455000Y-115062000D01*
X92710000Y-116459000D02*
X92703026Y-116465974D01*
X90176974Y-116465974D02*
X89535000Y-115824000D01*
X92703026Y-116465974D02*
X90176974Y-116465974D01*
X89535000Y-115824000D02*
X85217000Y-115824000D01*
X73271380Y-114300000D02*
X75311000Y-114300000D01*
X79153612Y-114399480D02*
X82649500Y-114399480D01*
X73248520Y-114277140D02*
X73271380Y-114300000D01*
X75311000Y-114300000D02*
X75488827Y-114477827D01*
X75488827Y-114477827D02*
X79075265Y-114477827D01*
X79075265Y-114477827D02*
X79153612Y-114399480D01*
X82649500Y-114399480D02*
X83693020Y-115443000D01*
X86908570Y-117868700D02*
X86641870Y-117602000D01*
X88252300Y-117868700D02*
X86908570Y-117868700D01*
X89281000Y-116840000D02*
X88252300Y-117868700D01*
X86641870Y-117602000D02*
X84836000Y-117602000D01*
X91694000Y-116840000D02*
X89281000Y-116840000D01*
X92202000Y-117348000D02*
X91694000Y-116840000D01*
X92710000Y-117348000D02*
X92202000Y-117348000D01*
D36*
X76581000Y-115443000D02*
X76327000Y-115697000D01*
X77274420Y-115443000D02*
X76581000Y-115443000D01*
D35*
X74803000Y-115570000D02*
X74803000Y-115697000D01*
X74510900Y-115277900D02*
X74803000Y-115570000D01*
X73248520Y-115277900D02*
X74510900Y-115277900D01*
D36*
X83751420Y-106807000D02*
X83214000Y-106807000D01*
X83214000Y-106807000D02*
X83002000Y-107019000D01*
D35*
X73248520Y-110777020D02*
X73726040Y-110777020D01*
X75882501Y-110680499D02*
X76454000Y-110109000D01*
X73726040Y-110777020D02*
X73822561Y-110680499D01*
X73822561Y-110680499D02*
X75882501Y-110680499D01*
X77978000Y-109601000D02*
X78359000Y-109601000D01*
X78359000Y-109601000D02*
X78684000Y-109926000D01*
X78684000Y-109926000D02*
X78684000Y-110735000D01*
X77384000Y-109769000D02*
X77384000Y-110735000D01*
X76522580Y-108907580D02*
X77384000Y-109769000D01*
X75946000Y-108907580D02*
X76522580Y-108907580D01*
X78105000Y-111818420D02*
X78105000Y-110806000D01*
X78105000Y-110806000D02*
X78034000Y-110735000D01*
D37*
X59636000Y-117602000D02*
X64643000Y-117602000D01*
D35*
X64643000Y-117602000D02*
X64770000Y-117475000D01*
X64770000Y-117475000D02*
X64770000Y-117707278D01*
X64770000Y-117289580D02*
X64770000Y-117707278D01*
X64770000Y-117707278D02*
X64770000Y-118041421D01*
X65532000Y-112776000D02*
X65436752Y-112776000D01*
X66448940Y-112781080D02*
X65537080Y-112781080D01*
X65537080Y-112781080D02*
X65532000Y-112776000D01*
X64393749Y-112622329D02*
X63850472Y-112079052D01*
X65283081Y-112622329D02*
X64393749Y-112622329D01*
X65436752Y-112776000D02*
X65283081Y-112622329D01*
X63850472Y-112079052D02*
X63750142Y-112079052D01*
D36*
X63750142Y-111327212D02*
X63750142Y-112079052D01*
D35*
X66448940Y-113781840D02*
X64975740Y-113781840D01*
X64975740Y-113781840D02*
X64770000Y-113987580D01*
X64770000Y-113987580D02*
X64770000Y-114198400D01*
X64871561Y-114637859D02*
X64770000Y-114739420D01*
X64871561Y-114325361D02*
X64871561Y-114637859D01*
D37*
X64770000Y-114528600D02*
X64770000Y-114223800D01*
D35*
X64770000Y-114528600D02*
X64770000Y-114739420D01*
X64770000Y-115638580D02*
X64770000Y-116039436D01*
X64770000Y-116039436D02*
X64770000Y-116390420D01*
X63949580Y-115951000D02*
X64758570Y-115951000D01*
X64758570Y-115951000D02*
X64770000Y-115962430D01*
X64770000Y-115962430D02*
X64770000Y-116039436D01*
X71628000Y-105478580D02*
X71628000Y-106311700D01*
X72771000Y-105478580D02*
X72771000Y-106311700D01*
X64208660Y-113030000D02*
X63801930Y-113030000D01*
X63801930Y-113030000D02*
X63750142Y-112978212D01*
X64770000Y-113088420D02*
X64267080Y-113088420D01*
X64267080Y-113088420D02*
X64208660Y-113030000D01*
X66448940Y-113281460D02*
X64963040Y-113281460D01*
X64963040Y-113281460D02*
X64770000Y-113088420D01*
X67251580Y-104013000D02*
X67251580Y-102811580D01*
X67251580Y-102811580D02*
X66294000Y-101854000D01*
X66294000Y-101854000D02*
X66294000Y-101219000D01*
X66294000Y-101219000D02*
X67183000Y-100330000D01*
X67183000Y-100330000D02*
X67310000Y-100330000D01*
X67462390Y-108991378D02*
X67462390Y-104701330D01*
X67462390Y-104701330D02*
X67251580Y-104490520D01*
X67599560Y-109628940D02*
X67599560Y-109128548D01*
X67251580Y-104490520D02*
X67251580Y-104013000D01*
X67599560Y-109128548D02*
X67462390Y-108991378D01*
X67320160Y-104081580D02*
X67251580Y-104013000D01*
X68199000Y-104081580D02*
X67320160Y-104081580D01*
X70289420Y-103224330D02*
X70289420Y-103124000D01*
X69432170Y-104081580D02*
X70289420Y-103224330D01*
X68199000Y-104081580D02*
X69432170Y-104081580D01*
X85166201Y-110413799D02*
X84785201Y-110413799D01*
X82783701Y-111353609D02*
X82491593Y-111061501D01*
X85471000Y-110109000D02*
X85166201Y-110413799D01*
X84785201Y-110413799D02*
X83845391Y-111353609D01*
X81901553Y-111061501D02*
X80441052Y-109601000D01*
X83845391Y-111353609D02*
X82783701Y-111353609D01*
X82491593Y-111061501D02*
X81901553Y-111061501D01*
X80441052Y-109601000D02*
X80010000Y-109601000D01*
X69601080Y-107715732D02*
X69980330Y-107336482D01*
X69601080Y-109628940D02*
X69601080Y-107715732D01*
X67284600Y-124206000D02*
X84582000Y-124206000D01*
X66167000Y-123088400D02*
X67284600Y-124206000D01*
X66167000Y-122936000D02*
X66167000Y-123088400D01*
X84582000Y-124206000D02*
X85344000Y-123444000D01*
X86766753Y-120371701D02*
X86537052Y-120142000D01*
X90170000Y-120650000D02*
X89357200Y-120650000D01*
X89357200Y-120650000D02*
X89078901Y-120371701D01*
X89078901Y-120371701D02*
X86766753Y-120371701D01*
X86537052Y-120142000D02*
X86106000Y-120142000D01*
X84779533Y-112442951D02*
X85657983Y-112442951D01*
X84446438Y-112776046D02*
X84779533Y-112442951D01*
X82041250Y-112776046D02*
X84446438Y-112776046D01*
X81534000Y-112699848D02*
X81965052Y-112699848D01*
X81965052Y-112699848D02*
X82041250Y-112776046D01*
X70976914Y-121691390D02*
X72745610Y-121691390D01*
X74775083Y-120942101D02*
X81653866Y-120942101D01*
X74356004Y-121361180D02*
X74775083Y-120942101D01*
X81653866Y-120942101D02*
X82212668Y-120383299D01*
X82212668Y-120383299D02*
X84823299Y-120383299D01*
X68707000Y-122936000D02*
X69732304Y-122936000D01*
X69732304Y-122936000D02*
X70976914Y-121691390D01*
X72745610Y-121691390D02*
X73075820Y-121361180D01*
X73075820Y-121361180D02*
X74356004Y-121361180D01*
X84823299Y-120383299D02*
X85344000Y-120904000D01*
X69100700Y-106910001D02*
X69772654Y-106238047D01*
X69100700Y-109628940D02*
X69100700Y-106910001D01*
X90170000Y-121539000D02*
X89281000Y-121539000D01*
X89281000Y-121539000D02*
X88519000Y-120777000D01*
X88519000Y-120777000D02*
X85471000Y-120777000D01*
X85471000Y-120777000D02*
X85344000Y-120904000D01*
X90170000Y-122428000D02*
X89916000Y-122428000D01*
X89916000Y-122428000D02*
X89408000Y-122936000D01*
X89408000Y-122936000D02*
X89408000Y-124149718D01*
X89408000Y-124149718D02*
X88106017Y-125451701D01*
X88106017Y-125451701D02*
X87153983Y-125451701D01*
X87153983Y-125451701D02*
X85991700Y-124289418D01*
X85991700Y-123068078D02*
X83713321Y-120789699D01*
X85991700Y-124289418D02*
X85991700Y-123068078D01*
X83713321Y-120789699D02*
X82969101Y-120789699D01*
X82969101Y-120789699D02*
X82804000Y-120954800D01*
X68600320Y-106253084D02*
X68673911Y-106179493D01*
X68600320Y-109628940D02*
X68600320Y-106253084D01*
X72272304Y-122936000D02*
X73435603Y-121772701D01*
X82430354Y-121328446D02*
X82804000Y-120954800D01*
X71247000Y-122936000D02*
X72272304Y-122936000D01*
X73435603Y-121772701D02*
X74447391Y-121772701D01*
X74447391Y-121772701D02*
X74891646Y-121328446D01*
X74891646Y-121328446D02*
X82430354Y-121328446D01*
X90170000Y-112268000D02*
X89357200Y-112268000D01*
X85665424Y-113106706D02*
X85234372Y-113106706D01*
X88488024Y-113137176D02*
X85695894Y-113137176D01*
X89357200Y-112268000D02*
X88488024Y-113137176D01*
X85695894Y-113137176D02*
X85665424Y-113106706D01*
X83162416Y-121684056D02*
X83467215Y-121379257D01*
X68099940Y-109628940D02*
X68099940Y-105636060D01*
X68099940Y-105636060D02*
X68249800Y-105486200D01*
X73787000Y-122936000D02*
X74339975Y-122936000D01*
X75038944Y-121684056D02*
X73787000Y-122936000D01*
X83162416Y-121684056D02*
X75038944Y-121684056D01*
X65946391Y-109951891D02*
X65946391Y-109942480D01*
X66276220Y-110281720D02*
X65946391Y-109951891D01*
X66451480Y-110281720D02*
X66276220Y-110281720D01*
X65341499Y-109500405D02*
X65759137Y-109082767D01*
X65341499Y-110152179D02*
X65341499Y-109500405D01*
X65971420Y-110782100D02*
X65341499Y-110152179D01*
X66448940Y-110782100D02*
X65971420Y-110782100D01*
X64873454Y-110264093D02*
X64873454Y-109147175D01*
X65783628Y-111174267D02*
X64873454Y-110264093D01*
X66343267Y-111174267D02*
X65783628Y-111174267D01*
X66448940Y-111279940D02*
X66343267Y-111174267D01*
X66448940Y-111780320D02*
X65699973Y-111780320D01*
X65699973Y-111780320D02*
X65665421Y-111745768D01*
X68964843Y-117478843D02*
X68964843Y-118223016D01*
X68597780Y-117111780D02*
X68964843Y-117478843D01*
X68597780Y-116428520D02*
X68597780Y-117111780D01*
X69387703Y-117437966D02*
X69659501Y-117709764D01*
X69659501Y-120429408D02*
X69786480Y-120556387D01*
X69659501Y-117709764D02*
X69659501Y-120429408D01*
X69098160Y-116428520D02*
X69098160Y-117040660D01*
X69098160Y-117040660D02*
X69387702Y-117330202D01*
X69387702Y-117330202D02*
X69387703Y-117437966D01*
X70015110Y-117562465D02*
X70015110Y-119607733D01*
X69598540Y-117038132D02*
X69743312Y-117182904D01*
X69743312Y-117182904D02*
X69743312Y-117290667D01*
X69743312Y-117290667D02*
X70015110Y-117562465D01*
X70015110Y-119607733D02*
X70298346Y-119890969D01*
X69598540Y-116428520D02*
X69598540Y-117038132D01*
X70098920Y-117143367D02*
X70481018Y-117525465D01*
X70481018Y-117525465D02*
X70481018Y-117901704D01*
X70098920Y-116428520D02*
X70098920Y-117143367D01*
X70481018Y-117901704D02*
X70785817Y-118206503D01*
X70599300Y-117112366D02*
X71562219Y-118075285D01*
X70599300Y-116428520D02*
X70599300Y-117112366D01*
X72097900Y-116759328D02*
X73771151Y-118432579D01*
X75225655Y-118961221D02*
X75225655Y-120005932D01*
X73771151Y-118432579D02*
X74697013Y-118432579D01*
X74697013Y-118432579D02*
X75225655Y-118961221D01*
X72097900Y-116428520D02*
X72097900Y-116759328D01*
X74071469Y-118076969D02*
X74844311Y-118076969D01*
X75398063Y-118630721D02*
X76179788Y-118630721D01*
X74844311Y-118076969D02*
X75398063Y-118630721D01*
X72598280Y-116603780D02*
X74071469Y-118076969D01*
X72598280Y-116428520D02*
X72598280Y-116603780D01*
X73248520Y-114777520D02*
X73279000Y-114808000D01*
X73279000Y-114808000D02*
X74168000Y-114808000D01*
X74168000Y-114808000D02*
X74193437Y-114833437D01*
X74193437Y-114833437D02*
X79329683Y-114833437D01*
X79329683Y-114833437D02*
X79467243Y-114970997D01*
X79467243Y-114970997D02*
X79898295Y-114970997D01*
D38*
G36*
X64942400Y-111156115D02*
X64919860Y-111156115D01*
X64919860Y-111228820D01*
X64620140Y-111228820D01*
X64620140Y-111156115D01*
X64597600Y-111156115D01*
X64597600Y-110956725D01*
X64620140Y-110956725D01*
X64620140Y-110884020D01*
X64919860Y-110884020D01*
X64919860Y-110956725D01*
X64942400Y-110956725D01*
X64942400Y-111156115D01*
X64942400Y-111156115D01*
G37*
X64942400Y-111156115D02*
X64919860Y-111156115D01*
X64919860Y-111228820D01*
X64620140Y-111228820D01*
X64620140Y-111156115D01*
X64597600Y-111156115D01*
X64597600Y-110956725D01*
X64620140Y-110956725D01*
X64620140Y-110884020D01*
X64919860Y-110884020D01*
X64919860Y-110956725D01*
X64942400Y-110956725D01*
X64942400Y-111156115D01*
G36*
X65194126Y-121323090D02*
X64871610Y-121323090D01*
X64730668Y-121351125D01*
X64691020Y-121377617D01*
X64611182Y-121430963D01*
X64027423Y-122014722D01*
X63839725Y-121936783D01*
X63839725Y-121159270D01*
X63839725Y-120799860D01*
X63839725Y-120500140D01*
X63839725Y-120140730D01*
X63769875Y-120070880D01*
X63684454Y-120070880D01*
X63581763Y-120113416D01*
X63503166Y-120192013D01*
X63460630Y-120294704D01*
X63460630Y-120405856D01*
X63460630Y-120430290D01*
X63530480Y-120500140D01*
X63839725Y-120500140D01*
X63839725Y-120799860D01*
X63530480Y-120799860D01*
X63460630Y-120869710D01*
X63460630Y-120894144D01*
X63460630Y-121005296D01*
X63503166Y-121107987D01*
X63581763Y-121186584D01*
X63684454Y-121229120D01*
X63769875Y-121229120D01*
X63839725Y-121159270D01*
X63839725Y-121936783D01*
X63827664Y-121931775D01*
X63428089Y-121931426D01*
X63058797Y-122084015D01*
X62776008Y-122366310D01*
X62622775Y-122735336D01*
X62622426Y-123134911D01*
X62775015Y-123504203D01*
X63057310Y-123786992D01*
X63195200Y-123844248D01*
X63195200Y-124567654D01*
X63058797Y-124624015D01*
X62776008Y-124906310D01*
X62622775Y-125275336D01*
X62622426Y-125674911D01*
X62775015Y-126044203D01*
X63057310Y-126326992D01*
X63210013Y-126390400D01*
X62107271Y-126390400D01*
X62107271Y-125564215D01*
X62107271Y-123024215D01*
X62063366Y-122627059D01*
X61995849Y-122464059D01*
X61860842Y-122377684D01*
X61302526Y-122936000D01*
X61860842Y-123494316D01*
X61995849Y-123407941D01*
X62107271Y-123024215D01*
X62107271Y-125564215D01*
X62063366Y-125167059D01*
X61995849Y-125004059D01*
X61860842Y-124917684D01*
X61302526Y-125476000D01*
X61860842Y-126034316D01*
X61995849Y-125947941D01*
X62107271Y-125564215D01*
X62107271Y-126390400D01*
X61545539Y-126390400D01*
X61558941Y-126384849D01*
X61645316Y-126249842D01*
X61087000Y-125691526D01*
X61072857Y-125705668D01*
X61061600Y-125694411D01*
X61061600Y-125257589D01*
X61072857Y-125246331D01*
X61087000Y-125260474D01*
X61645316Y-124702158D01*
X61558941Y-124567151D01*
X61175215Y-124455729D01*
X61061600Y-124468288D01*
X61061600Y-123949326D01*
X61395941Y-123912366D01*
X61558941Y-123844849D01*
X61645316Y-123709842D01*
X61087000Y-123151526D01*
X61072857Y-123165668D01*
X61061600Y-123154411D01*
X61061600Y-122717589D01*
X61072857Y-122706331D01*
X61087000Y-122720474D01*
X61645316Y-122162158D01*
X61558941Y-122027151D01*
X61175215Y-121915729D01*
X61061600Y-121928288D01*
X61061600Y-121708084D01*
X62839600Y-119930084D01*
X62839600Y-118186200D01*
X63931406Y-118186200D01*
X63931406Y-118240810D01*
X63952076Y-118347344D01*
X64013584Y-118440978D01*
X64088638Y-118491640D01*
X64058013Y-118504326D01*
X63979416Y-118582923D01*
X63936880Y-118685614D01*
X63936880Y-118771035D01*
X64006730Y-118840885D01*
X64366140Y-118840885D01*
X64366140Y-118768180D01*
X64665860Y-118768180D01*
X64665860Y-118840885D01*
X64688400Y-118840885D01*
X64688400Y-119040275D01*
X64665860Y-119040275D01*
X64665860Y-119349520D01*
X64735710Y-119419370D01*
X64760144Y-119419370D01*
X64782700Y-119419370D01*
X64782700Y-119707505D01*
X64578153Y-119912053D01*
X64498315Y-120031537D01*
X64493663Y-120054920D01*
X64480674Y-120120222D01*
X64439022Y-120147584D01*
X64388359Y-120222638D01*
X64375674Y-120192013D01*
X64366140Y-120182479D01*
X64366140Y-119349520D01*
X64366140Y-119040275D01*
X64006730Y-119040275D01*
X63936880Y-119110125D01*
X63936880Y-119195546D01*
X63979416Y-119298237D01*
X64058013Y-119376834D01*
X64160704Y-119419370D01*
X64271856Y-119419370D01*
X64296290Y-119419370D01*
X64366140Y-119349520D01*
X64366140Y-120182479D01*
X64297077Y-120113416D01*
X64194386Y-120070880D01*
X64108965Y-120070880D01*
X64039115Y-120140730D01*
X64039115Y-120500140D01*
X64111820Y-120500140D01*
X64111820Y-120799860D01*
X64039115Y-120799860D01*
X64039115Y-121159270D01*
X64108965Y-121229120D01*
X64194386Y-121229120D01*
X64297077Y-121186584D01*
X64375674Y-121107987D01*
X64388549Y-121076902D01*
X64436494Y-121149888D01*
X64529348Y-121212566D01*
X64639190Y-121234594D01*
X65037970Y-121234594D01*
X65144504Y-121213924D01*
X65194126Y-121181327D01*
X65194126Y-121323090D01*
X65194126Y-121323090D01*
G37*
X65194126Y-121323090D02*
X64871610Y-121323090D01*
X64730668Y-121351125D01*
X64691020Y-121377617D01*
X64611182Y-121430963D01*
X64027423Y-122014722D01*
X63839725Y-121936783D01*
X63839725Y-121159270D01*
X63839725Y-120799860D01*
X63839725Y-120500140D01*
X63839725Y-120140730D01*
X63769875Y-120070880D01*
X63684454Y-120070880D01*
X63581763Y-120113416D01*
X63503166Y-120192013D01*
X63460630Y-120294704D01*
X63460630Y-120405856D01*
X63460630Y-120430290D01*
X63530480Y-120500140D01*
X63839725Y-120500140D01*
X63839725Y-120799860D01*
X63530480Y-120799860D01*
X63460630Y-120869710D01*
X63460630Y-120894144D01*
X63460630Y-121005296D01*
X63503166Y-121107987D01*
X63581763Y-121186584D01*
X63684454Y-121229120D01*
X63769875Y-121229120D01*
X63839725Y-121159270D01*
X63839725Y-121936783D01*
X63827664Y-121931775D01*
X63428089Y-121931426D01*
X63058797Y-122084015D01*
X62776008Y-122366310D01*
X62622775Y-122735336D01*
X62622426Y-123134911D01*
X62775015Y-123504203D01*
X63057310Y-123786992D01*
X63195200Y-123844248D01*
X63195200Y-124567654D01*
X63058797Y-124624015D01*
X62776008Y-124906310D01*
X62622775Y-125275336D01*
X62622426Y-125674911D01*
X62775015Y-126044203D01*
X63057310Y-126326992D01*
X63210013Y-126390400D01*
X62107271Y-126390400D01*
X62107271Y-125564215D01*
X62107271Y-123024215D01*
X62063366Y-122627059D01*
X61995849Y-122464059D01*
X61860842Y-122377684D01*
X61302526Y-122936000D01*
X61860842Y-123494316D01*
X61995849Y-123407941D01*
X62107271Y-123024215D01*
X62107271Y-125564215D01*
X62063366Y-125167059D01*
X61995849Y-125004059D01*
X61860842Y-124917684D01*
X61302526Y-125476000D01*
X61860842Y-126034316D01*
X61995849Y-125947941D01*
X62107271Y-125564215D01*
X62107271Y-126390400D01*
X61545539Y-126390400D01*
X61558941Y-126384849D01*
X61645316Y-126249842D01*
X61087000Y-125691526D01*
X61072857Y-125705668D01*
X61061600Y-125694411D01*
X61061600Y-125257589D01*
X61072857Y-125246331D01*
X61087000Y-125260474D01*
X61645316Y-124702158D01*
X61558941Y-124567151D01*
X61175215Y-124455729D01*
X61061600Y-124468288D01*
X61061600Y-123949326D01*
X61395941Y-123912366D01*
X61558941Y-123844849D01*
X61645316Y-123709842D01*
X61087000Y-123151526D01*
X61072857Y-123165668D01*
X61061600Y-123154411D01*
X61061600Y-122717589D01*
X61072857Y-122706331D01*
X61087000Y-122720474D01*
X61645316Y-122162158D01*
X61558941Y-122027151D01*
X61175215Y-121915729D01*
X61061600Y-121928288D01*
X61061600Y-121708084D01*
X62839600Y-119930084D01*
X62839600Y-118186200D01*
X63931406Y-118186200D01*
X63931406Y-118240810D01*
X63952076Y-118347344D01*
X64013584Y-118440978D01*
X64088638Y-118491640D01*
X64058013Y-118504326D01*
X63979416Y-118582923D01*
X63936880Y-118685614D01*
X63936880Y-118771035D01*
X64006730Y-118840885D01*
X64366140Y-118840885D01*
X64366140Y-118768180D01*
X64665860Y-118768180D01*
X64665860Y-118840885D01*
X64688400Y-118840885D01*
X64688400Y-119040275D01*
X64665860Y-119040275D01*
X64665860Y-119349520D01*
X64735710Y-119419370D01*
X64760144Y-119419370D01*
X64782700Y-119419370D01*
X64782700Y-119707505D01*
X64578153Y-119912053D01*
X64498315Y-120031537D01*
X64493663Y-120054920D01*
X64480674Y-120120222D01*
X64439022Y-120147584D01*
X64388359Y-120222638D01*
X64375674Y-120192013D01*
X64366140Y-120182479D01*
X64366140Y-119349520D01*
X64366140Y-119040275D01*
X64006730Y-119040275D01*
X63936880Y-119110125D01*
X63936880Y-119195546D01*
X63979416Y-119298237D01*
X64058013Y-119376834D01*
X64160704Y-119419370D01*
X64271856Y-119419370D01*
X64296290Y-119419370D01*
X64366140Y-119349520D01*
X64366140Y-120182479D01*
X64297077Y-120113416D01*
X64194386Y-120070880D01*
X64108965Y-120070880D01*
X64039115Y-120140730D01*
X64039115Y-120500140D01*
X64111820Y-120500140D01*
X64111820Y-120799860D01*
X64039115Y-120799860D01*
X64039115Y-121159270D01*
X64108965Y-121229120D01*
X64194386Y-121229120D01*
X64297077Y-121186584D01*
X64375674Y-121107987D01*
X64388549Y-121076902D01*
X64436494Y-121149888D01*
X64529348Y-121212566D01*
X64639190Y-121234594D01*
X65037970Y-121234594D01*
X65144504Y-121213924D01*
X65194126Y-121181327D01*
X65194126Y-121323090D01*
G36*
X66251400Y-119771400D02*
X66231400Y-119771400D01*
X66231400Y-119791400D01*
X65926600Y-119791400D01*
X65926600Y-119771400D01*
X65906600Y-119771400D01*
X65906600Y-119466600D01*
X65926600Y-119466600D01*
X65926600Y-119446600D01*
X66231400Y-119446600D01*
X66231400Y-119466600D01*
X66251400Y-119466600D01*
X66251400Y-119771400D01*
X66251400Y-119771400D01*
G37*
X66251400Y-119771400D02*
X66231400Y-119771400D01*
X66231400Y-119791400D01*
X65926600Y-119791400D01*
X65926600Y-119771400D01*
X65906600Y-119771400D01*
X65906600Y-119466600D01*
X65926600Y-119466600D01*
X65926600Y-119446600D01*
X66231400Y-119446600D01*
X66231400Y-119466600D01*
X66251400Y-119466600D01*
X66251400Y-119771400D01*
G36*
X66623880Y-114842290D02*
X66601340Y-114842290D01*
X66601340Y-114871106D01*
X66301620Y-114871106D01*
X66301620Y-114842290D01*
X66301620Y-114717830D01*
X66301620Y-114616230D01*
X66301620Y-114446050D01*
X66301620Y-114344450D01*
X65942210Y-114344450D01*
X65872360Y-114414300D01*
X65872360Y-114462256D01*
X65900892Y-114531140D01*
X65872360Y-114600024D01*
X65872360Y-114647980D01*
X65942210Y-114717830D01*
X66301620Y-114717830D01*
X66301620Y-114842290D01*
X65942210Y-114842290D01*
X65872360Y-114912140D01*
X65872360Y-114927297D01*
X65807618Y-114940175D01*
X65688133Y-115020012D01*
X65525573Y-115182573D01*
X65445735Y-115302057D01*
X65441083Y-115325440D01*
X65417700Y-115443000D01*
X65417700Y-115773200D01*
X65417700Y-115983375D01*
X65417700Y-116163864D01*
X65354594Y-116205318D01*
X65354594Y-116191030D01*
X65333924Y-116084496D01*
X65328800Y-116076695D01*
X65328800Y-115953391D01*
X65332566Y-115947812D01*
X65354594Y-115837970D01*
X65354594Y-115439190D01*
X65333924Y-115332656D01*
X65272416Y-115239022D01*
X65197954Y-115188759D01*
X65269888Y-115141506D01*
X65332566Y-115048652D01*
X65354594Y-114938810D01*
X65354594Y-114540030D01*
X65353276Y-114533241D01*
X65354200Y-114528600D01*
X65354200Y-114223800D01*
X65350718Y-114206296D01*
X65354594Y-114186970D01*
X65354594Y-114150140D01*
X65872360Y-114150140D01*
X65942210Y-114219990D01*
X66301620Y-114219990D01*
X66301620Y-114191174D01*
X66601340Y-114191174D01*
X66601340Y-114219990D01*
X66623880Y-114219990D01*
X66623880Y-114344450D01*
X66601340Y-114344450D01*
X66601340Y-114446050D01*
X66601340Y-114616230D01*
X66601340Y-114717830D01*
X66623880Y-114717830D01*
X66623880Y-114842290D01*
X66623880Y-114842290D01*
G37*
X66623880Y-114842290D02*
X66601340Y-114842290D01*
X66601340Y-114871106D01*
X66301620Y-114871106D01*
X66301620Y-114842290D01*
X66301620Y-114717830D01*
X66301620Y-114616230D01*
X66301620Y-114446050D01*
X66301620Y-114344450D01*
X65942210Y-114344450D01*
X65872360Y-114414300D01*
X65872360Y-114462256D01*
X65900892Y-114531140D01*
X65872360Y-114600024D01*
X65872360Y-114647980D01*
X65942210Y-114717830D01*
X66301620Y-114717830D01*
X66301620Y-114842290D01*
X65942210Y-114842290D01*
X65872360Y-114912140D01*
X65872360Y-114927297D01*
X65807618Y-114940175D01*
X65688133Y-115020012D01*
X65525573Y-115182573D01*
X65445735Y-115302057D01*
X65441083Y-115325440D01*
X65417700Y-115443000D01*
X65417700Y-115773200D01*
X65417700Y-115983375D01*
X65417700Y-116163864D01*
X65354594Y-116205318D01*
X65354594Y-116191030D01*
X65333924Y-116084496D01*
X65328800Y-116076695D01*
X65328800Y-115953391D01*
X65332566Y-115947812D01*
X65354594Y-115837970D01*
X65354594Y-115439190D01*
X65333924Y-115332656D01*
X65272416Y-115239022D01*
X65197954Y-115188759D01*
X65269888Y-115141506D01*
X65332566Y-115048652D01*
X65354594Y-114938810D01*
X65354594Y-114540030D01*
X65353276Y-114533241D01*
X65354200Y-114528600D01*
X65354200Y-114223800D01*
X65350718Y-114206296D01*
X65354594Y-114186970D01*
X65354594Y-114150140D01*
X65872360Y-114150140D01*
X65942210Y-114219990D01*
X66301620Y-114219990D01*
X66301620Y-114191174D01*
X66601340Y-114191174D01*
X66601340Y-114219990D01*
X66623880Y-114219990D01*
X66623880Y-114344450D01*
X66601340Y-114344450D01*
X66601340Y-114446050D01*
X66601340Y-114616230D01*
X66601340Y-114717830D01*
X66623880Y-114717830D01*
X66623880Y-114842290D01*
G36*
X66730880Y-109191221D02*
X66711874Y-109219378D01*
X66689846Y-109329220D01*
X66689846Y-109872386D01*
X66530652Y-109872386D01*
X66530692Y-109826785D01*
X66441940Y-109611990D01*
X66277746Y-109447508D01*
X66237433Y-109430768D01*
X66254109Y-109414122D01*
X66343235Y-109199481D01*
X66343438Y-108967072D01*
X66254686Y-108752277D01*
X66090492Y-108587795D01*
X65875851Y-108498669D01*
X65643442Y-108498466D01*
X65428647Y-108587218D01*
X65284039Y-108731572D01*
X65204809Y-108652203D01*
X64990168Y-108563077D01*
X64757759Y-108562874D01*
X64542964Y-108651626D01*
X64378482Y-108815820D01*
X64289356Y-109030461D01*
X64289153Y-109262870D01*
X64377905Y-109477665D01*
X64505154Y-109605137D01*
X64505154Y-110264093D01*
X64528537Y-110381652D01*
X64533189Y-110405036D01*
X64613027Y-110524520D01*
X64666137Y-110577630D01*
X64617598Y-110577630D01*
X64617598Y-110644938D01*
X64550290Y-110577630D01*
X64525856Y-110577630D01*
X64414704Y-110577630D01*
X64329262Y-110613021D01*
X64329262Y-110597597D01*
X64329262Y-110258507D01*
X64329262Y-110173086D01*
X64286726Y-110070395D01*
X64208129Y-109991798D01*
X64105438Y-109949262D01*
X63994286Y-109949262D01*
X63969852Y-109949262D01*
X63900002Y-110019112D01*
X63900002Y-110328357D01*
X64259412Y-110328357D01*
X64329262Y-110258507D01*
X64329262Y-110597597D01*
X64259412Y-110527747D01*
X63900002Y-110527747D01*
X63900002Y-110600452D01*
X63600282Y-110600452D01*
X63600282Y-110527747D01*
X63600282Y-110328357D01*
X63600282Y-110019112D01*
X63530432Y-109949262D01*
X63505998Y-109949262D01*
X63394846Y-109949262D01*
X63292155Y-109991798D01*
X63213558Y-110070395D01*
X63171022Y-110173086D01*
X63171022Y-110258507D01*
X63240872Y-110328357D01*
X63600282Y-110328357D01*
X63600282Y-110527747D01*
X63240872Y-110527747D01*
X63171022Y-110597597D01*
X63171022Y-110683018D01*
X63213558Y-110785709D01*
X63292155Y-110864306D01*
X63323239Y-110877181D01*
X63250254Y-110925126D01*
X63187576Y-111017980D01*
X63165548Y-111127822D01*
X63165548Y-111526602D01*
X63186218Y-111633136D01*
X63232392Y-111703427D01*
X63187576Y-111769820D01*
X63165548Y-111879662D01*
X63165548Y-112278442D01*
X63186218Y-112384976D01*
X63247726Y-112478610D01*
X63322187Y-112528872D01*
X63250254Y-112576126D01*
X63187576Y-112668980D01*
X63165548Y-112778822D01*
X63165548Y-113177602D01*
X63186218Y-113284136D01*
X63247726Y-113377770D01*
X63340580Y-113440448D01*
X63450422Y-113462476D01*
X64049862Y-113462476D01*
X64156396Y-113441806D01*
X64164694Y-113436354D01*
X64244039Y-113452136D01*
X64244040Y-113452137D01*
X64267584Y-113487978D01*
X64342045Y-113538240D01*
X64270112Y-113585494D01*
X64207434Y-113678348D01*
X64185406Y-113788190D01*
X64185406Y-114186970D01*
X64189217Y-114206616D01*
X64185800Y-114223800D01*
X64185800Y-114528600D01*
X64186745Y-114533351D01*
X64185406Y-114540030D01*
X64185406Y-114938810D01*
X64206076Y-115045344D01*
X64267584Y-115138978D01*
X64342045Y-115189240D01*
X64270112Y-115236494D01*
X64207434Y-115329348D01*
X64198029Y-115376244D01*
X64148970Y-115366406D01*
X63750190Y-115366406D01*
X63643656Y-115387076D01*
X63550022Y-115448584D01*
X63499359Y-115523638D01*
X63486674Y-115493013D01*
X63408077Y-115414416D01*
X63305386Y-115371880D01*
X63219965Y-115371880D01*
X63150115Y-115441730D01*
X63150115Y-115801140D01*
X63222820Y-115801140D01*
X63222820Y-116100860D01*
X63150115Y-116100860D01*
X63150115Y-116460270D01*
X63219965Y-116530120D01*
X63305386Y-116530120D01*
X63408077Y-116487584D01*
X63486674Y-116408987D01*
X63499549Y-116377902D01*
X63547494Y-116450888D01*
X63640348Y-116513566D01*
X63750190Y-116535594D01*
X64148970Y-116535594D01*
X64185406Y-116528524D01*
X64185406Y-116589810D01*
X64206076Y-116696344D01*
X64267584Y-116789978D01*
X64342045Y-116840240D01*
X64270112Y-116887494D01*
X64207434Y-116980348D01*
X64199923Y-117017800D01*
X62839600Y-117017800D01*
X62839600Y-116530120D01*
X62880875Y-116530120D01*
X62950725Y-116460270D01*
X62950725Y-116100860D01*
X62878020Y-116100860D01*
X62878020Y-115801140D01*
X62950725Y-115801140D01*
X62950725Y-115441730D01*
X62880875Y-115371880D01*
X62839600Y-115371880D01*
X62839600Y-99669600D01*
X66353942Y-99669600D01*
X65525573Y-100497970D01*
X65445735Y-100617454D01*
X65441083Y-100640837D01*
X65417700Y-100758397D01*
X65417700Y-104902000D01*
X65441083Y-105019559D01*
X65445735Y-105042943D01*
X65525573Y-105162427D01*
X66730880Y-106367734D01*
X66730880Y-109191221D01*
X66730880Y-109191221D01*
G37*
X66730880Y-109191221D02*
X66711874Y-109219378D01*
X66689846Y-109329220D01*
X66689846Y-109872386D01*
X66530652Y-109872386D01*
X66530692Y-109826785D01*
X66441940Y-109611990D01*
X66277746Y-109447508D01*
X66237433Y-109430768D01*
X66254109Y-109414122D01*
X66343235Y-109199481D01*
X66343438Y-108967072D01*
X66254686Y-108752277D01*
X66090492Y-108587795D01*
X65875851Y-108498669D01*
X65643442Y-108498466D01*
X65428647Y-108587218D01*
X65284039Y-108731572D01*
X65204809Y-108652203D01*
X64990168Y-108563077D01*
X64757759Y-108562874D01*
X64542964Y-108651626D01*
X64378482Y-108815820D01*
X64289356Y-109030461D01*
X64289153Y-109262870D01*
X64377905Y-109477665D01*
X64505154Y-109605137D01*
X64505154Y-110264093D01*
X64528537Y-110381652D01*
X64533189Y-110405036D01*
X64613027Y-110524520D01*
X64666137Y-110577630D01*
X64617598Y-110577630D01*
X64617598Y-110644938D01*
X64550290Y-110577630D01*
X64525856Y-110577630D01*
X64414704Y-110577630D01*
X64329262Y-110613021D01*
X64329262Y-110597597D01*
X64329262Y-110258507D01*
X64329262Y-110173086D01*
X64286726Y-110070395D01*
X64208129Y-109991798D01*
X64105438Y-109949262D01*
X63994286Y-109949262D01*
X63969852Y-109949262D01*
X63900002Y-110019112D01*
X63900002Y-110328357D01*
X64259412Y-110328357D01*
X64329262Y-110258507D01*
X64329262Y-110597597D01*
X64259412Y-110527747D01*
X63900002Y-110527747D01*
X63900002Y-110600452D01*
X63600282Y-110600452D01*
X63600282Y-110527747D01*
X63600282Y-110328357D01*
X63600282Y-110019112D01*
X63530432Y-109949262D01*
X63505998Y-109949262D01*
X63394846Y-109949262D01*
X63292155Y-109991798D01*
X63213558Y-110070395D01*
X63171022Y-110173086D01*
X63171022Y-110258507D01*
X63240872Y-110328357D01*
X63600282Y-110328357D01*
X63600282Y-110527747D01*
X63240872Y-110527747D01*
X63171022Y-110597597D01*
X63171022Y-110683018D01*
X63213558Y-110785709D01*
X63292155Y-110864306D01*
X63323239Y-110877181D01*
X63250254Y-110925126D01*
X63187576Y-111017980D01*
X63165548Y-111127822D01*
X63165548Y-111526602D01*
X63186218Y-111633136D01*
X63232392Y-111703427D01*
X63187576Y-111769820D01*
X63165548Y-111879662D01*
X63165548Y-112278442D01*
X63186218Y-112384976D01*
X63247726Y-112478610D01*
X63322187Y-112528872D01*
X63250254Y-112576126D01*
X63187576Y-112668980D01*
X63165548Y-112778822D01*
X63165548Y-113177602D01*
X63186218Y-113284136D01*
X63247726Y-113377770D01*
X63340580Y-113440448D01*
X63450422Y-113462476D01*
X64049862Y-113462476D01*
X64156396Y-113441806D01*
X64164694Y-113436354D01*
X64244039Y-113452136D01*
X64244040Y-113452137D01*
X64267584Y-113487978D01*
X64342045Y-113538240D01*
X64270112Y-113585494D01*
X64207434Y-113678348D01*
X64185406Y-113788190D01*
X64185406Y-114186970D01*
X64189217Y-114206616D01*
X64185800Y-114223800D01*
X64185800Y-114528600D01*
X64186745Y-114533351D01*
X64185406Y-114540030D01*
X64185406Y-114938810D01*
X64206076Y-115045344D01*
X64267584Y-115138978D01*
X64342045Y-115189240D01*
X64270112Y-115236494D01*
X64207434Y-115329348D01*
X64198029Y-115376244D01*
X64148970Y-115366406D01*
X63750190Y-115366406D01*
X63643656Y-115387076D01*
X63550022Y-115448584D01*
X63499359Y-115523638D01*
X63486674Y-115493013D01*
X63408077Y-115414416D01*
X63305386Y-115371880D01*
X63219965Y-115371880D01*
X63150115Y-115441730D01*
X63150115Y-115801140D01*
X63222820Y-115801140D01*
X63222820Y-116100860D01*
X63150115Y-116100860D01*
X63150115Y-116460270D01*
X63219965Y-116530120D01*
X63305386Y-116530120D01*
X63408077Y-116487584D01*
X63486674Y-116408987D01*
X63499549Y-116377902D01*
X63547494Y-116450888D01*
X63640348Y-116513566D01*
X63750190Y-116535594D01*
X64148970Y-116535594D01*
X64185406Y-116528524D01*
X64185406Y-116589810D01*
X64206076Y-116696344D01*
X64267584Y-116789978D01*
X64342045Y-116840240D01*
X64270112Y-116887494D01*
X64207434Y-116980348D01*
X64199923Y-117017800D01*
X62839600Y-117017800D01*
X62839600Y-116530120D01*
X62880875Y-116530120D01*
X62950725Y-116460270D01*
X62950725Y-116100860D01*
X62878020Y-116100860D01*
X62878020Y-115801140D01*
X62950725Y-115801140D01*
X62950725Y-115441730D01*
X62880875Y-115371880D01*
X62839600Y-115371880D01*
X62839600Y-99669600D01*
X66353942Y-99669600D01*
X65525573Y-100497970D01*
X65445735Y-100617454D01*
X65441083Y-100640837D01*
X65417700Y-100758397D01*
X65417700Y-104902000D01*
X65441083Y-105019559D01*
X65445735Y-105042943D01*
X65525573Y-105162427D01*
X66730880Y-106367734D01*
X66730880Y-109191221D01*
G36*
X66860481Y-117149664D02*
X66369170Y-117640975D01*
X66346070Y-117617875D01*
X65986660Y-117617875D01*
X65986660Y-117927120D01*
X66034842Y-117975302D01*
X65526146Y-118483999D01*
X65265639Y-118483999D01*
X65148079Y-118507382D01*
X65124696Y-118512034D01*
X65038973Y-118569312D01*
X64973987Y-118504326D01*
X64942902Y-118491450D01*
X65015888Y-118443506D01*
X65078566Y-118350652D01*
X65096264Y-118262400D01*
X65328800Y-118262400D01*
X65328800Y-117904421D01*
X65378813Y-117954434D01*
X65481504Y-117996970D01*
X65592656Y-117996970D01*
X65617090Y-117996970D01*
X65686940Y-117927120D01*
X65686940Y-117617875D01*
X65664400Y-117617875D01*
X65664400Y-117418485D01*
X65686940Y-117418485D01*
X65686940Y-117345780D01*
X65986660Y-117345780D01*
X65986660Y-117418485D01*
X66346070Y-117418485D01*
X66415920Y-117348635D01*
X66415920Y-117263214D01*
X66373384Y-117160523D01*
X66294787Y-117081926D01*
X66263702Y-117069050D01*
X66336688Y-117021106D01*
X66399366Y-116928252D01*
X66407930Y-116885544D01*
X66593827Y-116885707D01*
X66711920Y-116836911D01*
X66755053Y-116902574D01*
X66758915Y-116921987D01*
X66838753Y-117041471D01*
X66860481Y-117063199D01*
X66860481Y-117149664D01*
X66860481Y-117149664D01*
G37*
X66860481Y-117149664D02*
X66369170Y-117640975D01*
X66346070Y-117617875D01*
X65986660Y-117617875D01*
X65986660Y-117927120D01*
X66034842Y-117975302D01*
X65526146Y-118483999D01*
X65265639Y-118483999D01*
X65148079Y-118507382D01*
X65124696Y-118512034D01*
X65038973Y-118569312D01*
X64973987Y-118504326D01*
X64942902Y-118491450D01*
X65015888Y-118443506D01*
X65078566Y-118350652D01*
X65096264Y-118262400D01*
X65328800Y-118262400D01*
X65328800Y-117904421D01*
X65378813Y-117954434D01*
X65481504Y-117996970D01*
X65592656Y-117996970D01*
X65617090Y-117996970D01*
X65686940Y-117927120D01*
X65686940Y-117617875D01*
X65664400Y-117617875D01*
X65664400Y-117418485D01*
X65686940Y-117418485D01*
X65686940Y-117345780D01*
X65986660Y-117345780D01*
X65986660Y-117418485D01*
X66346070Y-117418485D01*
X66415920Y-117348635D01*
X66415920Y-117263214D01*
X66373384Y-117160523D01*
X66294787Y-117081926D01*
X66263702Y-117069050D01*
X66336688Y-117021106D01*
X66399366Y-116928252D01*
X66407930Y-116885544D01*
X66593827Y-116885707D01*
X66711920Y-116836911D01*
X66755053Y-116902574D01*
X66758915Y-116921987D01*
X66838753Y-117041471D01*
X66860481Y-117063199D01*
X66860481Y-117149664D01*
G36*
X67094090Y-105689236D02*
X66154300Y-104749446D01*
X66154300Y-104592120D01*
X66182875Y-104592120D01*
X66252725Y-104522270D01*
X66252725Y-104162860D01*
X66180020Y-104162860D01*
X66180020Y-103863140D01*
X66252725Y-103863140D01*
X66252725Y-103503730D01*
X66182875Y-103433880D01*
X66154300Y-103433880D01*
X66154300Y-102235154D01*
X66883280Y-102964134D01*
X66883280Y-103490050D01*
X66852022Y-103510584D01*
X66801359Y-103585638D01*
X66788674Y-103555013D01*
X66710077Y-103476416D01*
X66607386Y-103433880D01*
X66521965Y-103433880D01*
X66452115Y-103503730D01*
X66452115Y-103863140D01*
X66524820Y-103863140D01*
X66524820Y-104162860D01*
X66452115Y-104162860D01*
X66452115Y-104522270D01*
X66521965Y-104592120D01*
X66607386Y-104592120D01*
X66710077Y-104549584D01*
X66788674Y-104470987D01*
X66801549Y-104439902D01*
X66849494Y-104512888D01*
X66893659Y-104542700D01*
X66906663Y-104608079D01*
X66911315Y-104631463D01*
X66991153Y-104750947D01*
X67094090Y-104853884D01*
X67094090Y-105689236D01*
X67094090Y-105689236D01*
G37*
X67094090Y-105689236D02*
X66154300Y-104749446D01*
X66154300Y-104592120D01*
X66182875Y-104592120D01*
X66252725Y-104522270D01*
X66252725Y-104162860D01*
X66180020Y-104162860D01*
X66180020Y-103863140D01*
X66252725Y-103863140D01*
X66252725Y-103503730D01*
X66182875Y-103433880D01*
X66154300Y-103433880D01*
X66154300Y-102235154D01*
X66883280Y-102964134D01*
X66883280Y-103490050D01*
X66852022Y-103510584D01*
X66801359Y-103585638D01*
X66788674Y-103555013D01*
X66710077Y-103476416D01*
X66607386Y-103433880D01*
X66521965Y-103433880D01*
X66452115Y-103503730D01*
X66452115Y-103863140D01*
X66524820Y-103863140D01*
X66524820Y-104162860D01*
X66452115Y-104162860D01*
X66452115Y-104522270D01*
X66521965Y-104592120D01*
X66607386Y-104592120D01*
X66710077Y-104549584D01*
X66788674Y-104470987D01*
X66801549Y-104439902D01*
X66849494Y-104512888D01*
X66893659Y-104542700D01*
X66906663Y-104608079D01*
X66911315Y-104631463D01*
X66991153Y-104750947D01*
X67094090Y-104853884D01*
X67094090Y-105689236D01*
G36*
X67231260Y-118834126D02*
X67179000Y-118834126D01*
X67072466Y-118854796D01*
X66978832Y-118916304D01*
X66928404Y-118991009D01*
X66915864Y-118960733D01*
X66837267Y-118882136D01*
X66734576Y-118839600D01*
X66301250Y-118839600D01*
X66231402Y-118909448D01*
X66231402Y-118839600D01*
X66212254Y-118839600D01*
X67231260Y-117820594D01*
X67231260Y-118834126D01*
X67231260Y-118834126D01*
G37*
X67231260Y-118834126D02*
X67179000Y-118834126D01*
X67072466Y-118854796D01*
X66978832Y-118916304D01*
X66928404Y-118991009D01*
X66915864Y-118960733D01*
X66837267Y-118882136D01*
X66734576Y-118839600D01*
X66301250Y-118839600D01*
X66231402Y-118909448D01*
X66231402Y-118839600D01*
X66212254Y-118839600D01*
X67231260Y-117820594D01*
X67231260Y-118834126D01*
G36*
X67951400Y-121071400D02*
X67931400Y-121071400D01*
X67931400Y-121091400D01*
X67626600Y-121091400D01*
X67626600Y-121071400D01*
X67606600Y-121071400D01*
X67606600Y-120766600D01*
X67626600Y-120766600D01*
X67626600Y-120746600D01*
X67931400Y-120746600D01*
X67931400Y-120766600D01*
X67951400Y-120766600D01*
X67951400Y-121071400D01*
X67951400Y-121071400D01*
G37*
X67951400Y-121071400D02*
X67931400Y-121071400D01*
X67931400Y-121091400D01*
X67626600Y-121091400D01*
X67626600Y-121071400D01*
X67606600Y-121071400D01*
X67606600Y-120766600D01*
X67626600Y-120766600D01*
X67626600Y-120746600D01*
X67931400Y-120746600D01*
X67931400Y-120766600D01*
X67951400Y-120766600D01*
X67951400Y-121071400D01*
G36*
X68371400Y-118659275D02*
X68348860Y-118659275D01*
X68348860Y-118731980D01*
X68049140Y-118731980D01*
X68049140Y-118659275D01*
X68026600Y-118659275D01*
X68026600Y-118459885D01*
X68049140Y-118459885D01*
X68049140Y-118387180D01*
X68348860Y-118387180D01*
X68348860Y-118459885D01*
X68371400Y-118459885D01*
X68371400Y-118659275D01*
X68371400Y-118659275D01*
G37*
X68371400Y-118659275D02*
X68348860Y-118659275D01*
X68348860Y-118731980D01*
X68049140Y-118731980D01*
X68049140Y-118659275D01*
X68026600Y-118659275D01*
X68026600Y-118459885D01*
X68049140Y-118459885D01*
X68049140Y-118387180D01*
X68348860Y-118387180D01*
X68348860Y-118459885D01*
X68371400Y-118459885D01*
X68371400Y-118659275D01*
G36*
X69291201Y-119214268D02*
X69260720Y-119208156D01*
X68663874Y-119208156D01*
X68663874Y-119119000D01*
X68643204Y-119012466D01*
X68637563Y-119003879D01*
X68656987Y-118995834D01*
X68735584Y-118917237D01*
X68778120Y-118814546D01*
X68778120Y-118778043D01*
X68848129Y-118807114D01*
X69080538Y-118807317D01*
X69291201Y-118720272D01*
X69291201Y-119214268D01*
X69291201Y-119214268D01*
G37*
X69291201Y-119214268D02*
X69260720Y-119208156D01*
X68663874Y-119208156D01*
X68663874Y-119119000D01*
X68643204Y-119012466D01*
X68637563Y-119003879D01*
X68656987Y-118995834D01*
X68735584Y-118917237D01*
X68778120Y-118814546D01*
X68778120Y-118778043D01*
X68848129Y-118807114D01*
X69080538Y-118807317D01*
X69291201Y-118720272D01*
X69291201Y-119214268D01*
G36*
X70022400Y-113182400D02*
X70002400Y-113182400D01*
X70002400Y-113202400D01*
X69697600Y-113202400D01*
X69697600Y-113182400D01*
X69677600Y-113182400D01*
X69677600Y-112877600D01*
X69697600Y-112877600D01*
X69697600Y-112857600D01*
X70002400Y-112857600D01*
X70002400Y-112877600D01*
X70022400Y-112877600D01*
X70022400Y-113182400D01*
X70022400Y-113182400D01*
G37*
X70022400Y-113182400D02*
X70002400Y-113182400D01*
X70002400Y-113202400D01*
X69697600Y-113202400D01*
X69697600Y-113182400D01*
X69677600Y-113182400D01*
X69677600Y-112877600D01*
X69697600Y-112877600D01*
X69697600Y-112857600D01*
X70002400Y-112857600D01*
X70002400Y-112877600D01*
X70022400Y-112877600D01*
X70022400Y-113182400D01*
G36*
X70732126Y-120967480D02*
X70647294Y-120967480D01*
X70506352Y-120995515D01*
X70466704Y-121022007D01*
X70386866Y-121075353D01*
X70139129Y-121323090D01*
X68658400Y-121323090D01*
X68658400Y-121141250D01*
X68588552Y-121071402D01*
X68658400Y-121071402D01*
X68658400Y-121070370D01*
X68716856Y-121070370D01*
X68741290Y-121070370D01*
X68811140Y-121000520D01*
X68811140Y-120691275D01*
X68788600Y-120691275D01*
X68788600Y-120491885D01*
X68811140Y-120491885D01*
X68811140Y-120419180D01*
X69110860Y-120419180D01*
X69110860Y-120491885D01*
X69133400Y-120491885D01*
X69133400Y-120691275D01*
X69110860Y-120691275D01*
X69110860Y-121000520D01*
X69180710Y-121070370D01*
X69205144Y-121070370D01*
X69316296Y-121070370D01*
X69418987Y-121027834D01*
X69425319Y-121021501D01*
X69455125Y-121051359D01*
X69669766Y-121140485D01*
X69902175Y-121140688D01*
X70116970Y-121051936D01*
X70281452Y-120887742D01*
X70370578Y-120673101D01*
X70370750Y-120475232D01*
X70414041Y-120475270D01*
X70628836Y-120386518D01*
X70732126Y-120283408D01*
X70732126Y-120967480D01*
X70732126Y-120967480D01*
G37*
X70732126Y-120967480D02*
X70647294Y-120967480D01*
X70506352Y-120995515D01*
X70466704Y-121022007D01*
X70386866Y-121075353D01*
X70139129Y-121323090D01*
X68658400Y-121323090D01*
X68658400Y-121141250D01*
X68588552Y-121071402D01*
X68658400Y-121071402D01*
X68658400Y-121070370D01*
X68716856Y-121070370D01*
X68741290Y-121070370D01*
X68811140Y-121000520D01*
X68811140Y-120691275D01*
X68788600Y-120691275D01*
X68788600Y-120491885D01*
X68811140Y-120491885D01*
X68811140Y-120419180D01*
X69110860Y-120419180D01*
X69110860Y-120491885D01*
X69133400Y-120491885D01*
X69133400Y-120691275D01*
X69110860Y-120691275D01*
X69110860Y-121000520D01*
X69180710Y-121070370D01*
X69205144Y-121070370D01*
X69316296Y-121070370D01*
X69418987Y-121027834D01*
X69425319Y-121021501D01*
X69455125Y-121051359D01*
X69669766Y-121140485D01*
X69902175Y-121140688D01*
X70116970Y-121051936D01*
X70281452Y-120887742D01*
X70370578Y-120673101D01*
X70370750Y-120475232D01*
X70414041Y-120475270D01*
X70628836Y-120386518D01*
X70732126Y-120283408D01*
X70732126Y-120967480D01*
G36*
X71350820Y-119148860D02*
X71278115Y-119148860D01*
X71278115Y-119171400D01*
X71078725Y-119171400D01*
X71078725Y-119148860D01*
X70769480Y-119148860D01*
X70699630Y-119218710D01*
X70699630Y-119243144D01*
X70699630Y-119354296D01*
X70742166Y-119456987D01*
X70820763Y-119535584D01*
X70825559Y-119537570D01*
X70816832Y-119543304D01*
X70798202Y-119570903D01*
X70793895Y-119560479D01*
X70629701Y-119395997D01*
X70415060Y-119306871D01*
X70383410Y-119306843D01*
X70383410Y-118630298D01*
X70454462Y-118701475D01*
X70669103Y-118790601D01*
X70710977Y-118790637D01*
X70769480Y-118849140D01*
X71078725Y-118849140D01*
X71078725Y-118826600D01*
X71278115Y-118826600D01*
X71278115Y-118849140D01*
X71350820Y-118849140D01*
X71350820Y-119148860D01*
X71350820Y-119148860D01*
G37*
X71350820Y-119148860D02*
X71278115Y-119148860D01*
X71278115Y-119171400D01*
X71078725Y-119171400D01*
X71078725Y-119148860D01*
X70769480Y-119148860D01*
X70699630Y-119218710D01*
X70699630Y-119243144D01*
X70699630Y-119354296D01*
X70742166Y-119456987D01*
X70820763Y-119535584D01*
X70825559Y-119537570D01*
X70816832Y-119543304D01*
X70798202Y-119570903D01*
X70793895Y-119560479D01*
X70629701Y-119395997D01*
X70415060Y-119306871D01*
X70383410Y-119306843D01*
X70383410Y-118630298D01*
X70454462Y-118701475D01*
X70669103Y-118790601D01*
X70710977Y-118790637D01*
X70769480Y-118849140D01*
X71078725Y-118849140D01*
X71078725Y-118826600D01*
X71278115Y-118826600D01*
X71278115Y-118849140D01*
X71350820Y-118849140D01*
X71350820Y-119148860D01*
G36*
X72415223Y-102323922D02*
X71983446Y-102755700D01*
X71659537Y-102755700D01*
X71652174Y-102717746D01*
X71590666Y-102624112D01*
X71497812Y-102561434D01*
X71387970Y-102539406D01*
X70989190Y-102539406D01*
X70882656Y-102560076D01*
X70789022Y-102621584D01*
X70738759Y-102696045D01*
X70691506Y-102624112D01*
X70598652Y-102561434D01*
X70488810Y-102539406D01*
X70202295Y-102539406D01*
X70202295Y-102167822D01*
X69850000Y-101815526D01*
X69634474Y-102031052D01*
X69634474Y-101600000D01*
X69282178Y-101247705D01*
X69215000Y-101280089D01*
X69147822Y-101247705D01*
X68795526Y-101600000D01*
X69147822Y-101952295D01*
X69215000Y-101919910D01*
X69282178Y-101952295D01*
X69634474Y-101600000D01*
X69634474Y-102031052D01*
X69497705Y-102167822D01*
X69548809Y-102273832D01*
X69829601Y-102337800D01*
X70113498Y-102289445D01*
X70151191Y-102273832D01*
X70202295Y-102167822D01*
X70202295Y-102539406D01*
X70090030Y-102539406D01*
X69983496Y-102560076D01*
X69889862Y-102621584D01*
X69827184Y-102714438D01*
X69805156Y-102824280D01*
X69805156Y-103187739D01*
X69279615Y-103713280D01*
X68721949Y-103713280D01*
X68701416Y-103682022D01*
X68626954Y-103631759D01*
X68698888Y-103584506D01*
X68761566Y-103491652D01*
X68783594Y-103381810D01*
X68783594Y-102983030D01*
X68762924Y-102876496D01*
X68701416Y-102782862D01*
X68608562Y-102720184D01*
X68567300Y-102711909D01*
X68567300Y-102489000D01*
X68543916Y-102371440D01*
X68539265Y-102348058D01*
X68539265Y-102348057D01*
X68527529Y-102330493D01*
X68559601Y-102337800D01*
X68843498Y-102289445D01*
X68881191Y-102273832D01*
X68932295Y-102167822D01*
X68580000Y-101815526D01*
X68565857Y-101829668D01*
X68350331Y-101614142D01*
X68364474Y-101600000D01*
X68012178Y-101247705D01*
X67958405Y-101273626D01*
X67924050Y-101190479D01*
X67720592Y-100986665D01*
X67668616Y-100965083D01*
X67719521Y-100944050D01*
X67923335Y-100740592D01*
X67944916Y-100688616D01*
X67965950Y-100739521D01*
X68169408Y-100943335D01*
X68253667Y-100978322D01*
X68227705Y-101032178D01*
X68580000Y-101384474D01*
X68932295Y-101032178D01*
X68906373Y-100978405D01*
X68989521Y-100944050D01*
X69193335Y-100740592D01*
X69214916Y-100688616D01*
X69235950Y-100739521D01*
X69439408Y-100943335D01*
X69523667Y-100978322D01*
X69497705Y-101032178D01*
X69850000Y-101384474D01*
X70202295Y-101032178D01*
X70176373Y-100978405D01*
X70259521Y-100944050D01*
X70463335Y-100740592D01*
X70484916Y-100688616D01*
X70505950Y-100739521D01*
X70709408Y-100943335D01*
X70761383Y-100964916D01*
X70710479Y-100985950D01*
X70506665Y-101189408D01*
X70471677Y-101273667D01*
X70417822Y-101247705D01*
X70065526Y-101600000D01*
X70417822Y-101952295D01*
X70471594Y-101926373D01*
X70505950Y-102009521D01*
X70709408Y-102213335D01*
X70975376Y-102323774D01*
X71263361Y-102324025D01*
X71529521Y-102214050D01*
X71733335Y-102010592D01*
X71754916Y-101958616D01*
X71775950Y-102009521D01*
X71979408Y-102213335D01*
X72245376Y-102323774D01*
X72415223Y-102323922D01*
X72415223Y-102323922D01*
G37*
X72415223Y-102323922D02*
X71983446Y-102755700D01*
X71659537Y-102755700D01*
X71652174Y-102717746D01*
X71590666Y-102624112D01*
X71497812Y-102561434D01*
X71387970Y-102539406D01*
X70989190Y-102539406D01*
X70882656Y-102560076D01*
X70789022Y-102621584D01*
X70738759Y-102696045D01*
X70691506Y-102624112D01*
X70598652Y-102561434D01*
X70488810Y-102539406D01*
X70202295Y-102539406D01*
X70202295Y-102167822D01*
X69850000Y-101815526D01*
X69634474Y-102031052D01*
X69634474Y-101600000D01*
X69282178Y-101247705D01*
X69215000Y-101280089D01*
X69147822Y-101247705D01*
X68795526Y-101600000D01*
X69147822Y-101952295D01*
X69215000Y-101919910D01*
X69282178Y-101952295D01*
X69634474Y-101600000D01*
X69634474Y-102031052D01*
X69497705Y-102167822D01*
X69548809Y-102273832D01*
X69829601Y-102337800D01*
X70113498Y-102289445D01*
X70151191Y-102273832D01*
X70202295Y-102167822D01*
X70202295Y-102539406D01*
X70090030Y-102539406D01*
X69983496Y-102560076D01*
X69889862Y-102621584D01*
X69827184Y-102714438D01*
X69805156Y-102824280D01*
X69805156Y-103187739D01*
X69279615Y-103713280D01*
X68721949Y-103713280D01*
X68701416Y-103682022D01*
X68626954Y-103631759D01*
X68698888Y-103584506D01*
X68761566Y-103491652D01*
X68783594Y-103381810D01*
X68783594Y-102983030D01*
X68762924Y-102876496D01*
X68701416Y-102782862D01*
X68608562Y-102720184D01*
X68567300Y-102711909D01*
X68567300Y-102489000D01*
X68543916Y-102371440D01*
X68539265Y-102348058D01*
X68539265Y-102348057D01*
X68527529Y-102330493D01*
X68559601Y-102337800D01*
X68843498Y-102289445D01*
X68881191Y-102273832D01*
X68932295Y-102167822D01*
X68580000Y-101815526D01*
X68565857Y-101829668D01*
X68350331Y-101614142D01*
X68364474Y-101600000D01*
X68012178Y-101247705D01*
X67958405Y-101273626D01*
X67924050Y-101190479D01*
X67720592Y-100986665D01*
X67668616Y-100965083D01*
X67719521Y-100944050D01*
X67923335Y-100740592D01*
X67944916Y-100688616D01*
X67965950Y-100739521D01*
X68169408Y-100943335D01*
X68253667Y-100978322D01*
X68227705Y-101032178D01*
X68580000Y-101384474D01*
X68932295Y-101032178D01*
X68906373Y-100978405D01*
X68989521Y-100944050D01*
X69193335Y-100740592D01*
X69214916Y-100688616D01*
X69235950Y-100739521D01*
X69439408Y-100943335D01*
X69523667Y-100978322D01*
X69497705Y-101032178D01*
X69850000Y-101384474D01*
X70202295Y-101032178D01*
X70176373Y-100978405D01*
X70259521Y-100944050D01*
X70463335Y-100740592D01*
X70484916Y-100688616D01*
X70505950Y-100739521D01*
X70709408Y-100943335D01*
X70761383Y-100964916D01*
X70710479Y-100985950D01*
X70506665Y-101189408D01*
X70471677Y-101273667D01*
X70417822Y-101247705D01*
X70065526Y-101600000D01*
X70417822Y-101952295D01*
X70471594Y-101926373D01*
X70505950Y-102009521D01*
X70709408Y-102213335D01*
X70975376Y-102323774D01*
X71263361Y-102324025D01*
X71529521Y-102214050D01*
X71733335Y-102010592D01*
X71754916Y-101958616D01*
X71775950Y-102009521D01*
X71979408Y-102213335D01*
X72245376Y-102323774D01*
X72415223Y-102323922D01*
G36*
X73660160Y-109538400D02*
X73637184Y-109572438D01*
X73615156Y-109682280D01*
X73615156Y-109789382D01*
X73526573Y-109848572D01*
X73505299Y-109869846D01*
X73002140Y-109869846D01*
X73002140Y-109848650D01*
X72932290Y-109778800D01*
X72660510Y-109778800D01*
X72660510Y-110138210D01*
X72666113Y-110143813D01*
X72663926Y-110154720D01*
X72663926Y-110301711D01*
X72661864Y-110296733D01*
X72583267Y-110218136D01*
X72493363Y-110180896D01*
X72536050Y-110138210D01*
X72536050Y-109778800D01*
X72507234Y-109778800D01*
X72507234Y-109479080D01*
X72536050Y-109479080D01*
X72536050Y-109456540D01*
X72660510Y-109456540D01*
X72660510Y-109479080D01*
X72932290Y-109479080D01*
X73002140Y-109409230D01*
X73002140Y-109384796D01*
X73002140Y-109273644D01*
X72959604Y-109170953D01*
X72881007Y-109092356D01*
X72778316Y-109049820D01*
X72750682Y-109049820D01*
X72730360Y-109049820D01*
X72694954Y-109049820D01*
X72791474Y-108953300D01*
X73279000Y-108953300D01*
X73279000Y-108953299D01*
X73396559Y-108929916D01*
X73419942Y-108925265D01*
X73419943Y-108925265D01*
X73500414Y-108871494D01*
X73456902Y-108976286D01*
X73456699Y-109208695D01*
X73545451Y-109423490D01*
X73660160Y-109538400D01*
X73660160Y-109538400D01*
G37*
X73660160Y-109538400D02*
X73637184Y-109572438D01*
X73615156Y-109682280D01*
X73615156Y-109789382D01*
X73526573Y-109848572D01*
X73505299Y-109869846D01*
X73002140Y-109869846D01*
X73002140Y-109848650D01*
X72932290Y-109778800D01*
X72660510Y-109778800D01*
X72660510Y-110138210D01*
X72666113Y-110143813D01*
X72663926Y-110154720D01*
X72663926Y-110301711D01*
X72661864Y-110296733D01*
X72583267Y-110218136D01*
X72493363Y-110180896D01*
X72536050Y-110138210D01*
X72536050Y-109778800D01*
X72507234Y-109778800D01*
X72507234Y-109479080D01*
X72536050Y-109479080D01*
X72536050Y-109456540D01*
X72660510Y-109456540D01*
X72660510Y-109479080D01*
X72932290Y-109479080D01*
X73002140Y-109409230D01*
X73002140Y-109384796D01*
X73002140Y-109273644D01*
X72959604Y-109170953D01*
X72881007Y-109092356D01*
X72778316Y-109049820D01*
X72750682Y-109049820D01*
X72730360Y-109049820D01*
X72694954Y-109049820D01*
X72791474Y-108953300D01*
X73279000Y-108953300D01*
X73279000Y-108953299D01*
X73396559Y-108929916D01*
X73419942Y-108925265D01*
X73419943Y-108925265D01*
X73500414Y-108871494D01*
X73456902Y-108976286D01*
X73456699Y-109208695D01*
X73545451Y-109423490D01*
X73660160Y-109538400D01*
G36*
X74857355Y-119548126D02*
X74730683Y-119674577D01*
X74670551Y-119819390D01*
X74660189Y-119815087D01*
X74427780Y-119814884D01*
X74301874Y-119866907D01*
X74301874Y-119746000D01*
X74281204Y-119639466D01*
X74219696Y-119545832D01*
X74207831Y-119537823D01*
X74213237Y-119535584D01*
X74291834Y-119456987D01*
X74334370Y-119354296D01*
X74334370Y-119243144D01*
X74334370Y-119218710D01*
X74264520Y-119148860D01*
X73955275Y-119148860D01*
X73955275Y-119171400D01*
X73755885Y-119171400D01*
X73755885Y-119148860D01*
X73683180Y-119148860D01*
X73683180Y-118849140D01*
X73755885Y-118849140D01*
X73755885Y-118826600D01*
X73955275Y-118826600D01*
X73955275Y-118849140D01*
X74264520Y-118849140D01*
X74312781Y-118800879D01*
X74544458Y-118800879D01*
X74857355Y-119113775D01*
X74857355Y-119548126D01*
X74857355Y-119548126D01*
G37*
X74857355Y-119548126D02*
X74730683Y-119674577D01*
X74670551Y-119819390D01*
X74660189Y-119815087D01*
X74427780Y-119814884D01*
X74301874Y-119866907D01*
X74301874Y-119746000D01*
X74281204Y-119639466D01*
X74219696Y-119545832D01*
X74207831Y-119537823D01*
X74213237Y-119535584D01*
X74291834Y-119456987D01*
X74334370Y-119354296D01*
X74334370Y-119243144D01*
X74334370Y-119218710D01*
X74264520Y-119148860D01*
X73955275Y-119148860D01*
X73955275Y-119171400D01*
X73755885Y-119171400D01*
X73755885Y-119148860D01*
X73683180Y-119148860D01*
X73683180Y-118849140D01*
X73755885Y-118849140D01*
X73755885Y-118826600D01*
X73955275Y-118826600D01*
X73955275Y-118849140D01*
X74264520Y-118849140D01*
X74312781Y-118800879D01*
X74544458Y-118800879D01*
X74857355Y-119113775D01*
X74857355Y-119548126D01*
G36*
X76653368Y-109559222D02*
X76570714Y-109524902D01*
X76338305Y-109524699D01*
X76123510Y-109613451D01*
X75959028Y-109777645D01*
X75869902Y-109992286D01*
X75869744Y-110172400D01*
X75729946Y-110312199D01*
X75477370Y-110312199D01*
X75477370Y-110226144D01*
X75477370Y-110201710D01*
X75477370Y-109762290D01*
X75477370Y-109737856D01*
X75477370Y-109626704D01*
X75434834Y-109524013D01*
X75356237Y-109445416D01*
X75253546Y-109402880D01*
X75168125Y-109402880D01*
X75098275Y-109472730D01*
X75098275Y-109832140D01*
X75407520Y-109832140D01*
X75477370Y-109762290D01*
X75477370Y-110201710D01*
X75407520Y-110131860D01*
X75098275Y-110131860D01*
X75098275Y-110154400D01*
X74898885Y-110154400D01*
X74898885Y-110131860D01*
X74826180Y-110131860D01*
X74826180Y-109832140D01*
X74898885Y-109832140D01*
X74898885Y-109472730D01*
X74829035Y-109402880D01*
X74743614Y-109402880D01*
X74640923Y-109445416D01*
X74562326Y-109524013D01*
X74549450Y-109555097D01*
X74501506Y-109482112D01*
X74487550Y-109472691D01*
X74535972Y-109424355D01*
X74625098Y-109209714D01*
X74625125Y-109178792D01*
X74625125Y-109178791D01*
X74752730Y-109093530D01*
X75387726Y-108458532D01*
X75387730Y-108458530D01*
X75387730Y-108458529D01*
X75432639Y-108391317D01*
X75443584Y-108407978D01*
X75518045Y-108458240D01*
X75446112Y-108505494D01*
X75383434Y-108598348D01*
X75361406Y-108708190D01*
X75361406Y-109106970D01*
X75382076Y-109213504D01*
X75443584Y-109307138D01*
X75536438Y-109369816D01*
X75646280Y-109391844D01*
X76245720Y-109391844D01*
X76352254Y-109371174D01*
X76420493Y-109326347D01*
X76653368Y-109559222D01*
X76653368Y-109559222D01*
G37*
X76653368Y-109559222D02*
X76570714Y-109524902D01*
X76338305Y-109524699D01*
X76123510Y-109613451D01*
X75959028Y-109777645D01*
X75869902Y-109992286D01*
X75869744Y-110172400D01*
X75729946Y-110312199D01*
X75477370Y-110312199D01*
X75477370Y-110226144D01*
X75477370Y-110201710D01*
X75477370Y-109762290D01*
X75477370Y-109737856D01*
X75477370Y-109626704D01*
X75434834Y-109524013D01*
X75356237Y-109445416D01*
X75253546Y-109402880D01*
X75168125Y-109402880D01*
X75098275Y-109472730D01*
X75098275Y-109832140D01*
X75407520Y-109832140D01*
X75477370Y-109762290D01*
X75477370Y-110201710D01*
X75407520Y-110131860D01*
X75098275Y-110131860D01*
X75098275Y-110154400D01*
X74898885Y-110154400D01*
X74898885Y-110131860D01*
X74826180Y-110131860D01*
X74826180Y-109832140D01*
X74898885Y-109832140D01*
X74898885Y-109472730D01*
X74829035Y-109402880D01*
X74743614Y-109402880D01*
X74640923Y-109445416D01*
X74562326Y-109524013D01*
X74549450Y-109555097D01*
X74501506Y-109482112D01*
X74487550Y-109472691D01*
X74535972Y-109424355D01*
X74625098Y-109209714D01*
X74625125Y-109178792D01*
X74625125Y-109178791D01*
X74752730Y-109093530D01*
X75387726Y-108458532D01*
X75387730Y-108458530D01*
X75387730Y-108458529D01*
X75432639Y-108391317D01*
X75443584Y-108407978D01*
X75518045Y-108458240D01*
X75446112Y-108505494D01*
X75383434Y-108598348D01*
X75361406Y-108708190D01*
X75361406Y-109106970D01*
X75382076Y-109213504D01*
X75443584Y-109307138D01*
X75536438Y-109369816D01*
X75646280Y-109391844D01*
X76245720Y-109391844D01*
X76352254Y-109371174D01*
X76420493Y-109326347D01*
X76653368Y-109559222D01*
G36*
X77212588Y-117386100D02*
X77208076Y-117386100D01*
X77096924Y-117386100D01*
X76994233Y-117428636D01*
X76923900Y-117498969D01*
X76923900Y-117443250D01*
X76854050Y-117373400D01*
X76479400Y-117373400D01*
X76479400Y-117393400D01*
X76174600Y-117393400D01*
X76174600Y-117373400D01*
X75799950Y-117373400D01*
X75730100Y-117443250D01*
X75730100Y-117690901D01*
X75666755Y-117690901D01*
X75405374Y-117429520D01*
X75405374Y-116649500D01*
X75384704Y-116542966D01*
X75329228Y-116458514D01*
X75383346Y-116378342D01*
X75405374Y-116268500D01*
X75405374Y-115201737D01*
X75724626Y-115201737D01*
X75724626Y-116268500D01*
X75745296Y-116375034D01*
X75802203Y-116461665D01*
X75772636Y-116491233D01*
X75730100Y-116593924D01*
X75730100Y-116705076D01*
X75730100Y-116998750D01*
X75799950Y-117068600D01*
X76174600Y-117068600D01*
X76174600Y-117048600D01*
X76479400Y-117048600D01*
X76479400Y-117068600D01*
X76854050Y-117068600D01*
X76923900Y-116998750D01*
X76923900Y-116937234D01*
X76949804Y-116976668D01*
X77042658Y-117039346D01*
X77139830Y-117058833D01*
X77139699Y-117209695D01*
X77212588Y-117386100D01*
X77212588Y-117386100D01*
G37*
X77212588Y-117386100D02*
X77208076Y-117386100D01*
X77096924Y-117386100D01*
X76994233Y-117428636D01*
X76923900Y-117498969D01*
X76923900Y-117443250D01*
X76854050Y-117373400D01*
X76479400Y-117373400D01*
X76479400Y-117393400D01*
X76174600Y-117393400D01*
X76174600Y-117373400D01*
X75799950Y-117373400D01*
X75730100Y-117443250D01*
X75730100Y-117690901D01*
X75666755Y-117690901D01*
X75405374Y-117429520D01*
X75405374Y-116649500D01*
X75384704Y-116542966D01*
X75329228Y-116458514D01*
X75383346Y-116378342D01*
X75405374Y-116268500D01*
X75405374Y-115201737D01*
X75724626Y-115201737D01*
X75724626Y-116268500D01*
X75745296Y-116375034D01*
X75802203Y-116461665D01*
X75772636Y-116491233D01*
X75730100Y-116593924D01*
X75730100Y-116705076D01*
X75730100Y-116998750D01*
X75799950Y-117068600D01*
X76174600Y-117068600D01*
X76174600Y-117048600D01*
X76479400Y-117048600D01*
X76479400Y-117068600D01*
X76854050Y-117068600D01*
X76923900Y-116998750D01*
X76923900Y-116937234D01*
X76949804Y-116976668D01*
X77042658Y-117039346D01*
X77139830Y-117058833D01*
X77139699Y-117209695D01*
X77212588Y-117386100D01*
G36*
X77677045Y-112268240D02*
X77605112Y-112315494D01*
X77542434Y-112408348D01*
X77520406Y-112518190D01*
X77520406Y-112916970D01*
X77529598Y-112964350D01*
X77262352Y-112964350D01*
X77292098Y-112892714D01*
X77292301Y-112660305D01*
X77203549Y-112445510D01*
X77039355Y-112281028D01*
X76824714Y-112191902D01*
X76592305Y-112191699D01*
X76377510Y-112280451D01*
X76366370Y-112291571D01*
X76297019Y-112360800D01*
X76213420Y-112344172D01*
X75986178Y-112344172D01*
X76022098Y-112257667D01*
X76022301Y-112025258D01*
X75942084Y-111831120D01*
X76039982Y-111831120D01*
X76039982Y-111813977D01*
X76057125Y-111831120D01*
X76142546Y-111831120D01*
X76245237Y-111788584D01*
X76323834Y-111709987D01*
X76366370Y-111607296D01*
X76366370Y-111496144D01*
X76366370Y-111471710D01*
X76296520Y-111401860D01*
X75987275Y-111401860D01*
X75987275Y-111424400D01*
X75787885Y-111424400D01*
X75787885Y-111401860D01*
X75715180Y-111401860D01*
X75715180Y-111102140D01*
X75787885Y-111102140D01*
X75787885Y-111079600D01*
X75987275Y-111079600D01*
X75987275Y-111102140D01*
X76296520Y-111102140D01*
X76366370Y-111032290D01*
X76366370Y-111007856D01*
X76366370Y-110896704D01*
X76323834Y-110794013D01*
X76306837Y-110777016D01*
X76390709Y-110693144D01*
X76569695Y-110693301D01*
X76784490Y-110604549D01*
X76899126Y-110490113D01*
X76899126Y-111285000D01*
X76919796Y-111391534D01*
X76981304Y-111485168D01*
X77074158Y-111547846D01*
X77184000Y-111569874D01*
X77530263Y-111569874D01*
X77520406Y-111619030D01*
X77520406Y-112017810D01*
X77541076Y-112124344D01*
X77602584Y-112217978D01*
X77677045Y-112268240D01*
X77677045Y-112268240D01*
G37*
X77677045Y-112268240D02*
X77605112Y-112315494D01*
X77542434Y-112408348D01*
X77520406Y-112518190D01*
X77520406Y-112916970D01*
X77529598Y-112964350D01*
X77262352Y-112964350D01*
X77292098Y-112892714D01*
X77292301Y-112660305D01*
X77203549Y-112445510D01*
X77039355Y-112281028D01*
X76824714Y-112191902D01*
X76592305Y-112191699D01*
X76377510Y-112280451D01*
X76366370Y-112291571D01*
X76297019Y-112360800D01*
X76213420Y-112344172D01*
X75986178Y-112344172D01*
X76022098Y-112257667D01*
X76022301Y-112025258D01*
X75942084Y-111831120D01*
X76039982Y-111831120D01*
X76039982Y-111813977D01*
X76057125Y-111831120D01*
X76142546Y-111831120D01*
X76245237Y-111788584D01*
X76323834Y-111709987D01*
X76366370Y-111607296D01*
X76366370Y-111496144D01*
X76366370Y-111471710D01*
X76296520Y-111401860D01*
X75987275Y-111401860D01*
X75987275Y-111424400D01*
X75787885Y-111424400D01*
X75787885Y-111401860D01*
X75715180Y-111401860D01*
X75715180Y-111102140D01*
X75787885Y-111102140D01*
X75787885Y-111079600D01*
X75987275Y-111079600D01*
X75987275Y-111102140D01*
X76296520Y-111102140D01*
X76366370Y-111032290D01*
X76366370Y-111007856D01*
X76366370Y-110896704D01*
X76323834Y-110794013D01*
X76306837Y-110777016D01*
X76390709Y-110693144D01*
X76569695Y-110693301D01*
X76784490Y-110604549D01*
X76899126Y-110490113D01*
X76899126Y-111285000D01*
X76919796Y-111391534D01*
X76981304Y-111485168D01*
X77074158Y-111547846D01*
X77184000Y-111569874D01*
X77530263Y-111569874D01*
X77520406Y-111619030D01*
X77520406Y-112017810D01*
X77541076Y-112124344D01*
X77602584Y-112217978D01*
X77677045Y-112268240D01*
G36*
X81556539Y-120518573D02*
X81501311Y-120573801D01*
X76024462Y-120573801D01*
X76825193Y-119773070D01*
X81225777Y-119773070D01*
X81189857Y-119859576D01*
X81189654Y-120091985D01*
X81278406Y-120306780D01*
X81442600Y-120471262D01*
X81556539Y-120518573D01*
X81556539Y-120518573D01*
G37*
X81556539Y-120518573D02*
X81501311Y-120573801D01*
X76024462Y-120573801D01*
X76825193Y-119773070D01*
X81225777Y-119773070D01*
X81189857Y-119859576D01*
X81189654Y-120091985D01*
X81278406Y-120306780D01*
X81442600Y-120471262D01*
X81556539Y-120518573D01*
G36*
X82862944Y-107584319D02*
X82850564Y-107592564D01*
X82828527Y-107614600D01*
X82799598Y-107614600D01*
X82799598Y-107643529D01*
X82690251Y-107752876D01*
X82677000Y-107739625D01*
X82663748Y-107752876D01*
X82603436Y-107692564D01*
X82503436Y-107592564D01*
X82493123Y-107582251D01*
X82506375Y-107569000D01*
X82491245Y-107553870D01*
X82502168Y-107546696D01*
X82502677Y-107545941D01*
X82503436Y-107545436D01*
X82663748Y-107385123D01*
X82677000Y-107398375D01*
X82690251Y-107385123D01*
X82850564Y-107545436D01*
X82862843Y-107553781D01*
X82847625Y-107569000D01*
X82862944Y-107584319D01*
X82862944Y-107584319D01*
G37*
X82862944Y-107584319D02*
X82850564Y-107592564D01*
X82828527Y-107614600D01*
X82799598Y-107614600D01*
X82799598Y-107643529D01*
X82690251Y-107752876D01*
X82677000Y-107739625D01*
X82663748Y-107752876D01*
X82603436Y-107692564D01*
X82503436Y-107592564D01*
X82493123Y-107582251D01*
X82506375Y-107569000D01*
X82491245Y-107553870D01*
X82502168Y-107546696D01*
X82502677Y-107545941D01*
X82503436Y-107545436D01*
X82663748Y-107385123D01*
X82677000Y-107398375D01*
X82690251Y-107385123D01*
X82850564Y-107545436D01*
X82862843Y-107553781D01*
X82847625Y-107569000D01*
X82862944Y-107584319D01*
G36*
X83319620Y-105336348D02*
X83304195Y-105359200D01*
X82872602Y-105359200D01*
X82816196Y-105273332D01*
X82723342Y-105210654D01*
X82613500Y-105188626D01*
X81978500Y-105188626D01*
X81871966Y-105209296D01*
X81778332Y-105270804D01*
X81715654Y-105363658D01*
X81693626Y-105473500D01*
X81693626Y-106616500D01*
X81714296Y-106723034D01*
X81775804Y-106816668D01*
X81868658Y-106879346D01*
X81920200Y-106889682D01*
X81920200Y-106898671D01*
X81917126Y-106914000D01*
X81917126Y-107124000D01*
X81917126Y-107344000D01*
X81937796Y-107450534D01*
X81982951Y-107519274D01*
X81939154Y-107584158D01*
X81917126Y-107694000D01*
X81917126Y-107760889D01*
X81865355Y-107709028D01*
X81650714Y-107619902D01*
X81418305Y-107619699D01*
X81368900Y-107640112D01*
X81368900Y-106672076D01*
X81368900Y-106560924D01*
X81368900Y-106267250D01*
X81368900Y-105822750D01*
X81368900Y-105529076D01*
X81368900Y-105417924D01*
X81326364Y-105315233D01*
X81254600Y-105243469D01*
X81254600Y-104730550D01*
X81254600Y-103657400D01*
X81254600Y-103352600D01*
X81254600Y-102279450D01*
X81210150Y-102235000D01*
X81254600Y-102190550D01*
X81254600Y-101117400D01*
X80181450Y-101117400D01*
X80111600Y-101187250D01*
X80111600Y-101925424D01*
X80111600Y-102036576D01*
X80154136Y-102139267D01*
X80232733Y-102217864D01*
X80274102Y-102235000D01*
X80232733Y-102252136D01*
X80154136Y-102330733D01*
X80111600Y-102433424D01*
X80111600Y-102544576D01*
X80111600Y-103282750D01*
X80181450Y-103352600D01*
X81254600Y-103352600D01*
X81254600Y-103657400D01*
X80181450Y-103657400D01*
X80111600Y-103727250D01*
X80111600Y-104465424D01*
X80111600Y-104576576D01*
X80154136Y-104679267D01*
X80232733Y-104757864D01*
X80335424Y-104800400D01*
X81184750Y-104800400D01*
X81254600Y-104730550D01*
X81254600Y-105243469D01*
X81247767Y-105236636D01*
X81145076Y-105194100D01*
X80994250Y-105194100D01*
X80924400Y-105263950D01*
X80924400Y-105892600D01*
X81299050Y-105892600D01*
X81368900Y-105822750D01*
X81368900Y-106267250D01*
X81299050Y-106197400D01*
X80924400Y-106197400D01*
X80924400Y-106826050D01*
X80994250Y-106895900D01*
X81145076Y-106895900D01*
X81247767Y-106853364D01*
X81326364Y-106774767D01*
X81368900Y-106672076D01*
X81368900Y-107640112D01*
X81203510Y-107708451D01*
X81039028Y-107872645D01*
X80949902Y-108087286D01*
X80949823Y-108177518D01*
X80720142Y-108407200D01*
X80619600Y-108407200D01*
X80619600Y-106826050D01*
X80619600Y-106197400D01*
X80619600Y-105892600D01*
X80619600Y-105263950D01*
X80549750Y-105194100D01*
X80398924Y-105194100D01*
X80296233Y-105236636D01*
X80217636Y-105315233D01*
X80175100Y-105417924D01*
X80175100Y-105529076D01*
X80175100Y-105822750D01*
X80244950Y-105892600D01*
X80619600Y-105892600D01*
X80619600Y-106197400D01*
X80244950Y-106197400D01*
X80175100Y-106267250D01*
X80175100Y-106560924D01*
X80175100Y-106672076D01*
X80217636Y-106774767D01*
X80296233Y-106853364D01*
X80398924Y-106895900D01*
X80549750Y-106895900D01*
X80619600Y-106826050D01*
X80619600Y-108407200D01*
X79818874Y-108407200D01*
X79638635Y-108407200D01*
X79473392Y-108440069D01*
X79333306Y-108533671D01*
X79332777Y-108534200D01*
X79121000Y-108534200D01*
X78728358Y-108534200D01*
X77458558Y-107264400D01*
X77536402Y-107264400D01*
X77536402Y-107246952D01*
X77553850Y-107264400D01*
X77639576Y-107264400D01*
X77707190Y-107236392D01*
X77724158Y-107247846D01*
X77834000Y-107269874D01*
X78234000Y-107269874D01*
X78340534Y-107249204D01*
X78358594Y-107237340D01*
X78374158Y-107247846D01*
X78484000Y-107269874D01*
X78884000Y-107269874D01*
X78990534Y-107249204D01*
X79008594Y-107237340D01*
X79024158Y-107247846D01*
X79134000Y-107269874D01*
X79534000Y-107269874D01*
X79640534Y-107249204D01*
X79734168Y-107187696D01*
X79796846Y-107094842D01*
X79818874Y-106985000D01*
X79818874Y-105885000D01*
X79798204Y-105778466D01*
X79736696Y-105684832D01*
X79643842Y-105622154D01*
X79534000Y-105600126D01*
X79134000Y-105600126D01*
X79027466Y-105620796D01*
X79009405Y-105632659D01*
X78993842Y-105622154D01*
X78884000Y-105600126D01*
X78484000Y-105600126D01*
X78377466Y-105620796D01*
X78359405Y-105632659D01*
X78343842Y-105622154D01*
X78234000Y-105600126D01*
X77834000Y-105600126D01*
X77727466Y-105620796D01*
X77707664Y-105633803D01*
X77639576Y-105605600D01*
X77553850Y-105605600D01*
X77484000Y-105675450D01*
X77484000Y-106282600D01*
X77549126Y-106282600D01*
X77549126Y-106587400D01*
X77484000Y-106587400D01*
X77484000Y-106607400D01*
X77284000Y-106607400D01*
X77284000Y-106587400D01*
X77284000Y-106282600D01*
X77284000Y-105675450D01*
X77214150Y-105605600D01*
X77128424Y-105605600D01*
X77025733Y-105648136D01*
X76947136Y-105726733D01*
X76904600Y-105829424D01*
X76904600Y-106212750D01*
X76974450Y-106282600D01*
X77284000Y-106282600D01*
X77284000Y-106587400D01*
X76974450Y-106587400D01*
X76904600Y-106657250D01*
X76904600Y-106710442D01*
X76568829Y-106374671D01*
X76428743Y-106281069D01*
X76263500Y-106248200D01*
X75874016Y-106248200D01*
X77334516Y-104787700D01*
X78561594Y-104787700D01*
X78688045Y-104914372D01*
X78902686Y-105003498D01*
X79135095Y-105003701D01*
X79349890Y-104914949D01*
X79514372Y-104750755D01*
X79603498Y-104536114D01*
X79603701Y-104303705D01*
X79514949Y-104088910D01*
X79350755Y-103924428D01*
X79136114Y-103835302D01*
X78903705Y-103835099D01*
X78688910Y-103923851D01*
X78561437Y-104051100D01*
X77181962Y-104051100D01*
X77041020Y-104079135D01*
X76921535Y-104158972D01*
X76676874Y-104403633D01*
X76676874Y-104070980D01*
X78492427Y-102255428D01*
X78492427Y-102255427D01*
X78545772Y-102175590D01*
X78572264Y-102135943D01*
X78572265Y-102135942D01*
X78594164Y-102025844D01*
X78658720Y-102025844D01*
X78765254Y-102005174D01*
X78858888Y-101943666D01*
X78921566Y-101850812D01*
X78943594Y-101740970D01*
X78943594Y-101342190D01*
X78922924Y-101235656D01*
X78861416Y-101142022D01*
X78786361Y-101091359D01*
X78816987Y-101078674D01*
X78895584Y-101000077D01*
X78938120Y-100897386D01*
X78938120Y-100811965D01*
X78938120Y-100472875D01*
X78938120Y-100387454D01*
X78895584Y-100284763D01*
X78816987Y-100206166D01*
X78714296Y-100163630D01*
X78603144Y-100163630D01*
X78578710Y-100163630D01*
X78508860Y-100233480D01*
X78508860Y-100542725D01*
X78868270Y-100542725D01*
X78938120Y-100472875D01*
X78938120Y-100811965D01*
X78868270Y-100742115D01*
X78508860Y-100742115D01*
X78508860Y-100814820D01*
X78209140Y-100814820D01*
X78209140Y-100742115D01*
X78209140Y-100542725D01*
X78209140Y-100233480D01*
X78139290Y-100163630D01*
X78114856Y-100163630D01*
X78003704Y-100163630D01*
X77901013Y-100206166D01*
X77822416Y-100284763D01*
X77779880Y-100387454D01*
X77779880Y-100472875D01*
X77849730Y-100542725D01*
X78209140Y-100542725D01*
X78209140Y-100742115D01*
X77849730Y-100742115D01*
X77779880Y-100811965D01*
X77779880Y-100897386D01*
X77822416Y-101000077D01*
X77901013Y-101078674D01*
X77932097Y-101091549D01*
X77859112Y-101139494D01*
X77796434Y-101232348D01*
X77774406Y-101342190D01*
X77774406Y-101740970D01*
X77795076Y-101847504D01*
X77820277Y-101885867D01*
X76156019Y-103550126D01*
X74992000Y-103550126D01*
X74885466Y-103570796D01*
X74791832Y-103632304D01*
X74729154Y-103725158D01*
X74707126Y-103835000D01*
X74707126Y-104785000D01*
X74727796Y-104891534D01*
X74789304Y-104985168D01*
X74815700Y-105002985D01*
X74815700Y-105638446D01*
X74564875Y-105889270D01*
X74498594Y-105822989D01*
X74498594Y-105660190D01*
X74477924Y-105553656D01*
X74416416Y-105460022D01*
X74341361Y-105409359D01*
X74371987Y-105396674D01*
X74450584Y-105318077D01*
X74493120Y-105215386D01*
X74493120Y-105129965D01*
X74493120Y-104790875D01*
X74493120Y-104705454D01*
X74450584Y-104602763D01*
X74371987Y-104524166D01*
X74269296Y-104481630D01*
X74158144Y-104481630D01*
X74133710Y-104481630D01*
X74063860Y-104551480D01*
X74063860Y-104860725D01*
X74423270Y-104860725D01*
X74493120Y-104790875D01*
X74493120Y-105129965D01*
X74423270Y-105060115D01*
X74063860Y-105060115D01*
X74063860Y-105132820D01*
X73764140Y-105132820D01*
X73764140Y-105060115D01*
X73404730Y-105060115D01*
X73334880Y-105129965D01*
X73334880Y-105172589D01*
X73273416Y-105079022D01*
X73198361Y-105028359D01*
X73228987Y-105015674D01*
X73307584Y-104937077D01*
X73350120Y-104834386D01*
X73350120Y-104806115D01*
X73404730Y-104860725D01*
X73764140Y-104860725D01*
X73764140Y-104551480D01*
X73694290Y-104481630D01*
X73669856Y-104481630D01*
X73558704Y-104481630D01*
X73456013Y-104524166D01*
X73377416Y-104602763D01*
X73350120Y-104668661D01*
X73350120Y-104409875D01*
X73350120Y-104324454D01*
X73307584Y-104221763D01*
X73228987Y-104143166D01*
X73126296Y-104100630D01*
X73015144Y-104100630D01*
X72990710Y-104100630D01*
X72920860Y-104170480D01*
X72920860Y-104479725D01*
X73280270Y-104479725D01*
X73350120Y-104409875D01*
X73350120Y-104668661D01*
X73334880Y-104705454D01*
X73334880Y-104733725D01*
X73280270Y-104679115D01*
X72920860Y-104679115D01*
X72920860Y-104751820D01*
X72621140Y-104751820D01*
X72621140Y-104679115D01*
X72621140Y-104479725D01*
X72621140Y-104170480D01*
X72551290Y-104100630D01*
X72526856Y-104100630D01*
X72415704Y-104100630D01*
X72313013Y-104143166D01*
X72234416Y-104221763D01*
X72199500Y-104306057D01*
X72164584Y-104221763D01*
X72085987Y-104143166D01*
X71983296Y-104100630D01*
X71872144Y-104100630D01*
X71847710Y-104100630D01*
X71777860Y-104170480D01*
X71777860Y-104479725D01*
X72137270Y-104479725D01*
X72199500Y-104417495D01*
X72261730Y-104479725D01*
X72621140Y-104479725D01*
X72621140Y-104679115D01*
X72261730Y-104679115D01*
X72199500Y-104741345D01*
X72137270Y-104679115D01*
X71777860Y-104679115D01*
X71777860Y-104751820D01*
X71478140Y-104751820D01*
X71478140Y-104679115D01*
X71478140Y-104479725D01*
X71478140Y-104170480D01*
X71408290Y-104100630D01*
X71383856Y-104100630D01*
X71272704Y-104100630D01*
X71170013Y-104143166D01*
X71091416Y-104221763D01*
X71048880Y-104324454D01*
X71048880Y-104409875D01*
X71118730Y-104479725D01*
X71478140Y-104479725D01*
X71478140Y-104679115D01*
X71118730Y-104679115D01*
X71048880Y-104748965D01*
X71048880Y-104834386D01*
X71091416Y-104937077D01*
X71170013Y-105015674D01*
X71201097Y-105028549D01*
X71128112Y-105076494D01*
X71065434Y-105169348D01*
X71043406Y-105279190D01*
X71043406Y-105677970D01*
X71047333Y-105698214D01*
X71029052Y-105710224D01*
X70966374Y-105803078D01*
X70944346Y-105912920D01*
X70944346Y-106710480D01*
X70965016Y-106817014D01*
X71026524Y-106910648D01*
X71119378Y-106973326D01*
X71229220Y-106995354D01*
X72026780Y-106995354D01*
X72133314Y-106974684D01*
X72199743Y-106931046D01*
X72262378Y-106973326D01*
X72372220Y-106995354D01*
X73169780Y-106995354D01*
X73276314Y-106974684D01*
X73369948Y-106913176D01*
X73432626Y-106820322D01*
X73454654Y-106710480D01*
X73454654Y-106288210D01*
X73504438Y-106321816D01*
X73614280Y-106343844D01*
X73977739Y-106343844D01*
X74044020Y-106410124D01*
X73399573Y-107054573D01*
X73319735Y-107174057D01*
X73319438Y-107175550D01*
X73319437Y-107175550D01*
X73279622Y-107148674D01*
X73169780Y-107126646D01*
X72372220Y-107126646D01*
X72265686Y-107147316D01*
X72199256Y-107190953D01*
X72136622Y-107148674D01*
X72026780Y-107126646D01*
X71229220Y-107126646D01*
X71189420Y-107134368D01*
X71077963Y-107022715D01*
X70863322Y-106933589D01*
X70630913Y-106933386D01*
X70469838Y-106999940D01*
X70311685Y-106841510D01*
X70097044Y-106752384D01*
X70057756Y-106752349D01*
X70103144Y-106733596D01*
X70267626Y-106569402D01*
X70356752Y-106354761D01*
X70356955Y-106122352D01*
X70268203Y-105907557D01*
X70104009Y-105743075D01*
X69889368Y-105653949D01*
X69656959Y-105653746D01*
X69442164Y-105742498D01*
X69277682Y-105906692D01*
X69235385Y-106008554D01*
X69169460Y-105849003D01*
X69005266Y-105684521D01*
X68830197Y-105611826D01*
X68833898Y-105602914D01*
X68834101Y-105370505D01*
X68745349Y-105155710D01*
X68581155Y-104991228D01*
X68366514Y-104902102D01*
X68134105Y-104901899D01*
X67919310Y-104990651D01*
X67830690Y-105079115D01*
X67830690Y-104701330D01*
X67802655Y-104560388D01*
X67802654Y-104560387D01*
X67791913Y-104544312D01*
X67899280Y-104565844D01*
X68498720Y-104565844D01*
X68605254Y-104545174D01*
X68698888Y-104483666D01*
X68721694Y-104449880D01*
X69432170Y-104449880D01*
X69432170Y-104449879D01*
X69549729Y-104426496D01*
X69573112Y-104421845D01*
X69573113Y-104421845D01*
X69692597Y-104342007D01*
X70326010Y-103708594D01*
X70488810Y-103708594D01*
X70595344Y-103687924D01*
X70688978Y-103626416D01*
X70739240Y-103551954D01*
X70786494Y-103623888D01*
X70879348Y-103686566D01*
X70989190Y-103708594D01*
X71387970Y-103708594D01*
X71494504Y-103687924D01*
X71588138Y-103626416D01*
X71650816Y-103533562D01*
X71659090Y-103492300D01*
X72136000Y-103492300D01*
X72136000Y-103492299D01*
X72253559Y-103468916D01*
X72276942Y-103464265D01*
X72276943Y-103464265D01*
X72396427Y-103384427D01*
X73412427Y-102368427D01*
X73492265Y-102248943D01*
X73492265Y-102248942D01*
X73496916Y-102225559D01*
X73520299Y-102108000D01*
X73520300Y-102108000D01*
X73520300Y-101092000D01*
X73492265Y-100951058D01*
X73412428Y-100831573D01*
X73096669Y-100515815D01*
X73113774Y-100474624D01*
X73114025Y-100186639D01*
X73004050Y-99920479D01*
X72800592Y-99716665D01*
X72687246Y-99669600D01*
X74710214Y-99669600D01*
X74707126Y-99685000D01*
X74707126Y-100635000D01*
X74727796Y-100741534D01*
X74789304Y-100835168D01*
X74882158Y-100897846D01*
X74992000Y-100919874D01*
X75323700Y-100919874D01*
X75323700Y-101904194D01*
X75197028Y-102030645D01*
X75107902Y-102245286D01*
X75107699Y-102477695D01*
X75196451Y-102692490D01*
X75360645Y-102856972D01*
X75575286Y-102946098D01*
X75807695Y-102946301D01*
X76022490Y-102857549D01*
X76186972Y-102693355D01*
X76276098Y-102478714D01*
X76276301Y-102246305D01*
X76187549Y-102031510D01*
X76060300Y-101904037D01*
X76060300Y-100919874D01*
X76392000Y-100919874D01*
X76498534Y-100899204D01*
X76592168Y-100837696D01*
X76654846Y-100744842D01*
X76676874Y-100635000D01*
X76676874Y-99685000D01*
X76673886Y-99669600D01*
X80335424Y-99669600D01*
X80232733Y-99712136D01*
X80154136Y-99790733D01*
X80111600Y-99893424D01*
X80111600Y-100004576D01*
X80111600Y-100742750D01*
X80181450Y-100812600D01*
X81254600Y-100812600D01*
X81254600Y-99739450D01*
X81184750Y-99669600D01*
X81629250Y-99669600D01*
X81559400Y-99739450D01*
X81559400Y-100812600D01*
X81579400Y-100812600D01*
X81579400Y-101117400D01*
X81559400Y-101117400D01*
X81559400Y-102190550D01*
X81603850Y-102235000D01*
X81559400Y-102279450D01*
X81559400Y-103352600D01*
X81579400Y-103352600D01*
X81579400Y-103657400D01*
X81559400Y-103657400D01*
X81559400Y-104730550D01*
X81629250Y-104800400D01*
X82478576Y-104800400D01*
X82581267Y-104757864D01*
X82659864Y-104679267D01*
X82702400Y-104576576D01*
X82702400Y-104465424D01*
X82702400Y-103887974D01*
X82724828Y-104000728D01*
X83005636Y-104420986D01*
X83319620Y-104630783D01*
X83319620Y-105336348D01*
X83319620Y-105336348D01*
G37*
X83319620Y-105336348D02*
X83304195Y-105359200D01*
X82872602Y-105359200D01*
X82816196Y-105273332D01*
X82723342Y-105210654D01*
X82613500Y-105188626D01*
X81978500Y-105188626D01*
X81871966Y-105209296D01*
X81778332Y-105270804D01*
X81715654Y-105363658D01*
X81693626Y-105473500D01*
X81693626Y-106616500D01*
X81714296Y-106723034D01*
X81775804Y-106816668D01*
X81868658Y-106879346D01*
X81920200Y-106889682D01*
X81920200Y-106898671D01*
X81917126Y-106914000D01*
X81917126Y-107124000D01*
X81917126Y-107344000D01*
X81937796Y-107450534D01*
X81982951Y-107519274D01*
X81939154Y-107584158D01*
X81917126Y-107694000D01*
X81917126Y-107760889D01*
X81865355Y-107709028D01*
X81650714Y-107619902D01*
X81418305Y-107619699D01*
X81368900Y-107640112D01*
X81368900Y-106672076D01*
X81368900Y-106560924D01*
X81368900Y-106267250D01*
X81368900Y-105822750D01*
X81368900Y-105529076D01*
X81368900Y-105417924D01*
X81326364Y-105315233D01*
X81254600Y-105243469D01*
X81254600Y-104730550D01*
X81254600Y-103657400D01*
X81254600Y-103352600D01*
X81254600Y-102279450D01*
X81210150Y-102235000D01*
X81254600Y-102190550D01*
X81254600Y-101117400D01*
X80181450Y-101117400D01*
X80111600Y-101187250D01*
X80111600Y-101925424D01*
X80111600Y-102036576D01*
X80154136Y-102139267D01*
X80232733Y-102217864D01*
X80274102Y-102235000D01*
X80232733Y-102252136D01*
X80154136Y-102330733D01*
X80111600Y-102433424D01*
X80111600Y-102544576D01*
X80111600Y-103282750D01*
X80181450Y-103352600D01*
X81254600Y-103352600D01*
X81254600Y-103657400D01*
X80181450Y-103657400D01*
X80111600Y-103727250D01*
X80111600Y-104465424D01*
X80111600Y-104576576D01*
X80154136Y-104679267D01*
X80232733Y-104757864D01*
X80335424Y-104800400D01*
X81184750Y-104800400D01*
X81254600Y-104730550D01*
X81254600Y-105243469D01*
X81247767Y-105236636D01*
X81145076Y-105194100D01*
X80994250Y-105194100D01*
X80924400Y-105263950D01*
X80924400Y-105892600D01*
X81299050Y-105892600D01*
X81368900Y-105822750D01*
X81368900Y-106267250D01*
X81299050Y-106197400D01*
X80924400Y-106197400D01*
X80924400Y-106826050D01*
X80994250Y-106895900D01*
X81145076Y-106895900D01*
X81247767Y-106853364D01*
X81326364Y-106774767D01*
X81368900Y-106672076D01*
X81368900Y-107640112D01*
X81203510Y-107708451D01*
X81039028Y-107872645D01*
X80949902Y-108087286D01*
X80949823Y-108177518D01*
X80720142Y-108407200D01*
X80619600Y-108407200D01*
X80619600Y-106826050D01*
X80619600Y-106197400D01*
X80619600Y-105892600D01*
X80619600Y-105263950D01*
X80549750Y-105194100D01*
X80398924Y-105194100D01*
X80296233Y-105236636D01*
X80217636Y-105315233D01*
X80175100Y-105417924D01*
X80175100Y-105529076D01*
X80175100Y-105822750D01*
X80244950Y-105892600D01*
X80619600Y-105892600D01*
X80619600Y-106197400D01*
X80244950Y-106197400D01*
X80175100Y-106267250D01*
X80175100Y-106560924D01*
X80175100Y-106672076D01*
X80217636Y-106774767D01*
X80296233Y-106853364D01*
X80398924Y-106895900D01*
X80549750Y-106895900D01*
X80619600Y-106826050D01*
X80619600Y-108407200D01*
X79818874Y-108407200D01*
X79638635Y-108407200D01*
X79473392Y-108440069D01*
X79333306Y-108533671D01*
X79332777Y-108534200D01*
X79121000Y-108534200D01*
X78728358Y-108534200D01*
X77458558Y-107264400D01*
X77536402Y-107264400D01*
X77536402Y-107246952D01*
X77553850Y-107264400D01*
X77639576Y-107264400D01*
X77707190Y-107236392D01*
X77724158Y-107247846D01*
X77834000Y-107269874D01*
X78234000Y-107269874D01*
X78340534Y-107249204D01*
X78358594Y-107237340D01*
X78374158Y-107247846D01*
X78484000Y-107269874D01*
X78884000Y-107269874D01*
X78990534Y-107249204D01*
X79008594Y-107237340D01*
X79024158Y-107247846D01*
X79134000Y-107269874D01*
X79534000Y-107269874D01*
X79640534Y-107249204D01*
X79734168Y-107187696D01*
X79796846Y-107094842D01*
X79818874Y-106985000D01*
X79818874Y-105885000D01*
X79798204Y-105778466D01*
X79736696Y-105684832D01*
X79643842Y-105622154D01*
X79534000Y-105600126D01*
X79134000Y-105600126D01*
X79027466Y-105620796D01*
X79009405Y-105632659D01*
X78993842Y-105622154D01*
X78884000Y-105600126D01*
X78484000Y-105600126D01*
X78377466Y-105620796D01*
X78359405Y-105632659D01*
X78343842Y-105622154D01*
X78234000Y-105600126D01*
X77834000Y-105600126D01*
X77727466Y-105620796D01*
X77707664Y-105633803D01*
X77639576Y-105605600D01*
X77553850Y-105605600D01*
X77484000Y-105675450D01*
X77484000Y-106282600D01*
X77549126Y-106282600D01*
X77549126Y-106587400D01*
X77484000Y-106587400D01*
X77484000Y-106607400D01*
X77284000Y-106607400D01*
X77284000Y-106587400D01*
X77284000Y-106282600D01*
X77284000Y-105675450D01*
X77214150Y-105605600D01*
X77128424Y-105605600D01*
X77025733Y-105648136D01*
X76947136Y-105726733D01*
X76904600Y-105829424D01*
X76904600Y-106212750D01*
X76974450Y-106282600D01*
X77284000Y-106282600D01*
X77284000Y-106587400D01*
X76974450Y-106587400D01*
X76904600Y-106657250D01*
X76904600Y-106710442D01*
X76568829Y-106374671D01*
X76428743Y-106281069D01*
X76263500Y-106248200D01*
X75874016Y-106248200D01*
X77334516Y-104787700D01*
X78561594Y-104787700D01*
X78688045Y-104914372D01*
X78902686Y-105003498D01*
X79135095Y-105003701D01*
X79349890Y-104914949D01*
X79514372Y-104750755D01*
X79603498Y-104536114D01*
X79603701Y-104303705D01*
X79514949Y-104088910D01*
X79350755Y-103924428D01*
X79136114Y-103835302D01*
X78903705Y-103835099D01*
X78688910Y-103923851D01*
X78561437Y-104051100D01*
X77181962Y-104051100D01*
X77041020Y-104079135D01*
X76921535Y-104158972D01*
X76676874Y-104403633D01*
X76676874Y-104070980D01*
X78492427Y-102255428D01*
X78492427Y-102255427D01*
X78545772Y-102175590D01*
X78572264Y-102135943D01*
X78572265Y-102135942D01*
X78594164Y-102025844D01*
X78658720Y-102025844D01*
X78765254Y-102005174D01*
X78858888Y-101943666D01*
X78921566Y-101850812D01*
X78943594Y-101740970D01*
X78943594Y-101342190D01*
X78922924Y-101235656D01*
X78861416Y-101142022D01*
X78786361Y-101091359D01*
X78816987Y-101078674D01*
X78895584Y-101000077D01*
X78938120Y-100897386D01*
X78938120Y-100811965D01*
X78938120Y-100472875D01*
X78938120Y-100387454D01*
X78895584Y-100284763D01*
X78816987Y-100206166D01*
X78714296Y-100163630D01*
X78603144Y-100163630D01*
X78578710Y-100163630D01*
X78508860Y-100233480D01*
X78508860Y-100542725D01*
X78868270Y-100542725D01*
X78938120Y-100472875D01*
X78938120Y-100811965D01*
X78868270Y-100742115D01*
X78508860Y-100742115D01*
X78508860Y-100814820D01*
X78209140Y-100814820D01*
X78209140Y-100742115D01*
X78209140Y-100542725D01*
X78209140Y-100233480D01*
X78139290Y-100163630D01*
X78114856Y-100163630D01*
X78003704Y-100163630D01*
X77901013Y-100206166D01*
X77822416Y-100284763D01*
X77779880Y-100387454D01*
X77779880Y-100472875D01*
X77849730Y-100542725D01*
X78209140Y-100542725D01*
X78209140Y-100742115D01*
X77849730Y-100742115D01*
X77779880Y-100811965D01*
X77779880Y-100897386D01*
X77822416Y-101000077D01*
X77901013Y-101078674D01*
X77932097Y-101091549D01*
X77859112Y-101139494D01*
X77796434Y-101232348D01*
X77774406Y-101342190D01*
X77774406Y-101740970D01*
X77795076Y-101847504D01*
X77820277Y-101885867D01*
X76156019Y-103550126D01*
X74992000Y-103550126D01*
X74885466Y-103570796D01*
X74791832Y-103632304D01*
X74729154Y-103725158D01*
X74707126Y-103835000D01*
X74707126Y-104785000D01*
X74727796Y-104891534D01*
X74789304Y-104985168D01*
X74815700Y-105002985D01*
X74815700Y-105638446D01*
X74564875Y-105889270D01*
X74498594Y-105822989D01*
X74498594Y-105660190D01*
X74477924Y-105553656D01*
X74416416Y-105460022D01*
X74341361Y-105409359D01*
X74371987Y-105396674D01*
X74450584Y-105318077D01*
X74493120Y-105215386D01*
X74493120Y-105129965D01*
X74493120Y-104790875D01*
X74493120Y-104705454D01*
X74450584Y-104602763D01*
X74371987Y-104524166D01*
X74269296Y-104481630D01*
X74158144Y-104481630D01*
X74133710Y-104481630D01*
X74063860Y-104551480D01*
X74063860Y-104860725D01*
X74423270Y-104860725D01*
X74493120Y-104790875D01*
X74493120Y-105129965D01*
X74423270Y-105060115D01*
X74063860Y-105060115D01*
X74063860Y-105132820D01*
X73764140Y-105132820D01*
X73764140Y-105060115D01*
X73404730Y-105060115D01*
X73334880Y-105129965D01*
X73334880Y-105172589D01*
X73273416Y-105079022D01*
X73198361Y-105028359D01*
X73228987Y-105015674D01*
X73307584Y-104937077D01*
X73350120Y-104834386D01*
X73350120Y-104806115D01*
X73404730Y-104860725D01*
X73764140Y-104860725D01*
X73764140Y-104551480D01*
X73694290Y-104481630D01*
X73669856Y-104481630D01*
X73558704Y-104481630D01*
X73456013Y-104524166D01*
X73377416Y-104602763D01*
X73350120Y-104668661D01*
X73350120Y-104409875D01*
X73350120Y-104324454D01*
X73307584Y-104221763D01*
X73228987Y-104143166D01*
X73126296Y-104100630D01*
X73015144Y-104100630D01*
X72990710Y-104100630D01*
X72920860Y-104170480D01*
X72920860Y-104479725D01*
X73280270Y-104479725D01*
X73350120Y-104409875D01*
X73350120Y-104668661D01*
X73334880Y-104705454D01*
X73334880Y-104733725D01*
X73280270Y-104679115D01*
X72920860Y-104679115D01*
X72920860Y-104751820D01*
X72621140Y-104751820D01*
X72621140Y-104679115D01*
X72621140Y-104479725D01*
X72621140Y-104170480D01*
X72551290Y-104100630D01*
X72526856Y-104100630D01*
X72415704Y-104100630D01*
X72313013Y-104143166D01*
X72234416Y-104221763D01*
X72199500Y-104306057D01*
X72164584Y-104221763D01*
X72085987Y-104143166D01*
X71983296Y-104100630D01*
X71872144Y-104100630D01*
X71847710Y-104100630D01*
X71777860Y-104170480D01*
X71777860Y-104479725D01*
X72137270Y-104479725D01*
X72199500Y-104417495D01*
X72261730Y-104479725D01*
X72621140Y-104479725D01*
X72621140Y-104679115D01*
X72261730Y-104679115D01*
X72199500Y-104741345D01*
X72137270Y-104679115D01*
X71777860Y-104679115D01*
X71777860Y-104751820D01*
X71478140Y-104751820D01*
X71478140Y-104679115D01*
X71478140Y-104479725D01*
X71478140Y-104170480D01*
X71408290Y-104100630D01*
X71383856Y-104100630D01*
X71272704Y-104100630D01*
X71170013Y-104143166D01*
X71091416Y-104221763D01*
X71048880Y-104324454D01*
X71048880Y-104409875D01*
X71118730Y-104479725D01*
X71478140Y-104479725D01*
X71478140Y-104679115D01*
X71118730Y-104679115D01*
X71048880Y-104748965D01*
X71048880Y-104834386D01*
X71091416Y-104937077D01*
X71170013Y-105015674D01*
X71201097Y-105028549D01*
X71128112Y-105076494D01*
X71065434Y-105169348D01*
X71043406Y-105279190D01*
X71043406Y-105677970D01*
X71047333Y-105698214D01*
X71029052Y-105710224D01*
X70966374Y-105803078D01*
X70944346Y-105912920D01*
X70944346Y-106710480D01*
X70965016Y-106817014D01*
X71026524Y-106910648D01*
X71119378Y-106973326D01*
X71229220Y-106995354D01*
X72026780Y-106995354D01*
X72133314Y-106974684D01*
X72199743Y-106931046D01*
X72262378Y-106973326D01*
X72372220Y-106995354D01*
X73169780Y-106995354D01*
X73276314Y-106974684D01*
X73369948Y-106913176D01*
X73432626Y-106820322D01*
X73454654Y-106710480D01*
X73454654Y-106288210D01*
X73504438Y-106321816D01*
X73614280Y-106343844D01*
X73977739Y-106343844D01*
X74044020Y-106410124D01*
X73399573Y-107054573D01*
X73319735Y-107174057D01*
X73319438Y-107175550D01*
X73319437Y-107175550D01*
X73279622Y-107148674D01*
X73169780Y-107126646D01*
X72372220Y-107126646D01*
X72265686Y-107147316D01*
X72199256Y-107190953D01*
X72136622Y-107148674D01*
X72026780Y-107126646D01*
X71229220Y-107126646D01*
X71189420Y-107134368D01*
X71077963Y-107022715D01*
X70863322Y-106933589D01*
X70630913Y-106933386D01*
X70469838Y-106999940D01*
X70311685Y-106841510D01*
X70097044Y-106752384D01*
X70057756Y-106752349D01*
X70103144Y-106733596D01*
X70267626Y-106569402D01*
X70356752Y-106354761D01*
X70356955Y-106122352D01*
X70268203Y-105907557D01*
X70104009Y-105743075D01*
X69889368Y-105653949D01*
X69656959Y-105653746D01*
X69442164Y-105742498D01*
X69277682Y-105906692D01*
X69235385Y-106008554D01*
X69169460Y-105849003D01*
X69005266Y-105684521D01*
X68830197Y-105611826D01*
X68833898Y-105602914D01*
X68834101Y-105370505D01*
X68745349Y-105155710D01*
X68581155Y-104991228D01*
X68366514Y-104902102D01*
X68134105Y-104901899D01*
X67919310Y-104990651D01*
X67830690Y-105079115D01*
X67830690Y-104701330D01*
X67802655Y-104560388D01*
X67802654Y-104560387D01*
X67791913Y-104544312D01*
X67899280Y-104565844D01*
X68498720Y-104565844D01*
X68605254Y-104545174D01*
X68698888Y-104483666D01*
X68721694Y-104449880D01*
X69432170Y-104449880D01*
X69432170Y-104449879D01*
X69549729Y-104426496D01*
X69573112Y-104421845D01*
X69573113Y-104421845D01*
X69692597Y-104342007D01*
X70326010Y-103708594D01*
X70488810Y-103708594D01*
X70595344Y-103687924D01*
X70688978Y-103626416D01*
X70739240Y-103551954D01*
X70786494Y-103623888D01*
X70879348Y-103686566D01*
X70989190Y-103708594D01*
X71387970Y-103708594D01*
X71494504Y-103687924D01*
X71588138Y-103626416D01*
X71650816Y-103533562D01*
X71659090Y-103492300D01*
X72136000Y-103492300D01*
X72136000Y-103492299D01*
X72253559Y-103468916D01*
X72276942Y-103464265D01*
X72276943Y-103464265D01*
X72396427Y-103384427D01*
X73412427Y-102368427D01*
X73492265Y-102248943D01*
X73492265Y-102248942D01*
X73496916Y-102225559D01*
X73520299Y-102108000D01*
X73520300Y-102108000D01*
X73520300Y-101092000D01*
X73492265Y-100951058D01*
X73412428Y-100831573D01*
X73096669Y-100515815D01*
X73113774Y-100474624D01*
X73114025Y-100186639D01*
X73004050Y-99920479D01*
X72800592Y-99716665D01*
X72687246Y-99669600D01*
X74710214Y-99669600D01*
X74707126Y-99685000D01*
X74707126Y-100635000D01*
X74727796Y-100741534D01*
X74789304Y-100835168D01*
X74882158Y-100897846D01*
X74992000Y-100919874D01*
X75323700Y-100919874D01*
X75323700Y-101904194D01*
X75197028Y-102030645D01*
X75107902Y-102245286D01*
X75107699Y-102477695D01*
X75196451Y-102692490D01*
X75360645Y-102856972D01*
X75575286Y-102946098D01*
X75807695Y-102946301D01*
X76022490Y-102857549D01*
X76186972Y-102693355D01*
X76276098Y-102478714D01*
X76276301Y-102246305D01*
X76187549Y-102031510D01*
X76060300Y-101904037D01*
X76060300Y-100919874D01*
X76392000Y-100919874D01*
X76498534Y-100899204D01*
X76592168Y-100837696D01*
X76654846Y-100744842D01*
X76676874Y-100635000D01*
X76676874Y-99685000D01*
X76673886Y-99669600D01*
X80335424Y-99669600D01*
X80232733Y-99712136D01*
X80154136Y-99790733D01*
X80111600Y-99893424D01*
X80111600Y-100004576D01*
X80111600Y-100742750D01*
X80181450Y-100812600D01*
X81254600Y-100812600D01*
X81254600Y-99739450D01*
X81184750Y-99669600D01*
X81629250Y-99669600D01*
X81559400Y-99739450D01*
X81559400Y-100812600D01*
X81579400Y-100812600D01*
X81579400Y-101117400D01*
X81559400Y-101117400D01*
X81559400Y-102190550D01*
X81603850Y-102235000D01*
X81559400Y-102279450D01*
X81559400Y-103352600D01*
X81579400Y-103352600D01*
X81579400Y-103657400D01*
X81559400Y-103657400D01*
X81559400Y-104730550D01*
X81629250Y-104800400D01*
X82478576Y-104800400D01*
X82581267Y-104757864D01*
X82659864Y-104679267D01*
X82702400Y-104576576D01*
X82702400Y-104465424D01*
X82702400Y-103887974D01*
X82724828Y-104000728D01*
X83005636Y-104420986D01*
X83319620Y-104630783D01*
X83319620Y-105336348D01*
G36*
X86857154Y-116192300D02*
X86779008Y-116270310D01*
X86671125Y-116530120D01*
X84582000Y-116530120D01*
X84481670Y-116530120D01*
X84342949Y-116530120D01*
X84322416Y-116498862D01*
X84229562Y-116436184D01*
X84119720Y-116414156D01*
X83520280Y-116414156D01*
X83413746Y-116434826D01*
X83320112Y-116496334D01*
X83297305Y-116530120D01*
X82003968Y-116530120D01*
X82004021Y-116470305D01*
X81915269Y-116255510D01*
X81751075Y-116091028D01*
X81536434Y-116001902D01*
X81304025Y-116001699D01*
X81089230Y-116090451D01*
X80924748Y-116254645D01*
X80835622Y-116469286D01*
X80835419Y-116701695D01*
X80924171Y-116916490D01*
X81088365Y-117080972D01*
X81303006Y-117170098D01*
X81488792Y-117170260D01*
X81591198Y-117238685D01*
X81732140Y-117266720D01*
X83297050Y-117266720D01*
X83317584Y-117297978D01*
X83392045Y-117348240D01*
X83320112Y-117395494D01*
X83257434Y-117488348D01*
X83235406Y-117598190D01*
X83235406Y-117906844D01*
X83069305Y-117906699D01*
X82854510Y-117995451D01*
X82690028Y-118159645D01*
X82600902Y-118374286D01*
X82600744Y-118554401D01*
X82118676Y-119036470D01*
X78574900Y-119036470D01*
X78574900Y-118356076D01*
X78574900Y-118205250D01*
X78505050Y-118135400D01*
X77876400Y-118135400D01*
X77876400Y-118510050D01*
X77946250Y-118579900D01*
X78239924Y-118579900D01*
X78351076Y-118579900D01*
X78453767Y-118537364D01*
X78532364Y-118458767D01*
X78574900Y-118356076D01*
X78574900Y-119036470D01*
X77139799Y-119036470D01*
X77139799Y-118579900D01*
X77208076Y-118579900D01*
X77501750Y-118579900D01*
X77571600Y-118510050D01*
X77571600Y-118135400D01*
X77551600Y-118135400D01*
X77551600Y-117830600D01*
X77571600Y-117830600D01*
X77571600Y-117810600D01*
X77876400Y-117810600D01*
X77876400Y-117830600D01*
X78505050Y-117830600D01*
X78574900Y-117760750D01*
X78574900Y-117609924D01*
X78532364Y-117507233D01*
X78453767Y-117428636D01*
X78351076Y-117386100D01*
X78239924Y-117386100D01*
X78235271Y-117386100D01*
X78308098Y-117210714D01*
X78308230Y-117058903D01*
X78402034Y-117040704D01*
X78418568Y-117029842D01*
X78572588Y-117093796D01*
X78804997Y-117093999D01*
X79019792Y-117005247D01*
X79184274Y-116841053D01*
X79273400Y-116626412D01*
X79273603Y-116394003D01*
X79184851Y-116179208D01*
X79020657Y-116014726D01*
X78806016Y-115925600D01*
X78605380Y-115925424D01*
X78605380Y-115897651D01*
X78635816Y-115852562D01*
X78657844Y-115742720D01*
X78657844Y-115201737D01*
X79177128Y-115201737D01*
X79206815Y-115231424D01*
X79206816Y-115231424D01*
X79326300Y-115311262D01*
X79326301Y-115311262D01*
X79349683Y-115315913D01*
X79433860Y-115332656D01*
X79433861Y-115332657D01*
X79566940Y-115465969D01*
X79781581Y-115555095D01*
X80013990Y-115555298D01*
X80228785Y-115466546D01*
X80393267Y-115302352D01*
X80482393Y-115087711D01*
X80482596Y-114855302D01*
X80446432Y-114767780D01*
X82496945Y-114767780D01*
X83108875Y-115379710D01*
X83108719Y-115558695D01*
X83197471Y-115773490D01*
X83361665Y-115937972D01*
X83576306Y-116027098D01*
X83808715Y-116027301D01*
X84023510Y-115938549D01*
X84187992Y-115774355D01*
X84255519Y-115611730D01*
X84338286Y-115646098D01*
X84518400Y-115646255D01*
X84956573Y-116084428D01*
X85076058Y-116164265D01*
X85217000Y-116192300D01*
X86857154Y-116192300D01*
X86857154Y-116192300D01*
G37*
X86857154Y-116192300D02*
X86779008Y-116270310D01*
X86671125Y-116530120D01*
X84582000Y-116530120D01*
X84481670Y-116530120D01*
X84342949Y-116530120D01*
X84322416Y-116498862D01*
X84229562Y-116436184D01*
X84119720Y-116414156D01*
X83520280Y-116414156D01*
X83413746Y-116434826D01*
X83320112Y-116496334D01*
X83297305Y-116530120D01*
X82003968Y-116530120D01*
X82004021Y-116470305D01*
X81915269Y-116255510D01*
X81751075Y-116091028D01*
X81536434Y-116001902D01*
X81304025Y-116001699D01*
X81089230Y-116090451D01*
X80924748Y-116254645D01*
X80835622Y-116469286D01*
X80835419Y-116701695D01*
X80924171Y-116916490D01*
X81088365Y-117080972D01*
X81303006Y-117170098D01*
X81488792Y-117170260D01*
X81591198Y-117238685D01*
X81732140Y-117266720D01*
X83297050Y-117266720D01*
X83317584Y-117297978D01*
X83392045Y-117348240D01*
X83320112Y-117395494D01*
X83257434Y-117488348D01*
X83235406Y-117598190D01*
X83235406Y-117906844D01*
X83069305Y-117906699D01*
X82854510Y-117995451D01*
X82690028Y-118159645D01*
X82600902Y-118374286D01*
X82600744Y-118554401D01*
X82118676Y-119036470D01*
X78574900Y-119036470D01*
X78574900Y-118356076D01*
X78574900Y-118205250D01*
X78505050Y-118135400D01*
X77876400Y-118135400D01*
X77876400Y-118510050D01*
X77946250Y-118579900D01*
X78239924Y-118579900D01*
X78351076Y-118579900D01*
X78453767Y-118537364D01*
X78532364Y-118458767D01*
X78574900Y-118356076D01*
X78574900Y-119036470D01*
X77139799Y-119036470D01*
X77139799Y-118579900D01*
X77208076Y-118579900D01*
X77501750Y-118579900D01*
X77571600Y-118510050D01*
X77571600Y-118135400D01*
X77551600Y-118135400D01*
X77551600Y-117830600D01*
X77571600Y-117830600D01*
X77571600Y-117810600D01*
X77876400Y-117810600D01*
X77876400Y-117830600D01*
X78505050Y-117830600D01*
X78574900Y-117760750D01*
X78574900Y-117609924D01*
X78532364Y-117507233D01*
X78453767Y-117428636D01*
X78351076Y-117386100D01*
X78239924Y-117386100D01*
X78235271Y-117386100D01*
X78308098Y-117210714D01*
X78308230Y-117058903D01*
X78402034Y-117040704D01*
X78418568Y-117029842D01*
X78572588Y-117093796D01*
X78804997Y-117093999D01*
X79019792Y-117005247D01*
X79184274Y-116841053D01*
X79273400Y-116626412D01*
X79273603Y-116394003D01*
X79184851Y-116179208D01*
X79020657Y-116014726D01*
X78806016Y-115925600D01*
X78605380Y-115925424D01*
X78605380Y-115897651D01*
X78635816Y-115852562D01*
X78657844Y-115742720D01*
X78657844Y-115201737D01*
X79177128Y-115201737D01*
X79206815Y-115231424D01*
X79206816Y-115231424D01*
X79326300Y-115311262D01*
X79326301Y-115311262D01*
X79349683Y-115315913D01*
X79433860Y-115332656D01*
X79433861Y-115332657D01*
X79566940Y-115465969D01*
X79781581Y-115555095D01*
X80013990Y-115555298D01*
X80228785Y-115466546D01*
X80393267Y-115302352D01*
X80482393Y-115087711D01*
X80482596Y-114855302D01*
X80446432Y-114767780D01*
X82496945Y-114767780D01*
X83108875Y-115379710D01*
X83108719Y-115558695D01*
X83197471Y-115773490D01*
X83361665Y-115937972D01*
X83576306Y-116027098D01*
X83808715Y-116027301D01*
X84023510Y-115938549D01*
X84187992Y-115774355D01*
X84255519Y-115611730D01*
X84338286Y-115646098D01*
X84518400Y-115646255D01*
X84956573Y-116084428D01*
X85076058Y-116164265D01*
X85217000Y-116192300D01*
X86857154Y-116192300D01*
G36*
X89446079Y-121983500D02*
X89412514Y-122005928D01*
X89283122Y-122199576D01*
X89237686Y-122428000D01*
X89263810Y-122559335D01*
X89147573Y-122675573D01*
X89067735Y-122795057D01*
X89063083Y-122818440D01*
X89039700Y-122936000D01*
X89039700Y-123997164D01*
X88634182Y-124402681D01*
X88606366Y-124151059D01*
X88538849Y-123988059D01*
X88403842Y-123901684D01*
X88188316Y-124117210D01*
X88188316Y-123686158D01*
X88101941Y-123551151D01*
X87718215Y-123439729D01*
X87321059Y-123483634D01*
X87158059Y-123551151D01*
X87071684Y-123686158D01*
X87630000Y-124244474D01*
X88188316Y-123686158D01*
X88188316Y-124117210D01*
X87845526Y-124460000D01*
X87859668Y-124474142D01*
X87644142Y-124689668D01*
X87630000Y-124675526D01*
X87615857Y-124689668D01*
X87400331Y-124474142D01*
X87414474Y-124460000D01*
X86856158Y-123901684D01*
X86721151Y-123988059D01*
X86609729Y-124371785D01*
X86611569Y-124388433D01*
X86360000Y-124136863D01*
X86360000Y-123068078D01*
X86331965Y-122927136D01*
X86331964Y-122927135D01*
X86305472Y-122887488D01*
X86252127Y-122807651D01*
X86252127Y-122807650D01*
X84196075Y-120751599D01*
X84670744Y-120751599D01*
X84759855Y-120840709D01*
X84759699Y-121019695D01*
X84848451Y-121234490D01*
X85012645Y-121398972D01*
X85227286Y-121488098D01*
X85459695Y-121488301D01*
X85674490Y-121399549D01*
X85838972Y-121235355D01*
X85876365Y-121145300D01*
X86984376Y-121145300D01*
X86779008Y-121350310D01*
X86625775Y-121719336D01*
X86625426Y-122118911D01*
X86778015Y-122488203D01*
X87060310Y-122770992D01*
X87429336Y-122924225D01*
X87828911Y-122924574D01*
X88198203Y-122771985D01*
X88480992Y-122489690D01*
X88634225Y-122120664D01*
X88634574Y-121721089D01*
X88481985Y-121351797D01*
X88275848Y-121145300D01*
X88366445Y-121145300D01*
X89020573Y-121799428D01*
X89140058Y-121879265D01*
X89281000Y-121907300D01*
X89376584Y-121907300D01*
X89412514Y-121961072D01*
X89446079Y-121983500D01*
X89446079Y-121983500D01*
G37*
X89446079Y-121983500D02*
X89412514Y-122005928D01*
X89283122Y-122199576D01*
X89237686Y-122428000D01*
X89263810Y-122559335D01*
X89147573Y-122675573D01*
X89067735Y-122795057D01*
X89063083Y-122818440D01*
X89039700Y-122936000D01*
X89039700Y-123997164D01*
X88634182Y-124402681D01*
X88606366Y-124151059D01*
X88538849Y-123988059D01*
X88403842Y-123901684D01*
X88188316Y-124117210D01*
X88188316Y-123686158D01*
X88101941Y-123551151D01*
X87718215Y-123439729D01*
X87321059Y-123483634D01*
X87158059Y-123551151D01*
X87071684Y-123686158D01*
X87630000Y-124244474D01*
X88188316Y-123686158D01*
X88188316Y-124117210D01*
X87845526Y-124460000D01*
X87859668Y-124474142D01*
X87644142Y-124689668D01*
X87630000Y-124675526D01*
X87615857Y-124689668D01*
X87400331Y-124474142D01*
X87414474Y-124460000D01*
X86856158Y-123901684D01*
X86721151Y-123988059D01*
X86609729Y-124371785D01*
X86611569Y-124388433D01*
X86360000Y-124136863D01*
X86360000Y-123068078D01*
X86331965Y-122927136D01*
X86331964Y-122927135D01*
X86305472Y-122887488D01*
X86252127Y-122807651D01*
X86252127Y-122807650D01*
X84196075Y-120751599D01*
X84670744Y-120751599D01*
X84759855Y-120840709D01*
X84759699Y-121019695D01*
X84848451Y-121234490D01*
X85012645Y-121398972D01*
X85227286Y-121488098D01*
X85459695Y-121488301D01*
X85674490Y-121399549D01*
X85838972Y-121235355D01*
X85876365Y-121145300D01*
X86984376Y-121145300D01*
X86779008Y-121350310D01*
X86625775Y-121719336D01*
X86625426Y-122118911D01*
X86778015Y-122488203D01*
X87060310Y-122770992D01*
X87429336Y-122924225D01*
X87828911Y-122924574D01*
X88198203Y-122771985D01*
X88480992Y-122489690D01*
X88634225Y-122120664D01*
X88634574Y-121721089D01*
X88481985Y-121351797D01*
X88275848Y-121145300D01*
X88366445Y-121145300D01*
X89020573Y-121799428D01*
X89140058Y-121879265D01*
X89281000Y-121907300D01*
X89376584Y-121907300D01*
X89412514Y-121961072D01*
X89446079Y-121983500D01*
G36*
X89840600Y-101371400D02*
X89347965Y-101371400D01*
X89306329Y-101459805D01*
X89322665Y-101533309D01*
X89442024Y-101666209D01*
X89412514Y-101685928D01*
X89371769Y-101746906D01*
X89290440Y-101763083D01*
X89267057Y-101767735D01*
X89147572Y-101847573D01*
X88893573Y-102101573D01*
X88813735Y-102221057D01*
X88809083Y-102244440D01*
X88785700Y-102362000D01*
X88785700Y-103251000D01*
X88809083Y-103368559D01*
X88813735Y-103391943D01*
X88893573Y-103511427D01*
X89547700Y-104165554D01*
X89547700Y-104521000D01*
X89547700Y-105206194D01*
X89458037Y-105295700D01*
X89328954Y-105295700D01*
X89188012Y-105323735D01*
X89068527Y-105403572D01*
X88634574Y-105837525D01*
X88634574Y-103941089D01*
X88634574Y-101401089D01*
X88481985Y-101031797D01*
X88199690Y-100749008D01*
X87830664Y-100595775D01*
X87431089Y-100595426D01*
X87061797Y-100748015D01*
X86779008Y-101030310D01*
X86625775Y-101399336D01*
X86625426Y-101798911D01*
X86778015Y-102168203D01*
X87060310Y-102450992D01*
X87429336Y-102604225D01*
X87828911Y-102604574D01*
X88198203Y-102451985D01*
X88480992Y-102169690D01*
X88634225Y-101800664D01*
X88634574Y-101401089D01*
X88634574Y-103941089D01*
X88481985Y-103571797D01*
X88199690Y-103289008D01*
X87830664Y-103135775D01*
X87431089Y-103135426D01*
X87061797Y-103288015D01*
X86779008Y-103570310D01*
X86625775Y-103939336D01*
X86625426Y-104338911D01*
X86778015Y-104708203D01*
X87060310Y-104990992D01*
X87429336Y-105144225D01*
X87828911Y-105144574D01*
X88198203Y-104991985D01*
X88480992Y-104709690D01*
X88634225Y-104340664D01*
X88634574Y-103941089D01*
X88634574Y-105837525D01*
X88421197Y-106050902D01*
X88199690Y-105829008D01*
X87830664Y-105675775D01*
X87431089Y-105675426D01*
X87061797Y-105828015D01*
X86779008Y-106110310D01*
X86625775Y-106479336D01*
X86625426Y-106878911D01*
X86778015Y-107248203D01*
X86870043Y-107340392D01*
X86870043Y-107340393D01*
X86763964Y-107411273D01*
X84416900Y-109758337D01*
X84416900Y-109735924D01*
X84416900Y-109442250D01*
X84347050Y-109372400D01*
X83972400Y-109372400D01*
X83972400Y-110001050D01*
X84042250Y-110070900D01*
X84104337Y-110070900D01*
X83667600Y-110507637D01*
X83667600Y-110001050D01*
X83667600Y-109372400D01*
X83292950Y-109372400D01*
X83223100Y-109442250D01*
X83223100Y-109735924D01*
X83223100Y-109847076D01*
X83265636Y-109949767D01*
X83344233Y-110028364D01*
X83446924Y-110070900D01*
X83597750Y-110070900D01*
X83667600Y-110001050D01*
X83667600Y-110507637D01*
X83545538Y-110629699D01*
X83083553Y-110629699D01*
X82774110Y-110320256D01*
X82727800Y-110208176D01*
X82727800Y-110050602D01*
X82813668Y-109994196D01*
X82876346Y-109901342D01*
X82898374Y-109791500D01*
X82898374Y-108648500D01*
X82877704Y-108541966D01*
X82852370Y-108503400D01*
X82857150Y-108503400D01*
X82897942Y-108462607D01*
X82916685Y-108470371D01*
X82938868Y-108485446D01*
X82968215Y-108491715D01*
X82996424Y-108503400D01*
X83007150Y-108503400D01*
X83009924Y-108500625D01*
X83048425Y-108508851D01*
X83135898Y-108492448D01*
X83146850Y-108503400D01*
X83196850Y-108503400D01*
X83207576Y-108503400D01*
X83284213Y-108471655D01*
X83265636Y-108490233D01*
X83223100Y-108592924D01*
X83223100Y-108704076D01*
X83223100Y-108997750D01*
X83292950Y-109067600D01*
X83667600Y-109067600D01*
X83667600Y-108438950D01*
X83606322Y-108377672D01*
X83651725Y-108332270D01*
X83651725Y-107972860D01*
X83579020Y-107972860D01*
X83579020Y-107673140D01*
X83651725Y-107673140D01*
X83651725Y-107650600D01*
X83851115Y-107650600D01*
X83851115Y-107673140D01*
X83923820Y-107673140D01*
X83923820Y-107972860D01*
X83851115Y-107972860D01*
X83851115Y-108332270D01*
X83920965Y-108402120D01*
X84006386Y-108402120D01*
X84011241Y-108400108D01*
X83972400Y-108438950D01*
X83972400Y-109067600D01*
X84347050Y-109067600D01*
X84416900Y-108997750D01*
X84416900Y-108704076D01*
X84416900Y-108592924D01*
X84374364Y-108490233D01*
X84295767Y-108411636D01*
X84193076Y-108369100D01*
X84086103Y-108369100D01*
X84109077Y-108359584D01*
X84187674Y-108280987D01*
X84200549Y-108249902D01*
X84248494Y-108322888D01*
X84341348Y-108385566D01*
X84451190Y-108407594D01*
X84849970Y-108407594D01*
X84956504Y-108386924D01*
X85050138Y-108325416D01*
X85112816Y-108232562D01*
X85134844Y-108122720D01*
X85134844Y-107523280D01*
X85114174Y-107416746D01*
X85082380Y-107368345D01*
X85082380Y-107261651D01*
X85112816Y-107216562D01*
X85134844Y-107106720D01*
X85134844Y-106507280D01*
X85114174Y-106400746D01*
X85082380Y-106352345D01*
X85082380Y-106245651D01*
X85112816Y-106200562D01*
X85134844Y-106090720D01*
X85134844Y-105556361D01*
X85203972Y-105487355D01*
X85293098Y-105272714D01*
X85293301Y-105040305D01*
X85204549Y-104825510D01*
X85040355Y-104661028D01*
X84825714Y-104571902D01*
X84662715Y-104571759D01*
X84888364Y-104420986D01*
X85169172Y-104000728D01*
X85267778Y-103505000D01*
X85169172Y-103009272D01*
X84888364Y-102589014D01*
X84468106Y-102308206D01*
X84378800Y-102290442D01*
X84378800Y-102179557D01*
X84468106Y-102161794D01*
X84888364Y-101880986D01*
X85169172Y-101460728D01*
X85267778Y-100965000D01*
X85169172Y-100469272D01*
X84888364Y-100049014D01*
X84468106Y-99768206D01*
X83972378Y-99669600D01*
X89840600Y-99669600D01*
X89840600Y-100622100D01*
X89700100Y-100622100D01*
X89483277Y-100725857D01*
X89322665Y-100904691D01*
X89306329Y-100978195D01*
X89347965Y-101066600D01*
X89840600Y-101066600D01*
X89840600Y-101371400D01*
X89840600Y-101371400D01*
G37*
X89840600Y-101371400D02*
X89347965Y-101371400D01*
X89306329Y-101459805D01*
X89322665Y-101533309D01*
X89442024Y-101666209D01*
X89412514Y-101685928D01*
X89371769Y-101746906D01*
X89290440Y-101763083D01*
X89267057Y-101767735D01*
X89147572Y-101847573D01*
X88893573Y-102101573D01*
X88813735Y-102221057D01*
X88809083Y-102244440D01*
X88785700Y-102362000D01*
X88785700Y-103251000D01*
X88809083Y-103368559D01*
X88813735Y-103391943D01*
X88893573Y-103511427D01*
X89547700Y-104165554D01*
X89547700Y-104521000D01*
X89547700Y-105206194D01*
X89458037Y-105295700D01*
X89328954Y-105295700D01*
X89188012Y-105323735D01*
X89068527Y-105403572D01*
X88634574Y-105837525D01*
X88634574Y-103941089D01*
X88634574Y-101401089D01*
X88481985Y-101031797D01*
X88199690Y-100749008D01*
X87830664Y-100595775D01*
X87431089Y-100595426D01*
X87061797Y-100748015D01*
X86779008Y-101030310D01*
X86625775Y-101399336D01*
X86625426Y-101798911D01*
X86778015Y-102168203D01*
X87060310Y-102450992D01*
X87429336Y-102604225D01*
X87828911Y-102604574D01*
X88198203Y-102451985D01*
X88480992Y-102169690D01*
X88634225Y-101800664D01*
X88634574Y-101401089D01*
X88634574Y-103941089D01*
X88481985Y-103571797D01*
X88199690Y-103289008D01*
X87830664Y-103135775D01*
X87431089Y-103135426D01*
X87061797Y-103288015D01*
X86779008Y-103570310D01*
X86625775Y-103939336D01*
X86625426Y-104338911D01*
X86778015Y-104708203D01*
X87060310Y-104990992D01*
X87429336Y-105144225D01*
X87828911Y-105144574D01*
X88198203Y-104991985D01*
X88480992Y-104709690D01*
X88634225Y-104340664D01*
X88634574Y-103941089D01*
X88634574Y-105837525D01*
X88421197Y-106050902D01*
X88199690Y-105829008D01*
X87830664Y-105675775D01*
X87431089Y-105675426D01*
X87061797Y-105828015D01*
X86779008Y-106110310D01*
X86625775Y-106479336D01*
X86625426Y-106878911D01*
X86778015Y-107248203D01*
X86870043Y-107340392D01*
X86870043Y-107340393D01*
X86763964Y-107411273D01*
X84416900Y-109758337D01*
X84416900Y-109735924D01*
X84416900Y-109442250D01*
X84347050Y-109372400D01*
X83972400Y-109372400D01*
X83972400Y-110001050D01*
X84042250Y-110070900D01*
X84104337Y-110070900D01*
X83667600Y-110507637D01*
X83667600Y-110001050D01*
X83667600Y-109372400D01*
X83292950Y-109372400D01*
X83223100Y-109442250D01*
X83223100Y-109735924D01*
X83223100Y-109847076D01*
X83265636Y-109949767D01*
X83344233Y-110028364D01*
X83446924Y-110070900D01*
X83597750Y-110070900D01*
X83667600Y-110001050D01*
X83667600Y-110507637D01*
X83545538Y-110629699D01*
X83083553Y-110629699D01*
X82774110Y-110320256D01*
X82727800Y-110208176D01*
X82727800Y-110050602D01*
X82813668Y-109994196D01*
X82876346Y-109901342D01*
X82898374Y-109791500D01*
X82898374Y-108648500D01*
X82877704Y-108541966D01*
X82852370Y-108503400D01*
X82857150Y-108503400D01*
X82897942Y-108462607D01*
X82916685Y-108470371D01*
X82938868Y-108485446D01*
X82968215Y-108491715D01*
X82996424Y-108503400D01*
X83007150Y-108503400D01*
X83009924Y-108500625D01*
X83048425Y-108508851D01*
X83135898Y-108492448D01*
X83146850Y-108503400D01*
X83196850Y-108503400D01*
X83207576Y-108503400D01*
X83284213Y-108471655D01*
X83265636Y-108490233D01*
X83223100Y-108592924D01*
X83223100Y-108704076D01*
X83223100Y-108997750D01*
X83292950Y-109067600D01*
X83667600Y-109067600D01*
X83667600Y-108438950D01*
X83606322Y-108377672D01*
X83651725Y-108332270D01*
X83651725Y-107972860D01*
X83579020Y-107972860D01*
X83579020Y-107673140D01*
X83651725Y-107673140D01*
X83651725Y-107650600D01*
X83851115Y-107650600D01*
X83851115Y-107673140D01*
X83923820Y-107673140D01*
X83923820Y-107972860D01*
X83851115Y-107972860D01*
X83851115Y-108332270D01*
X83920965Y-108402120D01*
X84006386Y-108402120D01*
X84011241Y-108400108D01*
X83972400Y-108438950D01*
X83972400Y-109067600D01*
X84347050Y-109067600D01*
X84416900Y-108997750D01*
X84416900Y-108704076D01*
X84416900Y-108592924D01*
X84374364Y-108490233D01*
X84295767Y-108411636D01*
X84193076Y-108369100D01*
X84086103Y-108369100D01*
X84109077Y-108359584D01*
X84187674Y-108280987D01*
X84200549Y-108249902D01*
X84248494Y-108322888D01*
X84341348Y-108385566D01*
X84451190Y-108407594D01*
X84849970Y-108407594D01*
X84956504Y-108386924D01*
X85050138Y-108325416D01*
X85112816Y-108232562D01*
X85134844Y-108122720D01*
X85134844Y-107523280D01*
X85114174Y-107416746D01*
X85082380Y-107368345D01*
X85082380Y-107261651D01*
X85112816Y-107216562D01*
X85134844Y-107106720D01*
X85134844Y-106507280D01*
X85114174Y-106400746D01*
X85082380Y-106352345D01*
X85082380Y-106245651D01*
X85112816Y-106200562D01*
X85134844Y-106090720D01*
X85134844Y-105556361D01*
X85203972Y-105487355D01*
X85293098Y-105272714D01*
X85293301Y-105040305D01*
X85204549Y-104825510D01*
X85040355Y-104661028D01*
X84825714Y-104571902D01*
X84662715Y-104571759D01*
X84888364Y-104420986D01*
X85169172Y-104000728D01*
X85267778Y-103505000D01*
X85169172Y-103009272D01*
X84888364Y-102589014D01*
X84468106Y-102308206D01*
X84378800Y-102290442D01*
X84378800Y-102179557D01*
X84468106Y-102161794D01*
X84888364Y-101880986D01*
X85169172Y-101460728D01*
X85267778Y-100965000D01*
X85169172Y-100469272D01*
X84888364Y-100049014D01*
X84468106Y-99768206D01*
X83972378Y-99669600D01*
X89840600Y-99669600D01*
X89840600Y-100622100D01*
X89700100Y-100622100D01*
X89483277Y-100725857D01*
X89322665Y-100904691D01*
X89306329Y-100978195D01*
X89347965Y-101066600D01*
X89840600Y-101066600D01*
X89840600Y-101371400D01*
G36*
X89914720Y-107456134D02*
X89900099Y-107491433D01*
X89846929Y-107758737D01*
X89846929Y-107791181D01*
X89840600Y-107823000D01*
X89840600Y-108115100D01*
X89700100Y-108115100D01*
X89483277Y-108218857D01*
X89322665Y-108397691D01*
X89306329Y-108471195D01*
X89347965Y-108559600D01*
X89840600Y-108559600D01*
X89840600Y-108864400D01*
X89347965Y-108864400D01*
X89306329Y-108952805D01*
X89322665Y-109026309D01*
X89442024Y-109159209D01*
X89412514Y-109178928D01*
X89283122Y-109372576D01*
X89237686Y-109601000D01*
X89283122Y-109829424D01*
X89412514Y-110023072D01*
X89446079Y-110045500D01*
X89412514Y-110067928D01*
X89283122Y-110261576D01*
X89237686Y-110490000D01*
X89253274Y-110568370D01*
X88639573Y-111182073D01*
X88559735Y-111301557D01*
X88555083Y-111324940D01*
X88549207Y-111354485D01*
X88481985Y-111191797D01*
X88199690Y-110909008D01*
X87830664Y-110755775D01*
X87431089Y-110755426D01*
X87061797Y-110908015D01*
X86779008Y-111190310D01*
X86695383Y-111391700D01*
X86476316Y-111391700D01*
X86340029Y-111255413D01*
X86220545Y-111175575D01*
X86197161Y-111170923D01*
X86079602Y-111147540D01*
X85842313Y-111147540D01*
X86676555Y-110313299D01*
X86905001Y-110313299D01*
X86905001Y-110313298D01*
X87022560Y-110289915D01*
X87045943Y-110285264D01*
X87045944Y-110285264D01*
X87165428Y-110205426D01*
X87229576Y-110141277D01*
X87429336Y-110224225D01*
X87828911Y-110224574D01*
X88198203Y-110071985D01*
X88480992Y-109789690D01*
X88634225Y-109420664D01*
X88634574Y-109021089D01*
X88551300Y-108819553D01*
X89914720Y-107456134D01*
X89914720Y-107456134D01*
G37*
X89914720Y-107456134D02*
X89900099Y-107491433D01*
X89846929Y-107758737D01*
X89846929Y-107791181D01*
X89840600Y-107823000D01*
X89840600Y-108115100D01*
X89700100Y-108115100D01*
X89483277Y-108218857D01*
X89322665Y-108397691D01*
X89306329Y-108471195D01*
X89347965Y-108559600D01*
X89840600Y-108559600D01*
X89840600Y-108864400D01*
X89347965Y-108864400D01*
X89306329Y-108952805D01*
X89322665Y-109026309D01*
X89442024Y-109159209D01*
X89412514Y-109178928D01*
X89283122Y-109372576D01*
X89237686Y-109601000D01*
X89283122Y-109829424D01*
X89412514Y-110023072D01*
X89446079Y-110045500D01*
X89412514Y-110067928D01*
X89283122Y-110261576D01*
X89237686Y-110490000D01*
X89253274Y-110568370D01*
X88639573Y-111182073D01*
X88559735Y-111301557D01*
X88555083Y-111324940D01*
X88549207Y-111354485D01*
X88481985Y-111191797D01*
X88199690Y-110909008D01*
X87830664Y-110755775D01*
X87431089Y-110755426D01*
X87061797Y-110908015D01*
X86779008Y-111190310D01*
X86695383Y-111391700D01*
X86476316Y-111391700D01*
X86340029Y-111255413D01*
X86220545Y-111175575D01*
X86197161Y-111170923D01*
X86079602Y-111147540D01*
X85842313Y-111147540D01*
X86676555Y-110313299D01*
X86905001Y-110313299D01*
X86905001Y-110313298D01*
X87022560Y-110289915D01*
X87045943Y-110285264D01*
X87045944Y-110285264D01*
X87165428Y-110205426D01*
X87229576Y-110141277D01*
X87429336Y-110224225D01*
X87828911Y-110224574D01*
X88198203Y-110071985D01*
X88480992Y-109789690D01*
X88634225Y-109420664D01*
X88634574Y-109021089D01*
X88551300Y-108819553D01*
X89914720Y-107456134D01*
G36*
X91986079Y-104965500D02*
X91952514Y-104987928D01*
X91823122Y-105181576D01*
X91777686Y-105410000D01*
X91793274Y-105488371D01*
X91350964Y-105930681D01*
X90437826Y-105930681D01*
X90500098Y-105780714D01*
X90500301Y-105548305D01*
X90411549Y-105333510D01*
X90284300Y-105206037D01*
X90284300Y-104521000D01*
X90284300Y-104394000D01*
X91744646Y-104394000D01*
X91793274Y-104442628D01*
X91777686Y-104521000D01*
X91823122Y-104749424D01*
X91952514Y-104943072D01*
X91986079Y-104965500D01*
X91986079Y-104965500D01*
G37*
X91986079Y-104965500D02*
X91952514Y-104987928D01*
X91823122Y-105181576D01*
X91777686Y-105410000D01*
X91793274Y-105488371D01*
X91350964Y-105930681D01*
X90437826Y-105930681D01*
X90500098Y-105780714D01*
X90500301Y-105548305D01*
X90411549Y-105333510D01*
X90284300Y-105206037D01*
X90284300Y-104521000D01*
X90284300Y-104394000D01*
X91744646Y-104394000D01*
X91793274Y-104442628D01*
X91777686Y-104521000D01*
X91823122Y-104749424D01*
X91952514Y-104943072D01*
X91986079Y-104965500D01*
G36*
X92380600Y-113944400D02*
X91887965Y-113944400D01*
X91846329Y-114032805D01*
X91862665Y-114106309D01*
X91982024Y-114239209D01*
X91952514Y-114258928D01*
X91823122Y-114452576D01*
X91777686Y-114681000D01*
X91823122Y-114909424D01*
X91952514Y-115103072D01*
X91986079Y-115125500D01*
X91952514Y-115147928D01*
X91823122Y-115341576D01*
X91777686Y-115570000D01*
X91793274Y-115648371D01*
X91699582Y-115742064D01*
X90608918Y-115742064D01*
X89922427Y-115055573D01*
X89802943Y-114975735D01*
X89779559Y-114971083D01*
X89662000Y-114947700D01*
X88402845Y-114947700D01*
X88480992Y-114869690D01*
X88634225Y-114500664D01*
X88634574Y-114101089D01*
X88481985Y-113731797D01*
X88256059Y-113505476D01*
X88488024Y-113505476D01*
X88488024Y-113505475D01*
X88605583Y-113482092D01*
X88628966Y-113477441D01*
X88628967Y-113477441D01*
X88748451Y-113397603D01*
X89438571Y-112707483D01*
X89606162Y-112819464D01*
X89834586Y-112864900D01*
X89840600Y-112864900D01*
X89840600Y-113030000D01*
X89846928Y-113061813D01*
X89846928Y-113094263D01*
X89890431Y-113312967D01*
X89939616Y-113431709D01*
X90063502Y-113617117D01*
X90154383Y-113707998D01*
X90339790Y-113831884D01*
X90339791Y-113831884D01*
X90388975Y-113852256D01*
X90458532Y-113881068D01*
X90458533Y-113881069D01*
X90677237Y-113924572D01*
X90805763Y-113924572D01*
X91024467Y-113881069D01*
X91143209Y-113831884D01*
X91328617Y-113707998D01*
X91419498Y-113617117D01*
X91543384Y-113431710D01*
X91543384Y-113431709D01*
X91563756Y-113382525D01*
X91592568Y-113312968D01*
X91592569Y-113312967D01*
X91636072Y-113094263D01*
X91676459Y-112891220D01*
X91755070Y-112773570D01*
X91872721Y-112694958D01*
X92011501Y-112667353D01*
X92150280Y-112694958D01*
X92267930Y-112773569D01*
X92346542Y-112891220D01*
X92380600Y-113062439D01*
X92380600Y-113195100D01*
X92240100Y-113195100D01*
X92023277Y-113298857D01*
X91862665Y-113477691D01*
X91846329Y-113551195D01*
X91887965Y-113639600D01*
X92380600Y-113639600D01*
X92380600Y-113944400D01*
X92380600Y-113944400D01*
G37*
X92380600Y-113944400D02*
X91887965Y-113944400D01*
X91846329Y-114032805D01*
X91862665Y-114106309D01*
X91982024Y-114239209D01*
X91952514Y-114258928D01*
X91823122Y-114452576D01*
X91777686Y-114681000D01*
X91823122Y-114909424D01*
X91952514Y-115103072D01*
X91986079Y-115125500D01*
X91952514Y-115147928D01*
X91823122Y-115341576D01*
X91777686Y-115570000D01*
X91793274Y-115648371D01*
X91699582Y-115742064D01*
X90608918Y-115742064D01*
X89922427Y-115055573D01*
X89802943Y-114975735D01*
X89779559Y-114971083D01*
X89662000Y-114947700D01*
X88402845Y-114947700D01*
X88480992Y-114869690D01*
X88634225Y-114500664D01*
X88634574Y-114101089D01*
X88481985Y-113731797D01*
X88256059Y-113505476D01*
X88488024Y-113505476D01*
X88488024Y-113505475D01*
X88605583Y-113482092D01*
X88628966Y-113477441D01*
X88628967Y-113477441D01*
X88748451Y-113397603D01*
X89438571Y-112707483D01*
X89606162Y-112819464D01*
X89834586Y-112864900D01*
X89840600Y-112864900D01*
X89840600Y-113030000D01*
X89846928Y-113061813D01*
X89846928Y-113094263D01*
X89890431Y-113312967D01*
X89939616Y-113431709D01*
X90063502Y-113617117D01*
X90154383Y-113707998D01*
X90339790Y-113831884D01*
X90339791Y-113831884D01*
X90388975Y-113852256D01*
X90458532Y-113881068D01*
X90458533Y-113881069D01*
X90677237Y-113924572D01*
X90805763Y-113924572D01*
X91024467Y-113881069D01*
X91143209Y-113831884D01*
X91328617Y-113707998D01*
X91419498Y-113617117D01*
X91543384Y-113431710D01*
X91543384Y-113431709D01*
X91563756Y-113382525D01*
X91592568Y-113312968D01*
X91592569Y-113312967D01*
X91636072Y-113094263D01*
X91676459Y-112891220D01*
X91755070Y-112773570D01*
X91872721Y-112694958D01*
X92011501Y-112667353D01*
X92150280Y-112694958D01*
X92267930Y-112773569D01*
X92346542Y-112891220D01*
X92380600Y-113062439D01*
X92380600Y-113195100D01*
X92240100Y-113195100D01*
X92023277Y-113298857D01*
X91862665Y-113477691D01*
X91846329Y-113551195D01*
X91887965Y-113639600D01*
X92380600Y-113639600D01*
X92380600Y-113944400D01*
G36*
X92380600Y-118331554D02*
X92356208Y-118454178D01*
X92305127Y-118530627D01*
X92228678Y-118581708D01*
X92138500Y-118599646D01*
X92048321Y-118581708D01*
X91971872Y-118530627D01*
X91920791Y-118454178D01*
X91890071Y-118299738D01*
X91890071Y-118299737D01*
X91890070Y-118299736D01*
X91836901Y-118032434D01*
X91836901Y-118032433D01*
X91787716Y-117913692D01*
X91787716Y-117913691D01*
X91787713Y-117913688D01*
X91636302Y-117687084D01*
X91636301Y-117687081D01*
X91545419Y-117596200D01*
X91318809Y-117444784D01*
X91200067Y-117395599D01*
X90932763Y-117342429D01*
X90804238Y-117342429D01*
X90804237Y-117342429D01*
X90804236Y-117342429D01*
X90536933Y-117395599D01*
X90418191Y-117444784D01*
X90418188Y-117444786D01*
X90191584Y-117596197D01*
X90191581Y-117596199D01*
X90100700Y-117687081D01*
X89949284Y-117913691D01*
X89900099Y-118032433D01*
X89851829Y-118275100D01*
X89700100Y-118275100D01*
X89483277Y-118378857D01*
X89322665Y-118557691D01*
X89306329Y-118631195D01*
X89347964Y-118719598D01*
X89255600Y-118719598D01*
X89255600Y-118793994D01*
X89145663Y-118684057D01*
X89230098Y-118480714D01*
X89230301Y-118248305D01*
X89141549Y-118033510D01*
X88977355Y-117869028D01*
X88832835Y-117809018D01*
X89433554Y-117208300D01*
X91541445Y-117208300D01*
X91801657Y-117468511D01*
X91823122Y-117576424D01*
X91952514Y-117770072D01*
X92146162Y-117899464D01*
X92374586Y-117944900D01*
X92380600Y-117944900D01*
X92380600Y-118331554D01*
X92380600Y-118331554D01*
G37*
X92380600Y-118331554D02*
X92356208Y-118454178D01*
X92305127Y-118530627D01*
X92228678Y-118581708D01*
X92138500Y-118599646D01*
X92048321Y-118581708D01*
X91971872Y-118530627D01*
X91920791Y-118454178D01*
X91890071Y-118299738D01*
X91890071Y-118299737D01*
X91890070Y-118299736D01*
X91836901Y-118032434D01*
X91836901Y-118032433D01*
X91787716Y-117913692D01*
X91787716Y-117913691D01*
X91787713Y-117913688D01*
X91636302Y-117687084D01*
X91636301Y-117687081D01*
X91545419Y-117596200D01*
X91318809Y-117444784D01*
X91200067Y-117395599D01*
X90932763Y-117342429D01*
X90804238Y-117342429D01*
X90804237Y-117342429D01*
X90804236Y-117342429D01*
X90536933Y-117395599D01*
X90418191Y-117444784D01*
X90418188Y-117444786D01*
X90191584Y-117596197D01*
X90191581Y-117596199D01*
X90100700Y-117687081D01*
X89949284Y-117913691D01*
X89900099Y-118032433D01*
X89851829Y-118275100D01*
X89700100Y-118275100D01*
X89483277Y-118378857D01*
X89322665Y-118557691D01*
X89306329Y-118631195D01*
X89347964Y-118719598D01*
X89255600Y-118719598D01*
X89255600Y-118793994D01*
X89145663Y-118684057D01*
X89230098Y-118480714D01*
X89230301Y-118248305D01*
X89141549Y-118033510D01*
X88977355Y-117869028D01*
X88832835Y-117809018D01*
X89433554Y-117208300D01*
X91541445Y-117208300D01*
X91801657Y-117468511D01*
X91823122Y-117576424D01*
X91952514Y-117770072D01*
X92146162Y-117899464D01*
X92374586Y-117944900D01*
X92380600Y-117944900D01*
X92380600Y-118331554D01*
G36*
X64919860Y-116281200D02*
X64620140Y-116281200D01*
X64620140Y-116047520D01*
X64620140Y-115981480D01*
X64620140Y-115773200D01*
X64919860Y-115773200D01*
X64919860Y-115981480D01*
X64919860Y-116047520D01*
X64919860Y-116281200D01*
X64919860Y-116281200D01*
G37*
X64919860Y-116281200D02*
X64620140Y-116281200D01*
X64620140Y-116047520D01*
X64620140Y-115981480D01*
X64620140Y-115773200D01*
X64919860Y-115773200D01*
X64919860Y-115981480D01*
X64919860Y-116047520D01*
X64919860Y-116281200D01*
G36*
X64919860Y-114528600D02*
X64620140Y-114528600D01*
X64620140Y-114396520D01*
X64620140Y-114330480D01*
X64620140Y-114122200D01*
X64919860Y-114122200D01*
X64919860Y-114330480D01*
X64919860Y-114396520D01*
X64919860Y-114528600D01*
X64919860Y-114528600D01*
G37*
X64919860Y-114528600D02*
X64620140Y-114528600D01*
X64620140Y-114396520D01*
X64620140Y-114330480D01*
X64620140Y-114122200D01*
X64919860Y-114122200D01*
X64919860Y-114330480D01*
X64919860Y-114396520D01*
X64919860Y-114528600D01*
M02*
