G04 #@! TF.FileFunction,Profile,NP*
%FSLAX46Y46*%
G04 Gerber Fmt 4.6, Leading zero omitted, Abs format (unit mm)*
G04 Created by KiCad (PCBNEW 0.201502161433+5424~21~ubuntu14.04.1-product) date Mon 16 Feb 2015 01:07:27 PM PST*
%MOMM*%
G01*
G04 APERTURE LIST*
%ADD10C,0.100000*%
G04 APERTURE END LIST*
D10*
X50800000Y-125730000D02*
G75*
G03X52070000Y-127000000I1270000J0D01*
G01*
X52070000Y-99060000D02*
G75*
G03X50800000Y-100330000I0J-1270000D01*
G01*
X91567000Y-107823000D02*
G75*
G03X92710000Y-107823000I571500J0D01*
G01*
X91567000Y-107823000D02*
G75*
G03X90170000Y-107823000I-698500J0D01*
G01*
X91313001Y-102870000D02*
G75*
G02X92710001Y-102870000I698500J0D01*
G01*
X91313001Y-102870000D02*
G75*
G02X90169999Y-102870000I-571501J0D01*
G01*
X91313001Y-113030000D02*
G75*
G02X92710001Y-113030000I698500J0D01*
G01*
X91313001Y-113030000D02*
G75*
G02X90169999Y-113030000I-571501J0D01*
G01*
X91313001Y-123190000D02*
G75*
G02X90169999Y-123190000I-571501J0D01*
G01*
X91313001Y-123190000D02*
G75*
G02X92710001Y-123190000I698500J0D01*
G01*
X91567000Y-118364000D02*
G75*
G03X90170000Y-118364000I-698500J0D01*
G01*
X91567000Y-118364000D02*
G75*
G03X92710000Y-118364000I571500J0D01*
G01*
X92710000Y-123190000D02*
X92710000Y-127000000D01*
X90170000Y-118364000D02*
X90170000Y-123190000D01*
X92710000Y-113030000D02*
X92710000Y-118364000D01*
X90170000Y-107823000D02*
X90170000Y-113030000D01*
X92710000Y-102870000D02*
X92710000Y-107823000D01*
X90170000Y-99060000D02*
X90170000Y-102870000D01*
X92710000Y-127000000D02*
X52070000Y-127000000D01*
X52070000Y-99060000D02*
X90170000Y-99060000D01*
X50800000Y-125730000D02*
X50800000Y-100330000D01*
M02*
